<?xml version="1.0" encoding="utf-8"?>
<!-- Generator: Adobe Illustrator 19.0.1, SVG Export Plug-In . SVG Version: 6.00 Build 0)  -->
<!DOCTYPE svg PUBLIC "-//W3C//DTD SVG 1.1//EN" "http://www.w3.org/Graphics/SVG/1.1/DTD/svg11.dtd">
<svg version="1.1" id="Vrstva_1" xmlns="http://www.w3.org/2000/svg" xmlns:xlink="http://www.w3.org/1999/xlink" x="0px" y="0px"
	 viewBox="-413 173.9 452 454.1" enable-background="new -413 173.9 452 454.1" xml:space="preserve">
<g>
	<path fill="#FFFFFF" d="M-394.5,231.4h-5.8l-0.7-0.7v-49l0.7-0.7h5.8l0.7,0.7v49L-394.5,231.4z"/>
	<path fill="#FFFFFF" d="M-353.4,231.4h-5.8l-0.7-0.7v-20.9c0-0.9-0.1-1.9-0.2-2.9c-0.1-1-0.5-1.9-1-2.8s-1.2-1.6-2.2-2.1
		c-0.9-0.6-2.2-0.8-3.9-0.8c-3.3,0-5.7,0.9-7.2,2.8c-1.5,1.9-2.2,5-2.2,9.4v17.3l-0.7,0.7h-5.8l-0.7-0.7v-34.6l0.7-0.7h5l0.7,0.7
		l0.7,2.9h0.7c0.7-0.8,1.4-1.5,2.2-2.2c0.8-0.5,1.7-1,2.9-1.5c1.2-0.5,2.6-0.7,4.2-0.7c2.5,0,4.6,0.4,6.4,1.2
		c1.8,0.8,3.2,1.8,4.2,3.2c1.1,1.3,1.9,2.9,2.3,4.8c0.5,1.8,0.7,3.9,0.7,6v20.9L-353.4,231.4z"/>
	<path fill="#FFFFFF" d="M-314.5,231.4h-5l-0.7-0.7l-0.7-2.9h-0.7c-0.7,0.8-1.4,1.5-2.2,2.2c-0.8,0.5-1.7,1-2.9,1.5
		c-1.2,0.5-2.6,0.7-4.2,0.7c-2.5,0-4.8-0.5-6.7-1.4c-1.9-0.9-3.6-2.2-5-3.9c-1.4-1.7-2.4-3.6-3.1-5.9c-0.7-2.3-1-4.8-1-7.5
		c0-2.7,0.3-5.2,1-7.5c0.7-2.3,1.7-4.3,3.1-5.9c1.4-1.7,3-3,5-3.9c1.9-0.9,4.2-1.4,6.7-1.4c1.6,0,3,0.2,4.2,0.7
		c1.2,0.5,2.1,0.9,2.9,1.5c0.8,0.6,1.6,1.3,2.2,2.2h0.7v-17.3l0.7-0.7h5.8l0.7,0.7v49L-314.5,231.4z M-321,213.4
		c0-4.3-0.8-7.4-2.5-9.4c-1.7-1.9-4-2.9-6.8-2.9c-2.9,0-5.2,1-6.8,3.1c-1.7,2.1-2.5,5.1-2.5,9.1s0.8,7.1,2.5,9.1
		c1.7,2.1,4,3.1,6.8,3.1c2.9,0,5.2-1,6.8-2.9C-321.9,220.9-321,217.8-321,213.4z"/>
	<path fill="#FFFFFF" d="M-276.4,231.4h-5l-0.7-0.7l-0.7-2.9h-0.7c-0.6,0.8-1.3,1.5-2.2,2.2c-0.7,0.5-1.6,1-2.7,1.5
		c-1.1,0.5-2.3,0.7-3.8,0.7c-2.5,0-4.7-0.4-6.4-1.3s-3.1-2-4.2-3.3c-1.1-1.4-1.9-3-2.3-4.8c-0.5-1.8-0.7-3.7-0.7-5.7v-20.9l0.7-0.7
		h5.8l0.7,0.7V217c0,1.1,0.1,2.2,0.3,3.2c0.2,1,0.6,1.9,1.1,2.7c0.5,0.8,1.3,1.4,2.2,1.9s2.1,0.8,3.6,0.8c2.5,0,4.6-1,6.2-2.9
		c1.6-1.9,2.4-5,2.4-9.4v-17.3l0.7-0.7h5.8l0.7,0.7v34.6L-276.4,231.4z"/>
	<path fill="#FFFFFF" d="M-240.4,221.4c0,1.4-0.3,2.8-0.8,4.1c-0.6,1.3-1.4,2.4-2.6,3.5c-1.2,1-2.7,1.8-4.5,2.4
		c-1.8,0.6-4,0.9-6.5,0.9c-4.8,0-8.3-1-10.8-3.1c-2.4-2.1-3.6-5.1-3.6-9.1l0.7-0.7h5.8l0.7,0.7c0,1.8,0.6,3.2,1.7,4.2
		c1.1,1,3,1.5,5.5,1.5c2.6,0,4.4-0.4,5.5-1.1c1.1-0.7,1.7-1.8,1.7-3.2c0-0.9-0.2-1.7-0.5-2.2c-0.3-0.6-0.8-1.1-1.5-1.5
		c-0.7-0.4-1.7-0.8-2.9-1c-1.2-0.3-2.7-0.6-4.5-1c-3.6-0.7-6.4-1.8-8.5-3.5c-2-1.7-3.1-4.1-3.1-7.3c0-1.2,0.2-2.5,0.7-3.7
		c0.5-1.2,1.3-2.3,2.3-3.2c1.1-0.9,2.5-1.7,4.2-2.3c1.7-0.6,3.9-0.9,6.4-0.9c2,0,3.8,0.2,5.5,0.7c1.7,0.5,3.1,1.1,4.4,2
		c1.2,0.9,2.2,2,2.8,3.4c0.7,1.4,1,2.9,1,4.7l-0.7,0.7h-5.8l-0.7-0.7c0-0.5-0.1-1.1-0.3-1.6c-0.2-0.5-0.5-1-1-1.4
		c-0.5-0.4-1.2-0.7-2-1c-0.8-0.2-1.9-0.4-3.1-0.4c-1.8,0-3.4,0.2-4.6,0.7c-1.2,0.5-1.9,1.4-1.9,2.9c0,0.9,0.2,1.7,0.5,2.2
		c0.4,0.6,0.9,1.1,1.8,1.5c0.8,0.4,1.9,0.8,3.1,1.1c1.3,0.3,2.8,0.6,4.6,1c3.6,0.7,6.3,1.9,8.1,3.5
		C-241.3,215.7-240.4,218.1-240.4,221.4z"/>
	<path fill="#FFFFFF" d="M-214.5,231.4h-5.8c-1.2,0-2.5-0.2-3.7-0.5s-2.3-0.9-3.2-1.7c-0.9-0.8-1.7-1.7-2.3-2.9
		c-0.6-1.2-0.9-2.6-0.9-4.2v-19.4l-0.7-0.7h-5l-0.7-0.7v-5l0.7-0.7h5l0.7-0.7v-6.5l0.7-0.7h5.8l0.7,0.7v6.5l0.7,0.7h7.9l0.7,0.7v5
		l-0.7,0.7h-7.9l-0.7,0.7v19.4c0,1.1,0.3,1.9,0.9,2.3c0.6,0.4,1.3,0.6,2,0.6h5.8l0.7,0.7v5L-214.5,231.4z"/>
	<path fill="#FFFFFF" d="M-186.4,201.9h-3.6c-1.4,0-2.7,0.2-3.9,0.5c-1.2,0.3-2.1,0.9-3,1.7c-0.8,0.8-1.4,1.9-1.9,3.3
		c-0.4,1.4-0.6,3.2-0.6,5.3v18l-0.7,0.7h-5.8l-0.7-0.7v-34.6l0.7-0.7h5l0.7,0.7l0.7,2.9h0.7c0.5-0.5,1.1-1,1.7-1.5
		c0.6-0.5,1.2-0.8,1.9-1.2c0.7-0.3,1.5-0.6,2.5-0.7c0.9-0.2,2-0.3,3.3-0.3h2.9l0.7,0.7v5L-186.4,201.9z"/>
	<path fill="#FFFFFF" d="M-154,231.4h-5l-0.7-0.7l-0.7-2.9h-0.7c-0.7,0.8-1.5,1.5-2.4,2.2c-0.8,0.5-1.8,1-3.1,1.5
		c-1.2,0.5-2.8,0.7-4.6,0.7c-4,0-7.1-1-9.1-3.1c-2.1-2-3.1-4.9-3.1-8.5c0-2,0.4-3.7,1.2-5.1c0.8-1.5,1.8-2.7,3.2-3.6
		c1.4-0.9,3.1-1.6,5-2.1c1.9-0.5,4.1-0.7,6.4-0.7c0.9,0,1.8,0,2.6,0.1s1.5,0.2,2.1,0.3c0.3,0.1,0.7,0.2,1,0.2c0.3,0,0.6,0.1,0.9,0.1
		l0.7-0.7v-1.4c0-2.5-0.6-4.3-1.7-5.1c-1.1-0.9-3-1.3-5.5-1.3c-2.6,0-4.4,0.4-5.5,1.1c-1.1,0.7-1.7,1.8-1.7,3.2l-0.7,0.7h-5.8
		l-0.7-0.7c0-1.2,0.2-2.5,0.7-3.8c0.5-1.3,1.3-2.5,2.4-3.5c1.1-1,2.6-1.9,4.5-2.5c1.8-0.6,4.1-1,6.8-1c2.7,0,5,0.3,6.8,1
		s3.3,1.6,4.5,2.9s1.9,2.9,2.4,4.9c0.5,2,0.7,4.3,0.7,7v20.2L-154,231.4z M-160.5,216.3l-0.7-0.7l-1.5-0.4c-0.5-0.1-1.1-0.2-1.8-0.3
		c-0.7-0.1-1.5-0.1-2.4-0.1c-3.3,0-5.7,0.5-7.2,1.5c-1.5,1-2.2,2.4-2.2,4.2s0.5,3.1,1.6,3.9c1.1,0.8,2.7,1.2,4.9,1.2
		c2.9,0,5.2-0.7,6.8-2c1.7-1.3,2.5-3.1,2.5-5.2V216.3z"/>
	<path fill="#FFFFFF" d="M-349.1,303.4h-5.8l-0.7-0.7v-34.6h-0.7l-14.4,34.6l-0.7,0.7h-6.5l-0.7-0.7l-14.4-34.6h-0.7v34.6l-0.7,0.7
		h-5.8l-0.7-0.7v-49l0.7-0.7h7.9l0.7,0.7l16.6,40.3h0.7l16.6-40.3l0.7-0.7h7.9l0.7,0.7v49L-349.1,303.4z"/>
	<path fill="#FFFFFF" d="M-310.9,303.4h-5l-0.7-0.7l-0.7-2.9h-0.7c-0.7,0.8-1.5,1.5-2.4,2.2c-0.8,0.5-1.8,1-3.1,1.5
		c-1.2,0.5-2.8,0.7-4.6,0.7c-4,0-7.1-1-9.1-3.1c-2.1-2-3.1-4.9-3.1-8.5c0-2,0.4-3.7,1.2-5.1c0.8-1.5,1.8-2.7,3.2-3.6
		c1.4-0.9,3.1-1.6,5-2.1c1.9-0.5,4.1-0.7,6.4-0.7c0.9,0,1.8,0,2.6,0.1s1.5,0.2,2.1,0.3c0.3,0.1,0.7,0.2,1,0.2c0.3,0,0.6,0.1,0.9,0.1
		l0.7-0.7v-1.4c0-2.5-0.6-4.3-1.7-5.1c-1.1-0.9-3-1.3-5.5-1.3c-2.6,0-4.4,0.4-5.5,1.1c-1.1,0.7-1.7,1.8-1.7,3.2l-0.7,0.7h-5.8
		l-0.7-0.7c0-1.2,0.2-2.5,0.7-3.8c0.5-1.3,1.3-2.5,2.4-3.5c1.1-1,2.6-1.9,4.5-2.5c1.8-0.6,4.1-1,6.8-1c2.7,0,5,0.3,6.8,1
		c1.8,0.6,3.3,1.6,4.5,2.9c1.1,1.3,1.9,2.9,2.4,4.9c0.5,2,0.7,4.3,0.7,7v20.2L-310.9,303.4z M-317.4,288.3l-0.7-0.7l-1.5-0.4
		c-0.5-0.1-1.1-0.2-1.8-0.3c-0.7-0.1-1.5-0.1-2.4-0.1c-3.3,0-5.7,0.5-7.2,1.5c-1.5,1-2.2,2.4-2.2,4.2s0.5,3.1,1.6,3.9
		c1.1,0.8,2.7,1.2,4.9,1.2c2.9,0,5.2-0.7,6.8-2c1.7-1.3,2.5-3.1,2.5-5.2V288.3z"/>
	<path fill="#FFFFFF" d="M-275.7,293.4c0,1.4-0.3,2.8-0.8,4.1c-0.6,1.3-1.4,2.4-2.6,3.5c-1.2,1-2.7,1.8-4.5,2.4
		c-1.8,0.6-4,0.9-6.5,0.9c-4.8,0-8.3-1-10.8-3.1c-2.4-2.1-3.6-5.1-3.6-9.1l0.7-0.7h5.8l0.7,0.7c0,1.8,0.6,3.2,1.7,4.2
		c1.1,1,3,1.5,5.5,1.5c2.6,0,4.4-0.4,5.5-1.1c1.1-0.7,1.7-1.8,1.7-3.2c0-0.9-0.2-1.7-0.5-2.2c-0.3-0.6-0.8-1.1-1.5-1.5
		c-0.7-0.4-1.7-0.8-2.9-1c-1.2-0.3-2.7-0.6-4.5-1c-3.6-0.7-6.4-1.8-8.5-3.5c-2-1.7-3.1-4.1-3.1-7.3c0-1.2,0.2-2.5,0.7-3.7
		c0.5-1.2,1.3-2.3,2.3-3.2c1.1-0.9,2.5-1.7,4.2-2.3c1.7-0.6,3.9-0.9,6.4-0.9c2,0,3.8,0.2,5.5,0.7c1.7,0.5,3.1,1.1,4.4,2
		c1.2,0.9,2.2,2,2.8,3.4c0.7,1.4,1,2.9,1,4.7l-0.7,0.7h-5.8l-0.7-0.7c0-0.5-0.1-1.1-0.3-1.6c-0.2-0.5-0.5-1-1-1.4
		c-0.5-0.4-1.2-0.7-2-1c-0.8-0.2-1.9-0.4-3.1-0.4c-1.8,0-3.4,0.2-4.6,0.7c-1.2,0.5-1.9,1.4-1.9,2.9c0,0.9,0.2,1.7,0.5,2.2
		c0.4,0.6,0.9,1.1,1.8,1.5c0.8,0.4,1.9,0.8,3.1,1.1c1.3,0.3,2.8,0.6,4.6,1c3.6,0.7,6.3,1.9,8.1,3.5
		C-276.6,287.7-275.7,290.1-275.7,293.4z"/>
	<path fill="#FFFFFF" d="M-238.9,303.4h-5.8l-0.7-0.7v-20.9c0-0.9-0.1-1.9-0.2-2.9c-0.1-1-0.5-1.9-1-2.8s-1.2-1.6-2.2-2.1
		c-0.9-0.6-2.2-0.8-3.9-0.8c-3.3,0-5.7,0.9-7.2,2.8c-1.5,1.9-2.2,5-2.2,9.4v17.3l-0.7,0.7h-5.8l-0.7-0.7v-34.6l0.7-0.7h5l0.7,0.7
		l0.7,2.9h0.7c0.7-0.8,1.4-1.5,2.2-2.2c0.8-0.5,1.7-1,2.9-1.5c1.2-0.5,2.6-0.7,4.2-0.7c2.5,0,4.6,0.4,6.4,1.2
		c1.8,0.8,3.2,1.8,4.2,3.2c1.1,1.3,1.9,2.9,2.3,4.8c0.5,1.8,0.7,3.9,0.7,6v20.9L-238.9,303.4z"/>
	<path fill="#FFFFFF" d="M-202.9,303.4h-5l-0.7-0.7l-0.7-2.9h-0.7c-0.7,0.8-1.5,1.5-2.4,2.2c-0.8,0.5-1.8,1-3.1,1.5
		c-1.2,0.5-2.8,0.7-4.6,0.7c-4,0-7.1-1-9.1-3.1c-2.1-2-3.1-4.9-3.1-8.5c0-2,0.4-3.7,1.2-5.1c0.8-1.5,1.8-2.7,3.2-3.6
		c1.4-0.9,3.1-1.6,5-2.1c1.9-0.5,4.1-0.7,6.4-0.7c0.9,0,1.8,0,2.6,0.1s1.5,0.2,2.1,0.3c0.3,0.1,0.7,0.2,1,0.2c0.3,0,0.6,0.1,0.9,0.1
		l0.7-0.7v-1.4c0-2.5-0.6-4.3-1.7-5.1c-1.1-0.9-3-1.3-5.5-1.3c-2.6,0-4.4,0.4-5.5,1.1c-1.1,0.7-1.7,1.8-1.7,3.2l-0.7,0.7h-5.8
		l-0.7-0.7c0-1.2,0.2-2.5,0.7-3.8c0.5-1.3,1.3-2.5,2.4-3.5c1.1-1,2.6-1.9,4.5-2.5c1.8-0.6,4.1-1,6.8-1c2.7,0,5,0.3,6.8,1
		c1.8,0.6,3.3,1.6,4.5,2.9c1.1,1.3,1.9,2.9,2.4,4.9c0.5,2,0.7,4.3,0.7,7v20.2L-202.9,303.4z M-209.4,288.3l-0.7-0.7l-1.5-0.4
		c-0.5-0.1-1.1-0.2-1.8-0.3c-0.7-0.1-1.5-0.1-2.4-0.1c-3.3,0-5.7,0.5-7.2,1.5c-1.5,1-2.2,2.4-2.2,4.2s0.5,3.1,1.6,3.9
		c1.1,0.8,2.7,1.2,4.9,1.2c2.9,0,5.2-0.7,6.8-2c1.7-1.3,2.5-3.1,2.5-5.2V288.3z M-215.9,262.4l-1.4,0.7h-3.6l-0.7-0.7V261l6.5-7.2
		l1.4-0.7h5l0.7,0.7v1.4L-215.9,262.4z"/>
	<path fill="#FFFFFF" d="M-142.5,276.8c0,5-0.4,9.3-1.2,12.8c-0.8,3.5-2,6.3-3.6,8.5c-1.6,2.2-3.5,3.7-5.9,4.7c-2.3,1-5,1.4-8.1,1.4
		c-4,0-7.3-1-9.9-3.1s-4.1-5.1-4.5-9.1l0.7-0.7h5.8l0.7,0.7c0.4,2.2,1.3,3.7,2.6,4.5c1.4,0.8,3.1,1.3,5.3,1.3c1.7,0,3.1-0.3,4.2-0.9
		s2.1-1.3,2.8-2.3c0.7-0.9,1.3-2,1.7-3.2c0.4-1.2,0.7-2.4,0.9-3.5c0.2-1.2,0.3-2.3,0.3-3.3c0-1.1,0-1.9,0-2.7h-0.7
		c-0.3,0.3-0.7,0.7-1.1,1c-0.4,0.3-0.8,0.6-1.3,0.8c-0.8,0.5-1.8,0.9-3.1,1.3c-1.2,0.4-2.8,0.5-4.6,0.5c-2.4,0-4.5-0.4-6.4-1.2
		c-1.9-0.8-3.6-1.9-5-3.3c-1.4-1.4-2.5-3.2-3.2-5.2c-0.8-2-1.2-4.3-1.2-6.9c0-2.7,0.4-5.1,1.3-7.1c0.8-2.1,2-3.8,3.5-5.2
		c1.5-1.4,3.2-2.4,5.3-3.2c2-0.7,4.2-1.1,6.6-1.1c2.9,0,5.4,0.4,7.7,1.2s4.1,2.1,5.7,4c1.5,1.9,2.7,4.4,3.5,7.6
		C-142.9,268.3-142.5,272.2-142.5,276.8z M-169.8,268.9c0,3.3,0.8,5.8,2.5,7.5c1.7,1.7,4,2.6,6.8,2.6c3.3,0,5.8-0.9,7.5-2.6
		c1.7-1.7,2.6-4.2,2.6-7.5c0-3.6-1-6.2-2.9-7.7c-1.9-1.6-4.3-2.3-7.2-2.3s-5.2,0.9-6.8,2.6C-169,263.1-169.8,265.6-169.8,268.9z"/>
	<path fill="#FFFFFF" d="M-363.5,361c0,2.7-0.4,5-1.3,6.8c-0.8,1.8-2,3.3-3.3,4.5c-1.4,1.1-3,1.9-4.8,2.4c-1.8,0.5-3.7,0.7-5.7,0.7
		h-21.6l-0.7-0.7v-49l0.7-0.7h20.2c2,0,3.9,0.2,5.7,0.7c1.8,0.5,3.4,1.3,4.8,2.3c1.4,1.1,2.5,2.5,3.3,4.2c0.8,1.8,1.3,3.9,1.3,6.4
		c0,2.6-0.6,4.7-1.9,6.4c-1.2,1.7-2.8,2.9-4.6,3.6v0.7c2.2,0.7,4,2,5.6,3.9C-364.3,355.3-363.5,357.8-363.5,361z M-372.1,338.7
		c0-2.9-0.8-4.8-2.3-5.8c-1.5-1-3.9-1.4-7.1-1.4H-393l-0.7,0.7v13l0.7,0.7h12.2c2.9,0,5-0.5,6.5-1.4
		C-372.9,343.5-372.1,341.6-372.1,338.7z M-370.7,361c0-3.2-0.8-5.5-2.3-6.7c-1.6-1.3-4.1-1.9-7.7-1.9H-393l-0.7,0.7v15.1l0.7,0.7
		h13.7c2.9,0,5-0.6,6.5-1.8C-371.4,366-370.7,363.9-370.7,361z"/>
	<path fill="#FFFFFF" d="M-336.1,345.9h-3.6c-1.4,0-2.7,0.2-3.9,0.5c-1.2,0.3-2.1,0.9-3,1.7c-0.8,0.8-1.4,1.9-1.9,3.3
		c-0.4,1.4-0.6,3.2-0.6,5.3v18l-0.7,0.7h-5.8l-0.7-0.7v-34.6l0.7-0.7h5l0.7,0.7l0.7,2.9h0.7c0.5-0.5,1.1-1,1.7-1.5
		c0.6-0.5,1.2-0.8,1.9-1.2c0.7-0.3,1.5-0.6,2.5-0.7c0.9-0.2,2-0.3,3.3-0.3h2.9l0.7,0.7v5L-336.1,345.9z"/>
	<path fill="#FFFFFF" d="M-299.4,375.4h-5.8l-0.7-0.7v-20.9c0-0.9-0.1-1.9-0.2-2.9c-0.1-1-0.5-1.9-1-2.8s-1.2-1.6-2.2-2.1
		c-0.9-0.6-2.2-0.8-3.9-0.8c-3.3,0-5.7,0.9-7.2,2.8c-1.5,1.9-2.2,5-2.2,9.4v17.3l-0.7,0.7h-5.8l-0.7-0.7v-34.6l0.7-0.7h5l0.7,0.7
		l0.7,2.9h0.7c0.7-0.8,1.4-1.5,2.2-2.2c0.8-0.5,1.7-1,2.9-1.5c1.2-0.5,2.6-0.7,4.2-0.7c2.5,0,4.6,0.4,6.4,1.2
		c1.8,0.8,3.2,1.8,4.2,3.2c1.1,1.3,1.9,2.9,2.3,4.8c0.5,1.8,0.7,3.9,0.7,6v20.9L-299.4,375.4z"/>
	<path fill="#FFFFFF" d="M-292.9,357.4c0-2.9,0.4-5.5,1.2-7.8c0.8-2.3,1.9-4.3,3.4-5.9c1.5-1.6,3.3-2.9,5.4-3.7
		c2.1-0.9,4.5-1.3,7.2-1.3c2.7,0,5.1,0.4,7.2,1.3c2.1,0.9,3.9,2.1,5.4,3.7c1.5,1.6,2.6,3.6,3.4,5.9c0.8,2.3,1.2,4.9,1.2,7.8
		s-0.4,5.5-1.2,7.8c-0.8,2.3-1.9,4.3-3.4,5.9c-1.5,1.6-3.3,2.9-5.4,3.7c-2.1,0.9-4.5,1.3-7.2,1.3c-2.7,0-5.1-0.4-7.2-1.3
		c-2.1-0.9-3.9-2.1-5.4-3.7c-1.5-1.6-2.6-3.6-3.4-5.9C-292.5,362.9-292.9,360.3-292.9,357.4z M-285.7,357.4c0,4,0.9,7.1,2.6,9.1
		c1.7,2.1,4.2,3.1,7.5,3.1s5.8-1,7.5-3.1c1.7-2.1,2.6-5.1,2.6-9.1s-0.9-7.1-2.6-9.1c-1.7-2.1-4.2-3.1-7.5-3.1s-5.8,1-7.5,3.1
		C-284.9,350.4-285.7,353.4-285.7,357.4z"/>
	<path fill="#FFFFFF" d="M-231.7,360.3h-19.4l-0.7-0.7v-5l0.7-0.7h19.4l0.7,0.7v5L-231.7,360.3z"/>
	<path fill="#FFFFFF" d="M-194.3,331.5h-15.1l-0.7,0.7v42.5l-0.7,0.7h-5.8l-0.7-0.7v-42.5l-0.7-0.7h-15.1l-0.7-0.7v-5l0.7-0.7h38.9
		l0.7,0.7v5L-194.3,331.5z"/>
	<path fill="#FFFFFF" d="M-174.9,345.9h-3.6c-1.4,0-2.7,0.2-3.9,0.5c-1.2,0.3-2.1,0.9-3,1.7c-0.8,0.8-1.4,1.9-1.9,3.3
		c-0.4,1.4-0.6,3.2-0.6,5.3v18l-0.7,0.7h-5.8l-0.7-0.7v-34.6l0.7-0.7h5l0.7,0.7l0.7,2.9h0.7c0.5-0.5,1.1-1,1.7-1.5
		c0.6-0.5,1.2-0.8,1.9-1.2c0.7-0.3,1.5-0.6,2.5-0.7c0.9-0.2,2-0.3,3.3-0.3h2.9l0.7,0.7v5L-174.9,345.9z"/>
	<path fill="#FFFFFF" d="M-138.1,375.4h-5.8l-0.7-0.7v-20.9c0-0.9-0.1-1.9-0.2-2.9c-0.1-1-0.5-1.9-1-2.8c-0.5-0.9-1.2-1.6-2.2-2.1
		c-0.9-0.6-2.2-0.8-3.9-0.8c-3.3,0-5.7,0.9-7.2,2.8c-1.5,1.9-2.2,5-2.2,9.4v17.3l-0.7,0.7h-5.8l-0.7-0.7v-34.6l0.7-0.7h5l0.7,0.7
		l0.7,2.9h0.7c0.7-0.8,1.4-1.5,2.2-2.2c0.8-0.5,1.7-1,2.9-1.5c1.2-0.5,2.6-0.7,4.2-0.7c2.5,0,4.6,0.4,6.4,1.2
		c1.8,0.8,3.2,1.8,4.2,3.2c1.1,1.3,1.9,2.9,2.3,4.8c0.5,1.8,0.7,3.9,0.7,6v20.9L-138.1,375.4z"/>
	<path fill="#FFFFFF" d="M-123,333.7h-5.8l-0.7-0.7v-5.8l0.7-0.7h5.8l0.7,0.7v5.8L-123,333.7z M-123,375.4h-5.8l-0.7-0.7v-34.6
		l0.7-0.7h5.8l0.7,0.7v34.6L-123,375.4z"/>
	<path fill="#FFFFFF" d="M-94.2,375.4h-5.8c-1.2,0-2.5-0.2-3.7-0.5s-2.3-0.9-3.2-1.7c-0.9-0.8-1.7-1.7-2.3-2.9
		c-0.6-1.2-0.9-2.6-0.9-4.2v-19.4l-0.7-0.7h-5l-0.7-0.7v-5l0.7-0.7h5l0.7-0.7v-6.5l0.7-0.7h5.8l0.7,0.7v6.5l0.7,0.7h7.9l0.7,0.7v5
		l-0.7,0.7h-7.9l-0.7,0.7v19.4c0,1.1,0.3,1.9,0.9,2.3c0.6,0.4,1.3,0.6,2,0.6h5.8l0.7,0.7v5L-94.2,375.4z"/>
	<path fill="#FFFFFF" d="M-58.9,375.4h-5l-0.7-0.7l-0.7-2.9h-0.7c-0.7,0.8-1.5,1.5-2.4,2.2c-0.8,0.5-1.8,1-3.1,1.5
		c-1.2,0.5-2.8,0.7-4.6,0.7c-4,0-7.1-1-9.1-3.1c-2.1-2-3.1-4.9-3.1-8.5c0-2,0.4-3.7,1.2-5.1c0.8-1.5,1.8-2.7,3.2-3.6
		c1.4-0.9,3.1-1.6,5-2.1c1.9-0.5,4.1-0.7,6.4-0.7c0.9,0,1.8,0,2.6,0.1s1.5,0.2,2.1,0.3c0.3,0.1,0.7,0.2,1,0.2c0.3,0,0.6,0.1,0.9,0.1
		l0.7-0.7v-1.4c0-2.5-0.6-4.3-1.7-5.1c-1.1-0.9-3-1.3-5.5-1.3c-2.6,0-4.4,0.4-5.5,1.1c-1.1,0.7-1.7,1.8-1.7,3.2l-0.7,0.7h-5.8
		l-0.7-0.7c0-1.2,0.2-2.5,0.7-3.8c0.5-1.3,1.3-2.5,2.4-3.5c1.1-1,2.6-1.9,4.5-2.5c1.8-0.6,4.1-1,6.8-1c2.7,0,5,0.3,6.8,1
		s3.3,1.6,4.5,2.9s1.9,2.9,2.4,4.9c0.5,2,0.7,4.3,0.7,7v20.2L-58.9,375.4z M-65.4,360.3l-0.7-0.7l-1.5-0.4c-0.5-0.1-1.1-0.2-1.8-0.3
		c-0.7-0.1-1.5-0.1-2.4-0.1c-3.3,0-5.7,0.5-7.2,1.5c-1.5,1-2.2,2.4-2.2,4.2s0.5,3.1,1.6,3.9c1.1,0.8,2.7,1.2,4.9,1.2
		c2.9,0,5.2-0.7,6.8-2c1.7-1.3,2.5-3.1,2.5-5.2V360.3z M-71.9,334.4l-1.4,0.7h-3.6l-0.7-0.7V333l6.5-7.2l1.4-0.7h5l0.7,0.7v1.4
		L-71.9,334.4z"/>
	<path fill="#FFFFFF" d="M-380.1,520.2c-3.8,0-7.2-0.6-10.1-1.9c-3-1.3-5.4-3.1-7.5-5.4c-2-2.3-3.6-5-4.6-8.2
		c-1.1-3.2-1.6-6.6-1.6-10.4c0-3.8,0.5-7.3,1.6-10.4c1.1-3.2,2.6-5.9,4.6-8.2c2-2.3,4.5-4.1,7.5-5.4c3-1.3,6.3-1.9,10.1-1.9
		c2.9,0,5.5,0.4,7.8,1.2c2.3,0.8,4.3,1.8,6,3.2c1.7,1.3,3.1,2.9,4.1,4.8c1.1,1.8,1.8,3.9,2.2,6l-0.7,0.7h-5.8l-0.7-0.7
		c-0.7-2.6-2.2-4.7-4.3-6.3c-2.2-1.6-5-2.4-8.6-2.4c-2.7,0-5.1,0.5-7.1,1.4c-2.1,0.9-3.8,2.3-5.2,4c-1.4,1.7-2.4,3.8-3.2,6.2
		c-0.7,2.4-1.1,5-1.1,7.9s0.4,5.5,1.1,7.9c0.7,2.4,1.8,4.4,3.2,6.2c1.4,1.7,3.1,3.1,5.2,4c2.1,0.9,4.4,1.4,7.1,1.4
		c2,0,3.7-0.3,5.1-0.8c1.5-0.5,2.7-1.2,3.7-2.1c1-0.9,1.9-1.9,2.5-3c0.6-1.1,1.2-2.3,1.5-3.6l0.7-0.7h5.8l0.7,0.7
		c-0.4,2.2-1.1,4.2-2.1,6.1c-1,1.9-2.3,3.6-4,5c-1.7,1.4-3.7,2.6-6,3.4C-374.3,519.7-377,520.2-380.1,520.2z"/>
	<path fill="#FFFFFF" d="M-354.9,501.4c0-2.9,0.4-5.5,1.2-7.8c0.8-2.3,1.9-4.3,3.4-5.9c1.5-1.6,3.3-2.9,5.4-3.7
		c2.1-0.9,4.5-1.3,7.2-1.3c2.7,0,5.1,0.4,7.2,1.3c2.1,0.9,3.9,2.1,5.4,3.7c1.5,1.6,2.6,3.6,3.4,5.9c0.8,2.3,1.2,4.9,1.2,7.8
		s-0.4,5.5-1.2,7.8c-0.8,2.3-1.9,4.3-3.4,5.9c-1.5,1.6-3.3,2.9-5.4,3.7c-2.1,0.9-4.5,1.3-7.2,1.3c-2.7,0-5.1-0.4-7.2-1.3
		c-2.1-0.9-3.9-2.1-5.4-3.7c-1.5-1.6-2.6-3.6-3.4-5.9C-354.5,506.9-354.9,504.3-354.9,501.4z M-347.7,501.4c0,4,0.9,7.1,2.6,9.1
		c1.7,2.1,4.2,3.1,7.5,3.1s5.8-1,7.5-3.1c1.7-2.1,2.6-5.1,2.6-9.1s-0.9-7.1-2.6-9.1c-1.7-2.1-4.2-3.1-7.5-3.1s-5.8,1-7.5,3.1
		C-346.8,494.4-347.7,497.4-347.7,501.4z"/>
	<path fill="#FFFFFF" d="M-307.3,519.4h-5.8l-0.7-0.7v-49l0.7-0.7h5.8l0.7,0.7v49L-307.3,519.4z"/>
	<path fill="#FFFFFF" d="M-267.7,519.4h-5l-0.7-0.7l-0.7-2.9h-0.7c-0.7,0.8-1.4,1.5-2.2,2.2c-0.8,0.5-1.7,1-2.9,1.5
		c-1.2,0.5-2.6,0.7-4.2,0.7c-2.5,0-4.8-0.5-6.7-1.4c-1.9-0.9-3.6-2.2-5-3.9c-1.4-1.7-2.4-3.6-3.1-5.9c-0.7-2.3-1-4.8-1-7.5
		c0-2.7,0.3-5.2,1-7.5c0.7-2.3,1.7-4.3,3.1-5.9c1.4-1.7,3-3,5-3.9c1.9-0.9,4.2-1.4,6.7-1.4c1.6,0,3,0.2,4.2,0.7
		c1.2,0.5,2.1,0.9,2.9,1.5c0.8,0.6,1.6,1.3,2.2,2.2h0.7v-17.3l0.7-0.7h5.8l0.7,0.7v49L-267.7,519.4z M-274.2,501.4
		c0-4.3-0.8-7.4-2.5-9.4c-1.7-1.9-4-2.9-6.8-2.9c-2.9,0-5.2,1-6.8,3.1c-1.7,2.1-2.5,5.1-2.5,9.1s0.8,7.1,2.5,9.1
		c1.7,2.1,4,3.1,6.8,3.1c2.9,0,5.2-1,6.8-2.9C-275.1,508.9-274.2,505.8-274.2,501.4z"/>
	<path fill="#FFFFFF" d="M-201.5,505.8c0,2-0.4,3.8-1.1,5.6c-0.7,1.8-1.9,3.3-3.5,4.6s-3.6,2.3-6,3.1c-2.4,0.8-5.4,1.2-8.8,1.2
		c-3.1,0-5.8-0.4-8.3-1.1c-2.5-0.7-4.6-1.8-6.3-3.2c-1.8-1.4-3.1-3.1-4.1-5.2c-1-2.1-1.4-4.4-1.4-7.1l0.7-0.7h5.8l0.7,0.7
		c0,3.6,1.2,6.2,3.6,7.7c2.4,1.6,5.7,2.3,10.1,2.3c1.6,0,3.1-0.1,4.5-0.4c1.4-0.3,2.6-0.7,3.6-1.4c1-0.6,1.8-1.4,2.4-2.4
		c0.6-1,0.9-2.2,0.9-3.7c0-1.6-0.3-3-0.8-4c-0.6-1-1.4-1.9-2.6-2.6c-1.2-0.7-2.7-1.2-4.5-1.6c-1.8-0.4-4-0.8-6.5-1.2
		c-5-0.7-9.1-2.2-12.1-4.5c-3-2.3-4.5-5.6-4.5-9.9c0-1.6,0.3-3.3,1-4.9c0.6-1.6,1.7-3.1,3.1-4.4c1.4-1.3,3.3-2.4,5.6-3.2
		c2.3-0.8,5.1-1.2,8.3-1.2c2.7,0,5.2,0.3,7.5,0.8c2.3,0.6,4.3,1.4,5.9,2.7c1.7,1.2,3,2.8,3.9,4.7c0.9,1.9,1.4,4.2,1.4,6.9l-0.7,0.7
		h-5.8l-0.7-0.7c0-1.4-0.2-2.7-0.6-3.8c-0.4-1.1-1.1-2-2-2.7c-0.9-0.7-2.2-1.3-3.7-1.6c-1.6-0.4-3.5-0.5-5.9-0.5
		c-3.3,0-5.8,0.7-7.5,2c-1.7,1.3-2.6,3.1-2.6,5.2c0,1.4,0.2,2.6,0.7,3.6c0.5,0.9,1.3,1.7,2.3,2.4s2.5,1.2,4.2,1.6
		c1.7,0.4,3.9,0.8,6.4,1.1c2.5,0.4,4.8,0.9,6.9,1.6c2.1,0.7,4,1.6,5.5,2.7c1.5,1.2,2.7,2.6,3.6,4.4
		C-201.9,501.1-201.5,503.2-201.5,505.8z"/>
	<path fill="#FFFFFF" d="M-174.9,519.4h-5.8c-1.2,0-2.5-0.2-3.7-0.5c-1.2-0.4-2.3-0.9-3.2-1.7c-0.9-0.8-1.7-1.7-2.3-2.9
		c-0.6-1.2-0.9-2.6-0.9-4.2v-19.4l-0.7-0.7h-5l-0.7-0.7v-5l0.7-0.7h5l0.7-0.7v-6.5l0.7-0.7h5.8l0.7,0.7v6.5l0.7,0.7h7.9l0.7,0.7v5
		l-0.7,0.7h-7.9l-0.7,0.7v19.4c0,1.1,0.3,1.9,0.9,2.3c0.6,0.4,1.3,0.6,2,0.6h5.8l0.7,0.7v5L-174.9,519.4z"/>
	<path fill="#FFFFFF" d="M-170.5,501.4c0-2.9,0.4-5.5,1.2-7.8c0.8-2.3,1.9-4.3,3.4-5.9c1.5-1.6,3.3-2.9,5.4-3.7
		c2.1-0.9,4.5-1.3,7.2-1.3c2.7,0,5.1,0.4,7.2,1.3s3.9,2.1,5.4,3.7c1.5,1.6,2.6,3.6,3.4,5.9c0.8,2.3,1.2,4.9,1.2,7.8
		s-0.4,5.5-1.2,7.8c-0.8,2.3-1.9,4.3-3.4,5.9c-1.5,1.6-3.3,2.9-5.4,3.7s-4.5,1.3-7.2,1.3c-2.7,0-5.1-0.4-7.2-1.3
		c-2.1-0.9-3.9-2.1-5.4-3.7c-1.5-1.6-2.6-3.6-3.4-5.9C-170.1,506.9-170.5,504.3-170.5,501.4z M-163.3,501.4c0,4,0.9,7.1,2.6,9.1
		c1.7,2.1,4.2,3.1,7.5,3.1c3.3,0,5.8-1,7.5-3.1c1.7-2.1,2.6-5.1,2.6-9.1s-0.9-7.1-2.6-9.1c-1.7-2.1-4.2-3.1-7.5-3.1
		c-3.3,0-5.8,1-7.5,3.1C-162.5,494.4-163.3,497.4-163.3,501.4z"/>
	<path fill="#FFFFFF" d="M-109.3,489.9h-3.6c-1.4,0-2.7,0.2-3.9,0.5c-1.2,0.3-2.1,0.9-3,1.7c-0.8,0.8-1.4,1.9-1.9,3.3
		c-0.4,1.4-0.6,3.2-0.6,5.3v18l-0.7,0.7h-5.8l-0.7-0.7v-34.6l0.7-0.7h5l0.7,0.7l0.7,2.9h0.7c0.5-0.5,1.1-1,1.7-1.5
		c0.6-0.5,1.2-0.8,1.9-1.2c0.7-0.3,1.5-0.6,2.5-0.7c0.9-0.2,2-0.3,3.3-0.3h2.9l0.7,0.7v5L-109.3,489.9z"/>
	<path fill="#FFFFFF" d="M-76.9,519.4h-5l-0.7-0.7l-0.7-2.9h-0.7c-0.7,0.8-1.5,1.5-2.4,2.2c-0.8,0.5-1.8,1-3.1,1.5
		c-1.2,0.5-2.8,0.7-4.6,0.7c-4,0-7.1-1-9.1-3.1c-2.1-2-3.1-4.9-3.1-8.5c0-2,0.4-3.7,1.2-5.1c0.8-1.5,1.8-2.7,3.2-3.6
		c1.4-0.9,3.1-1.6,5-2.1c1.9-0.5,4.1-0.7,6.4-0.7c0.9,0,1.8,0,2.6,0.1s1.5,0.2,2.1,0.3c0.3,0.1,0.7,0.2,1,0.2c0.3,0,0.6,0.1,0.9,0.1
		l0.7-0.7v-1.4c0-2.5-0.6-4.3-1.7-5.1c-1.1-0.9-3-1.3-5.5-1.3c-2.6,0-4.4,0.4-5.5,1.1c-1.1,0.7-1.7,1.8-1.7,3.2l-0.7,0.7h-5.8
		l-0.7-0.7c0-1.2,0.2-2.5,0.7-3.8c0.5-1.3,1.3-2.5,2.4-3.5c1.1-1,2.6-1.9,4.5-2.5c1.8-0.6,4.1-1,6.8-1c2.7,0,5,0.3,6.8,1
		s3.3,1.6,4.5,2.9s1.9,2.9,2.4,4.9c0.5,2,0.7,4.3,0.7,7v20.2L-76.9,519.4z M-83.4,504.3l-0.7-0.7l-1.5-0.4c-0.5-0.1-1.1-0.2-1.8-0.3
		c-0.7-0.1-1.5-0.1-2.4-0.1c-3.3,0-5.7,0.5-7.2,1.5c-1.5,1-2.2,2.4-2.2,4.2s0.5,3.1,1.6,3.9c1.1,0.8,2.7,1.2,4.9,1.2
		c2.9,0,5.2-0.7,6.8-2c1.7-1.3,2.5-3.1,2.5-5.2V504.3z"/>
	<path fill="#FFFFFF" d="M-53.9,528.1c3.3,0,5.7-1,7.2-3.1c1.5-2.1,2.2-5.1,2.2-9.1h-0.7c-0.7,0.8-1.4,1.5-2.2,2.2
		c-0.8,0.5-1.7,1-2.9,1.5c-1.2,0.5-2.6,0.7-4.2,0.7c-2.5,0-4.8-0.5-6.7-1.4c-1.9-0.9-3.6-2.2-5-3.9c-1.4-1.7-2.4-3.6-3.1-5.9
		c-0.7-2.3-1-4.8-1-7.5c0-2.7,0.3-5.2,1-7.5c0.7-2.3,1.7-4.3,3.1-5.9c1.4-1.7,3-3,5-3.9c1.9-0.9,4.2-1.4,6.7-1.4
		c1.6,0,3,0.2,4.2,0.7c1.2,0.5,2.1,0.9,2.9,1.5c0.8,0.6,1.6,1.3,2.2,2.2h0.7l0.7-2.9l0.7-0.7h5l0.7,0.7v31c0,3.6-0.5,6.6-1.4,9.1
		c-0.9,2.5-2.1,4.5-3.7,6c-1.5,1.5-3.3,2.6-5.3,3.3c-2,0.7-4.1,1-6.2,1c-4.4,0-7.8-1-10.2-2.9c-2.4-1.9-3.8-4.3-4.2-7.2l0.7-0.7h5.8
		l0.7,0.7c0.7,1.4,1.6,2.4,2.8,2.9C-57.2,527.8-55.7,528.1-53.9,528.1z M-44.5,501.4c0-4.3-0.8-7.4-2.5-9.4c-1.7-1.9-4-2.9-6.8-2.9
		s-5.2,1-6.8,3.1c-1.7,2.1-2.5,5.1-2.5,9.1s0.8,7.1,2.5,9.1c1.7,2.1,4,3.1,6.8,3.1s5.2-1,6.8-2.9C-45.4,508.9-44.5,505.8-44.5,501.4
		z"/>
	<path fill="#FFFFFF" d="M-13.6,520.2c-2.9,0-5.4-0.5-7.6-1.4c-2.2-0.9-4-2.2-5.4-3.9c-1.4-1.7-2.5-3.6-3.2-5.9
		c-0.7-2.3-1.1-4.8-1.1-7.5c0-2.5,0.3-4.9,1-7.2c0.6-2.3,1.6-4.3,3-6c1.3-1.7,3.1-3.1,5.1-4.1c2.1-1,4.6-1.5,7.5-1.5
		s5.4,0.5,7.5,1.5s3.8,2.4,5.1,4.1c1.3,1.7,2.3,3.7,3,6c0.6,2.3,1,4.7,1,7.2v2.2l-0.7,0.7h-23.8l-0.7,0.7c0,0.4,0.1,1,0.3,2
		c0.2,0.9,0.6,1.9,1.2,2.9c0.6,1,1.6,1.9,2.8,2.6c1.2,0.8,3,1.2,5.1,1.2c1.4,0,2.8-0.3,4.1-0.8s2.3-1.7,3.1-3.5l0.7-0.7h5.8l0.7,0.7
		c-0.2,1.4-0.6,2.8-1.4,4.1c-0.7,1.3-1.7,2.4-2.9,3.5c-1.2,1-2.7,1.8-4.4,2.4C-9.5,519.9-11.4,520.2-13.6,520.2z M-5.7,497.9
		c0-0.5-0.1-1.3-0.3-2.3c-0.2-1-0.5-1.9-1.1-2.9c-0.6-0.9-1.4-1.8-2.6-2.4c-1.2-0.7-2.7-1-4.7-1c-2,0-3.5,0.3-4.7,1
		c-1.2,0.7-2,1.5-2.6,2.4c-0.6,0.9-0.9,1.9-1.1,2.9c-0.2,1-0.3,1.7-0.3,2.3l0.7,0.7h15.8L-5.7,497.9z"/>
	<path fill="#FFFFFF" d="M-361.3,555.4c0,4-1,7.1-3,9.3c-2,2.2-4.6,3.7-7.8,4.4v0.7l10.1,15.8v5l-0.7,0.7h-2.9l-1.4-0.7l-13-20.2
		l-1.4-0.7H-393l-0.7,0.7v20.2l-0.7,0.7h-5.8l-0.7-0.7v-49l0.7-0.7h22.3c5,0,9.1,1.1,12.1,3.4C-362.8,546.8-361.3,550.4-361.3,555.4
		z M-368.5,555.4c0-2.9-0.7-4.9-2.2-6.1c-1.5-1.2-3.9-1.8-7.2-1.8H-393l-0.7,0.7v14.4l0.7,0.7h15.1c3.3,0,5.7-0.6,7.2-1.8
		C-369.3,560.4-368.5,558.3-368.5,555.4z"/>
	<path fill="#FFFFFF" d="M-356.3,573.4c0-2.9,0.4-5.5,1.2-7.8c0.8-2.3,1.9-4.3,3.4-5.9c1.5-1.6,3.3-2.9,5.4-3.7
		c2.1-0.9,4.5-1.3,7.2-1.3c2.7,0,5.1,0.4,7.2,1.3c2.1,0.9,3.9,2.1,5.4,3.7c1.5,1.6,2.6,3.6,3.4,5.9c0.8,2.3,1.2,4.9,1.2,7.8
		s-0.4,5.5-1.2,7.8c-0.8,2.3-1.9,4.3-3.4,5.9c-1.5,1.6-3.3,2.9-5.4,3.7c-2.1,0.9-4.5,1.3-7.2,1.3c-2.7,0-5.1-0.4-7.2-1.3
		c-2.1-0.9-3.9-2.1-5.4-3.7c-1.5-1.6-2.6-3.6-3.4-5.9C-355.9,578.9-356.3,576.3-356.3,573.4z M-349.1,573.4c0,4,0.9,7.1,2.6,9.1
		c1.7,2.1,4.2,3.1,7.5,3.1s5.8-1,7.5-3.1c1.7-2.1,2.6-5.1,2.6-9.1s-0.9-7.1-2.6-9.1c-1.7-2.1-4.2-3.1-7.5-3.1s-5.8,1-7.5,3.1
		C-348.2,566.4-349.1,569.4-349.1,573.4z"/>
	<path fill="#FFFFFF" d="M-297.3,590.7l-0.7,0.7h-6.5l-0.7-0.7l-12.2-29.5v-5l0.7-0.7h4.3l0.7,0.7l10.1,25.2h0.7l10.1-25.2l0.7-0.7
		h4.3l0.7,0.7v5L-297.3,590.7z"/>
	<path fill="#FFFFFF" d="M-248.3,591.4h-5.8l-0.7-0.7v-20.9c0-0.9-0.1-1.9-0.2-2.9c-0.1-1-0.5-1.9-1-2.8s-1.2-1.6-2.2-2.1
		c-0.9-0.6-2.2-0.8-3.9-0.8c-3.3,0-5.7,0.9-7.2,2.8c-1.5,1.9-2.2,5-2.2,9.4v17.3l-0.7,0.7h-5.8l-0.7-0.7v-34.6l0.7-0.7h5l0.7,0.7
		l0.7,2.9h0.7c0.7-0.8,1.4-1.5,2.2-2.2c0.8-0.5,1.7-1,2.9-1.5c1.2-0.5,2.6-0.7,4.2-0.7c2.5,0,4.6,0.4,6.4,1.2
		c1.8,0.8,3.2,1.8,4.2,3.2c1.1,1.3,1.9,2.9,2.3,4.8c0.5,1.8,0.7,3.9,0.7,6v20.9L-248.3,591.4z"/>
	<path fill="#FFFFFF" d="M-224.5,592.2c-2.9,0-5.4-0.5-7.6-1.4c-2.2-0.9-4-2.2-5.4-3.9c-1.4-1.7-2.5-3.6-3.2-5.9
		c-0.7-2.3-1.1-4.8-1.1-7.5c0-2.5,0.3-4.9,1-7.2c0.6-2.3,1.6-4.3,3-6c1.3-1.7,3.1-3.1,5.1-4.1s4.6-1.5,7.5-1.5
		c2.9,0,5.4,0.5,7.5,1.5s3.8,2.4,5.1,4.1c1.3,1.7,2.3,3.7,3,6c0.6,2.3,1,4.7,1,7.2v2.2l-0.7,0.7h-23.8l-0.7,0.7c0,0.4,0.1,1,0.3,2
		c0.2,0.9,0.6,1.9,1.2,2.9c0.6,1,1.6,1.9,2.8,2.6c1.2,0.8,3,1.2,5.1,1.2c1.4,0,2.8-0.3,4.1-0.8s2.3-1.7,3.1-3.5l0.7-0.7h5.8l0.7,0.7
		c-0.2,1.4-0.6,2.8-1.4,4.1c-0.7,1.3-1.7,2.4-2.9,3.5c-1.2,1-2.7,1.8-4.4,2.4C-220.5,591.9-222.4,592.2-224.5,592.2z M-216.6,569.9
		c0-0.5-0.1-1.3-0.3-2.3c-0.2-1-0.5-1.9-1.1-2.9c-0.6-0.9-1.4-1.8-2.6-2.4c-1.2-0.7-2.7-1-4.7-1c-2,0-3.5,0.3-4.7,1
		c-1.2,0.7-2,1.5-2.6,2.4c-0.6,0.9-0.9,1.9-1.1,2.9c-0.2,1-0.3,1.7-0.3,2.3l0.7,0.7h15.8L-216.6,569.9z"/>
	<path fill="#FFFFFF" d="M-182.1,561.9h-3.6c-1.4,0-2.7,0.2-3.9,0.5c-1.2,0.3-2.1,0.9-3,1.7c-0.8,0.8-1.4,1.9-1.9,3.3
		c-0.4,1.4-0.6,3.2-0.6,5.3v18l-0.7,0.7h-5.8l-0.7-0.7v-34.6l0.7-0.7h5l0.7,0.7l0.7,2.9h0.7c0.5-0.5,1.1-1,1.7-1.5
		c0.6-0.5,1.2-0.8,1.9-1.2c0.7-0.3,1.5-0.6,2.5-0.7c0.9-0.2,2-0.3,3.3-0.3h2.9l0.7,0.7v5L-182.1,561.9z"/>
</g>
</svg>
