<?xml version="1.0" encoding="utf-8"?>
<!-- Generator: Adobe Illustrator 19.0.1, SVG Export Plug-In . SVG Version: 6.00 Build 0)  -->
<!DOCTYPE svg PUBLIC "-//W3C//DTD SVG 1.1//EN" "http://www.w3.org/Graphics/SVG/1.1/DTD/svg11.dtd">
<svg version="1.1" id="Vrstva_1" xmlns="http://www.w3.org/2000/svg" xmlns:xlink="http://www.w3.org/1999/xlink" x="0px" y="0px"
	 viewBox="0 0 452 454.1" enable-background="new 0 0 452 454.1" xml:space="preserve">
<g>
	<path fill="#FFFFFF" d="M11,51.2H5.1l-0.7-0.7V0.7L5.1,0H11l0.7,0.7v49.7L11,51.2z"/>
	<path fill="#FFFFFF" d="M52.7,51.2h-5.9l-0.7-0.7V29.3c0-0.9-0.1-1.9-0.2-2.9c-0.1-1-0.5-2-1-2.9c-0.5-0.9-1.2-1.6-2.2-2.2
		c-0.9-0.6-2.3-0.8-3.9-0.8c-3.4,0-5.8,1-7.3,2.9c-1.5,1.9-2.2,5.1-2.2,9.5v17.6l-0.7,0.7h-5.9l-0.7-0.7V15.4l0.7-0.7h5.1l0.7,0.7
		l0.7,2.9H30c0.7-0.8,1.4-1.6,2.3-2.2c0.8-0.5,1.8-1,3-1.5c1.2-0.5,2.6-0.7,4.3-0.7c2.5,0,4.7,0.4,6.5,1.2c1.8,0.8,3.2,1.9,4.3,3.2
		c1.1,1.4,1.9,3,2.4,4.9c0.5,1.9,0.7,3.9,0.7,6.1v21.2L52.7,51.2z"/>
	<path fill="#FFFFFF" d="M92.1,51.2H87l-0.7-0.7l-0.7-2.9h-0.7c-0.7,0.8-1.4,1.6-2.3,2.2c-0.8,0.5-1.8,1-3,1.5
		c-1.2,0.5-2.6,0.7-4.3,0.7c-2.6,0-4.9-0.5-6.8-1.4c-2-1-3.7-2.3-5-3.9c-1.4-1.7-2.4-3.7-3.1-6c-0.7-2.3-1.1-4.9-1.1-7.6
		c0-2.7,0.4-5.3,1.1-7.6c0.7-2.3,1.8-4.4,3.1-6c1.4-1.7,3.1-3,5-3.9c2-1,4.3-1.4,6.8-1.4c1.7,0,3.1,0.2,4.3,0.7c1.2,0.5,2.2,1,3,1.5
		c0.8,0.6,1.6,1.4,2.3,2.2h0.7V0.7L86.3,0h5.9l0.7,0.7v49.7L92.1,51.2z M85.6,32.9c0-4.4-0.9-7.6-2.6-9.5c-1.7-1.9-4-2.9-6.9-2.9
		s-5.2,1-6.9,3.1c-1.7,2.1-2.6,5.2-2.6,9.3s0.9,7.2,2.6,9.3c1.7,2.1,4,3.1,6.9,3.1s5.2-1,6.9-2.9C84.7,40.5,85.6,37.3,85.6,32.9z"/>
	<path fill="#FFFFFF" d="M130.9,51.2h-5.1l-0.7-0.7l-0.7-2.9h-0.7c-0.6,0.8-1.3,1.6-2.2,2.2c-0.7,0.5-1.6,1-2.7,1.5
		c-1.1,0.5-2.4,0.7-3.8,0.7c-2.6,0-4.8-0.4-6.5-1.3c-1.8-0.9-3.2-2-4.3-3.4c-1.1-1.4-1.9-3-2.4-4.9c-0.5-1.9-0.7-3.8-0.7-5.8V15.4
		l0.7-0.7h5.9l0.7,0.7v21.2c0,1.1,0.1,2.2,0.3,3.3c0.2,1,0.6,2,1.1,2.8c0.5,0.8,1.3,1.5,2.2,2c0.9,0.5,2.2,0.8,3.6,0.8
		c2.5,0,4.6-1,6.3-2.9c1.7-1.9,2.5-5.1,2.5-9.5V15.4l0.7-0.7h5.9l0.7,0.7v35.1L130.9,51.2z"/>
	<path fill="#FFFFFF" d="M167.5,41c0,1.5-0.3,2.9-0.8,4.2c-0.6,1.3-1.4,2.5-2.6,3.5c-1.2,1-2.7,1.8-4.6,2.4c-1.9,0.6-4,0.9-6.6,0.9
		c-4.8,0-8.5-1-10.9-3.1c-2.5-2.1-3.7-5.2-3.7-9.3l0.7-0.7h5.9l0.7,0.7c0,1.9,0.6,3.3,1.7,4.3c1.1,1,3,1.5,5.6,1.5
		c2.6,0,4.5-0.4,5.6-1.1c1.1-0.7,1.7-1.8,1.7-3.3c0-0.9-0.2-1.7-0.5-2.3c-0.3-0.6-0.8-1.1-1.6-1.5c-0.7-0.4-1.7-0.8-2.9-1.1
		c-1.2-0.3-2.7-0.6-4.5-1c-3.7-0.7-6.5-1.9-8.6-3.5c-2.1-1.7-3.1-4.2-3.1-7.4c0-1.3,0.2-2.5,0.7-3.8c0.5-1.2,1.3-2.3,2.4-3.3
		c1.1-1,2.5-1.7,4.3-2.3c1.8-0.6,3.9-0.9,6.5-0.9c2,0,3.9,0.2,5.6,0.7c1.7,0.5,3.2,1.1,4.4,2c1.2,0.9,2.2,2,2.9,3.4
		c0.7,1.4,1,3,1,4.8l-0.7,0.7h-5.9l-0.7-0.7c0-0.5-0.1-1.1-0.3-1.6c-0.2-0.5-0.5-1-1.1-1.4c-0.5-0.4-1.2-0.7-2-1
		c-0.9-0.2-1.9-0.4-3.2-0.4c-1.9,0-3.4,0.2-4.7,0.7c-1.3,0.5-1.9,1.5-1.9,2.9c0,0.9,0.2,1.7,0.5,2.3c0.4,0.6,1,1.1,1.8,1.5
		c0.8,0.4,1.9,0.8,3.2,1.1c1.3,0.3,2.9,0.6,4.7,1c3.7,0.7,6.4,1.9,8.2,3.5C166.6,35.2,167.5,37.6,167.5,41z"/>
	<path fill="#FFFFFF" d="M193.8,51.2h-5.9c-1.3,0-2.5-0.2-3.8-0.5c-1.2-0.4-2.3-0.9-3.3-1.7c-0.9-0.8-1.7-1.8-2.3-3
		c-0.6-1.2-0.9-2.6-0.9-4.3V21.9l-0.7-0.7h-5.1l-0.7-0.7v-5.1l0.7-0.7h5.1l0.7-0.7V7.3l0.7-0.7h5.9l0.7,0.7v6.6l0.7,0.7h8l0.7,0.7
		v5.1l-0.7,0.7h-8l-0.7,0.7v19.7c0,1.1,0.3,1.9,0.9,2.3c0.6,0.4,1.3,0.6,2,0.6h5.9l0.7,0.7v5.1L193.8,51.2z"/>
	<path fill="#FFFFFF" d="M222.3,21.2h-3.7c-1.5,0-2.8,0.2-3.9,0.5c-1.2,0.3-2.2,0.9-3,1.7c-0.8,0.8-1.5,2-1.9,3.4
		c-0.4,1.4-0.7,3.2-0.7,5.4v18.3l-0.7,0.7h-5.9l-0.7-0.7V15.4l0.7-0.7h5.1l0.7,0.7l0.7,2.9h0.7c0.5-0.5,1.1-1,1.7-1.5
		c0.6-0.5,1.2-0.9,2-1.2c0.7-0.3,1.6-0.6,2.5-0.7c1-0.2,2.1-0.3,3.3-0.3h2.9l0.7,0.7v5.1L222.3,21.2z"/>
	<path fill="#FFFFFF" d="M255.2,51.2h-5.1l-0.7-0.7l-0.7-2.9h-0.7c-0.7,0.8-1.5,1.6-2.4,2.2c-0.8,0.5-1.9,1-3.1,1.5
		c-1.3,0.5-2.8,0.7-4.7,0.7c-4.1,0-7.2-1-9.3-3.1c-2.1-2.1-3.1-4.9-3.1-8.6c0-2,0.4-3.7,1.2-5.2c0.8-1.5,1.9-2.7,3.3-3.7
		c1.4-1,3.1-1.7,5.1-2.1c2-0.5,4.2-0.7,6.5-0.7c0.9,0,1.8,0,2.6,0.1c0.8,0.1,1.5,0.2,2.1,0.3c0.3,0.1,0.7,0.2,1,0.2
		c0.3,0,0.6,0.1,0.9,0.1l0.7-0.7v-1.5c0-2.6-0.6-4.3-1.7-5.2c-1.1-0.9-3-1.4-5.6-1.4c-2.6,0-4.5,0.4-5.6,1.1
		c-1.1,0.7-1.7,1.8-1.7,3.3l-0.7,0.7h-5.9l-0.7-0.7c0-1.3,0.2-2.6,0.7-3.9c0.5-1.3,1.3-2.5,2.4-3.5c1.1-1,2.7-1.9,4.5-2.6
		c1.9-0.7,4.2-1,6.9-1c2.7,0,5,0.3,6.9,1c1.9,0.7,3.4,1.6,4.5,3c1.1,1.3,2,3,2.4,5c0.5,2,0.7,4.4,0.7,7.1v20.5L255.2,51.2z
		 M248.6,35.8l-0.7-0.7l-1.5-0.4c-0.5-0.1-1.2-0.2-1.9-0.3c-0.7-0.1-1.5-0.1-2.4-0.1c-3.4,0-5.8,0.5-7.3,1.5c-1.5,1-2.2,2.5-2.2,4.3
		c0,1.9,0.5,3.2,1.6,3.9s2.7,1.2,4.9,1.2c2.9,0,5.2-0.7,6.9-2c1.7-1.3,2.6-3.1,2.6-5.3V35.8z"/>
	<path fill="#FFFFFF" d="M57,131.6h-5.9l-0.7-0.7V95.8h-0.7l-14.6,35.1l-0.7,0.7h-6.6l-0.7-0.7L12.4,95.8h-0.7v35.1l-0.7,0.7H5.1
		l-0.7-0.7V81.2l0.7-0.7h8l0.7,0.7l16.8,41h0.7l16.8-41l0.7-0.7h8l0.7,0.7v49.7L57,131.6z"/>
	<path fill="#FFFFFF" d="M95.8,131.6h-5.1l-0.7-0.7l-0.7-2.9h-0.7c-0.7,0.8-1.5,1.6-2.4,2.2c-0.8,0.5-1.9,1-3.1,1.5
		c-1.3,0.5-2.8,0.7-4.7,0.7c-4.1,0-7.2-1-9.3-3.1c-2.1-2.1-3.1-4.9-3.1-8.6c0-2,0.4-3.7,1.2-5.2c0.8-1.5,1.9-2.7,3.3-3.7
		c1.4-0.9,3.1-1.7,5.1-2.1c2-0.5,4.2-0.7,6.5-0.7c0.9,0,1.8,0,2.6,0.1c0.8,0.1,1.5,0.2,2.1,0.3c0.3,0.1,0.7,0.2,1,0.2
		c0.3,0,0.6,0.1,0.9,0.1l0.7-0.7v-1.5c0-2.6-0.6-4.3-1.7-5.2c-1.1-0.9-3-1.4-5.6-1.4c-2.6,0-4.5,0.4-5.6,1.1
		c-1.1,0.7-1.7,1.8-1.7,3.3l-0.7,0.7H68l-0.7-0.7c0-1.3,0.2-2.6,0.7-3.9c0.5-1.3,1.3-2.5,2.4-3.5c1.1-1,2.7-1.9,4.5-2.6
		c1.9-0.7,4.2-1,6.9-1c2.7,0,5,0.3,6.9,1c1.9,0.7,3.4,1.6,4.5,3c1.1,1.3,2,3,2.4,5c0.5,2,0.7,4.4,0.7,7.1v20.5L95.8,131.6z
		 M89.2,116.3l-0.7-0.7l-1.5-0.4c-0.5-0.1-1.2-0.2-1.9-0.3s-1.5-0.1-2.4-0.1c-3.4,0-5.8,0.5-7.3,1.5c-1.5,1-2.2,2.5-2.2,4.3
		c0,1.9,0.5,3.2,1.6,3.9c1.1,0.8,2.7,1.2,4.9,1.2c2.9,0,5.2-0.7,6.9-2c1.7-1.3,2.6-3.1,2.6-5.3V116.3z"/>
	<path fill="#FFFFFF" d="M131.6,121.4c0,1.5-0.3,2.9-0.8,4.2c-0.6,1.3-1.4,2.5-2.6,3.5c-1.2,1-2.7,1.8-4.6,2.4
		c-1.9,0.6-4,0.9-6.6,0.9c-4.8,0-8.5-1-10.9-3.1c-2.5-2.1-3.7-5.2-3.7-9.3l0.7-0.7h5.9l0.7,0.7c0,1.9,0.6,3.3,1.7,4.3
		c1.1,1,3,1.5,5.6,1.5s4.5-0.4,5.6-1.1s1.7-1.8,1.7-3.3c0-0.9-0.2-1.7-0.5-2.3c-0.3-0.6-0.8-1.1-1.6-1.5c-0.7-0.4-1.7-0.8-2.9-1.1
		c-1.2-0.3-2.7-0.6-4.5-1c-3.7-0.7-6.5-1.9-8.6-3.5c-2.1-1.7-3.1-4.2-3.1-7.4c0-1.3,0.2-2.5,0.7-3.8c0.5-1.2,1.3-2.3,2.4-3.3
		c1.1-0.9,2.5-1.7,4.3-2.3c1.8-0.6,3.9-0.9,6.5-0.9c2,0,3.9,0.2,5.6,0.7c1.7,0.5,3.2,1.1,4.4,2c1.2,0.9,2.2,2,2.9,3.4
		c0.7,1.4,1,3,1,4.8l-0.7,0.7h-5.9l-0.7-0.7c0-0.5-0.1-1.1-0.3-1.6c-0.2-0.5-0.5-1-1.1-1.4c-0.5-0.4-1.2-0.7-2-1
		c-0.9-0.2-1.9-0.4-3.2-0.4c-1.9,0-3.4,0.2-4.7,0.7c-1.3,0.5-1.9,1.5-1.9,2.9c0,0.9,0.2,1.7,0.5,2.3c0.4,0.6,1,1.1,1.8,1.5
		c0.8,0.4,1.9,0.8,3.2,1.1c1.3,0.3,2.9,0.6,4.7,1c3.7,0.7,6.4,1.9,8.2,3.5C130.7,115.6,131.6,118.1,131.6,121.4z"/>
	<path fill="#FFFFFF" d="M168.9,131.6h-5.9l-0.7-0.7v-21.2c0-0.9-0.1-1.9-0.2-2.9c-0.1-1-0.5-2-1-2.9c-0.5-0.9-1.2-1.6-2.2-2.2
		c-0.9-0.6-2.3-0.8-3.9-0.8c-3.4,0-5.8,1-7.3,2.9c-1.5,1.9-2.2,5.1-2.2,9.5v17.6l-0.7,0.7H139l-0.7-0.7V95.8l0.7-0.7h5.1l0.7,0.7
		l0.7,2.9h0.7c0.7-0.8,1.4-1.6,2.3-2.2c0.8-0.5,1.8-1,3-1.5c1.2-0.5,2.6-0.7,4.3-0.7c2.5,0,4.7,0.4,6.5,1.2c1.8,0.8,3.2,1.9,4.3,3.2
		c1.1,1.4,1.9,3,2.4,4.9c0.5,1.9,0.7,3.9,0.7,6.1v21.2L168.9,131.6z"/>
	<path fill="#FFFFFF" d="M205.5,131.6h-5.1l-0.7-0.7l-0.7-2.9h-0.7c-0.7,0.8-1.5,1.6-2.4,2.2c-0.8,0.5-1.9,1-3.1,1.5
		c-1.3,0.5-2.8,0.7-4.7,0.7c-4.1,0-7.2-1-9.3-3.1c-2.1-2.1-3.1-4.9-3.1-8.6c0-2,0.4-3.7,1.2-5.2c0.8-1.5,1.9-2.7,3.3-3.7
		c1.4-0.9,3.1-1.7,5.1-2.1c2-0.5,4.2-0.7,6.5-0.7c0.9,0,1.8,0,2.6,0.1c0.8,0.1,1.5,0.2,2.1,0.3c0.3,0.1,0.7,0.2,1,0.2
		c0.3,0,0.6,0.1,0.9,0.1l0.7-0.7v-1.5c0-2.6-0.6-4.3-1.7-5.2c-1.1-0.9-3-1.4-5.6-1.4c-2.6,0-4.5,0.4-5.6,1.1
		c-1.1,0.7-1.7,1.8-1.7,3.3l-0.7,0.7h-5.9l-0.7-0.7c0-1.3,0.2-2.6,0.7-3.9c0.5-1.3,1.3-2.5,2.4-3.5c1.1-1,2.7-1.9,4.5-2.6
		c1.9-0.7,4.2-1,6.9-1c2.7,0,5,0.3,6.9,1c1.9,0.7,3.4,1.6,4.5,3c1.1,1.3,2,3,2.4,5c0.5,2,0.7,4.4,0.7,7.1v20.5L205.5,131.6z
		 M198.9,116.3l-0.7-0.7l-1.5-0.4c-0.5-0.1-1.2-0.2-1.9-0.3c-0.7-0.1-1.5-0.1-2.4-0.1c-3.4,0-5.8,0.5-7.3,1.5
		c-1.5,1-2.2,2.5-2.2,4.3c0,1.9,0.5,3.2,1.6,3.9s2.7,1.2,4.9,1.2c2.9,0,5.2-0.7,6.9-2c1.7-1.3,2.6-3.1,2.6-5.3V116.3z M192.3,90
		l-1.5,0.7h-3.7l-0.7-0.7v-1.5l6.6-7.3l1.5-0.7h5.1l0.7,0.7v1.5L192.3,90z"/>
	<path fill="#FFFFFF" d="M266.9,104.6c0,5.1-0.4,9.4-1.2,13c-0.8,3.5-2,6.4-3.6,8.6c-1.6,2.2-3.6,3.8-6,4.8c-2.4,1-5.1,1.5-8.2,1.5
		c-4,0-7.4-1.1-10.1-3.2c-2.7-2.1-4.2-5.2-4.6-9.3l0.7-0.7h5.9l0.7,0.7c0.4,2.2,1.3,3.7,2.7,4.6c1.4,0.9,3.2,1.3,5.4,1.3
		c1.7,0,3.1-0.3,4.3-0.9c1.2-0.6,2.1-1.4,2.9-2.3c0.8-1,1.3-2,1.8-3.2c0.4-1.2,0.7-2.4,0.9-3.6c0.2-1.2,0.3-2.3,0.3-3.4
		c0-1.1,0-2,0-2.7h-0.7c-0.3,0.3-0.7,0.7-1.1,1c-0.4,0.3-0.8,0.6-1.3,0.8c-0.8,0.5-1.9,0.9-3.1,1.3c-1.3,0.4-2.8,0.5-4.7,0.5
		c-2.4,0-4.6-0.4-6.5-1.2c-2-0.8-3.7-1.9-5.1-3.4s-2.5-3.2-3.3-5.3c-0.8-2.1-1.2-4.4-1.2-7c0-2.7,0.4-5.1,1.3-7.2
		c0.9-2.1,2-3.9,3.5-5.3s3.3-2.5,5.3-3.2c2-0.7,4.3-1.1,6.7-1.1c2.9,0,5.5,0.4,7.8,1.2s4.2,2.2,5.7,4.1c1.6,1.9,2.7,4.5,3.5,7.7
		C266.5,95.9,266.9,99.9,266.9,104.6z M239.1,96.5c0,3.4,0.9,5.9,2.6,7.6c1.7,1.7,4,2.6,6.9,2.6c3.4,0,5.9-0.9,7.6-2.6
		c1.7-1.7,2.6-4.3,2.6-7.6c0-3.7-1-6.3-2.9-7.9c-2-1.6-4.4-2.4-7.3-2.4c-2.9,0-5.2,0.9-6.9,2.6C240,90.6,239.1,93.2,239.1,96.5z"/>
	<path fill="#FFFFFF" d="M42.4,197.5c0,2.7-0.4,5-1.3,6.9c-0.9,1.9-2,3.4-3.4,4.5c-1.4,1.1-3,2-4.9,2.4c-1.9,0.5-3.8,0.7-5.8,0.7
		H5.1l-0.7-0.7v-49.7l0.7-0.7h20.5c2,0,3.9,0.2,5.8,0.7c1.9,0.5,3.5,1.3,4.9,2.4s2.5,2.5,3.4,4.3c0.9,1.8,1.3,3.9,1.3,6.5
		c0,2.6-0.6,4.8-1.9,6.5c-1.3,1.7-2.8,3-4.7,3.7v0.7c2.2,0.7,4.1,2,5.7,3.9C41.6,191.6,42.4,194.2,42.4,197.5z M33.6,174.8
		c0-2.9-0.8-4.9-2.3-5.9c-1.5-1-3.9-1.5-7.2-1.5H12.4l-0.7,0.7v13.2l0.7,0.7h12.4c2.9,0,5.1-0.5,6.6-1.5
		C32.9,179.7,33.6,177.7,33.6,174.8z M35.1,197.5c0-3.3-0.8-5.5-2.4-6.8c-1.6-1.3-4.2-1.9-7.9-1.9H12.4l-0.7,0.7v15.4l0.7,0.7h13.9
		c2.9,0,5.1-0.6,6.6-1.8C34.4,202.5,35.1,200.4,35.1,197.5z"/>
	<path fill="#FFFFFF" d="M70.2,182.1h-3.7c-1.5,0-2.8,0.2-3.9,0.5c-1.2,0.3-2.2,0.9-3,1.7c-0.8,0.8-1.5,2-1.9,3.4
		c-0.4,1.4-0.7,3.2-0.7,5.4v18.3l-0.7,0.7h-5.9l-0.7-0.7v-35.1l0.7-0.7h5.1l0.7,0.7l0.7,2.9h0.7c0.5-0.5,1.1-1,1.7-1.5
		c0.6-0.5,1.2-0.9,2-1.2c0.7-0.3,1.6-0.6,2.5-0.7c1-0.2,2.1-0.3,3.3-0.3h2.9l0.7,0.7v5.1L70.2,182.1z"/>
	<path fill="#FFFFFF" d="M107.5,212.1h-5.9l-0.7-0.7v-21.2c0-0.9-0.1-1.9-0.2-2.9c-0.1-1-0.5-2-1-2.9c-0.5-0.9-1.2-1.6-2.2-2.2
		c-0.9-0.6-2.3-0.8-3.9-0.8c-3.4,0-5.8,1-7.3,2.9c-1.5,1.9-2.2,5.1-2.2,9.5v17.6l-0.7,0.7h-5.9l-0.7-0.7v-35.1l0.7-0.7h5.1l0.7,0.7
		l0.7,2.9h0.7c0.7-0.8,1.4-1.6,2.3-2.2c0.8-0.5,1.8-1,3-1.5c1.2-0.5,2.6-0.7,4.3-0.7c2.5,0,4.7,0.4,6.5,1.2c1.8,0.8,3.2,1.9,4.3,3.2
		c1.1,1.4,1.9,3,2.4,4.9c0.5,1.9,0.7,3.9,0.7,6.1v21.2L107.5,212.1z"/>
	<path fill="#FFFFFF" d="M114.1,193.8c0-2.9,0.4-5.6,1.2-7.9c0.8-2.3,2-4.3,3.5-6c1.5-1.7,3.4-2.9,5.5-3.8c2.2-0.9,4.6-1.3,7.4-1.3
		c2.7,0,5.2,0.4,7.4,1.3c2.2,0.9,4,2.1,5.5,3.8c1.5,1.7,2.7,3.7,3.5,6c0.8,2.3,1.2,5,1.2,7.9s-0.4,5.6-1.2,7.9c-0.8,2.3-2,4.3-3.5,6
		c-1.5,1.7-3.4,2.9-5.5,3.8c-2.2,0.9-4.6,1.3-7.4,1.3c-2.7,0-5.2-0.4-7.4-1.3c-2.2-0.9-4-2.1-5.5-3.8c-1.5-1.7-2.7-3.7-3.5-6
		C114.5,199.4,114.1,196.7,114.1,193.8z M121.4,193.8c0,4.1,0.9,7.2,2.6,9.3c1.7,2.1,4.3,3.1,7.6,3.1c3.4,0,5.9-1,7.6-3.1
		c1.7-2.1,2.6-5.2,2.6-9.3s-0.9-7.2-2.6-9.3c-1.7-2.1-4.3-3.1-7.6-3.1c-3.4,0-5.9,1-7.6,3.1C122.3,186.6,121.4,189.7,121.4,193.8z"
		/>
	<path fill="#FFFFFF" d="M176.2,196.7h-19.7l-0.7-0.7v-5.1l0.7-0.7h19.7l0.7,0.7v5.1L176.2,196.7z"/>
	<path fill="#FFFFFF" d="M214.3,167.5h-15.4l-0.7,0.7v43.1l-0.7,0.7h-5.9l-0.7-0.7v-43.1l-0.7-0.7h-15.4l-0.7-0.7v-5.1l0.7-0.7h39.5
		l0.7,0.7v5.1L214.3,167.5z"/>
	<path fill="#FFFFFF" d="M234,182.1h-3.7c-1.5,0-2.8,0.2-3.9,0.5s-2.2,0.9-3,1.7c-0.8,0.8-1.5,2-1.9,3.4c-0.4,1.4-0.7,3.2-0.7,5.4
		v18.3l-0.7,0.7h-5.9l-0.7-0.7v-35.1l0.7-0.7h5.1l0.7,0.7l0.7,2.9h0.7c0.5-0.5,1.1-1,1.7-1.5c0.6-0.5,1.2-0.9,2-1.2
		c0.7-0.3,1.6-0.6,2.5-0.7c1-0.2,2.1-0.3,3.3-0.3h2.9l0.7,0.7v5.1L234,182.1z"/>
	<path fill="#FFFFFF" d="M271.3,212.1h-5.9l-0.7-0.7v-21.2c0-0.9-0.1-1.9-0.2-2.9c-0.1-1-0.5-2-1-2.9c-0.5-0.9-1.2-1.6-2.2-2.2
		c-0.9-0.6-2.3-0.8-3.9-0.8c-3.4,0-5.8,1-7.3,2.9c-1.5,1.9-2.2,5.1-2.2,9.5v17.6l-0.7,0.7h-5.9l-0.7-0.7v-35.1l0.7-0.7h5.1l0.7,0.7
		l0.7,2.9h0.7c0.7-0.8,1.4-1.6,2.3-2.2c0.8-0.5,1.8-1,3-1.5c1.2-0.5,2.6-0.7,4.3-0.7c2.5,0,4.7,0.4,6.5,1.2c1.8,0.8,3.2,1.9,4.3,3.2
		c1.1,1.4,1.9,3,2.4,4.9c0.5,1.9,0.7,3.9,0.7,6.1v21.2L271.3,212.1z"/>
	<path fill="#FFFFFF" d="M286.7,169.7h-5.9l-0.7-0.7v-5.9l0.7-0.7h5.9l0.7,0.7v5.9L286.7,169.7z M286.7,212.1h-5.9l-0.7-0.7v-35.1
		l0.7-0.7h5.9l0.7,0.7v35.1L286.7,212.1z"/>
	<path fill="#FFFFFF" d="M315.9,212.1h-5.9c-1.3,0-2.5-0.2-3.8-0.5c-1.2-0.4-2.3-0.9-3.3-1.7c-0.9-0.8-1.7-1.8-2.3-3
		c-0.6-1.2-0.9-2.6-0.9-4.3v-19.7l-0.7-0.7H294l-0.7-0.7v-5.1l0.7-0.7h5.1l0.7-0.7v-6.6l0.7-0.7h5.9l0.7,0.7v6.6l0.7,0.7h8l0.7,0.7
		v5.1l-0.7,0.7h-8l-0.7,0.7v19.7c0,1.1,0.3,1.9,0.9,2.3c0.6,0.4,1.3,0.6,2,0.6h5.9l0.7,0.7v5.1L315.9,212.1z"/>
	<path fill="#FFFFFF" d="M351.8,212.1h-5.1l-0.7-0.7l-0.7-2.9h-0.7c-0.7,0.8-1.5,1.6-2.4,2.2c-0.8,0.5-1.9,1-3.1,1.5
		c-1.3,0.5-2.8,0.7-4.7,0.7c-4.1,0-7.2-1-9.3-3.1c-2.1-2.1-3.1-4.9-3.1-8.6c0-2,0.4-3.7,1.2-5.2c0.8-1.5,1.9-2.7,3.3-3.7
		c1.4-0.9,3.1-1.7,5.1-2.1c2-0.5,4.2-0.7,6.5-0.7c0.9,0,1.8,0,2.6,0.1c0.8,0.1,1.5,0.2,2.1,0.3c0.3,0.1,0.7,0.2,1,0.2
		c0.3,0,0.6,0.1,0.9,0.1l0.7-0.7v-1.5c0-2.6-0.6-4.3-1.7-5.2c-1.1-0.9-3-1.4-5.6-1.4c-2.6,0-4.5,0.4-5.6,1.1
		c-1.1,0.7-1.7,1.8-1.7,3.3l-0.7,0.7H324l-0.7-0.7c0-1.3,0.2-2.6,0.7-3.9c0.5-1.3,1.3-2.5,2.4-3.5c1.1-1,2.7-1.9,4.5-2.6
		c1.9-0.7,4.2-1,6.9-1c2.7,0,5,0.3,6.9,1c1.9,0.7,3.4,1.6,4.5,3c1.1,1.3,2,3,2.4,5c0.5,2,0.7,4.4,0.7,7.1v20.5L351.8,212.1z
		 M345.2,196.7l-0.7-0.7l-1.5-0.4c-0.5-0.1-1.2-0.2-1.9-0.3c-0.7-0.1-1.5-0.1-2.4-0.1c-3.4,0-5.8,0.5-7.3,1.5
		c-1.5,1-2.2,2.5-2.2,4.3c0,1.9,0.5,3.2,1.6,3.9c1.1,0.8,2.7,1.2,4.9,1.2c2.9,0,5.2-0.7,6.9-2c1.7-1.3,2.6-3.1,2.6-5.3V196.7z
		 M338.6,170.4l-1.5,0.7h-3.7l-0.7-0.7v-1.5l6.6-7.3l1.5-0.7h5.1l0.7,0.7v1.5L338.6,170.4z"/>
	<path fill="#FFFFFF" d="M42.4,373H38l-0.7-0.7l-4.4-11l-1.5-0.7H11.7l-1.5,0.7l-4.4,11L5.1,373H0.7L0,372.2v-5.1l17.6-44.6l0.7-0.7
		h6.6l0.7,0.7l17.6,44.6v5.1L42.4,373z M21.9,332.8h-0.7l-8,20.5l0.7,0.7h15.4l0.7-0.7L21.9,332.8z"/>
	<path fill="#FFFFFF" d="M69.5,343h-3.7c-1.5,0-2.8,0.2-3.9,0.5c-1.2,0.3-2.2,0.9-3,1.7c-0.8,0.8-1.5,2-1.9,3.4
		c-0.4,1.4-0.7,3.2-0.7,5.4v18.3l-0.7,0.7h-5.9l-0.7-0.7v-35.1l0.7-0.7h5.1l0.7,0.7l0.7,2.9H57c0.5-0.5,1.1-1,1.7-1.5
		c0.6-0.5,1.2-0.9,2-1.2c0.7-0.3,1.6-0.6,2.5-0.7c1-0.2,2.1-0.3,3.3-0.3h2.9l0.7,0.7v5.1L69.5,343z"/>
	<path fill="#FFFFFF" d="M89.2,373.7c-2.9,0-5.5-0.5-7.7-1.4s-4-2.3-5.5-3.9c-1.5-1.7-2.6-3.7-3.3-6c-0.7-2.3-1.1-4.9-1.1-7.6
		c0-2.5,0.3-5,1-7.3c0.7-2.3,1.7-4.3,3-6.1c1.4-1.7,3.1-3.1,5.2-4.1c2.1-1,4.6-1.5,7.6-1.5s5.4,0.5,7.6,1.5c2.1,1,3.9,2.4,5.2,4.1
		c1.4,1.7,2.4,3.8,3,6.1c0.7,2.3,1,4.7,1,7.3v2.2l-0.7,0.7H80.4l-0.7,0.7c0,0.4,0.1,1.1,0.3,2c0.2,1,0.6,1.9,1.2,2.9
		c0.6,1,1.6,1.9,2.9,2.7c1.3,0.8,3,1.2,5.2,1.2c1.5,0,2.9-0.3,4.2-0.8c1.3-0.5,2.4-1.7,3.1-3.6l0.7-0.7h5.9l0.7,0.7
		c-0.2,1.5-0.7,2.9-1.4,4.2c-0.7,1.3-1.7,2.5-2.9,3.5c-1.2,1-2.7,1.8-4.4,2.4C93.4,373.4,91.4,373.7,89.2,373.7z M97.3,351
		c0-0.5-0.1-1.3-0.3-2.3c-0.2-1-0.5-2-1.1-2.9c-0.6-1-1.5-1.8-2.6-2.5c-1.2-0.7-2.8-1.1-4.8-1.1c-2,0-3.6,0.4-4.8,1.1
		c-1.2,0.7-2,1.5-2.6,2.5c-0.6,1-1,1.9-1.1,2.9c-0.2,1-0.3,1.8-0.3,2.3l0.7,0.7h16.1L97.3,351z"/>
	<path fill="#FFFFFF" d="M139.7,373h-5.1l-0.7-0.7l-0.7-2.9h-0.7c-0.7,0.8-1.5,1.6-2.4,2.2c-0.8,0.5-1.9,1-3.1,1.5
		c-1.3,0.5-2.8,0.7-4.7,0.7c-4.1,0-7.2-1-9.3-3.1c-2.1-2.1-3.1-4.9-3.1-8.6c0-2,0.4-3.7,1.2-5.2c0.8-1.5,1.9-2.7,3.3-3.7
		s3.1-1.7,5.1-2.1c2-0.5,4.2-0.7,6.5-0.7c0.9,0,1.8,0,2.6,0.1c0.8,0.1,1.5,0.2,2.1,0.3c0.3,0.1,0.7,0.2,1,0.2c0.3,0,0.6,0.1,0.9,0.1
		l0.7-0.7v-1.5c0-2.6-0.6-4.3-1.7-5.2c-1.1-0.9-3-1.4-5.6-1.4c-2.6,0-4.5,0.4-5.6,1.1c-1.1,0.7-1.7,1.8-1.7,3.3l-0.7,0.7h-5.9
		l-0.7-0.7c0-1.3,0.2-2.6,0.7-3.9c0.5-1.3,1.3-2.5,2.4-3.5c1.1-1,2.7-1.9,4.5-2.6c1.9-0.7,4.2-1,6.9-1c2.7,0,5,0.3,6.9,1
		c1.9,0.7,3.4,1.6,4.5,3c1.1,1.3,2,3,2.4,5c0.5,2,0.7,4.4,0.7,7.1v20.5L139.7,373z M133.1,357.6l-0.7-0.7l-1.5-0.4
		c-0.5-0.1-1.2-0.2-1.9-0.3c-0.7-0.1-1.5-0.1-2.4-0.1c-3.4,0-5.8,0.5-7.3,1.5c-1.5,1-2.2,2.5-2.2,4.3c0,1.9,0.5,3.2,1.6,4
		c1.1,0.8,2.7,1.2,4.9,1.2c2.9,0,5.2-0.7,6.9-2c1.7-1.3,2.6-3.1,2.6-5.3V357.6z M126.5,331.3l-1.5,0.7h-3.7l-0.7-0.7v-1.5l6.6-7.3
		l1.5-0.7h5.1l0.7,0.7v1.5L126.5,331.3z"/>
	<path fill="#FFFFFF" d="M155,373h-5.9l-0.7-0.7v-49.7l0.7-0.7h5.9l0.7,0.7v49.7L155,373z"/>
	<path fill="#FFFFFF" d="M234,373h-5.9l-0.7-0.7v-21.9c0-1.1-0.1-2.1-0.2-3.1c-0.1-1-0.4-1.8-0.9-2.6s-1.1-1.3-2-1.8
		c-0.9-0.4-2-0.7-3.5-0.7c-2.6,0-4.6,0.9-6,2.6c-1.4,1.7-2,4-2,6.9v20.5l-0.7,0.7h-5.9l-0.7-0.7v-21.9c0-1.1-0.1-2.1-0.2-3.1
		c-0.1-1-0.4-1.8-0.9-2.6s-1.1-1.3-2-1.8c-0.9-0.4-2-0.7-3.5-0.7c-0.9,0-1.9,0.2-2.8,0.5c-1,0.3-1.8,0.8-2.6,1.6
		c-0.8,0.7-1.4,1.7-1.9,2.9c-0.5,1.2-0.7,2.7-0.7,4.5v20.5l-0.7,0.7h-5.9l-0.7-0.7v-35.1l0.7-0.7h5.1l0.7,0.7l0.7,2.9h0.7
		c0.7-1.1,1.8-2.1,3.3-3c1.5-0.9,3.5-1.4,6.2-1.4c1.5,0,2.7,0.2,3.7,0.5c1,0.3,1.9,0.7,2.6,1.2s1.3,1.1,1.8,1.7
		c0.5,0.6,0.9,1.2,1.3,1.7h0.7c1.1-1.5,2.6-2.7,4.4-3.7c1.8-1,4-1.5,6.6-1.5c2.5,0,4.6,0.4,6.3,1.2c1.6,0.8,2.9,1.8,3.8,3.1
		c0.9,1.3,1.5,2.9,1.9,4.6c0.3,1.8,0.5,3.7,0.5,5.7v21.9L234,373z"/>
	<path fill="#FFFFFF" d="M263.3,343h-3.7c-1.5,0-2.8,0.2-3.9,0.5c-1.2,0.3-2.2,0.9-3,1.7c-0.8,0.8-1.5,2-1.9,3.4
		c-0.4,1.4-0.7,3.2-0.7,5.4v18.3l-0.7,0.7h-5.9l-0.7-0.7v-35.1l0.7-0.7h5.1l0.7,0.7l0.7,2.9h0.7c0.5-0.5,1.1-1,1.7-1.5
		c0.6-0.5,1.2-0.9,2-1.2c0.7-0.3,1.6-0.6,2.5-0.7c1-0.2,2.1-0.3,3.3-0.3h2.9l0.7,0.7v5.1L263.3,343z"/>
	<path fill="#FFFFFF" d="M296.2,373h-5.1l-0.7-0.7l-0.7-2.9h-0.7c-0.7,0.8-1.5,1.6-2.4,2.2c-0.8,0.5-1.9,1-3.1,1.5
		c-1.3,0.5-2.8,0.7-4.7,0.7c-4.1,0-7.2-1-9.3-3.1c-2.1-2.1-3.1-4.9-3.1-8.6c0-2,0.4-3.7,1.2-5.2c0.8-1.5,1.9-2.7,3.3-3.7
		c1.4-1,3.1-1.7,5.1-2.1c2-0.5,4.2-0.7,6.5-0.7c0.9,0,1.8,0,2.6,0.1c0.8,0.1,1.5,0.2,2.1,0.3c0.3,0.1,0.7,0.2,1,0.2
		c0.3,0,0.6,0.1,0.9,0.1l0.7-0.7v-1.5c0-2.6-0.6-4.3-1.7-5.2c-1.1-0.9-3-1.4-5.6-1.4c-2.6,0-4.5,0.4-5.6,1.1
		c-1.1,0.7-1.7,1.8-1.7,3.3l-0.7,0.7h-5.9l-0.7-0.7c0-1.3,0.2-2.6,0.7-3.9c0.5-1.3,1.3-2.5,2.4-3.5c1.1-1,2.7-1.9,4.5-2.6
		c1.9-0.7,4.2-1,6.9-1c2.7,0,5,0.3,6.9,1c1.9,0.7,3.4,1.6,4.5,3c1.1,1.3,2,3,2.4,5c0.5,2,0.7,4.4,0.7,7.1v20.5L296.2,373z
		 M289.6,357.6l-0.7-0.7l-1.5-0.4c-0.5-0.1-1.2-0.2-1.9-0.3c-0.7-0.1-1.5-0.1-2.4-0.1c-3.4,0-5.8,0.5-7.3,1.5
		c-1.5,1-2.2,2.5-2.2,4.3c0,1.9,0.5,3.2,1.6,4c1.1,0.8,2.7,1.2,4.9,1.2c2.9,0,5.2-0.7,6.9-2c1.7-1.3,2.6-3.1,2.6-5.3V357.6z"/>
	<path fill="#FFFFFF" d="M333.5,373h-29.3l-0.7-0.7v-5.9l0.7-1.5l19.7-21.2V343h-19l-0.7-0.7v-5.1l0.7-0.7h27.8l0.7,0.7v5.9
		l-0.7,1.5L313,365.7v0.7h20.5l0.7,0.7v5.1L333.5,373z"/>
	<path fill="#FFFFFF" d="M346.6,331.3l-1.5,0.7h-3.7l-0.7-0.7v-1.5l6.6-7.3l1.5-0.7h5.1l0.7,0.7v1.5L346.6,331.3z M348.1,373h-5.9
		l-0.7-0.7v-35.1l0.7-0.7h5.9l0.7,0.7v35.1L348.1,373z"/>
	<path fill="#FFFFFF" d="M378.1,343h-3.7c-1.5,0-2.8,0.2-3.9,0.5c-1.2,0.3-2.2,0.9-3,1.7c-0.8,0.8-1.5,2-1.9,3.4
		c-0.4,1.4-0.7,3.2-0.7,5.4v18.3l-0.7,0.7h-5.9l-0.7-0.7v-35.1l0.7-0.7h5.1l0.7,0.7l0.7,2.9h0.7c0.5-0.5,1.1-1,1.7-1.5
		c0.6-0.5,1.2-0.9,2-1.2c0.7-0.3,1.6-0.6,2.5-0.7c1-0.2,2.1-0.3,3.3-0.3h2.9l0.7,0.7v5.1L378.1,343z"/>
	<path fill="#FFFFFF" d="M397.8,373.7c-2.9,0-5.5-0.5-7.7-1.4s-4-2.3-5.5-3.9c-1.5-1.7-2.6-3.7-3.3-6c-0.7-2.3-1.1-4.9-1.1-7.6
		c0-2.5,0.3-5,1-7.3c0.7-2.3,1.7-4.3,3-6.1c1.4-1.7,3.1-3.1,5.2-4.1c2.1-1,4.6-1.5,7.6-1.5c2.9,0,5.4,0.5,7.6,1.5
		c2.1,1,3.9,2.4,5.2,4.1c1.4,1.7,2.4,3.8,3,6.1c0.7,2.3,1,4.7,1,7.3v2.2l-0.7,0.7h-24.1l-0.7,0.7c0,0.4,0.1,1.1,0.3,2
		c0.2,1,0.6,1.9,1.2,2.9c0.6,1,1.6,1.9,2.9,2.7c1.3,0.8,3,1.2,5.2,1.2c1.5,0,2.9-0.3,4.2-0.8c1.3-0.5,2.4-1.7,3.1-3.6l0.7-0.7h5.9
		l0.7,0.7c-0.2,1.5-0.7,2.9-1.4,4.2c-0.7,1.3-1.7,2.5-2.9,3.5c-1.2,1-2.7,1.8-4.4,2.4C402,373.4,400,373.7,397.8,373.7z M405.9,351
		c0-0.5-0.1-1.3-0.3-2.3c-0.2-1-0.5-2-1.1-2.9c-0.6-1-1.5-1.8-2.6-2.5c-1.2-0.7-2.8-1.1-4.8-1.1c-2,0-3.6,0.4-4.8,1.1
		c-1.2,0.7-2,1.5-2.6,2.5c-0.6,1-1,1.9-1.1,2.9c-0.2,1-0.3,1.8-0.3,2.3l0.7,0.7h16.1L405.9,351z"/>
	<path fill="#FFFFFF" d="M451.2,373h-5.9l-0.7-0.7V351c0-0.9-0.1-1.9-0.2-2.9c-0.1-1-0.5-2-1-2.9c-0.5-0.9-1.2-1.6-2.2-2.2
		c-0.9-0.6-2.3-0.8-3.9-0.8c-3.4,0-5.8,1-7.3,2.9c-1.5,1.9-2.2,5.1-2.2,9.5v17.6l-0.7,0.7h-5.9l-0.7-0.7v-35.1l0.7-0.7h5.1l0.7,0.7
		l0.7,2.9h0.7c0.7-0.8,1.4-1.6,2.3-2.2c0.8-0.5,1.8-1,3-1.5c1.2-0.5,2.6-0.7,4.3-0.7c2.5,0,4.7,0.4,6.5,1.2c1.8,0.8,3.2,1.9,4.3,3.2
		c1.1,1.4,1.9,3,2.4,4.9c0.5,1.9,0.7,3.9,0.7,6.1v21.2L451.2,373z"/>
	<path fill="#FFFFFF" d="M44.6,416.9c0,4-1,7.2-3,9.4c-2,2.2-4.7,3.7-8,4.5v0.7l10.2,16.1v5.1l-0.7,0.7h-2.9l-1.5-0.7l-13.2-20.5
		l-1.5-0.7H12.4l-0.7,0.7v20.5l-0.7,0.7H5.1l-0.7-0.7V403l0.7-0.7h22.7c5.1,0,9.2,1.2,12.2,3.5C43.1,408,44.6,411.7,44.6,416.9z
		 M37.3,416.9c0-2.9-0.7-5-2.2-6.2c-1.5-1.2-3.9-1.8-7.3-1.8H12.4l-0.7,0.7v14.6l0.7,0.7h15.4c3.4,0,5.8-0.6,7.3-1.8
		C36.6,421.9,37.3,419.8,37.3,416.9z"/>
	<path fill="#FFFFFF" d="M49.7,435.1c0-2.9,0.4-5.6,1.2-7.9c0.8-2.3,2-4.3,3.5-6c1.5-1.7,3.4-2.9,5.5-3.8c2.2-0.9,4.6-1.3,7.4-1.3
		c2.7,0,5.2,0.4,7.4,1.3c2.2,0.9,4,2.1,5.5,3.8c1.5,1.7,2.7,3.7,3.5,6c0.8,2.3,1.2,5,1.2,7.9s-0.4,5.6-1.2,7.9s-2,4.3-3.5,6
		c-1.5,1.7-3.4,2.9-5.5,3.8c-2.2,0.9-4.6,1.3-7.4,1.3c-2.7,0-5.2-0.4-7.4-1.3c-2.2-0.9-4-2.1-5.5-3.8c-1.5-1.7-2.7-3.7-3.5-6
		C50.1,440.7,49.7,438.1,49.7,435.1z M57,435.1c0,4.1,0.9,7.2,2.6,9.3c1.7,2.1,4.3,3.1,7.6,3.1c3.4,0,5.9-1,7.6-3.1
		c1.7-2.1,2.6-5.2,2.6-9.3c0-4.1-0.9-7.2-2.6-9.3c-1.7-2.1-4.3-3.1-7.6-3.1c-3.4,0-5.9,1-7.6,3.1C57.9,427.9,57,431,57,435.1z"/>
	<path fill="#FFFFFF" d="M109.7,452.7l-0.7,0.7h-6.6l-0.7-0.7l-12.4-30v-5.1l0.7-0.7h4.4l0.7,0.7l10.2,25.6h0.7l10.2-25.6l0.7-0.7
		h4.4l0.7,0.7v5.1L109.7,452.7z"/>
	<path fill="#FFFFFF" d="M159.4,453.4h-5.9l-0.7-0.7v-21.2c0-0.9-0.1-1.9-0.2-2.9c-0.1-1-0.5-2-1-2.9c-0.5-0.9-1.2-1.6-2.2-2.2
		c-0.9-0.6-2.3-0.8-3.9-0.8c-3.4,0-5.8,1-7.3,2.9c-1.5,1.9-2.2,5.1-2.2,9.5v17.6l-0.7,0.7h-5.9l-0.7-0.7v-35.1l0.7-0.7h5.1l0.7,0.7
		l0.7,2.9h0.7c0.7-0.8,1.4-1.6,2.3-2.2c0.8-0.5,1.8-1,3-1.5c1.2-0.5,2.6-0.7,4.3-0.7c2.5,0,4.7,0.4,6.5,1.2c1.8,0.8,3.2,1.9,4.3,3.2
		c1.1,1.4,1.9,3,2.4,4.9c0.5,1.9,0.7,3.9,0.7,6.1v21.2L159.4,453.4z"/>
	<path fill="#FFFFFF" d="M183.6,454.1c-2.9,0-5.5-0.5-7.7-1.4c-2.2-1-4-2.3-5.5-3.9c-1.5-1.7-2.6-3.7-3.3-6
		c-0.7-2.3-1.1-4.9-1.1-7.6c0-2.5,0.3-5,1-7.3c0.7-2.3,1.7-4.3,3-6.1c1.4-1.7,3.1-3.1,5.2-4.1c2.1-1,4.6-1.5,7.6-1.5
		c2.9,0,5.4,0.5,7.6,1.5c2.1,1,3.9,2.4,5.2,4.1c1.4,1.7,2.4,3.8,3,6.1c0.7,2.3,1,4.7,1,7.3v2.2l-0.7,0.7h-24.1l-0.7,0.7
		c0,0.4,0.1,1.1,0.3,2c0.2,1,0.6,1.9,1.2,2.9c0.6,1,1.6,1.9,2.9,2.7c1.3,0.8,3,1.2,5.2,1.2c1.5,0,2.9-0.3,4.2-0.8
		c1.3-0.5,2.4-1.7,3.1-3.6l0.7-0.7h5.9l0.7,0.7c-0.2,1.5-0.7,2.9-1.4,4.2c-0.7,1.3-1.7,2.5-2.9,3.5c-1.2,1-2.7,1.8-4.4,2.4
		C187.7,453.9,185.8,454.1,183.6,454.1z M191.6,431.5c0-0.5-0.1-1.3-0.3-2.3c-0.2-1-0.5-2-1.1-2.9c-0.6-1-1.5-1.8-2.6-2.5
		c-1.2-0.7-2.8-1.1-4.8-1.1c-2,0-3.6,0.4-4.8,1.1c-1.2,0.7-2,1.5-2.6,2.5c-0.6,1-1,1.9-1.1,2.9c-0.2,1-0.3,1.8-0.3,2.3l0.7,0.7h16.1
		L191.6,431.5z"/>
	<path fill="#FFFFFF" d="M226.7,423.4h-3.7c-1.5,0-2.8,0.2-3.9,0.5c-1.2,0.3-2.2,0.9-3,1.7c-0.8,0.8-1.5,2-1.9,3.4
		c-0.4,1.4-0.7,3.2-0.7,5.4v18.3l-0.7,0.7H207l-0.7-0.7v-35.1l0.7-0.7h5.1l0.7,0.7l0.7,2.9h0.7c0.5-0.5,1.1-1,1.7-1.5
		c0.6-0.5,1.2-0.9,2-1.2c0.7-0.3,1.6-0.6,2.5-0.7c1-0.2,2.1-0.3,3.3-0.3h2.9l0.7,0.7v5.1L226.7,423.4z"/>
</g>
</svg>
