<?xml version="1.0" encoding="utf-8"?>
<!-- Generator: Adobe Illustrator 19.0.1, SVG Export Plug-In . SVG Version: 6.00 Build 0)  -->
<!DOCTYPE svg PUBLIC "-//W3C//DTD SVG 1.1//EN" "http://www.w3.org/Graphics/SVG/1.1/DTD/svg11.dtd">
<svg version="1.1" id="Vrstva_1" xmlns="http://www.w3.org/2000/svg" xmlns:xlink="http://www.w3.org/1999/xlink" x="0px" y="0px"
	 viewBox="-447 371.4 384 57.6" enable-background="new -447 371.4 384 57.6" xml:space="preserve">
<g>
	<path fill="#FFFFFF" d="M-403,413c0,2.2-0.4,4.3-1.2,6.2c-0.8,1.9-2.1,3.6-3.9,5.1c-1.8,1.4-4,2.6-6.7,3.4c-2.7,0.9-6,1.3-9.8,1.3
		c-3.4,0-6.5-0.4-9.2-1.2c-2.7-0.8-5.1-2-7-3.5c-1.9-1.5-3.5-3.5-4.5-5.8c-1.2-2.3-1.7-4.9-1.7-7.9l0.8-0.8h6.4l0.8,0.8
		c0,4,1.3,6.9,4,8.6c2.6,1.7,6.4,2.6,11.2,2.6c1.8,0,3.5-0.2,5-0.5c1.5-0.3,2.9-0.8,4-1.5c1.1-0.7,2.1-1.6,2.7-2.7
		c0.7-1.1,1-2.5,1-4.1c0-1.8-0.3-3.3-0.9-4.4c-0.6-1.1-1.6-2.1-2.9-2.8c-1.3-0.7-3-1.3-5-1.8s-4.4-0.9-7.2-1.3
		c-5.6-0.8-10.1-2.5-13.4-5s-5-6.2-5-11c0-1.8,0.4-3.6,1.1-5.4c0.7-1.8,1.9-3.4,3.5-4.9s3.7-2.6,6.2-3.5s5.6-1.4,9.2-1.4
		c3,0,5.8,0.3,8.3,0.9c2.6,0.6,4.8,1.6,6.6,3s3.3,3.1,4.3,5.2c1,2.1,1.6,4.7,1.6,7.7l-0.8,0.8h-6.4l-0.7-0.9c0-1.6-0.2-3-0.7-4.2
		c-0.5-1.2-1.2-2.2-2.2-3c-1-0.8-2.4-1.4-4.2-1.8c-1.7-0.4-3.9-0.6-6.5-0.6c-3.7,0-6.5,0.7-8.4,2.2s-2.8,3.4-2.8,5.8
		c0,1.6,0.3,2.9,0.8,4c0.5,1,1.4,1.9,2.6,2.6c1.2,0.7,2.8,1.3,4.7,1.8c1.9,0.5,4.3,0.9,7.1,1.2c2.8,0.4,5.3,1,7.7,1.8
		c2.4,0.7,4.4,1.8,6.1,3c1.7,1.3,3,2.9,4,4.8C-403.5,407.8-403,410.2-403,413z"/>
	<path fill="#FFFFFF" d="M-373.4,428.2h-6.4c-1.4,0-2.8-0.2-4.1-0.6c-1.4-0.4-2.6-1-3.6-1.9c-1-0.9-1.9-1.9-2.5-3.2
		c-0.6-1.3-1-2.9-1-4.7v-21.6l-0.8-0.8h-5.6l-0.8-0.8V389l0.8-0.8h5.6l0.8-0.8v-7.2l0.8-0.8h6.4l0.8,0.8v7.2l0.8,0.8h8.8l0.8,0.8
		v5.6l-0.8,0.8h-8.8l-0.8,0.8v21.6c0,1.2,0.3,2.1,1,2.5c0.7,0.5,1.4,0.7,2.2,0.7h6.4l0.8,0.8v5.6L-373.4,428.2z"/>
	<path fill="#FFFFFF" d="M-334.2,428.2h-5.6l-0.8-0.8l-0.8-3.2h-0.8c-0.7,0.9-1.6,1.7-2.6,2.4c-0.9,0.6-2.1,1.1-3.4,1.6
		c-1.4,0.5-3.1,0.8-5.1,0.8c-4.5,0-7.9-1.1-10.2-3.4c-2.4-2.3-3.5-5.4-3.5-9.4c0-2.2,0.4-4.1,1.3-5.7c0.9-1.6,2.1-3,3.6-4
		s3.4-1.8,5.6-2.3s4.5-0.8,7.2-0.8c1,0,2,0,2.8,0.1c0.9,0.1,1.6,0.2,2.3,0.3c0.4,0.1,0.7,0.2,1.1,0.2c0.3,0.1,0.7,0.1,1,0.2l0.8-0.8
		v-1.6c0-2.8-0.6-4.7-1.9-5.7c-1.3-1-3.3-1.5-6.1-1.5c-2.9,0-4.9,0.4-6.2,1.2c-1.2,0.8-1.8,2-1.8,3.6l-0.9,0.8h-6.4l-0.8-0.8
		c0-1.4,0.3-2.8,0.8-4.2c0.5-1.4,1.4-2.7,2.7-3.9c1.3-1.1,2.9-2.1,5-2.8c2.1-0.7,4.6-1.1,7.6-1.1s5.5,0.4,7.6,1.1
		c2.1,0.7,3.7,1.8,5,3.2c1.3,1.4,2.1,3.3,2.7,5.5c0.5,2.2,0.8,4.8,0.8,7.8v22.4L-334.2,428.2z M-341.4,411.4l-0.8-0.8l-1.7-0.4
		c-0.6-0.1-1.3-0.2-2-0.3c-0.8-0.1-1.7-0.1-2.7-0.1c-3.7,0-6.3,0.6-8,1.7c-1.6,1.1-2.4,2.7-2.4,4.7s0.6,3.5,1.8,4.3
		c1.2,0.9,3,1.3,5.4,1.3c3.2,0,5.7-0.7,7.6-2.2c1.9-1.5,2.8-3.4,2.8-5.8C-341.4,413.8-341.4,411.4-341.4,411.4z"/>
	<path fill="#FFFFFF" d="M-302.2,395.4h-4c-1.6,0-3,0.2-4.3,0.5s-2.4,1-3.3,1.9c-0.9,0.9-1.6,2.1-2.1,3.7c-0.5,1.5-0.7,3.5-0.7,5.9
		v20l-0.8,0.8h-6.4l-0.8-0.8V389l0.8-0.8h5.6l0.8,0.8l0.8,3.2h0.8c0.6-0.6,1.2-1.1,1.8-1.6s1.4-0.9,2.2-1.3c0.8-0.3,1.7-0.6,2.8-0.8
		c1-0.2,2.3-0.3,3.6-0.3h3.2l0.8,0.8v5.6L-302.2,395.4z"/>
	<path fill="#FFFFFF" d="M-273.4,428.2h-6.4c-1.4,0-2.8-0.2-4.1-0.6c-1.4-0.4-2.6-1-3.6-1.9c-1-0.9-1.9-1.9-2.5-3.2
		c-0.6-1.3-1-2.9-1-4.7v-21.6l-0.8-0.8h-5.6l-0.8-0.8V389l0.8-0.8h5.6l0.8-0.8v-7.2l0.8-0.8h6.4l0.8,0.8v7.2l0.8,0.8h8.8l0.8,0.8
		v5.6l-0.8,0.8h-8.8l-0.8,0.8v21.6c0,1.2,0.3,2.1,1,2.5c0.7,0.5,1.4,0.7,2.2,0.7h6.4l0.8,0.8v5.6L-273.4,428.2z"/>
	<path fill="#FFFFFF" d="M-231.8,428.2l-0.8-0.8v-44.8h-0.8l-9.6,9.6h-1.6l-0.8-0.8V385l12-12l1.6-0.8h6.4l0.8,0.8v54.4l-0.8,0.8
		C-225.4,428.2-231.8,428.2-231.8,428.2z"/>
	<path fill="#FFFFFF" d="M-215,400.2c0-5.4,0.5-9.9,1.6-13.6c1-3.7,2.5-6.6,4.2-8.9c1.8-2.2,3.9-3.9,6.3-4.8c2.4-1,5.1-1.5,7.9-1.5
		c2.8,0,5.4,0.5,7.8,1.5c2.5,1,4.6,2.6,6.4,4.8c1.8,2.2,3.2,5.2,4.2,8.9c1,3.7,1.6,8.2,1.6,13.6c0,5.4-0.5,9.9-1.6,13.6
		c-1,3.7-2.5,6.6-4.2,8.9c-1.8,2.2-3.9,3.9-6.4,4.8c-2.5,1-5.1,1.5-7.8,1.5c-2.8,0-5.5-0.5-7.9-1.5s-4.5-2.6-6.3-4.8
		c-1.8-2.2-3.2-5.2-4.2-8.9C-214.5,410.1-215,405.6-215,400.2z M-207,400.2c0,4,0.3,7.4,0.9,10.1c0.6,2.7,1.4,5,2.4,6.7
		c1,1.7,2.3,2.9,3.8,3.7c1.5,0.7,3.1,1.1,4.9,1.1c1.8,0,3.5-0.4,4.9-1.1c1.5-0.7,2.7-2,3.8-3.7c1-1.7,1.9-3.9,2.4-6.7
		c0.6-2.7,0.9-6.1,0.9-10.1s-0.3-7.4-0.9-10.1c-0.6-2.7-1.4-5-2.4-6.7s-2.3-2.9-3.8-3.7c-1.5-0.7-3.1-1.1-4.9-1.1
		c-1.8,0-3.5,0.4-4.9,1.1c-1.5,0.7-2.7,2-3.8,3.7c-1,1.7-1.9,3.9-2.4,6.7C-206.7,392.8-207,396.2-207,400.2z"/>
	<path fill="#FFFFFF" d="M-159.8,428.2h-8l-0.8-0.8v-8l0.8-0.8h8l0.8,0.8v8L-159.8,428.2z"/>
	<path fill="#FFFFFF" d="M-149.4,400.2c0-5.4,0.5-9.9,1.6-13.6c1-3.7,2.5-6.6,4.2-8.9c1.8-2.2,3.9-3.9,6.3-4.8
		c2.4-1,5.1-1.5,7.9-1.5s5.4,0.5,7.8,1.5c2.5,1,4.6,2.6,6.4,4.8c1.8,2.2,3.2,5.2,4.2,8.9c1,3.7,1.6,8.2,1.6,13.6
		c0,5.4-0.5,9.9-1.6,13.6c-1,3.7-2.5,6.6-4.2,8.9c-1.8,2.2-3.9,3.9-6.4,4.8c-2.5,1-5.1,1.5-7.8,1.5c-2.8,0-5.5-0.5-7.9-1.5
		s-4.5-2.6-6.3-4.8c-1.8-2.2-3.2-5.2-4.2-8.9C-148.9,410.1-149.4,405.6-149.4,400.2z M-141.4,400.2c0,4,0.3,7.4,0.9,10.1
		c0.6,2.7,1.4,5,2.4,6.7c1,1.7,2.3,2.9,3.8,3.7c1.5,0.7,3.1,1.1,4.9,1.1s3.5-0.4,4.9-1.1c1.5-0.7,2.7-2,3.8-3.7
		c1-1.7,1.9-3.9,2.4-6.7c0.6-2.7,0.9-6.1,0.9-10.1s-0.3-7.4-0.9-10.1c-0.6-2.7-1.4-5-2.4-6.7s-2.3-2.9-3.8-3.7
		c-1.5-0.7-3.1-1.1-4.9-1.1s-3.5,0.4-4.9,1.1c-1.5,0.7-2.7,2-3.8,3.7c-1,1.7-1.9,3.9-2.4,6.7C-141.1,392.8-141.4,396.2-141.4,400.2z
		"/>
	<path fill="#FFFFFF" d="M-103,400.2c0-5.4,0.5-9.9,1.6-13.6c1-3.7,2.5-6.6,4.2-8.9c1.8-2.2,3.9-3.9,6.3-4.8c2.4-1,5.1-1.5,7.9-1.5
		s5.4,0.5,7.8,1.5c2.5,1,4.6,2.6,6.4,4.8c1.8,2.2,3.2,5.2,4.2,8.9c1,3.7,1.6,8.2,1.6,13.6c0,5.4-0.5,9.9-1.6,13.6
		c-1,3.7-2.5,6.6-4.2,8.9c-1.8,2.2-3.9,3.9-6.4,4.8c-2.5,1-5.1,1.5-7.8,1.5c-2.8,0-5.5-0.5-7.9-1.5s-4.5-2.6-6.3-4.8
		c-1.8-2.2-3.2-5.2-4.2-8.9C-102.5,410.1-103,405.6-103,400.2z M-95,400.2c0,4,0.3,7.4,0.9,10.1c0.6,2.7,1.4,5,2.4,6.7
		c1,1.7,2.3,2.9,3.8,3.7c1.5,0.7,3.1,1.1,4.9,1.1s3.5-0.4,4.9-1.1c1.5-0.7,2.7-2,3.8-3.7c1-1.7,1.9-3.9,2.4-6.7
		c0.6-2.7,0.9-6.1,0.9-10.1s-0.3-7.4-0.9-10.1c-0.6-2.7-1.4-5-2.4-6.7s-2.3-2.9-3.8-3.7c-1.5-0.7-3.1-1.1-4.9-1.1s-3.5,0.4-4.9,1.1
		c-1.5,0.7-2.7,2-3.8,3.7c-1,1.7-1.9,3.9-2.4,6.7C-94.7,392.8-95,396.2-95,400.2z"/>
</g>
</svg>
