<?xml version="1.0" encoding="utf-8"?>
<!-- Generator: Adobe Illustrator 19.0.1, SVG Export Plug-In . SVG Version: 6.00 Build 0)  -->
<!DOCTYPE svg PUBLIC "-//W3C//DTD SVG 1.1//EN" "http://www.w3.org/Graphics/SVG/1.1/DTD/svg11.dtd">
<svg version="1.1" id="Vrstva_1" xmlns="http://www.w3.org/2000/svg" xmlns:xlink="http://www.w3.org/1999/xlink" x="0px" y="0px"
	 viewBox="-447 372.2 384 56.8" enable-background="new -447 372.2 384 56.8" xml:space="preserve">
<g>
	<path fill="#FFFFFF" d="M-410.2,428.6h-36l-0.8-0.8v-6.4l0.8-1.6l16-12.8c2-1.6,3.7-3.1,5.1-4.4s2.6-2.7,3.5-4.1s1.5-2.8,2-4.2
		c0.4-1.4,0.6-3.1,0.6-4.9c0-1.4-0.2-2.7-0.5-4s-0.9-2.4-1.6-3.3c-0.7-1-1.7-1.7-3-2.3c-1.2-0.6-2.7-0.8-4.6-0.8
		c-3.7,0-6.3,0.9-8,2.8c-1.5,1.9-2.3,4.4-2.3,7.6l-0.8,0.8h-6.4l-0.8-0.8c0-2.6,0.4-5,1.2-7.2c0.8-2.2,2-4,3.5-5.6
		c1.5-1.5,3.5-2.7,5.8-3.6c2.3-0.8,4.9-1.2,7.9-1.2c3.2,0,5.9,0.5,8.2,1.5c2.2,1,4.1,2.3,5.4,3.9c1.4,1.6,2.4,3.4,3,5.4s1,4,1,6
		c0,2.6-0.3,4.9-0.9,7s-1.4,3.9-2.6,5.7c-1.1,1.7-2.5,3.4-4,5c-1.6,1.6-3.3,3.2-5.3,4.8l-12,9.6v0.8h25.6l0.8,0.8v5.5L-410.2,428.6z
		"/>
	<path fill="#FFFFFF" d="M-364.6,399c0,5.6-0.4,10.3-1.3,14.2c-0.9,3.9-2.2,7-4,9.4c-1.8,2.4-3.9,4.1-6.5,5.2s-5.6,1.6-9,1.6
		c-4.4,0-8.1-1.2-11-3.5s-4.6-5.7-5-10.1l0.8-0.8h6.4l0.8,0.8c0.4,2.4,1.4,4.1,2.9,5s3.5,1.4,5.9,1.4c1.9,0,3.4-0.3,4.7-1
		c1.3-0.6,2.3-1.5,3.2-2.5c0.8-1,1.5-2.2,1.9-3.5c0.5-1.3,0.8-2.6,1-3.9s0.3-2.5,0.4-3.7c0-1.2,0-2.2,0-3h-0.8
		c-0.4,0.4-0.8,0.7-1.2,1.1c-0.4,0.3-0.9,0.7-1.4,0.9c-0.9,0.5-2.1,1-3.4,1.4c-1.4,0.4-3.1,0.6-5.1,0.6c-2.6,0-5-0.4-7.2-1.3
		s-4-2.1-5.6-3.7c-1.5-1.6-2.7-3.5-3.6-5.8s-1.3-4.8-1.3-7.6c0-3,0.5-5.6,1.4-7.9s2.2-4.2,3.9-5.8c1.7-1.5,3.6-2.7,5.8-3.5
		c2.3-0.8,4.7-1.2,7.3-1.2c3.2,0,6,0.4,8.5,1.3s4.6,2.4,6.3,4.5c1.7,2.1,3,4.9,3.9,8.4S-364.6,393.8-364.6,399z M-395,390.2
		c0,3.7,0.9,6.5,2.8,8.4s4.4,2.8,7.6,2.8c3.7,0,6.5-0.9,8.4-2.8s2.8-4.7,2.8-8.4c0-4-1.1-6.9-3.2-8.6s-4.8-2.6-8-2.6
		s-5.7,0.9-7.6,2.8C-394.1,383.7-395,386.5-395,390.2z"/>
	<path fill="#FFFFFF" d="M-353.4,427.8l-0.8,0.8h-4l-0.8-0.8v-5.6l28.8-48.8l0.8-0.8h4l0.8,0.8v5.6L-353.4,427.8z"/>
	<path fill="#FFFFFF" d="M-281.4,412.6c0,2.2-0.4,4.3-1.2,6.3c-0.8,2-2,3.8-3.6,5.4c-1.6,1.5-3.6,2.8-6,3.7
		c-2.4,0.9-5.2,1.4-8.4,1.4c-3.2,0-6-0.5-8.4-1.4c-2.4-0.9-4.4-2.2-6-3.7c-1.6-1.5-2.8-3.3-3.6-5.4c-0.8-2-1.2-4.1-1.2-6.3
		c0-2,0.3-3.7,0.8-5.2s1.2-2.8,2-3.9c0.8-1.1,1.7-2,2.6-2.7c0.9-0.7,1.8-1.3,2.6-1.7v-0.8c-0.6-0.4-1.3-0.9-2-1.5
		c-0.7-0.6-1.4-1.4-2.1-2.3c-0.6-0.9-1.2-2-1.6-3.2c-0.5-1.2-0.7-2.6-0.7-4.2c0-2,0.4-3.9,1.1-5.7c0.7-1.8,1.8-3.5,3.2-4.9
		c1.4-1.4,3.3-2.5,5.5-3.4c2.2-0.8,4.8-1.2,7.8-1.2s5.6,0.4,7.8,1.2c2.2,0.8,4,1.9,5.5,3.4c1.4,1.4,2.5,3,3.2,4.9
		c0.7,1.8,1.1,3.7,1.1,5.7c0,1.6-0.2,3-0.7,4.2s-1,2.3-1.6,3.2c-0.6,0.9-1.3,1.7-2.1,2.3c-0.7,0.6-1.4,1.1-2,1.5v0.8
		c0.8,0.4,1.7,1,2.6,1.7c0.9,0.7,1.8,1.6,2.6,2.7c0.8,1.1,1.5,2.4,2,3.9C-281.7,408.9-281.4,410.6-281.4,412.6z M-289.4,412.6
		c0-1.4-0.2-2.7-0.6-4c-0.4-1.3-1.1-2.4-2-3.3c-0.9-1-2-1.7-3.5-2.3c-1.4-0.6-3.1-0.8-5.1-0.8s-3.7,0.3-5.2,0.8
		c-1.4,0.6-2.6,1.3-3.4,2.3c-0.9,1-1.5,2.1-2,3.3c-0.4,1.3-0.6,2.6-0.6,4c0,1.2,0.2,2.4,0.6,3.6c0.4,1.1,1.1,2.2,2,3
		c0.9,0.8,2,1.6,3.4,2.2c1.4,0.6,3.1,0.8,5.2,0.8c2,0,3.7-0.3,5.1-0.8c1.4-0.6,2.6-1.3,3.5-2.2s1.5-1.9,2-3
		C-289.6,415-289.4,413.8-289.4,412.6z M-291,387c0-1-0.2-2-0.5-3s-0.9-1.8-1.6-2.6c-0.7-0.7-1.7-1.3-3-1.8
		c-1.2-0.5-2.7-0.7-4.6-0.7c-1.8,0-3.3,0.2-4.6,0.7c-1.2,0.5-2.2,1.1-3,1.8c-0.7,0.7-1.3,1.6-1.6,2.6s-0.5,1.9-0.5,3
		c0,2.4,0.8,4.5,2.4,6.2s4,2.6,7.2,2.6c3.2,0,5.6-0.9,7.2-2.6C-291.8,391.5-291,389.4-291,387z"/>
</g>
</svg>
