<?xml version="1.0" encoding="utf-8"?>
<!-- Generator: Adobe Illustrator 19.0.1, SVG Export Plug-In . SVG Version: 6.00 Build 0)  -->
<!DOCTYPE svg PUBLIC "-//W3C//DTD SVG 1.1//EN" "http://www.w3.org/Graphics/SVG/1.1/DTD/svg11.dtd">
<svg version="1.1" id="Vrstva_1" xmlns="http://www.w3.org/2000/svg" xmlns:xlink="http://www.w3.org/1999/xlink" x="0px" y="0px"
	 viewBox="0 0 564 216.8" enable-background="new 0 0 564 216.8" xml:space="preserve">
<g>
	<path fill="#00B000" d="M160.4,28c0,4.2-0.4,8-1.3,11.5s-2.3,6.4-4.4,8.8c-2.1,2.5-4.8,4.3-8.1,5.7c-3.4,1.3-7.5,2-12.6,2h-16.8
		l-0.8-0.8V0.8l0.8-0.8H134c5,0,9.2,0.7,12.6,2c3.4,1.3,6.1,3.2,8.1,5.7c2.1,2.5,3.5,5.4,4.4,8.8S160.4,23.8,160.4,28z M152.4,28
		c0-3.4-0.3-6.4-0.9-9c-0.6-2.6-1.6-4.8-3-6.5c-1.4-1.8-3.4-3.1-5.9-4s-5.6-1.3-9.4-1.3h-8L124.4,8v40l0.8,0.8h8
		c3.8,0,6.9-0.4,9.4-1.3s4.4-2.2,5.9-4c1.4-1.8,2.5-3.9,3-6.5C152.1,34.4,152.4,31.4,152.4,28z"/>
	<path fill="#00B000" d="M185.2,56.8c-3.2,0-6-0.5-8.4-1.6c-2.4-1-4.4-2.5-6-4.3s-2.8-4-3.6-6.6c-0.8-2.6-1.2-5.3-1.2-8.3
		c0-2.8,0.4-5.4,1.1-8c0.7-2.5,1.8-4.7,3.3-6.6c1.5-1.9,3.4-3.4,5.7-4.5c2.3-1.1,5.1-1.7,8.3-1.7c3.2,0,6,0.6,8.3,1.7
		s4.2,2.6,5.7,4.5c1.5,1.9,2.6,4.1,3.3,6.6c0.7,2.5,1.1,5.2,1.1,8v2.4l-0.8,0.8h-26.4l-0.8,0.8c0,0.4,0.1,1.2,0.3,2.2
		c0.2,1,0.6,2.1,1.3,3.2c0.7,1.1,1.7,2.1,3.1,2.9c1.4,0.9,3.3,1.3,5.7,1.3c1.6,0,3.1-0.3,4.6-0.9c1.4-0.6,2.6-1.9,3.4-3.9L194,44
		h6.4l0.8,0.8c-0.2,1.6-0.7,3.1-1.5,4.6s-1.9,2.7-3.2,3.8c-1.3,1.1-2.9,2-4.8,2.6C189.7,56.5,187.6,56.8,185.2,56.8z M172.4,0h4
		l1.6,0.8l5.6,4.8h1.6l5.6-4.8l1.6-0.8h4l0.8,0.8v1.6l-7.2,8l-1.6,0.8h-8l-1.6-0.8l-7.2-8V0.8L172.4,0z M194,32
		c0-0.6-0.1-1.4-0.3-2.5c-0.2-1.1-0.6-2.2-1.2-3.2c-0.6-1-1.6-1.9-2.9-2.7c-1.3-0.8-3-1.2-5.2-1.2c-2.2,0-3.9,0.4-5.2,1.2
		c-1.3,0.8-2.2,1.7-2.9,2.7c-0.6,1-1.1,2.1-1.2,3.2c-0.2,1.1-0.3,1.9-0.3,2.5l0.8,0.8h17.6L194,32z"/>
	<path fill="#00B000" d="M242,56h-3.2l-1.6-0.8l-12-15.2h-0.8l-5.6,5.6l-0.8,1.6v8l-0.8,0.8h-6.4l-0.8-0.8V0.8l0.8-0.8h6.4l0.8,0.8
		v34.4h0.8l18.4-18.4l1.6-0.8h2.4l0.8,0.8v5.6l-11.2,11.2v0.8l12,15.2v5.6L242,56z"/>
	<path fill="#00B000" d="M282,56h-5.6l-0.8-0.8l-0.8-3.2H274c-0.6,0.9-1.4,1.7-2.4,2.4c-0.8,0.6-1.8,1.1-3,1.6
		c-1.2,0.5-2.6,0.8-4.2,0.8c-2.8,0-5.2-0.5-7.1-1.4c-1.9-0.9-3.5-2.2-4.7-3.7c-1.2-1.5-2.1-3.3-2.6-5.4c-0.5-2-0.8-4.1-0.8-6.3V16.8
		L250,16h6.4l0.8,0.8V40c0,1.2,0.1,2.4,0.4,3.6c0.2,1.1,0.7,2.2,1.2,3c0.6,0.9,1.4,1.6,2.4,2.2c1,0.6,2.4,0.8,4,0.8
		c2.8,0,5.1-1.1,6.9-3.2c1.8-2.1,2.7-5.6,2.7-10.4V16.8l0.8-0.8h6.4l0.8,0.8v38.4L282,56z"/>
	<path fill="#00B000" d="M302.8,60c0,1.8-0.3,3.4-1,4.7c-0.6,1.3-1.5,2.4-2.5,3.2c-1,0.9-2.2,1.5-3.6,1.9c-1.4,0.4-2.7,0.6-4.1,0.6
		h-4l-0.8-0.8V64l0.8-0.8h4c0.8,0,1.5-0.2,2.2-0.7c0.7-0.5,1-1.3,1-2.5V16.8l0.8-0.8h6.4l0.8,0.8V60z M302,9.6h-6.4l-0.8-0.8V2.4
		l0.8-0.8h6.4l0.8,0.8v6.4L302,9.6z"/>
	<path fill="#00B000" d="M329.2,56.8c-3.2,0-6-0.5-8.4-1.6c-2.4-1-4.4-2.5-6-4.3c-1.6-1.8-2.8-4-3.6-6.6c-0.8-2.6-1.2-5.3-1.2-8.3
		c0-2.8,0.4-5.4,1.1-8c0.7-2.5,1.8-4.7,3.3-6.6c1.5-1.9,3.4-3.4,5.7-4.5c2.3-1.1,5.1-1.7,8.3-1.7s6,0.6,8.3,1.7s4.2,2.6,5.7,4.5
		c1.5,1.9,2.6,4.1,3.3,6.6c0.7,2.5,1.1,5.2,1.1,8v2.4l-0.8,0.8h-26.4l-0.8,0.8c0,0.4,0.1,1.2,0.3,2.2c0.2,1,0.6,2.1,1.3,3.2
		c0.7,1.1,1.7,2.1,3.1,2.9c1.4,0.9,3.3,1.3,5.7,1.3c1.6,0,3.1-0.3,4.6-0.9c1.4-0.6,2.6-1.9,3.4-3.9L338,44h6.4l0.8,0.8
		c-0.2,1.6-0.7,3.1-1.5,4.6s-1.9,2.7-3.2,3.8c-1.3,1.1-2.9,2-4.8,2.6C333.7,56.5,331.6,56.8,329.2,56.8z M338,32
		c0-0.6-0.1-1.4-0.3-2.5c-0.2-1.1-0.6-2.2-1.2-3.2c-0.6-1-1.6-1.9-2.9-2.7c-1.3-0.8-3-1.2-5.2-1.2c-2.2,0-3.9,0.4-5.2,1.2
		c-1.3,0.8-2.2,1.7-2.9,2.7c-0.6,1-1.1,2.1-1.2,3.2c-0.2,1.1-0.3,1.9-0.3,2.5l0.8,0.8h17.6L338,32z"/>
	<path fill="#00B000" d="M409.2,56h-6.4l-0.8-0.8v-24c0-1.2-0.1-2.3-0.2-3.4c-0.2-1.1-0.5-2-1-2.8c-0.5-0.8-1.2-1.4-2.2-1.9
		s-2.2-0.7-3.8-0.7c-2.9,0-5.1,0.9-6.6,2.8c-1.5,1.9-2.2,4.4-2.2,7.6v22.4l-0.8,0.8h-6.4l-0.8-0.8v-24c0-1.2-0.1-2.3-0.2-3.4
		c-0.2-1.1-0.5-2-1-2.8c-0.5-0.8-1.2-1.4-2.2-1.9s-2.2-0.7-3.8-0.7c-1,0-2,0.2-3.1,0.5c-1,0.3-2,0.9-2.8,1.7
		c-0.9,0.8-1.5,1.9-2.1,3.2c-0.5,1.3-0.8,3-0.8,5v22.4l-0.8,0.8h-6.4l-0.8-0.8V16.8l0.8-0.8h5.6l0.8,0.8L362,20h0.8
		c0.8-1.2,2-2.3,3.6-3.3c1.6-1,3.9-1.5,6.8-1.5c1.6,0,3,0.2,4.1,0.5c1.1,0.3,2.1,0.8,2.9,1.4s1.5,1.2,2,1.8c0.5,0.7,1,1.3,1.4,1.9
		h0.8c1.2-1.6,2.8-2.9,4.8-4c1.9-1.1,4.4-1.6,7.2-1.6c2.8,0,5.1,0.4,6.8,1.3c1.8,0.9,3.2,2,4.2,3.4c1,1.4,1.7,3.1,2,5.1
		c0.4,1.9,0.6,4,0.6,6.2v24L409.2,56z"/>
	<path fill="#00B000" d="M435.6,56.8c-3.2,0-6-0.5-8.4-1.6c-2.4-1-4.4-2.5-6-4.3c-1.6-1.8-2.8-4-3.6-6.6c-0.8-2.6-1.2-5.3-1.2-8.3
		c0-2.8,0.4-5.4,1.1-8c0.7-2.5,1.8-4.7,3.3-6.6c1.5-1.9,3.4-3.4,5.7-4.5c2.3-1.1,5.1-1.7,8.3-1.7s6,0.6,8.3,1.7s4.2,2.6,5.7,4.5
		c1.5,1.9,2.6,4.1,3.3,6.6c0.7,2.5,1.1,5.2,1.1,8v2.4l-0.8,0.8H426l-0.8,0.8c0,0.4,0.1,1.2,0.3,2.2c0.2,1,0.6,2.1,1.3,3.2
		c0.7,1.1,1.7,2.1,3.1,2.9c1.4,0.9,3.3,1.3,5.7,1.3c1.6,0,3.1-0.3,4.6-0.9c1.4-0.6,2.6-1.9,3.4-3.9l0.8-0.8h6.4l0.8,0.8
		c-0.2,1.6-0.7,3.1-1.5,4.6s-1.9,2.7-3.2,3.8c-1.3,1.1-2.9,2-4.8,2.6C440.1,56.5,438,56.8,435.6,56.8z M444.4,32
		c0-0.6-0.1-1.4-0.3-2.5c-0.2-1.1-0.6-2.2-1.2-3.2c-0.6-1-1.6-1.9-2.9-2.7c-1.3-0.8-3-1.2-5.2-1.2c-2.2,0-3.9,0.4-5.2,1.2
		c-1.3,0.8-2.2,1.7-2.9,2.7c-0.6,1-1.1,2.1-1.2,3.2c-0.2,1.1-0.3,1.9-0.3,2.5l0.8,0.8h17.6L444.4,32z"/>
	<path fill="#00B000" d="M22.4,135.2l-0.8,0.8h-7.2l-0.8-0.8L0,102.4v-5.6L0.8,96h4.8l0.8,0.8l11.2,28h0.8l11.2-28l0.8-0.8h4.8
		l0.8,0.8v5.6L22.4,135.2z"/>
	<path fill="#00B000" d="M72.8,124.8c0,1.6-0.3,3.1-0.9,4.6c-0.6,1.4-1.6,2.7-2.9,3.8c-1.3,1.1-3,2-5,2.6c-2,0.6-4.4,1-7.2,1
		c-5.3,0-9.3-1.1-12-3.4c-2.7-2.3-4-5.7-4-10.2l0.8-0.8H48l0.8,0.8c0,2,0.6,3.6,1.8,4.7c1.2,1.1,3.3,1.7,6.2,1.7s4.9-0.4,6.2-1.2
		c1.2-0.8,1.8-2,1.8-3.6c0-1-0.2-1.8-0.5-2.5c-0.3-0.6-0.9-1.2-1.7-1.6c-0.8-0.5-1.9-0.8-3.2-1.2c-1.3-0.3-3-0.7-5-1.1
		c-4-0.7-7.1-2-9.4-3.9c-2.3-1.8-3.4-4.5-3.4-8.1c0-1.4,0.3-2.8,0.8-4.1c0.5-1.4,1.4-2.6,2.6-3.6c1.2-1,2.8-1.9,4.7-2.5
		c1.9-0.6,4.3-1,7.1-1c2.2,0,4.2,0.3,6.1,0.8c1.9,0.5,3.5,1.3,4.8,2.2c1.4,1,2.4,2.2,3.2,3.8c0.7,1.5,1.1,3.3,1.1,5.2l-0.8,0.8h-6.4
		l-0.8-0.8c0-0.6-0.1-1.2-0.3-1.8c-0.2-0.6-0.6-1.1-1.2-1.6c-0.6-0.5-1.3-0.8-2.2-1.1c-0.9-0.3-2.1-0.4-3.5-0.4
		c-2,0-3.7,0.3-5.1,0.8c-1.4,0.5-2.1,1.6-2.1,3.2c0,1,0.2,1.8,0.6,2.5c0.4,0.6,1.1,1.2,2,1.6c0.9,0.5,2.1,0.9,3.5,1.2
		c1.4,0.3,3.1,0.7,5.2,1.1c4,0.8,7,2.1,9,3.9C71.8,118.5,72.8,121.2,72.8,124.8z M44.8,80h4l1.6,0.8l5.6,4.8h1.6l5.6-4.8l1.6-0.8h4
		l0.8,0.8v1.6l-7.2,8l-1.6,0.8h-8l-1.6-0.8l-7.2-8v-1.6L44.8,80z"/>
	<path fill="#00B000" d="M96.8,136.8c-3.2,0-6-0.5-8.4-1.6c-2.4-1-4.4-2.5-6-4.3c-1.6-1.8-2.8-4-3.6-6.6c-0.8-2.6-1.2-5.3-1.2-8.3
		c0-2.8,0.4-5.4,1.1-8s1.8-4.7,3.3-6.6c1.5-1.9,3.4-3.4,5.7-4.5s5.1-1.7,8.3-1.7c3.2,0,6,0.6,8.3,1.7c2.3,1.1,4.2,2.6,5.7,4.5
		c1.5,1.9,2.6,4.1,3.3,6.6c0.7,2.5,1.1,5.2,1.1,8v2.4l-0.8,0.8H87.2l-0.8,0.8c0,0.4,0.1,1.2,0.3,2.2c0.2,1,0.6,2.1,1.3,3.2
		c0.7,1.1,1.7,2.1,3.1,2.9c1.4,0.9,3.3,1.3,5.7,1.3c1.6,0,3.1-0.3,4.6-0.9c1.4-0.6,2.6-1.9,3.4-3.9l0.8-0.8h6.4l0.8,0.8
		c-0.2,1.6-0.7,3.1-1.5,4.6c-0.8,1.4-1.9,2.7-3.2,3.8c-1.3,1.1-2.9,2-4.8,2.6C101.3,136.5,99.2,136.8,96.8,136.8z M105.6,112
		c0-0.6-0.1-1.4-0.3-2.5c-0.2-1.1-0.6-2.2-1.2-3.2c-0.6-1-1.6-1.9-2.9-2.7c-1.3-0.8-3-1.2-5.2-1.2c-2.2,0-3.9,0.4-5.2,1.2
		c-1.3,0.8-2.2,1.7-2.9,2.7c-0.6,1-1.1,2.1-1.2,3.2c-0.2,1.1-0.3,1.9-0.3,2.5l0.8,0.8h17.6L105.6,112z"/>
	<path fill="#00B000" d="M176.8,136h-6.4l-0.8-0.8v-24c0-1.2-0.1-2.3-0.2-3.4c-0.2-1.1-0.5-2-1-2.8c-0.5-0.8-1.2-1.4-2.2-1.9
		c-1-0.5-2.2-0.7-3.8-0.7c-2.9,0-5.1,0.9-6.6,2.8c-1.5,1.9-2.2,4.4-2.2,7.6v22.4l-0.8,0.8h-6.4l-0.8-0.8v-24c0-1.2-0.1-2.3-0.2-3.4
		c-0.2-1.1-0.5-2-1-2.8s-1.2-1.4-2.2-1.9c-1-0.5-2.2-0.7-3.8-0.7c-1,0-2,0.2-3.1,0.5c-1,0.3-2,0.9-2.8,1.7c-0.9,0.8-1.5,1.9-2.1,3.2
		c-0.5,1.3-0.8,3-0.8,5v22.4l-0.8,0.8h-6.4l-0.8-0.8V96.8l0.8-0.8h5.6l0.8,0.8l0.8,3.2h0.8c0.8-1.2,2-2.3,3.6-3.3
		c1.6-1,3.9-1.5,6.8-1.5c1.6,0,3,0.2,4.1,0.5c1.1,0.3,2.1,0.8,2.9,1.4c0.8,0.6,1.5,1.2,2,1.8c0.5,0.7,1,1.3,1.4,1.9h0.8
		c1.2-1.6,2.8-2.9,4.8-4c1.9-1.1,4.4-1.6,7.2-1.6c2.8,0,5.1,0.4,6.8,1.3c1.8,0.9,3.2,2,4.2,3.4c1,1.4,1.7,3.1,2,5.1
		c0.4,1.9,0.6,4,0.6,6.2v24L176.8,136z"/>
	<path fill="#00B000" d="M244,116c0,3-0.4,5.8-1.2,8.3c-0.8,2.6-1.9,4.8-3.4,6.6c-1.5,1.8-3.4,3.3-5.6,4.3c-2.2,1-4.7,1.6-7.4,1.6
		c-1.8,0-3.4-0.3-4.7-0.8c-1.3-0.5-2.4-1.1-3.2-1.6c-0.9-0.7-1.7-1.5-2.5-2.4h-0.8v19.2l-0.8,0.8H208l-0.8-0.8V96.8L208,96h5.6
		l0.8,0.8l0.8,3.2h0.8c0.7-0.9,1.6-1.7,2.5-2.4c0.9-0.6,1.9-1.1,3.2-1.6c1.3-0.5,2.9-0.8,4.7-0.8c2.8,0,5.3,0.5,7.4,1.6
		c2.2,1,4,2.5,5.6,4.3c1.5,1.8,2.7,4,3.4,6.6C243.6,110.2,244,113,244,116z M236,116c0-4.5-0.9-7.9-2.8-10.2
		c-1.9-2.3-4.4-3.4-7.6-3.4s-5.7,1.1-7.6,3.2c-1.9,2.1-2.8,5.6-2.8,10.4s0.9,8.3,2.8,10.4c1.9,2.1,4.4,3.2,7.6,3.2s5.7-1.1,7.6-3.4
		C235.1,123.9,236,120.5,236,116z"/>
	<path fill="#00B000" d="M281.6,136H276l-0.8-0.8l-0.8-3.2h-0.8c-0.7,0.9-1.6,1.7-2.6,2.4c-0.9,0.6-2.1,1.1-3.4,1.6
		c-1.4,0.5-3.1,0.8-5.1,0.8c-4.5,0-7.9-1.1-10.2-3.4c-2.3-2.3-3.4-5.4-3.4-9.4c0-2.2,0.4-4.1,1.3-5.7c0.9-1.6,2.1-3,3.6-4
		c1.5-1,3.4-1.8,5.6-2.3c2.2-0.5,4.5-0.8,7.2-0.8c1,0,2,0,2.8,0.1c0.9,0.1,1.6,0.2,2.3,0.3c0.4,0.1,0.7,0.2,1.1,0.2
		c0.3,0.1,0.7,0.1,1,0.2l0.8-0.8v-1.6c0-2.8-0.6-4.7-1.9-5.7c-1.3-1-3.3-1.5-6.1-1.5c-2.9,0-4.9,0.4-6.2,1.2c-1.2,0.8-1.8,2-1.8,3.6
		l-0.8,0.8h-6.4l-0.8-0.8c0-1.4,0.3-2.8,0.8-4.2c0.5-1.4,1.4-2.7,2.7-3.9c1.3-1.1,2.9-2.1,5-2.8c2.1-0.7,4.6-1.1,7.6-1.1
		c3,0,5.5,0.4,7.6,1.1c2.1,0.7,3.7,1.8,5,3.2c1.3,1.4,2.1,3.3,2.7,5.5c0.5,2.2,0.8,4.8,0.8,7.8v22.4L281.6,136z M274.4,119.2
		l-0.8-0.8l-1.7-0.4c-0.6-0.1-1.3-0.2-2-0.3c-0.8-0.1-1.7-0.1-2.7-0.1c-3.7,0-6.3,0.6-8,1.7c-1.6,1.1-2.4,2.7-2.4,4.7
		c0,2,0.6,3.5,1.8,4.3c1.2,0.9,3,1.3,5.4,1.3c3.2,0,5.7-0.7,7.6-2.2c1.9-1.5,2.8-3.4,2.8-5.8V119.2z"/>
	<path fill="#00B000" d="M313.6,103.2h-4c-1.6,0-3,0.2-4.3,0.5c-1.3,0.3-2.4,1-3.3,1.9c-0.9,0.9-1.6,2.1-2.1,3.7
		c-0.5,1.5-0.7,3.5-0.7,5.9v20l-0.8,0.8H292l-0.8-0.8V96.8L292,96h5.6l0.8,0.8l0.8,3.2h0.8c0.6-0.6,1.2-1.1,1.8-1.6
		c0.6-0.5,1.4-0.9,2.2-1.3c0.8-0.3,1.7-0.6,2.8-0.8c1-0.2,2.3-0.3,3.6-0.3h3.2l0.8,0.8v5.6L313.6,103.2z"/>
	<path fill="#00B000" d="M342.4,136H336c-1.4,0-2.8-0.2-4.1-0.6c-1.4-0.4-2.6-1-3.6-1.9c-1-0.9-1.9-1.9-2.5-3.2
		c-0.6-1.3-1-2.9-1-4.7V104l-0.8-0.8h-5.6l-0.8-0.8v-5.6l0.8-0.8h5.6l0.8-0.8V88l0.8-0.8h6.4l0.8,0.8v7.2l0.8,0.8h8.8l0.8,0.8v5.6
		l-0.8,0.8h-8.8l-0.8,0.8v21.6c0,1.2,0.3,2.1,1,2.5c0.7,0.5,1.4,0.7,2.2,0.7h6.4l0.8,0.8v5.6L342.4,136z"/>
	<path fill="#00B000" d="M384.8,136h-6.4l-0.8-0.8V112c0-1-0.1-2.1-0.2-3.2s-0.5-2.2-1.1-3.1c-0.6-1-1.4-1.7-2.4-2.4
		c-1-0.6-2.5-0.9-4.3-0.9c-3.7,0-6.3,1.1-8,3.2c-1.6,2.1-2.4,5.6-2.4,10.4v19.2l-0.8,0.8H352l-0.8-0.8V96.8L352,96h5.6l0.8,0.8
		l0.8,3.2h0.8c0.7-0.9,1.6-1.7,2.5-2.4c0.9-0.6,1.9-1.1,3.2-1.6c1.3-0.5,2.9-0.8,4.7-0.8c2.8,0,5.1,0.4,7.1,1.3
		c1.9,0.9,3.5,2,4.7,3.5s2.1,3.3,2.6,5.3c0.5,2.1,0.8,4.3,0.8,6.7v23.2L384.8,136z"/>
	<path fill="#00B000" d="M411.2,136.8c-3.2,0-6-0.5-8.4-1.6c-2.4-1-4.4-2.5-6-4.3c-1.6-1.8-2.8-4-3.6-6.6c-0.8-2.6-1.2-5.3-1.2-8.3
		c0-2.8,0.4-5.4,1.1-8c0.7-2.5,1.8-4.7,3.3-6.6c1.5-1.9,3.4-3.4,5.7-4.5c2.3-1.1,5.1-1.7,8.3-1.7s6,0.6,8.3,1.7s4.2,2.6,5.7,4.5
		c1.5,1.9,2.6,4.1,3.3,6.6s1.1,5.2,1.1,8v2.4l-0.8,0.8h-26.4l-0.8,0.8c0,0.4,0.1,1.2,0.3,2.2c0.2,1,0.6,2.1,1.3,3.2
		c0.7,1.1,1.7,2.1,3.1,2.9c1.4,0.9,3.3,1.3,5.7,1.3c1.6,0,3.1-0.3,4.6-0.9c1.4-0.6,2.6-1.9,3.4-3.9l0.8-0.8h6.4l0.8,0.8
		c-0.2,1.6-0.7,3.1-1.5,4.6c-0.8,1.4-1.9,2.7-3.2,3.8c-1.3,1.1-2.9,2-4.8,2.6C415.7,136.5,413.6,136.8,411.2,136.8z M420,112
		c0-0.6-0.1-1.4-0.3-2.5c-0.2-1.1-0.6-2.2-1.2-3.2c-0.6-1-1.6-1.9-2.9-2.7c-1.3-0.8-3-1.2-5.2-1.2c-2.2,0-3.9,0.4-5.2,1.2
		c-1.3,0.8-2.2,1.7-2.9,2.7c-0.6,1-1.1,2.1-1.2,3.2c-0.2,1.1-0.3,1.9-0.3,2.5l0.8,0.8h17.6L420,112z"/>
	<path fill="#00B000" d="M458.4,103.2h-4c-1.6,0-3,0.2-4.3,0.5c-1.3,0.3-2.4,1-3.3,1.9c-0.9,0.9-1.6,2.1-2.1,3.7
		c-0.5,1.5-0.7,3.5-0.7,5.9v20l-0.8,0.8h-6.4l-0.8-0.8V96.8l0.8-0.8h5.6l0.8,0.8l0.8,3.2h0.8c0.6-0.6,1.2-1.1,1.8-1.6
		c0.6-0.5,1.4-0.9,2.2-1.3c0.8-0.3,1.7-0.6,2.8-0.8c1-0.2,2.3-0.3,3.6-0.3h3.2l0.8,0.8v5.6L458.4,103.2z"/>
	<path fill="#00B000" d="M497.6,136H492l-0.8-0.8l-0.8-3.2h-0.8c-0.6,0.9-1.4,1.7-2.4,2.4c-0.8,0.6-1.8,1.1-3,1.6
		c-1.2,0.5-2.6,0.8-4.2,0.8c-2.8,0-5.2-0.5-7.1-1.4s-3.5-2.2-4.7-3.7c-1.2-1.5-2.1-3.3-2.6-5.4c-0.5-2-0.8-4.1-0.8-6.3V96.8l0.8-0.8
		h6.4l0.8,0.8V120c0,1.2,0.1,2.4,0.4,3.6c0.2,1.1,0.7,2.2,1.2,3s1.4,1.6,2.4,2.2s2.4,0.8,4,0.8c2.8,0,5.1-1.1,6.9-3.2
		c1.8-2.1,2.7-5.6,2.7-10.4V96.8l0.8-0.8h6.4l0.8,0.8v38.4L497.6,136z M489.6,84.8c0,2-0.7,3.7-2.2,5.1c-1.5,1.4-3.4,2.1-5.8,2.1
		c-2.4,0-4.3-0.7-5.8-2.1c-1.5-1.4-2.2-3.1-2.2-5.1c0-2,0.7-3.7,2.2-5.1c1.5-1.4,3.4-2.1,5.8-2.1c2.4,0,4.3,0.7,5.8,2.1
		C488.9,81.1,489.6,82.8,489.6,84.8z M484.8,84.8c0-0.8-0.2-1.5-0.7-2.2c-0.5-0.7-1.3-1-2.5-1c-1.2,0-2.1,0.3-2.5,1
		c-0.5,0.7-0.7,1.4-0.7,2.2s0.2,1.5,0.7,2.2c0.5,0.7,1.3,1,2.5,1c1.2,0,2.1-0.3,2.5-1C484.6,86.3,484.8,85.6,484.8,84.8z"/>
	<path fill="#00B000" d="M563.2,136h-6.4l-0.8-0.8v-24c0-1.2-0.1-2.3-0.2-3.4c-0.2-1.1-0.5-2-1-2.8c-0.5-0.8-1.2-1.4-2.2-1.9
		c-1-0.5-2.2-0.7-3.8-0.7c-2.9,0-5.1,0.9-6.6,2.8c-1.5,1.9-2.2,4.4-2.2,7.6v22.4l-0.8,0.8h-6.4l-0.8-0.8v-24c0-1.2-0.1-2.3-0.2-3.4
		c-0.2-1.1-0.5-2-1-2.8c-0.5-0.8-1.2-1.4-2.2-1.9c-1-0.5-2.2-0.7-3.8-0.7c-1,0-2,0.2-3.1,0.5c-1,0.3-2,0.9-2.8,1.7
		c-0.9,0.8-1.5,1.9-2.1,3.2c-0.5,1.3-0.8,3-0.8,5v22.4l-0.8,0.8h-6.4l-0.8-0.8V96.8l0.8-0.8h5.6l0.8,0.8l0.8,3.2h0.8
		c0.8-1.2,2-2.3,3.6-3.3c1.6-1,3.9-1.5,6.8-1.5c1.6,0,3,0.2,4.1,0.5c1.1,0.3,2.1,0.8,2.9,1.4c0.8,0.6,1.5,1.2,2,1.8
		c0.5,0.7,1,1.3,1.4,1.9h0.8c1.2-1.6,2.8-2.9,4.8-4c1.9-1.1,4.4-1.6,7.2-1.6c2.8,0,5.1,0.4,6.8,1.3c1.8,0.9,3.2,2,4.2,3.4
		c1,1.4,1.7,3.1,2,5.1c0.4,1.9,0.6,4,0.6,6.2v24L563.2,136z"/>
	<path fill="#00B000" d="M161.6,183.2h-8l-0.8,0.8v31.2L152,216h-6.4l-0.8-0.8V184l-0.8-0.8h-5.6l-0.8-0.8v-5.6l0.8-0.8h5.6l0.8-0.8
		V172c0-1.8,0.3-3.4,1-4.7c0.6-1.3,1.5-2.4,2.5-3.2c1-0.9,2.2-1.5,3.6-1.9c1.4-0.4,2.7-0.6,4.1-0.6h6.4l0.8,0.8v5.6l-0.8,0.8H156
		c-0.8,0-1.5,0.2-2.2,0.7c-0.7,0.5-1,1.3-1,2.5v3.2l0.8,0.8h8l0.8,0.8v5.6L161.6,183.2z"/>
	<path fill="#00B000" d="M184.8,216.8c-3.2,0-6-0.5-8.4-1.6c-2.4-1-4.4-2.5-6-4.3c-1.6-1.8-2.8-4-3.6-6.6c-0.8-2.6-1.2-5.3-1.2-8.3
		c0-2.8,0.4-5.4,1.1-8c0.7-2.5,1.8-4.7,3.3-6.6c1.5-1.9,3.4-3.4,5.7-4.5c2.3-1.1,5.1-1.7,8.3-1.7s6,0.6,8.3,1.7
		c2.3,1.1,4.2,2.6,5.7,4.5c1.5,1.9,2.6,4.1,3.3,6.6c0.7,2.5,1.1,5.2,1.1,8v2.4l-0.8,0.8h-26.4l-0.8,0.8c0,0.4,0.1,1.2,0.3,2.2
		c0.2,1,0.6,2.1,1.3,3.2c0.7,1.1,1.7,2.1,3.1,2.9c1.4,0.9,3.3,1.3,5.7,1.3c1.6,0,3.1-0.3,4.6-0.9c1.4-0.6,2.6-1.9,3.4-3.9l0.8-0.8
		h6.4l0.8,0.8c-0.2,1.6-0.7,3.1-1.5,4.6c-0.8,1.4-1.9,2.7-3.2,3.8c-1.3,1.1-2.9,2-4.8,2.6C189.3,216.5,187.2,216.8,184.8,216.8z
		 M193.6,192c0-0.6-0.1-1.4-0.3-2.5c-0.2-1.1-0.6-2.2-1.2-3.2c-0.6-1-1.6-1.9-2.9-2.7c-1.3-0.8-3-1.2-5.2-1.2
		c-2.2,0-3.9,0.4-5.2,1.2c-1.3,0.8-2.2,1.7-2.9,2.7c-0.6,1-1.1,2.1-1.2,3.2c-0.2,1.1-0.3,1.9-0.3,2.5l0.8,0.8h17.6L193.6,192z"/>
	<path fill="#00B000" d="M239.2,204.8c0,1.6-0.3,3.1-0.9,4.6c-0.6,1.4-1.6,2.7-2.9,3.8c-1.3,1.1-3,2-5,2.6c-2,0.6-4.4,1-7.2,1
		c-5.3,0-9.3-1.1-12-3.4c-2.7-2.3-4-5.7-4-10.2l0.8-0.8h6.4l0.8,0.8c0,2,0.6,3.6,1.8,4.7c1.2,1.1,3.3,1.7,6.2,1.7s4.9-0.4,6.2-1.2
		c1.2-0.8,1.8-2,1.8-3.6c0-1-0.2-1.8-0.5-2.5c-0.3-0.6-0.9-1.2-1.7-1.6c-0.8-0.5-1.9-0.8-3.2-1.2c-1.3-0.3-3-0.7-5-1.1
		c-4-0.7-7.1-2-9.4-3.9c-2.3-1.8-3.4-4.5-3.4-8.1c0-1.4,0.3-2.8,0.8-4.1c0.5-1.4,1.4-2.6,2.6-3.6c1.2-1,2.8-1.9,4.7-2.5
		c1.9-0.6,4.3-1,7.1-1c2.2,0,4.2,0.3,6.1,0.8c1.9,0.5,3.5,1.3,4.8,2.2c1.4,1,2.4,2.2,3.2,3.8c0.7,1.5,1.1,3.3,1.1,5.2l-0.8,0.8h-6.4
		l-0.8-0.8c0-0.6-0.1-1.2-0.3-1.8c-0.2-0.6-0.6-1.1-1.2-1.6c-0.6-0.5-1.3-0.8-2.2-1.1c-0.9-0.3-2.1-0.4-3.5-0.4
		c-2,0-3.7,0.3-5.1,0.8c-1.4,0.5-2.1,1.6-2.1,3.2c0,1,0.2,1.8,0.6,2.5c0.4,0.6,1.1,1.2,2,1.6c0.9,0.5,2.1,0.9,3.5,1.2
		c1.4,0.3,3.1,0.7,5.2,1.1c4,0.8,7,2.1,9,3.9C238.2,198.5,239.2,201.2,239.2,204.8z"/>
	<path fill="#00B000" d="M268,216h-6.4c-1.4,0-2.8-0.2-4.1-0.6c-1.4-0.4-2.6-1-3.6-1.9c-1-0.9-1.9-1.9-2.5-3.2c-0.6-1.3-1-2.9-1-4.7
		V184l-0.8-0.8H244l-0.8-0.8v-5.6l0.8-0.8h5.6l0.8-0.8V168l0.8-0.8h6.4l0.8,0.8v7.2l0.8,0.8h8.8l0.8,0.8v5.6l-0.8,0.8h-8.8l-0.8,0.8
		v21.6c0,1.2,0.3,2.1,1,2.5c0.7,0.5,1.4,0.7,2.2,0.7h6.4l0.8,0.8v5.6L268,216z"/>
	<path fill="#00B000" d="M284,169.6h-6.4l-0.8-0.8v-6.4l0.8-0.8h6.4l0.8,0.8v6.4L284,169.6z M284,216h-6.4l-0.8-0.8v-38.4l0.8-0.8
		h6.4l0.8,0.8v38.4L284,216z"/>
	<path fill="#00B000" d="M314.4,215.2l-0.8,0.8h-7.2l-0.8-0.8L292,182.4v-5.6l0.8-0.8h4.8l0.8,0.8l11.2,28h0.8l11.2-28l0.8-0.8h4.8
		l0.8,0.8v5.6L314.4,215.2z"/>
	<path fill="#00B000" d="M365.6,216H360l-0.8-0.8l-0.8-3.2h-0.8c-0.7,0.9-1.6,1.7-2.6,2.4c-0.9,0.6-2.1,1.1-3.4,1.6
		c-1.4,0.5-3.1,0.8-5.1,0.8c-4.5,0-7.9-1.1-10.2-3.4c-2.3-2.3-3.4-5.4-3.4-9.4c0-2.2,0.4-4.1,1.3-5.7c0.9-1.6,2.1-3,3.6-4
		c1.5-1,3.4-1.8,5.6-2.3s4.5-0.8,7.2-0.8c1,0,2,0,2.8,0.1c0.9,0.1,1.6,0.2,2.3,0.3c0.4,0.1,0.7,0.2,1.1,0.2c0.3,0.1,0.7,0.1,1,0.2
		l0.8-0.8v-1.6c0-2.8-0.6-4.7-1.9-5.7c-1.3-1-3.3-1.5-6.1-1.5c-2.9,0-4.9,0.4-6.2,1.2c-1.2,0.8-1.8,2-1.8,3.6l-0.8,0.8h-6.4
		l-0.8-0.8c0-1.4,0.3-2.8,0.8-4.2c0.5-1.4,1.4-2.7,2.7-3.9c1.3-1.1,2.9-2.1,5-2.8c2.1-0.7,4.6-1.1,7.6-1.1c3,0,5.5,0.4,7.6,1.1
		c2.1,0.7,3.7,1.8,5,3.2c1.3,1.4,2.1,3.3,2.7,5.5c0.5,2.2,0.8,4.8,0.8,7.8v22.4L365.6,216z M358.4,199.2l-0.8-0.8l-1.7-0.4
		c-0.6-0.1-1.3-0.2-2-0.3c-0.8-0.1-1.7-0.1-2.7-0.1c-3.7,0-6.3,0.6-8,1.7c-1.6,1.1-2.4,2.7-2.4,4.7c0,2,0.6,3.5,1.8,4.3
		c1.2,0.9,3,1.3,5.4,1.3c3.2,0,5.7-0.7,7.6-2.2c1.9-1.5,2.8-3.4,2.8-5.8V199.2z"/>
	<path fill="#00B000" d="M382.4,216H376l-0.8-0.8v-54.4l0.8-0.8h6.4l0.8,0.8v54.4L382.4,216z"/>
	<path fill="#00B000" d="M424.8,216h-5.6l-0.8-0.8l-0.8-3.2h-0.8c-0.6,0.9-1.4,1.7-2.4,2.4c-0.8,0.6-1.8,1.1-3,1.6
		c-1.2,0.5-2.6,0.8-4.2,0.8c-2.8,0-5.2-0.5-7.1-1.4s-3.5-2.2-4.7-3.7c-1.2-1.5-2.1-3.3-2.6-5.4c-0.5-2-0.8-4.1-0.8-6.3v-23.2
		l0.8-0.8h6.4l0.8,0.8V200c0,1.2,0.1,2.4,0.4,3.6c0.2,1.1,0.7,2.2,1.2,3s1.4,1.6,2.4,2.2s2.4,0.8,4,0.8c2.8,0,5.1-1.1,6.9-3.2
		c1.8-2.1,2.7-5.6,2.7-10.4v-19.2l0.8-0.8h6.4l0.8,0.8v38.4L424.8,216z"/>
</g>
</svg>
