<?xml version="1.0" encoding="utf-8"?>
<!-- Generator: Adobe Illustrator 19.0.1, SVG Export Plug-In . SVG Version: 6.00 Build 0)  -->
<!DOCTYPE svg PUBLIC "-//W3C//DTD SVG 1.1//EN" "http://www.w3.org/Graphics/SVG/1.1/DTD/svg11.dtd">
<svg version="1.1" id="Vrstva_1" xmlns="http://www.w3.org/2000/svg" xmlns:xlink="http://www.w3.org/1999/xlink" x="0px" y="0px"
	 viewBox="-326 315 363 171" enable-background="new -326 315 363 171" xml:space="preserve">
<g>
	<path fill="#FFFFFF" d="M-274.3,336.5h-26.4l-0.8,0.8v16l0.8,0.8h24.8l0.8,0.8v5.6l-0.8,0.8h-24.8l-0.8,0.8v22.4l-0.8,0.8h-6.4
		l-0.8-0.8v-54.3l0.8-0.8h34.4l0.8,0.8v5.6L-274.3,336.5z"/>
	<path fill="#FFFFFF" d="M-235.2,385.2h-5.6l-0.8-0.8l-0.8-3.2h-0.8c-0.7,0.9-1.6,1.7-2.6,2.4c-0.9,0.6-2.1,1.1-3.4,1.6
		c-1.4,0.5-3.1,0.8-5.1,0.8c-4.5,0-7.9-1.1-10.1-3.4c-2.3-2.3-3.4-5.4-3.4-9.4c0-2.2,0.4-4.1,1.3-5.7c0.9-1.6,2-3,3.6-4
		c1.5-1,3.4-1.8,5.6-2.3c2.2-0.5,4.5-0.8,7.1-0.8c1,0,2,0,2.8,0.1c0.9,0.1,1.6,0.2,2.3,0.3c0.4,0.1,0.7,0.2,1.1,0.2
		c0.3,0.1,0.7,0.1,1,0.2l0.8-0.8v-1.6c0-2.8-0.6-4.7-1.9-5.7c-1.3-1-3.3-1.5-6.1-1.5c-2.9,0-4.9,0.4-6.2,1.2c-1.2,0.8-1.8,2-1.8,3.6
		l-0.8,0.8h-6.4l-0.8-0.8c0-1.4,0.3-2.8,0.8-4.2c0.5-1.4,1.4-2.7,2.7-3.9c1.3-1.1,2.9-2.1,5-2.8c2.1-0.7,4.6-1.1,7.5-1.1
		c3,0,5.5,0.4,7.6,1.1c2,0.7,3.7,1.8,5,3.2c1.3,1.4,2.1,3.3,2.7,5.5c0.5,2.2,0.8,4.8,0.8,7.8v22.4L-235.2,385.2z M-242.4,368.4
		l-0.8-0.8l-1.7-0.4c-0.6-0.1-1.3-0.2-2-0.3c-0.8-0.1-1.7-0.1-2.7-0.1c-3.7,0-6.3,0.6-7.9,1.7c-1.6,1.1-2.4,2.7-2.4,4.7
		c0,2,0.6,3.5,1.8,4.3c1.2,0.9,3,1.3,5.4,1.3c3.2,0,5.7-0.7,7.6-2.2c1.9-1.5,2.8-3.4,2.8-5.8V368.4z"/>
	<path fill="#FFFFFF" d="M-220,365.3c0,4.5,0.9,7.9,2.8,10.1c1.9,2.3,4.7,3.4,8.3,3.4c1.6,0,3-0.2,4.1-0.6c1.1-0.4,2-0.9,2.8-1.4
		c0.7-0.6,1.3-1.3,1.8-2c0.4-0.8,0.7-1.6,1-2.4l0.8-0.8h6.4l0.8,0.8c-0.2,1.8-0.7,3.5-1.5,5.2c-0.8,1.6-1.9,3.1-3.4,4.3
		c-1.4,1.3-3.2,2.3-5.3,3c-2.1,0.7-4.6,1.1-7.4,1.1c-3,0-5.7-0.5-8-1.4c-2.4-1-4.4-2.3-6-4.2c-1.7-1.8-2.9-4-3.8-6.6
		c-0.9-2.6-1.3-5.4-1.3-8.6s0.4-6.1,1.3-8.6c0.9-2.6,2.1-4.7,3.8-6.6c1.6-1.8,3.7-3.2,6-4.2c2.4-1,5-1.4,8-1.4
		c2.8,0,5.3,0.4,7.4,1.1c2.1,0.7,3.9,1.7,5.3,3s2.6,2.7,3.4,4.3c0.8,1.6,1.3,3.3,1.5,5.2l-0.8,0.8h-6.4l-0.8-0.8
		c-0.2-0.8-0.5-1.6-1-2.4c-0.4-0.8-1-1.5-1.8-2c-0.7-0.6-1.7-1.1-2.8-1.4c-1.1-0.4-2.5-0.6-4.1-0.6c-3.7,0-6.5,1.1-8.3,3.4
		C-219.1,357.4-220,360.8-220,365.3z"/>
	<path fill="#FFFFFF" d="M-167.3,386c-3.2,0-6-0.5-8.4-1.6c-2.4-1-4.4-2.5-6-4.3c-1.6-1.8-2.8-4-3.6-6.6c-0.8-2.6-1.2-5.3-1.2-8.3
		c0-2.8,0.4-5.4,1.1-7.9c0.7-2.5,1.8-4.7,3.3-6.6c1.5-1.9,3.4-3.4,5.7-4.5c2.3-1.1,5.1-1.7,8.3-1.7c3.2,0,6,0.6,8.3,1.7
		c2.3,1.1,4.2,2.6,5.7,4.5c1.5,1.9,2.6,4.1,3.3,6.6c0.7,2.5,1.1,5.2,1.1,7.9v2.4l-0.8,0.8h-26.4l-0.8,0.8c0,0.4,0.1,1.2,0.3,2.2
		c0.2,1,0.6,2.1,1.3,3.2c0.7,1.1,1.7,2.1,3.1,2.9c1.4,0.9,3.3,1.3,5.7,1.3c1.6,0,3.1-0.3,4.6-0.9s2.6-1.9,3.4-3.9l0.8-0.8h6.4
		l0.8,0.8c-0.2,1.6-0.7,3.1-1.5,4.6c-0.8,1.4-1.9,2.7-3.2,3.8c-1.3,1.1-2.9,2-4.8,2.6C-162.7,385.7-164.9,386-167.3,386z
		 M-158.5,361.3c0-0.6-0.1-1.4-0.3-2.5c-0.2-1.1-0.6-2.2-1.2-3.2c-0.6-1-1.6-1.9-2.9-2.7c-1.3-0.8-3-1.2-5.2-1.2
		c-2.2,0-3.9,0.4-5.2,1.2c-1.3,0.8-2.2,1.7-2.9,2.7c-0.6,1-1.1,2.1-1.2,3.2c-0.2,1.1-0.3,1.9-0.3,2.5l0.8,0.8h17.6L-158.5,361.3z"/>
	<path fill="#FFFFFF" d="M-105.8,365.3c0,3-0.4,5.8-1.3,8.3c-0.9,2.6-2.1,4.8-3.6,6.6c-1.5,1.8-3.4,3.3-5.6,4.3
		c-2.2,1-4.5,1.6-7.2,1.6c-1.8,0-3.4-0.3-4.7-0.8c-1.3-0.5-2.4-1.1-3.2-1.6c-0.9-0.7-1.7-1.5-2.5-2.4h-0.8l-0.8,3.2l-0.8,0.8h-5.6
		l-0.8-0.8v-54.3l0.8-0.8h6.4l0.8,0.8v19.2h0.8c0.7-0.9,1.6-1.7,2.5-2.4c0.9-0.6,1.9-1.1,3.2-1.6c1.3-0.5,2.9-0.8,4.7-0.8
		c2.6,0,5,0.5,7.2,1.4s4,2.3,5.6,4.2c1.5,1.8,2.7,4,3.6,6.6C-106.2,359.2-105.8,362.1-105.8,365.3z M-113.7,365.3
		c0-4.5-0.9-7.9-2.8-10.1c-1.9-2.3-4.4-3.4-7.6-3.4c-3.2,0-5.7,1.1-7.6,3.2c-1.9,2.1-2.8,5.6-2.8,10.4s0.9,8.3,2.8,10.4
		c1.9,2.1,4.4,3.2,7.6,3.2c3.2,0,5.7-1.1,7.6-3.4C-114.7,373.1-113.7,369.7-113.7,365.3z"/>
	<path fill="#FFFFFF" d="M-101,365.3c0-3.2,0.4-6.1,1.3-8.6c0.9-2.6,2.1-4.7,3.8-6.6c1.7-1.8,3.7-3.2,6-4.2c2.4-1,5-1.4,8-1.4
		c3,0,5.7,0.5,8,1.4s4.4,2.3,6,4.2c1.7,1.8,2.9,4,3.8,6.6c0.9,2.6,1.3,5.4,1.3,8.6s-0.4,6.1-1.3,8.6c-0.9,2.6-2.1,4.7-3.8,6.6
		c-1.7,1.8-3.7,3.2-6,4.2s-5,1.4-8,1.4c-3,0-5.7-0.5-8-1.4c-2.4-1-4.4-2.3-6-4.2c-1.7-1.8-2.9-4-3.8-6.6
		C-100.5,371.3-101,368.4-101,365.3z M-93,365.3c0,4.5,0.9,7.9,2.8,10.1c1.9,2.3,4.7,3.4,8.3,3.4c3.7,0,6.5-1.1,8.3-3.4
		c1.9-2.3,2.8-5.7,2.8-10.1c0-4.5-0.9-7.9-2.8-10.1c-1.9-2.3-4.7-3.4-8.3-3.4c-3.7,0-6.5,1.1-8.3,3.4C-92,357.4-93,360.8-93,365.3z"
		/>
	<path fill="#FFFFFF" d="M-57.8,365.3c0-3.2,0.4-6.1,1.3-8.6c0.9-2.6,2.1-4.7,3.8-6.6c1.7-1.8,3.7-3.2,6-4.2c2.4-1,5-1.4,8-1.4
		c3,0,5.7,0.5,8,1.4s4.4,2.3,6,4.2c1.7,1.8,2.9,4,3.8,6.6c0.9,2.6,1.3,5.4,1.3,8.6s-0.4,6.1-1.3,8.6c-0.9,2.6-2.1,4.7-3.8,6.6
		c-1.7,1.8-3.7,3.2-6,4.2s-5,1.4-8,1.4c-3,0-5.7-0.5-8-1.4c-2.4-1-4.4-2.3-6-4.2c-1.7-1.8-2.9-4-3.8-6.6
		C-57.4,371.3-57.8,368.4-57.8,365.3z M-49.8,365.3c0,4.5,0.9,7.9,2.8,10.1c1.9,2.3,4.7,3.4,8.3,3.4c3.7,0,6.5-1.1,8.3-3.4
		c1.9-2.3,2.8-5.7,2.8-10.1c0-4.5-0.9-7.9-2.8-10.1c-1.9-2.3-4.7-3.4-8.3-3.4c-3.7,0-6.5,1.1-8.3,3.4
		C-48.9,357.4-49.8,360.8-49.8,365.3z"/>
	<path fill="#FFFFFF" d="M19.7,385.2h-3.2l-1.6-0.8l-12-15.2H2.1l-5.6,5.6l-0.8,1.6v8l-0.8,0.8h-6.4l-0.8-0.8v-54.3l0.8-0.8h6.4
		l0.8,0.8v34.4h0.8l18.4-18.4l1.6-0.8h2.4l0.8,0.8v5.6L8.5,362.9v0.8l12,15.2v5.6L19.7,385.2z"/>
	<path fill="#FFFFFF" d="M-223.6,465.9c-3.2,0-6-0.5-8.4-1.6c-2.4-1-4.4-2.5-6-4.3c-1.6-1.8-2.8-4-3.6-6.6c-0.8-2.6-1.2-5.3-1.2-8.3
		c0-2.8,0.4-5.4,1.1-7.9c0.7-2.5,1.8-4.7,3.3-6.6c1.5-1.9,3.4-3.4,5.7-4.5c2.3-1.1,5.1-1.7,8.3-1.7c3.2,0,6,0.6,8.3,1.7
		c2.3,1.1,4.2,2.6,5.7,4.5c1.5,1.9,2.6,4.1,3.3,6.6c0.7,2.5,1.1,5.2,1.1,7.9v2.4l-0.8,0.8h-26.4l-0.8,0.8c0,0.4,0.1,1.2,0.3,2.2
		c0.2,1,0.6,2.1,1.3,3.2c0.7,1.1,1.7,2.1,3.1,2.9c1.4,0.9,3.3,1.3,5.7,1.3c1.6,0,3.1-0.3,4.6-0.9c1.4-0.6,2.6-1.9,3.4-3.9l0.8-0.8
		h6.4l0.8,0.8c-0.2,1.6-0.7,3.1-1.5,4.6c-0.8,1.4-1.9,2.7-3.2,3.8c-1.3,1.1-2.9,2-4.8,2.6C-219.1,465.6-221.2,465.9-223.6,465.9z
		 M-214.8,441.2c0-0.6-0.1-1.4-0.3-2.5c-0.2-1.1-0.6-2.2-1.2-3.2c-0.6-1-1.6-1.9-2.9-2.7c-1.3-0.8-3-1.2-5.2-1.2
		c-2.2,0-3.9,0.4-5.2,1.2c-1.3,0.8-2.2,1.7-2.9,2.7c-0.6,1-1.1,2.1-1.2,3.2c-0.2,1.1-0.3,1.9-0.3,2.5l0.8,0.8h17.6L-214.8,441.2z"/>
	<path fill="#FFFFFF" d="M-178.9,464.3l-0.8,0.8h-7.2l-0.8-0.8l-13.6-32.8V426l0.8-0.8h4.8l0.8,0.8l11.2,28h0.8l11.2-28l0.8-0.8h4.8
		l0.8,0.8v5.6L-178.9,464.3z"/>
	<path fill="#FFFFFF" d="M-141.3,465.9c-3.2,0-6-0.5-8.4-1.6c-2.4-1-4.4-2.5-6-4.3c-1.6-1.8-2.8-4-3.6-6.6c-0.8-2.6-1.2-5.3-1.2-8.3
		c0-2.8,0.4-5.4,1.1-7.9c0.7-2.5,1.8-4.7,3.3-6.6c1.5-1.9,3.4-3.4,5.7-4.5c2.3-1.1,5.1-1.7,8.3-1.7c3.2,0,6,0.6,8.3,1.7
		c2.3,1.1,4.2,2.6,5.7,4.5c1.5,1.9,2.6,4.1,3.3,6.6c0.7,2.5,1.1,5.2,1.1,7.9v2.4l-0.8,0.8h-26.4l-0.8,0.8c0,0.4,0.1,1.2,0.3,2.2
		c0.2,1,0.6,2.1,1.3,3.2c0.7,1.1,1.7,2.1,3.1,2.9c1.4,0.9,3.3,1.3,5.7,1.3c1.6,0,3.1-0.3,4.6-0.9c1.4-0.6,2.6-1.9,3.4-3.9l0.8-0.8
		h6.4l0.8,0.8c-0.2,1.6-0.7,3.1-1.5,4.6c-0.8,1.4-1.9,2.7-3.2,3.8c-1.3,1.1-2.9,2-4.8,2.6C-136.8,465.6-138.9,465.9-141.3,465.9z
		 M-132.5,441.2c0-0.6-0.1-1.4-0.3-2.5c-0.2-1.1-0.6-2.2-1.2-3.2c-0.6-1-1.6-1.9-2.9-2.7c-1.3-0.8-3-1.2-5.2-1.2
		c-2.2,0-3.9,0.4-5.2,1.2c-1.3,0.8-2.2,1.7-2.9,2.7c-0.6,1-1.1,2.1-1.2,3.2c-0.2,1.1-0.3,1.9-0.3,2.5l0.8,0.8h17.6L-132.5,441.2z"/>
	<path fill="#FFFFFF" d="M-83,465.1h-6.4l-0.8-0.8v-23.2c0-1-0.1-2.1-0.2-3.2c-0.2-1.1-0.5-2.2-1.1-3.1c-0.6-1-1.4-1.7-2.4-2.4
		c-1-0.6-2.5-0.9-4.3-0.9c-3.7,0-6.3,1.1-7.9,3.2c-1.6,2.1-2.4,5.6-2.4,10.4v19.2l-0.8,0.8h-6.4l-0.8-0.8V426l0.8-0.8h5.6l0.8,0.8
		l0.8,3.2h0.8c0.7-0.9,1.6-1.7,2.5-2.4c0.9-0.6,1.9-1.1,3.2-1.6c1.3-0.5,2.9-0.8,4.7-0.8c2.8,0,5.1,0.4,7.1,1.3
		c1.9,0.9,3.5,2,4.7,3.5c1.2,1.5,2.1,3.3,2.6,5.3c0.5,2.1,0.8,4.3,0.8,6.7v23.2L-83,465.1z"/>
	<path fill="#FFFFFF" d="M-51.8,465.1h-6.4c-1.4,0-2.8-0.2-4.1-0.6c-1.4-0.4-2.6-1-3.6-1.9c-1-0.9-1.9-1.9-2.5-3.2
		c-0.6-1.3-1-2.9-1-4.7v-21.6l-0.8-0.8h-5.6l-0.8-0.8V426l0.8-0.8h5.6l0.8-0.8v-7.2l0.8-0.8h6.4l0.8,0.8v7.2l0.8,0.8h8.8l0.8,0.8
		v5.6l-0.8,0.8h-8.8l-0.8,0.8v21.6c0,1.2,0.3,2.1,1,2.5c0.7,0.5,1.4,0.7,2.2,0.7h6.4l0.8,0.8v5.6L-51.8,465.1z"/>
</g>
</svg>
