<?xml version="1.0" encoding="utf-8"?>
<!-- Generator: Adobe Illustrator 19.0.1, SVG Export Plug-In . SVG Version: 6.00 Build 0)  -->
<!DOCTYPE svg PUBLIC "-//W3C//DTD SVG 1.1//EN" "http://www.w3.org/Graphics/SVG/1.1/DTD/svg11.dtd">
<svg version="1.1" id="Vrstva_1" xmlns="http://www.w3.org/2000/svg" xmlns:xlink="http://www.w3.org/1999/xlink" x="0px" y="0px"
	 viewBox="-89 358 548 85" enable-background="new -89 358 548 85" xml:space="preserve">
<g>
	<path fill="#FFFFFF" d="M-44.6,375.1h-23.8l-0.7,0.7v14.4l0.7,0.7H-46l0.7,0.7v5l-0.7,0.7h-22.3l-0.7,0.7v20.2l-0.7,0.7h-5.8
		l-0.7-0.7v-49l0.7-0.7h31l0.7,0.7v5L-44.6,375.1z"/>
	<path fill="#FFFFFF" d="M-9.3,419h-5l-0.7-0.7l-0.7-2.9h-0.7c-0.7,0.8-1.5,1.5-2.4,2.2c-0.8,0.5-1.8,1-3.1,1.5
		c-1.2,0.5-2.8,0.7-4.6,0.7c-4,0-7.1-1-9.1-3.1c-2.1-2-3.1-4.9-3.1-8.5c0-2,0.4-3.7,1.2-5.1c0.8-1.5,1.8-2.7,3.2-3.6
		c1.4-0.9,3.1-1.6,5-2.1c1.9-0.5,4.1-0.7,6.4-0.7c0.9,0,1.8,0,2.6,0.1s1.5,0.2,2.1,0.3c0.3,0.1,0.7,0.2,1,0.2c0.3,0,0.6,0.1,0.9,0.1
		l0.7-0.7v-1.4c0-2.5-0.6-4.3-1.7-5.1c-1.1-0.9-3-1.3-5.5-1.3c-2.6,0-4.4,0.4-5.5,1.1c-1.1,0.7-1.7,1.8-1.7,3.2l-0.7,0.7h-5.8
		l-0.7-0.7c0-1.2,0.2-2.5,0.7-3.8c0.5-1.3,1.3-2.5,2.4-3.5c1.1-1,2.6-1.9,4.5-2.5c1.8-0.6,4.1-1,6.8-1c2.7,0,5,0.3,6.8,1
		c1.8,0.6,3.3,1.6,4.5,2.9c1.1,1.3,1.9,2.9,2.4,4.9c0.5,2,0.7,4.3,0.7,7v20.2L-9.3,419z M-15.8,403.9l-0.7-0.7l-1.5-0.4
		c-0.5-0.1-1.1-0.2-1.8-0.3c-0.7-0.1-1.5-0.1-2.4-0.1c-3.3,0-5.7,0.5-7.2,1.5c-1.5,1-2.2,2.4-2.2,4.2s0.5,3.1,1.6,3.9
		c1.1,0.8,2.7,1.2,4.9,1.2c2.9,0,5.2-0.7,6.8-2c1.7-1.3,2.5-3.1,2.5-5.2V403.9z"/>
	<path fill="#FFFFFF" d="M5.8,377.2H0.1l-0.7-0.7v-5.8l0.7-0.7h5.8l0.7,0.7v5.8L5.8,377.2z M5.8,419H0.1l-0.7-0.7v-34.6l0.7-0.7h5.8
		l0.7,0.7v34.6L5.8,419z"/>
	<path fill="#FFFFFF" d="M35.3,389.5h-3.6c-1.4,0-2.7,0.2-3.9,0.5c-1.2,0.3-2.1,0.9-3,1.7c-0.8,0.8-1.4,1.9-1.9,3.3
		c-0.4,1.4-0.6,3.2-0.6,5.3v18l-0.7,0.7h-5.8l-0.7-0.7v-34.6l0.7-0.7h5l0.7,0.7l0.7,2.9h0.7c0.5-0.5,1.1-1,1.7-1.5
		c0.6-0.5,1.2-0.8,1.9-1.2c0.7-0.3,1.5-0.6,2.5-0.7c0.9-0.2,2-0.3,3.3-0.3h2.9l0.7,0.7v5L35.3,389.5z"/>
	<path fill="#FFFFFF" d="M80,389.5h-7.2l-0.7,0.7v28.1l-0.7,0.7h-5.8l-0.7-0.7v-28.1l-0.7-0.7h-5l-0.7-0.7v-5l0.7-0.7h5l0.7-0.7
		v-2.9c0-1.6,0.3-3,0.9-4.2c0.6-1.2,1.3-2.1,2.3-2.9s2-1.3,3.2-1.7c1.2-0.4,2.5-0.5,3.7-0.5h5.8l0.7,0.7v5l-0.7,0.7h-5.8
		c-0.7,0-1.4,0.2-2,0.6c-0.6,0.4-0.9,1.2-0.9,2.3v2.9l0.7,0.7H80l0.7,0.7v5L80,389.5z"/>
	<path fill="#FFFFFF" d="M83.6,401c0-2.9,0.4-5.5,1.2-7.8c0.8-2.3,1.9-4.3,3.4-5.9c1.5-1.6,3.3-2.9,5.4-3.7c2.1-0.9,4.5-1.3,7.2-1.3
		c2.7,0,5.1,0.4,7.2,1.3c2.1,0.9,3.9,2.1,5.4,3.7c1.5,1.6,2.6,3.6,3.4,5.9c0.8,2.3,1.2,4.9,1.2,7.8s-0.4,5.5-1.2,7.8
		c-0.8,2.3-1.9,4.3-3.4,5.9c-1.5,1.6-3.3,2.9-5.4,3.7c-2.1,0.9-4.5,1.3-7.2,1.3c-2.7,0-5.1-0.4-7.2-1.3c-2.1-0.9-3.9-2.1-5.4-3.7
		c-1.5-1.6-2.6-3.6-3.4-5.9C84,406.5,83.6,403.9,83.6,401z M90.8,401c0,4,0.9,7.1,2.6,9.1c1.7,2.1,4.2,3.1,7.5,3.1s5.8-1,7.5-3.1
		c1.7-2.1,2.6-5.1,2.6-9.1s-0.9-7.1-2.6-9.1c-1.7-2.1-4.2-3.1-7.5-3.1s-5.8,1-7.5,3.1C91.6,393.9,90.8,397,90.8,401z"/>
	<path fill="#FFFFFF" d="M122.5,401c0-2.9,0.4-5.5,1.2-7.8c0.8-2.3,1.9-4.3,3.4-5.9c1.5-1.6,3.3-2.9,5.4-3.7
		c2.1-0.9,4.5-1.3,7.2-1.3c2.7,0,5.1,0.4,7.2,1.3s3.9,2.1,5.4,3.7c1.5,1.6,2.6,3.6,3.4,5.9c0.8,2.3,1.2,4.9,1.2,7.8
		s-0.4,5.5-1.2,7.8c-0.8,2.3-1.9,4.3-3.4,5.9c-1.5,1.6-3.3,2.9-5.4,3.7s-4.5,1.3-7.2,1.3c-2.7,0-5.1-0.4-7.2-1.3
		c-2.1-0.9-3.9-2.1-5.4-3.7c-1.5-1.6-2.6-3.6-3.4-5.9C122.9,406.5,122.5,403.9,122.5,401z M129.7,401c0,4,0.9,7.1,2.6,9.1
		c1.7,2.1,4.2,3.1,7.5,3.1c3.3,0,5.8-1,7.5-3.1c1.7-2.1,2.6-5.1,2.6-9.1s-0.9-7.1-2.6-9.1c-1.7-2.1-4.2-3.1-7.5-3.1
		c-3.3,0-5.8,1-7.5,3.1C130.5,393.9,129.7,397,129.7,401z"/>
	<path fill="#FFFFFF" d="M193.7,419h-5l-0.7-0.7l-0.7-2.9h-0.7c-0.7,0.8-1.4,1.5-2.2,2.2c-0.8,0.5-1.7,1-2.9,1.5
		c-1.2,0.5-2.6,0.7-4.2,0.7c-2.5,0-4.8-0.5-6.7-1.4c-1.9-0.9-3.6-2.2-5-3.9c-1.4-1.7-2.4-3.6-3.1-5.9c-0.7-2.3-1-4.8-1-7.5
		c0-2.7,0.3-5.2,1-7.5c0.7-2.3,1.7-4.3,3.1-5.9c1.4-1.7,3-3,5-3.9c1.9-0.9,4.2-1.4,6.7-1.4c1.6,0,3,0.2,4.2,0.7
		c1.2,0.5,2.1,0.9,2.9,1.5c0.8,0.6,1.6,1.3,2.2,2.2h0.7v-17.3l0.7-0.7h5.8l0.7,0.7v49L193.7,419z M187.3,401c0-4.3-0.8-7.4-2.5-9.4
		c-1.7-1.9-4-2.9-6.8-2.9s-5.2,1-6.8,3.1c-1.7,2.1-2.5,5.1-2.5,9.1s0.8,7.1,2.5,9.1c1.7,2.1,4,3.1,6.8,3.1s5.2-1,6.8-2.9
		C186.4,408.4,187.3,405.3,187.3,401z"/>
	<path fill="#FFFFFF" d="M241.3,389.5h-7.2l-0.7,0.7v28.1l-0.7,0.7h-5.8l-0.7-0.7v-28.1l-0.7-0.7h-5l-0.7-0.7v-5l0.7-0.7h5l0.7-0.7
		v-2.9c0-1.6,0.3-3,0.9-4.2c0.6-1.2,1.3-2.1,2.3-2.9c0.9-0.8,2-1.3,3.2-1.7c1.2-0.4,2.5-0.5,3.7-0.5h5.8l0.7,0.7v5l-0.7,0.7h-5.8
		c-0.7,0-1.4,0.2-2,0.6c-0.6,0.4-0.9,1.2-0.9,2.3v2.9l0.7,0.7h7.2l0.7,0.7v5L241.3,389.5z"/>
	<path fill="#FFFFFF" d="M262.1,419.7c-2.9,0-5.4-0.5-7.6-1.4c-2.2-0.9-4-2.2-5.4-3.9c-1.4-1.7-2.5-3.6-3.2-5.9
		c-0.7-2.3-1.1-4.8-1.1-7.5c0-2.5,0.3-4.9,1-7.2c0.6-2.3,1.6-4.3,3-6c1.3-1.7,3.1-3.1,5.1-4.1c2.1-1,4.6-1.5,7.5-1.5
		s5.4,0.5,7.5,1.5s3.8,2.4,5.1,4.1c1.3,1.7,2.3,3.7,3,6c0.6,2.3,1,4.7,1,7.2v2.2l-0.7,0.7h-23.8l-0.7,0.7c0,0.4,0.1,1,0.3,2
		c0.2,0.9,0.6,1.9,1.2,2.9c0.6,1,1.6,1.9,2.8,2.6c1.2,0.8,3,1.2,5.1,1.2c1.4,0,2.8-0.3,4.1-0.8s2.3-1.7,3.1-3.5l0.7-0.7h5.8l0.7,0.7
		c-0.2,1.4-0.6,2.8-1.4,4.1c-0.7,1.3-1.7,2.4-2.9,3.5c-1.2,1-2.7,1.8-4.4,2.4C266.2,419.4,264.3,419.7,262.1,419.7z M270.1,397.4
		c0-0.5-0.1-1.3-0.3-2.3c-0.2-1-0.5-1.9-1.1-2.9c-0.6-0.9-1.4-1.8-2.6-2.4c-1.2-0.7-2.7-1-4.7-1c-2,0-3.5,0.3-4.7,1
		c-1.2,0.7-2,1.5-2.6,2.4c-0.6,0.9-0.9,1.9-1.1,2.9c-0.2,1-0.3,1.7-0.3,2.3l0.7,0.7h15.8L270.1,397.4z"/>
	<path fill="#FFFFFF" d="M311.1,408.9c0,1.4-0.3,2.8-0.8,4.1c-0.6,1.3-1.4,2.4-2.6,3.5c-1.2,1-2.7,1.8-4.5,2.4
		c-1.8,0.6-4,0.9-6.5,0.9c-4.8,0-8.3-1-10.8-3.1c-2.4-2.1-3.6-5.1-3.6-9.1l0.7-0.7h5.8l0.7,0.7c0,1.8,0.6,3.2,1.7,4.2
		c1.1,1,3,1.5,5.5,1.5c2.6,0,4.4-0.4,5.5-1.1s1.7-1.8,1.7-3.2c0-0.9-0.2-1.7-0.5-2.2c-0.3-0.6-0.8-1.1-1.5-1.5
		c-0.7-0.4-1.7-0.8-2.9-1c-1.2-0.3-2.7-0.6-4.5-1c-3.6-0.7-6.4-1.8-8.5-3.5c-2-1.7-3.1-4.1-3.1-7.3c0-1.2,0.2-2.5,0.7-3.7
		c0.5-1.2,1.3-2.3,2.3-3.2c1.1-0.9,2.5-1.7,4.2-2.3c1.7-0.6,3.9-0.9,6.4-0.9c2,0,3.8,0.2,5.5,0.7c1.7,0.5,3.1,1.1,4.4,2
		c1.2,0.9,2.2,2,2.8,3.4c0.7,1.4,1,2.9,1,4.7l-0.7,0.7h-5.8l-0.7-0.7c0-0.5-0.1-1.1-0.3-1.6c-0.2-0.5-0.5-1-1-1.4
		c-0.5-0.4-1.2-0.7-2-1c-0.8-0.2-1.9-0.4-3.1-0.4c-1.8,0-3.4,0.2-4.6,0.7c-1.2,0.5-1.9,1.4-1.9,2.9c0,0.9,0.2,1.7,0.5,2.2
		s0.9,1.1,1.8,1.5c0.8,0.4,1.9,0.8,3.1,1.1c1.3,0.3,2.8,0.6,4.6,1c3.6,0.7,6.3,1.9,8.1,3.5S311.1,405.7,311.1,408.9z"/>
	<path fill="#FFFFFF" d="M337,419h-5.8c-1.2,0-2.5-0.2-3.7-0.5s-2.3-0.9-3.2-1.7c-0.9-0.8-1.7-1.7-2.3-2.9c-0.6-1.2-0.9-2.6-0.9-4.2
		v-19.4l-0.7-0.7h-5l-0.7-0.7v-5l0.7-0.7h5l0.7-0.7v-6.5l0.7-0.7h5.8l0.7,0.7v6.5l0.7,0.7h7.9l0.7,0.7v5l-0.7,0.7h-7.9l-0.7,0.7
		v19.4c0,1.1,0.3,1.9,0.9,2.3c0.6,0.4,1.3,0.6,2,0.6h5.8l0.7,0.7v5L337,419z"/>
	<path fill="#FFFFFF" d="M351.4,377.2h-5.8l-0.7-0.7v-5.8l0.7-0.7h5.8l0.7,0.7v5.8L351.4,377.2z M351.4,419h-5.8l-0.7-0.7v-34.6
		l0.7-0.7h5.8l0.7,0.7v34.6L351.4,419z"/>
	<path fill="#FFFFFF" d="M378.8,418.3l-0.7,0.7h-6.5l-0.7-0.7l-12.2-29.5v-5l0.7-0.7h4.3l0.7,0.7l10.1,25.2h0.7l10.1-25.2l0.7-0.7
		h4.3l0.7,0.7v5L378.8,418.3z"/>
	<path fill="#FFFFFF" d="M424.9,419h-5l-0.7-0.7l-0.7-2.9h-0.7c-0.7,0.8-1.5,1.5-2.4,2.2c-0.8,0.5-1.8,1-3.1,1.5
		c-1.2,0.5-2.8,0.7-4.6,0.7c-4,0-7.1-1-9.1-3.1c-2.1-2-3.1-4.9-3.1-8.5c0-2,0.4-3.7,1.2-5.1c0.8-1.5,1.8-2.7,3.2-3.6
		c1.4-0.9,3.1-1.6,5-2.1c1.9-0.5,4.1-0.7,6.4-0.7c0.9,0,1.8,0,2.6,0.1s1.5,0.2,2.1,0.3c0.3,0.1,0.7,0.2,1,0.2c0.3,0,0.6,0.1,0.9,0.1
		l0.7-0.7v-1.4c0-2.5-0.6-4.3-1.7-5.1c-1.1-0.9-3-1.3-5.5-1.3c-2.6,0-4.4,0.4-5.5,1.1c-1.1,0.7-1.7,1.8-1.7,3.2l-0.7,0.7h-5.8
		l-0.7-0.7c0-1.2,0.2-2.5,0.7-3.8c0.5-1.3,1.3-2.5,2.4-3.5c1.1-1,2.6-1.9,4.5-2.5c1.8-0.6,4.1-1,6.8-1c2.7,0,5,0.3,6.8,1
		s3.3,1.6,4.5,2.9s1.9,2.9,2.4,4.9c0.5,2,0.7,4.3,0.7,7v20.2L424.9,419z M418.4,403.9l-0.7-0.7l-1.5-0.4c-0.5-0.1-1.1-0.2-1.8-0.3
		c-0.7-0.1-1.5-0.1-2.4-0.1c-3.3,0-5.7,0.5-7.2,1.5c-1.5,1-2.2,2.4-2.2,4.2s0.5,3.1,1.6,3.9c1.1,0.8,2.7,1.2,4.9,1.2
		c2.9,0,5.2-0.7,6.8-2c1.7-1.3,2.5-3.1,2.5-5.2V403.9z"/>
	<path fill="#FFFFFF" d="M440,419h-5.8l-0.7-0.7v-49l0.7-0.7h5.8l0.7,0.7v49L440,419z"/>
</g>
</svg>
