<?xml version="1.0" encoding="utf-8"?>
<!-- Generator: Adobe Illustrator 19.0.1, SVG Export Plug-In . SVG Version: 6.00 Build 0)  -->
<!DOCTYPE svg PUBLIC "-//W3C//DTD SVG 1.1//EN" "http://www.w3.org/Graphics/SVG/1.1/DTD/svg11.dtd">
<svg version="1.1" id="Vrstva_1" xmlns="http://www.w3.org/2000/svg" xmlns:xlink="http://www.w3.org/1999/xlink" x="0px" y="0px"
	 viewBox="0 0 821 85" enable-background="new 0 0 821 85" xml:space="preserve">
<g>
	<path fill="#FFFFFF" d="M51,17.2H24.6L23.8,18v16l0.8,0.8h24.8l0.8,0.8v5.6L49.4,42H24.6l-0.8,0.8v22.4L23,66h-6.4l-0.8-0.8V10.8
		l0.8-0.8H51l0.8,0.8v5.6L51,17.2z"/>
	<path fill="#FFFFFF" d="M76.6,66.8c-3.2,0-6-0.5-8.4-1.6c-2.4-1-4.4-2.5-6-4.3c-1.6-1.8-2.8-4-3.6-6.6c-0.8-2.6-1.2-5.3-1.2-8.3
		c0-2.8,0.4-5.4,1.1-8c0.7-2.5,1.8-4.7,3.3-6.6c1.5-1.9,3.4-3.4,5.7-4.5s5.1-1.7,8.3-1.7c3.2,0,6,0.6,8.3,1.7
		c2.3,1.1,4.2,2.6,5.7,4.5c1.5,1.9,2.6,4.1,3.3,6.6c0.7,2.5,1.1,5.2,1.1,8v2.4l-0.8,0.8H67L66.2,50c0,0.4,0.1,1.2,0.3,2.2
		c0.2,1,0.6,2.1,1.3,3.2c0.7,1.1,1.7,2.1,3.1,2.9c1.4,0.9,3.3,1.3,5.7,1.3c1.6,0,3.1-0.3,4.6-0.9c1.4-0.6,2.6-1.9,3.4-3.9l0.8-0.8
		h6.4l0.8,0.8c-0.2,1.6-0.7,3.1-1.5,4.6c-0.8,1.4-1.9,2.7-3.2,3.8c-1.3,1.1-2.9,2-4.8,2.6C81.2,66.5,79,66.8,76.6,66.8z M85.4,42
		c0-0.6-0.1-1.4-0.3-2.5c-0.2-1.1-0.6-2.2-1.2-3.2c-0.6-1-1.6-1.9-2.9-2.7c-1.3-0.8-3-1.2-5.2-1.2c-2.2,0-3.9,0.4-5.2,1.2
		c-1.3,0.8-2.2,1.7-2.9,2.7c-0.6,1-1.1,2.1-1.2,3.2c-0.2,1.1-0.3,1.9-0.3,2.5l0.8,0.8h17.6L85.4,42z"/>
	<path fill="#FFFFFF" d="M131,54.8c0,1.6-0.3,3.1-0.9,4.6c-0.6,1.4-1.6,2.7-2.9,3.8c-1.3,1.1-3,2-5,2.6c-2,0.6-4.4,1-7.2,1
		c-5.3,0-9.3-1.1-12-3.4c-2.7-2.3-4-5.7-4-10.2l0.8-0.8h6.4l0.8,0.8c0,2,0.6,3.6,1.8,4.7c1.2,1.1,3.3,1.7,6.2,1.7s4.9-0.4,6.2-1.2
		c1.2-0.8,1.8-2,1.8-3.6c0-1-0.2-1.8-0.5-2.5c-0.3-0.6-0.9-1.2-1.7-1.6c-0.8-0.5-1.9-0.8-3.2-1.2c-1.3-0.3-3-0.7-5-1.1
		c-4-0.7-7.1-2-9.4-3.9c-2.3-1.8-3.4-4.5-3.4-8.1c0-1.4,0.3-2.8,0.8-4.1c0.5-1.4,1.4-2.6,2.6-3.6c1.2-1,2.8-1.9,4.7-2.5
		c1.9-0.6,4.3-1,7.1-1c2.2,0,4.2,0.3,6.1,0.8c1.9,0.5,3.5,1.3,4.8,2.2c1.4,1,2.4,2.2,3.2,3.8c0.7,1.5,1.1,3.3,1.1,5.2l-0.8,0.8H123
		l-0.8-0.8c0-0.6-0.1-1.2-0.3-1.8c-0.2-0.6-0.6-1.1-1.2-1.6c-0.6-0.5-1.3-0.8-2.2-1.1c-0.9-0.3-2.1-0.4-3.5-0.4
		c-2,0-3.7,0.3-5.1,0.8c-1.4,0.5-2.1,1.6-2.1,3.2c0,1,0.2,1.8,0.6,2.5c0.4,0.6,1.1,1.2,2,1.6c0.9,0.5,2.1,0.9,3.5,1.2
		c1.4,0.3,3.1,0.7,5.2,1.1c4,0.8,7,2.1,9,3.9C130,48.5,131,51.2,131,54.8z"/>
	<path fill="#FFFFFF" d="M159.8,66h-6.4c-1.4,0-2.8-0.2-4.1-0.6c-1.4-0.4-2.6-1-3.6-1.9c-1-0.9-1.9-1.9-2.5-3.2
		c-0.6-1.3-1-2.9-1-4.7V34l-0.8-0.8h-5.6l-0.8-0.8v-5.6l0.8-0.8h5.6l0.8-0.8V18l0.8-0.8h6.4l0.8,0.8v7.2L151,26h8.8l0.8,0.8v5.6
		l-0.8,0.8H151l-0.8,0.8v21.6c0,1.2,0.3,2.1,1,2.5c0.7,0.5,1.4,0.7,2.2,0.7h6.4l0.8,0.8v5.6L159.8,66z"/>
	<path fill="#FFFFFF" d="M175.8,19.6h-6.4l-0.8-0.8v-6.4l0.8-0.8h6.4l0.8,0.8v6.4L175.8,19.6z M175.8,66h-6.4l-0.8-0.8V26.8l0.8-0.8
		h6.4l0.8,0.8v38.4L175.8,66z"/>
	<path fill="#FFFFFF" d="M206.2,65.2l-0.8,0.8h-7.2l-0.8-0.8l-13.6-32.8v-5.6l0.8-0.8h4.8l0.8,0.8l11.2,28h0.8l11.2-28l0.8-0.8h4.8
		l0.8,0.8v5.6L206.2,65.2z"/>
	<path fill="#FFFFFF" d="M257.4,66h-5.6l-0.8-0.8l-0.8-3.2h-0.8c-0.7,0.9-1.6,1.7-2.6,2.4c-0.9,0.6-2.1,1.1-3.4,1.6
		c-1.4,0.5-3.1,0.8-5.1,0.8c-4.5,0-7.9-1.1-10.2-3.4c-2.3-2.3-3.4-5.4-3.4-9.4c0-2.2,0.4-4.1,1.3-5.7c0.9-1.6,2.1-3,3.6-4
		c1.5-1,3.4-1.8,5.6-2.3c2.2-0.5,4.5-0.8,7.2-0.8c1,0,2,0,2.8,0.1c0.9,0.1,1.6,0.2,2.3,0.3c0.4,0.1,0.7,0.2,1.1,0.2
		c0.3,0.1,0.7,0.1,1,0.2l0.8-0.8v-1.6c0-2.8-0.6-4.7-1.9-5.7c-1.3-1-3.3-1.5-6.1-1.5c-2.9,0-4.9,0.4-6.2,1.2c-1.2,0.8-1.8,2-1.8,3.6
		l-0.8,0.8H227l-0.8-0.8c0-1.4,0.3-2.8,0.8-4.2c0.5-1.4,1.4-2.7,2.7-3.9c1.3-1.1,2.9-2.1,5-2.8c2.1-0.7,4.6-1.1,7.6-1.1
		c3,0,5.5,0.4,7.6,1.1c2.1,0.7,3.7,1.8,5,3.2c1.3,1.4,2.1,3.3,2.7,5.5c0.5,2.2,0.8,4.8,0.8,7.8v22.4L257.4,66z M250.2,49.2l-0.8-0.8
		l-1.7-0.4c-0.6-0.1-1.3-0.2-2-0.3c-0.8-0.1-1.7-0.1-2.7-0.1c-3.7,0-6.3,0.6-8,1.7c-1.6,1.1-2.4,2.7-2.4,4.7c0,2,0.6,3.5,1.8,4.3
		c1.2,0.9,3,1.3,5.4,1.3c3.2,0,5.7-0.7,7.6-2.2c1.9-1.5,2.8-3.4,2.8-5.8V49.2z"/>
	<path fill="#FFFFFF" d="M274.2,66h-6.4l-0.8-0.8V10.8l0.8-0.8h6.4l0.8,0.8v54.4L274.2,66z"/>
	<path fill="#FFFFFF" d="M342.2,46c0,3-0.4,5.8-1.2,8.3c-0.8,2.6-1.9,4.8-3.4,6.6s-3.4,3.3-5.6,4.3c-2.2,1-4.7,1.6-7.4,1.6
		c-1.8,0-3.4-0.3-4.7-0.8c-1.3-0.5-2.4-1.1-3.2-1.6c-0.9-0.7-1.7-1.5-2.5-2.4h-0.8v19.2l-0.8,0.8h-6.4l-0.8-0.8V26.8l0.8-0.8h5.6
		l0.8,0.8l0.8,3.2h0.8c0.7-0.9,1.6-1.7,2.5-2.4c0.9-0.6,1.9-1.1,3.2-1.6c1.3-0.5,2.9-0.8,4.7-0.8c2.8,0,5.3,0.5,7.4,1.6
		c2.2,1,4,2.5,5.6,4.3s2.7,4,3.4,6.6C341.8,40.2,342.2,43,342.2,46z M334.2,46c0-4.5-0.9-7.9-2.8-10.2c-1.9-2.3-4.4-3.4-7.6-3.4
		c-3.2,0-5.7,1.1-7.6,3.2c-1.9,2.1-2.8,5.6-2.8,10.4s0.9,8.3,2.8,10.4c1.9,2.1,4.4,3.2,7.6,3.2c3.2,0,5.7-1.1,7.6-3.4
		C333.3,53.9,334.2,50.5,334.2,46z"/>
	<path fill="#FFFFFF" d="M347,46c0-3.2,0.4-6.1,1.3-8.6c0.9-2.6,2.1-4.7,3.8-6.6c1.7-1.8,3.7-3.2,6-4.2c2.4-1,5.1-1.4,8-1.4
		c3,0,5.7,0.5,8,1.4c2.4,1,4.4,2.3,6,4.2c1.7,1.8,2.9,4,3.8,6.6s1.3,5.4,1.3,8.6s-0.4,6.1-1.3,8.6s-2.1,4.7-3.8,6.6
		c-1.7,1.8-3.7,3.2-6,4.2c-2.4,1-5.1,1.4-8,1.4c-3,0-5.7-0.5-8-1.4c-2.4-1-4.4-2.3-6-4.2c-1.7-1.8-2.9-4-3.8-6.6
		C347.4,52.1,347,49.2,347,46z M355,46c0,4.5,0.9,7.9,2.8,10.2c1.9,2.3,4.7,3.4,8.4,3.4c3.7,0,6.5-1.1,8.4-3.4
		c1.9-2.3,2.8-5.7,2.8-10.2s-0.9-7.9-2.8-10.2c-1.9-2.3-4.7-3.4-8.4-3.4c-3.7,0-6.5,1.1-8.4,3.4C355.9,38.1,355,41.5,355,46z"/>
	<path fill="#FFFFFF" d="M398.2,46c0,4.5,0.9,7.9,2.8,10.2c1.9,2.3,4.7,3.4,8.4,3.4c1.6,0,3-0.2,4.1-0.6c1.1-0.4,2.1-0.9,2.8-1.4
		c0.7-0.6,1.3-1.3,1.8-2c0.4-0.8,0.7-1.6,1-2.4l0.8-0.8h6.4l0.8,0.8c-0.2,1.8-0.7,3.5-1.5,5.2c-0.8,1.6-1.9,3.1-3.4,4.3
		c-1.4,1.3-3.2,2.3-5.3,3c-2.1,0.7-4.6,1.1-7.4,1.1c-3,0-5.7-0.5-8-1.4c-2.4-1-4.4-2.3-6-4.2c-1.7-1.8-2.9-4-3.8-6.6
		c-0.9-2.6-1.3-5.4-1.3-8.6s0.4-6.1,1.3-8.6c0.9-2.6,2.1-4.7,3.8-6.6c1.7-1.8,3.7-3.2,6-4.2c2.4-1,5.1-1.4,8-1.4
		c2.8,0,5.3,0.4,7.4,1.1c2.1,0.7,3.9,1.7,5.3,3c1.4,1.3,2.6,2.7,3.4,4.3c0.8,1.6,1.3,3.3,1.5,5.2l-0.8,0.8h-6.4l-0.8-0.8
		c-0.2-0.8-0.5-1.6-1-2.4c-0.4-0.8-1-1.5-1.8-2c-0.7-0.6-1.7-1.1-2.8-1.4c-1.1-0.4-2.5-0.6-4.1-0.6c-3.7,0-6.5,1.1-8.4,3.4
		C399.1,38.1,398.2,41.5,398.2,46z"/>
	<path fill="#FFFFFF" d="M455.8,66h-6.4c-1.4,0-2.8-0.2-4.1-0.6s-2.6-1-3.6-1.9c-1-0.9-1.9-1.9-2.5-3.2c-0.6-1.3-1-2.9-1-4.7V34
		l-0.8-0.8h-5.6l-0.8-0.8v-5.6l0.8-0.8h5.6l0.8-0.8V18l0.8-0.8h6.4l0.8,0.8v7.2L447,26h8.8l0.8,0.8v5.6l-0.8,0.8H447l-0.8,0.8v21.6
		c0,1.2,0.3,2.1,1,2.5c0.7,0.5,1.4,0.7,2.2,0.7h6.4l0.8,0.8v5.6L455.8,66z"/>
	<path fill="#FFFFFF" d="M471.8,19.6h-6.4l-0.8-0.8v-6.4l0.8-0.8h6.4l0.8,0.8v6.4L471.8,19.6z M471.8,66h-6.4l-0.8-0.8V26.8l0.8-0.8
		h6.4l0.8,0.8v38.4L471.8,66z"/>
	<path fill="#FFFFFF" d="M502.2,65.2l-0.8,0.8h-7.2l-0.8-0.8l-13.6-32.8v-5.6l0.8-0.8h4.8l0.8,0.8l11.2,28h0.8l11.2-28l0.8-0.8h4.8
		l0.8,0.8v5.6L502.2,65.2z"/>
	<path fill="#FFFFFF" d="M539.8,66.8c-3.2,0-6-0.5-8.4-1.6c-2.4-1-4.4-2.5-6-4.3c-1.6-1.8-2.8-4-3.6-6.6c-0.8-2.6-1.2-5.3-1.2-8.3
		c0-2.8,0.4-5.4,1.1-8c0.7-2.5,1.8-4.7,3.3-6.6c1.5-1.9,3.4-3.4,5.7-4.5c2.3-1.1,5.1-1.7,8.3-1.7s6,0.6,8.3,1.7s4.2,2.6,5.7,4.5
		c1.5,1.9,2.6,4.1,3.3,6.6c0.7,2.5,1.1,5.2,1.1,8v2.4l-0.8,0.8h-26.4l-0.8,0.8c0,0.4,0.1,1.2,0.3,2.2c0.2,1,0.6,2.1,1.3,3.2
		c0.7,1.1,1.7,2.1,3.1,2.9c1.4,0.9,3.3,1.3,5.7,1.3c1.6,0,3.1-0.3,4.6-0.9c1.4-0.6,2.6-1.9,3.4-3.9l0.8-0.8h6.4l0.8,0.8
		c-0.2,1.6-0.7,3.1-1.5,4.6s-1.9,2.7-3.2,3.8c-1.3,1.1-2.9,2-4.8,2.6C544.3,66.5,542.2,66.8,539.8,66.8z M548.6,42
		c0-0.6-0.1-1.4-0.3-2.5c-0.2-1.1-0.6-2.2-1.2-3.2c-0.6-1-1.6-1.9-2.9-2.7c-1.3-0.8-3-1.2-5.2-1.2c-2.2,0-3.9,0.4-5.2,1.2
		c-1.3,0.8-2.2,1.7-2.9,2.7c-0.6,1-1.1,2.1-1.2,3.2c-0.2,1.1-0.3,1.9-0.3,2.5l0.8,0.8h17.6L548.6,42z M539.8,20.4l-1.6,0.8h-4
		l-0.8-0.8v-1.6l7.2-8l1.6-0.8h5.6l0.8,0.8v1.6L539.8,20.4z"/>
	<path fill="#FFFFFF" d="M598.2,66h-6.4l-0.8-0.8V42c0-1.2-0.1-2.3-0.4-3.5c-0.2-1.2-0.7-2.2-1.2-3.1s-1.4-1.6-2.4-2.2
		c-1-0.6-2.4-0.8-4-0.8c-3.2,0-5.7,0.9-7.6,2.8c-1.9,1.9-2.8,5.2-2.8,10v20l-0.8,0.8h-6.4l-0.8-0.8V10.8l0.8-0.8h6.4l0.8,0.8V30h0.8
		c0.7-0.9,1.6-1.7,2.5-2.4c0.9-0.6,1.9-1.1,3.2-1.6c1.3-0.5,2.9-0.8,4.7-0.8c3,0,5.5,0.5,7.4,1.4c2,0.9,3.5,2.2,4.7,3.7
		c1.1,1.5,1.9,3.3,2.4,5.4c0.5,2,0.7,4.1,0.7,6.3v23.2L598.2,66z"/>
	<path fill="#FFFFFF" d="M606.2,46c0-3.2,0.4-6.1,1.3-8.6s2.1-4.7,3.8-6.6c1.7-1.8,3.7-3.2,6-4.2s5.1-1.4,8-1.4c3,0,5.7,0.5,8,1.4
		s4.4,2.3,6,4.2c1.7,1.8,2.9,4,3.8,6.6c0.9,2.6,1.3,5.4,1.3,8.6s-0.4,6.1-1.3,8.6c-0.9,2.6-2.1,4.7-3.8,6.6c-1.7,1.8-3.7,3.2-6,4.2
		s-5.1,1.4-8,1.4c-3,0-5.7-0.5-8-1.4s-4.4-2.3-6-4.2c-1.7-1.8-2.9-4-3.8-6.6S606.2,49.2,606.2,46z M614.2,46c0,4.5,0.9,7.9,2.8,10.2
		c1.9,2.3,4.7,3.4,8.4,3.4c3.7,0,6.5-1.1,8.4-3.4c1.9-2.3,2.8-5.7,2.8-10.2s-0.9-7.9-2.8-10.2c-1.9-2.3-4.7-3.4-8.4-3.4
		c-3.7,0-6.5,1.1-8.4,3.4C615.1,38.1,614.2,41.5,614.2,46z"/>
	<path fill="#FFFFFF" d="M680.6,70c0,1.8-0.3,3.4-1,4.7c-0.6,1.3-1.5,2.4-2.5,3.2c-1,0.9-2.2,1.5-3.6,1.9c-1.4,0.4-2.7,0.6-4.1,0.6
		h-4l-0.8-0.8V74l0.8-0.8h4c0.8,0,1.5-0.2,2.2-0.7c0.7-0.5,1-1.3,1-2.5V26.8l0.8-0.8h6.4l0.8,0.8V70z M679.8,19.6h-6.4l-0.8-0.8
		v-6.4l0.8-0.8h6.4l0.8,0.8v6.4L679.8,19.6z"/>
	<path fill="#FFFFFF" d="M695.8,20.4l-1.6,0.8h-4l-0.8-0.8v-1.6l7.2-8l1.6-0.8h5.6l0.8,0.8v1.6L695.8,20.4z M697.4,66H691l-0.8-0.8
		V26.8L691,26h6.4l0.8,0.8v38.4L697.4,66z"/>
	<path fill="#FFFFFF" d="M741.4,66h-5.6l-0.8-0.8l-0.8-3.2h-0.8c-0.7,0.9-1.6,1.7-2.5,2.4c-0.9,0.6-1.9,1.1-3.2,1.6
		c-1.3,0.5-2.9,0.8-4.7,0.8c-2.8,0-5.3-0.5-7.5-1.6c-2.2-1-4-2.5-5.5-4.3s-2.7-4-3.4-6.6c-0.8-2.6-1.2-5.3-1.2-8.3
		c0-3,0.4-5.8,1.2-8.3c0.8-2.6,1.9-4.8,3.4-6.6s3.4-3.3,5.5-4.3c2.2-1,4.7-1.6,7.5-1.6c1.8,0,3.4,0.3,4.7,0.8
		c1.3,0.5,2.4,1.1,3.2,1.6c0.9,0.7,1.7,1.5,2.5,2.4h0.8V10.8L735,10h6.4l0.8,0.8v54.4L741.4,66z M734.2,46c0-4.8-0.9-8.3-2.8-10.4
		c-1.9-2.1-4.4-3.2-7.6-3.2s-5.7,1.1-7.6,3.4c-1.9,2.3-2.8,5.7-2.8,10.2s0.9,7.9,2.8,10.2c1.9,2.3,4.4,3.4,7.6,3.4s5.7-1.1,7.6-3.2
		C733.3,54.3,734.2,50.8,734.2,46z"/>
	<path fill="#FFFFFF" d="M759,66h-6.4l-0.8-0.8V10.8l0.8-0.8h6.4l0.8,0.8v54.4L759,66z"/>
	<path fill="#FFFFFF" d="M799.8,66h-5.6l-0.8-0.8l-0.8-3.2h-0.8c-0.7,0.9-1.6,1.7-2.6,2.4c-0.9,0.6-2.1,1.1-3.4,1.6
		c-1.4,0.5-3.1,0.8-5.1,0.8c-4.5,0-7.9-1.1-10.2-3.4c-2.3-2.3-3.4-5.4-3.4-9.4c0-2.2,0.4-4.1,1.3-5.7c0.9-1.6,2.1-3,3.6-4
		c1.5-1,3.4-1.8,5.6-2.3c2.2-0.5,4.5-0.8,7.2-0.8c1,0,2,0,2.8,0.1c0.9,0.1,1.6,0.2,2.3,0.3c0.4,0.1,0.7,0.2,1.1,0.2
		c0.3,0.1,0.7,0.1,1,0.2l0.8-0.8v-1.6c0-2.8-0.6-4.7-1.9-5.7c-1.3-1-3.3-1.5-6.1-1.5c-2.9,0-4.9,0.4-6.2,1.2c-1.2,0.8-1.8,2-1.8,3.6
		l-0.8,0.8h-6.4l-0.8-0.8c0-1.4,0.3-2.8,0.8-4.2c0.5-1.4,1.4-2.7,2.7-3.9c1.3-1.1,2.9-2.1,5-2.8c2.1-0.7,4.6-1.1,7.6-1.1
		c3,0,5.5,0.4,7.6,1.1c2.1,0.7,3.7,1.8,5,3.2s2.1,3.3,2.7,5.5c0.5,2.2,0.8,4.8,0.8,7.8v22.4L799.8,66z M792.6,49.2l-0.8-0.8
		l-1.7-0.4c-0.6-0.1-1.3-0.2-2-0.3c-0.8-0.1-1.7-0.1-2.7-0.1c-3.7,0-6.3,0.6-8,1.7c-1.6,1.1-2.4,2.7-2.4,4.7c0,2,0.6,3.5,1.8,4.3
		c1.2,0.9,3,1.3,5.4,1.3c3.2,0,5.7-0.7,7.6-2.2c1.9-1.5,2.8-3.4,2.8-5.8V49.2z"/>
</g>
</svg>
