<?xml version="1.0" encoding="utf-8"?>
<!-- Generator: Adobe Illustrator 19.0.1, SVG Export Plug-In . SVG Version: 6.00 Build 0)  -->
<!DOCTYPE svg PUBLIC "-//W3C//DTD SVG 1.1//EN" "http://www.w3.org/Graphics/SVG/1.1/DTD/svg11.dtd">
<svg version="1.1" id="Vrstva_1" xmlns="http://www.w3.org/2000/svg" xmlns:xlink="http://www.w3.org/1999/xlink" x="0px" y="0px"
	 viewBox="-365 358 669 85" enable-background="new -365 358 669 85" xml:space="preserve">
<g>
	<path fill="#FFFFFF" d="M-304.3,425.7h-5.8l-0.7-0.7v-21.2l-0.7-0.7h-24.1l-0.7,0.7V425l-0.7,0.7h-5.8l-0.7-0.7v-49.6l0.7-0.7h5.8
		l0.7,0.7v20.4l0.7,0.7h24.1l0.7-0.7v-20.4l0.7-0.7h5.8l0.7,0.7V425L-304.3,425.7z"/>
	<path fill="#FFFFFF" d="M-295.6,407.4c0-2.9,0.4-5.5,1.2-7.9c0.8-2.3,2-4.3,3.5-6c1.5-1.7,3.3-2.9,5.5-3.8c2.2-0.9,4.6-1.3,7.3-1.3
		c2.7,0,5.2,0.4,7.3,1.3c2.2,0.9,4,2.1,5.5,3.8c1.5,1.7,2.7,3.7,3.5,6c0.8,2.3,1.2,5,1.2,7.9s-0.4,5.5-1.2,7.9c-0.8,2.3-2,4.3-3.5,6
		c-1.5,1.7-3.3,2.9-5.5,3.8c-2.2,0.9-4.6,1.3-7.3,1.3c-2.7,0-5.2-0.4-7.3-1.3c-2.2-0.9-4-2.1-5.5-3.8c-1.5-1.7-2.7-3.7-3.5-6
		C-295.2,413-295.6,410.4-295.6,407.4z M-288.3,407.4c0,4.1,0.9,7.2,2.6,9.3c1.7,2.1,4.3,3.1,7.6,3.1s5.9-1,7.6-3.1
		c1.7-2.1,2.6-5.2,2.6-9.3s-0.9-7.2-2.6-9.3c-1.7-2.1-4.3-3.1-7.6-3.1s-5.9,1-7.6,3.1C-287.4,400.3-288.3,403.3-288.3,407.4z"/>
	<path fill="#FFFFFF" d="M-223.3,425.7h-5.8l-0.7-0.7v-21.2c0-0.9-0.1-1.9-0.2-2.9c-0.1-1-0.5-2-1-2.8c-0.5-0.9-1.2-1.6-2.2-2.2
		c-0.9-0.6-2.3-0.8-3.9-0.8c-3.4,0-5.8,1-7.3,2.9c-1.5,1.9-2.2,5.1-2.2,9.5V425l-0.7,0.7h-5.8l-0.7-0.7v-35l0.7-0.7h5.1l0.7,0.7
		l0.7,2.9h0.7c0.7-0.8,1.4-1.6,2.3-2.2c0.8-0.5,1.8-1,3-1.5c1.2-0.5,2.6-0.7,4.3-0.7c2.5,0,4.7,0.4,6.5,1.2c1.8,0.8,3.2,1.8,4.3,3.2
		s1.9,3,2.4,4.9c0.5,1.9,0.7,3.9,0.7,6.1V425L-223.3,425.7z"/>
	<path fill="#FFFFFF" d="M-199.2,426.4c-2.9,0-5.5-0.5-7.7-1.4s-4-2.3-5.5-3.9c-1.5-1.7-2.6-3.7-3.3-6s-1.1-4.9-1.1-7.6
		c0-2.5,0.3-5,1-7.3c0.7-2.3,1.7-4.3,3-6.1c1.4-1.7,3.1-3.1,5.2-4.1c2.1-1,4.6-1.5,7.6-1.5s5.4,0.5,7.6,1.5c2.1,1,3.9,2.4,5.2,4.1
		c1.4,1.7,2.4,3.7,3,6.1c0.7,2.3,1,4.7,1,7.3v2.2l-0.7,0.7H-208l-0.7,0.7c0,0.4,0.1,1.1,0.3,2c0.2,0.9,0.6,1.9,1.2,2.9
		c0.6,1,1.6,1.9,2.8,2.7c1.3,0.8,3,1.2,5.2,1.2c1.5,0,2.8-0.3,4.2-0.8c1.3-0.5,2.4-1.7,3.1-3.6l0.7-0.7h5.8l0.7,0.7
		c-0.2,1.5-0.7,2.8-1.4,4.2c-0.7,1.3-1.7,2.5-2.9,3.5c-1.2,1-2.7,1.8-4.4,2.4C-195.1,426.1-197,426.4-199.2,426.4z M-191.2,403.8
		c0-0.5-0.1-1.3-0.3-2.3c-0.2-1-0.5-2-1.1-2.9c-0.6-0.9-1.5-1.8-2.6-2.5c-1.2-0.7-2.8-1.1-4.7-1.1c-2,0-3.6,0.4-4.7,1.1
		c-1.2,0.7-2,1.5-2.6,2.5c-0.6,0.9-1,1.9-1.1,2.9c-0.2,1-0.3,1.8-0.3,2.3l0.7,0.7h16.1L-191.2,403.8z"/>
	<path fill="#FFFFFF" d="M-149.6,415.5c0,1.5-0.3,2.8-0.8,4.2c-0.6,1.3-1.4,2.5-2.6,3.5c-1.2,1-2.7,1.8-4.6,2.4
		c-1.9,0.6-4,0.9-6.6,0.9c-4.8,0-8.5-1-10.9-3.1c-2.5-2.1-3.7-5.2-3.7-9.3l0.7-0.7h5.8l0.7,0.7c0,1.8,0.6,3.3,1.7,4.3
		c1.1,1,3,1.5,5.6,1.5s4.5-0.4,5.6-1.1c1.1-0.7,1.7-1.8,1.7-3.3c0-0.9-0.2-1.7-0.5-2.3c-0.3-0.6-0.8-1.1-1.6-1.5
		c-0.7-0.4-1.7-0.8-2.9-1.1c-1.2-0.3-2.7-0.6-4.5-1c-3.6-0.7-6.5-1.9-8.6-3.5c-2.1-1.7-3.1-4.1-3.1-7.4c0-1.3,0.2-2.5,0.7-3.8
		c0.5-1.2,1.3-2.3,2.4-3.3c1.1-0.9,2.5-1.7,4.3-2.3c1.8-0.6,3.9-0.9,6.5-0.9c2,0,3.8,0.2,5.5,0.7c1.7,0.5,3.2,1.1,4.4,2
		c1.2,0.9,2.2,2,2.9,3.4c0.7,1.4,1,3,1,4.8l-0.7,0.7h-5.8l-0.7-0.7c0-0.5-0.1-1.1-0.3-1.6c-0.2-0.5-0.5-1-1.1-1.4
		c-0.5-0.4-1.2-0.7-2-1c-0.9-0.2-1.9-0.4-3.2-0.4c-1.9,0-3.4,0.2-4.7,0.7c-1.3,0.5-1.9,1.5-1.9,2.9c0,0.9,0.2,1.7,0.5,2.3
		c0.4,0.6,1,1.1,1.8,1.5c0.8,0.4,1.9,0.8,3.2,1.1c1.3,0.3,2.9,0.6,4.7,1c3.6,0.7,6.4,1.9,8.2,3.5
		C-150.5,409.7-149.6,412.2-149.6,415.5z"/>
	<path fill="#FFFFFF" d="M-123.3,425.7h-5.8c-1.3,0-2.5-0.2-3.8-0.5c-1.2-0.4-2.3-0.9-3.3-1.7c-0.9-0.8-1.7-1.8-2.3-3
		c-0.6-1.2-0.9-2.6-0.9-4.3v-19.7l-0.7-0.7h-5.1l-0.7-0.7v-5.1l0.7-0.7h5.1l0.7-0.7v-6.6l0.7-0.7h5.8l0.7,0.7v6.6l0.7,0.7h8l0.7,0.7
		v5.1l-0.7,0.7h-8l-0.7,0.7v19.7c0,1.1,0.3,1.9,0.9,2.3c0.6,0.4,1.3,0.6,2,0.6h5.8l0.7,0.7v5.1L-123.3,425.7z"/>
	<path fill="#FFFFFF" d="M-76.6,395.8h-7.3l-0.7,0.7V425l-0.7,0.7h-5.8l-0.7-0.7v-28.5l-0.7-0.7h-5.1l-0.7-0.7v-5.1l0.7-0.7h5.1
		l0.7-0.7v-2.9c0-1.7,0.3-3.1,0.9-4.3c0.6-1.2,1.4-2.2,2.3-3c0.9-0.8,2-1.4,3.3-1.7c1.2-0.4,2.5-0.5,3.8-0.5h5.8l0.7,0.7v5.1
		l-0.7,0.7h-5.8c-0.7,0-1.4,0.2-2,0.6c-0.6,0.4-0.9,1.2-0.9,2.3v2.9l0.7,0.7h7.3l0.7,0.7v5.1L-76.6,395.8z"/>
	<path fill="#FFFFFF" d="M-72.9,407.4c0-2.9,0.4-5.5,1.2-7.9c0.8-2.3,2-4.3,3.5-6c1.5-1.7,3.3-2.9,5.5-3.8c2.2-0.9,4.6-1.3,7.3-1.3
		c2.7,0,5.2,0.4,7.3,1.3c2.2,0.9,4,2.1,5.5,3.8c1.5,1.7,2.7,3.7,3.5,6c0.8,2.3,1.2,5,1.2,7.9s-0.4,5.5-1.2,7.9c-0.8,2.3-2,4.3-3.5,6
		c-1.5,1.7-3.3,2.9-5.5,3.8c-2.2,0.9-4.6,1.3-7.3,1.3c-2.7,0-5.2-0.4-7.3-1.3c-2.2-0.9-4-2.1-5.5-3.8c-1.5-1.7-2.7-3.7-3.5-6
		C-72.5,413-72.9,410.4-72.9,407.4z M-65.6,407.4c0,4.1,0.9,7.2,2.6,9.3c1.7,2.1,4.3,3.1,7.6,3.1s5.9-1,7.6-3.1
		c1.7-2.1,2.6-5.2,2.6-9.3s-0.9-7.2-2.6-9.3c-1.7-2.1-4.3-3.1-7.6-3.1s-5.9,1-7.6,3.1C-64.8,400.3-65.6,403.3-65.6,407.4z"/>
	<path fill="#FFFFFF" d="M-33.5,407.4c0-2.9,0.4-5.5,1.2-7.9c0.8-2.3,2-4.3,3.5-6c1.5-1.7,3.3-2.9,5.5-3.8c2.2-0.9,4.6-1.3,7.3-1.3
		c2.7,0,5.2,0.4,7.3,1.3c2.2,0.9,4,2.1,5.5,3.8c1.5,1.7,2.7,3.7,3.5,6c0.8,2.3,1.2,5,1.2,7.9s-0.4,5.5-1.2,7.9c-0.8,2.3-2,4.3-3.5,6
		c-1.5,1.7-3.3,2.9-5.5,3.8c-2.2,0.9-4.6,1.3-7.3,1.3c-2.7,0-5.2-0.4-7.3-1.3c-2.2-0.9-4-2.1-5.5-3.8c-1.5-1.7-2.7-3.7-3.5-6
		C-33.1,413-33.5,410.4-33.5,407.4z M-26.2,407.4c0,4.1,0.9,7.2,2.6,9.3c1.7,2.1,4.3,3.1,7.6,3.1s5.9-1,7.6-3.1
		c1.7-2.1,2.6-5.2,2.6-9.3s-0.9-7.2-2.6-9.3c-1.7-2.1-4.3-3.1-7.6-3.1s-5.9,1-7.6,3.1C-25.3,400.3-26.2,403.3-26.2,407.4z"/>
	<path fill="#FFFFFF" d="M38.8,425.7h-5.1l-0.7-0.7l-0.7-2.9h-0.7c-0.7,0.8-1.4,1.6-2.3,2.2c-0.8,0.5-1.8,1-3,1.5
		c-1.2,0.5-2.6,0.7-4.3,0.7c-2.6,0-4.9-0.5-6.8-1.4c-2-0.9-3.7-2.3-5-3.9c-1.4-1.7-2.4-3.7-3.1-6c-0.7-2.3-1.1-4.9-1.1-7.6
		c0-2.7,0.4-5.3,1.1-7.6c0.7-2.3,1.8-4.3,3.1-6c1.4-1.7,3.1-3,5-3.9c2-0.9,4.2-1.4,6.8-1.4c1.7,0,3.1,0.2,4.3,0.7
		c1.2,0.5,2.2,1,3,1.5c0.8,0.6,1.6,1.4,2.3,2.2h0.7v-17.5l0.7-0.7h5.8l0.7,0.7V425L38.8,425.7z M32.2,407.4c0-4.4-0.9-7.5-2.6-9.5
		c-1.7-1.9-4-2.9-6.9-2.9c-2.9,0-5.2,1-6.9,3.1c-1.7,2.1-2.6,5.2-2.6,9.3s0.9,7.2,2.6,9.3c1.7,2.1,4,3.1,6.9,3.1
		c2.9,0,5.2-1,6.9-2.9C31.3,415,32.2,411.8,32.2,407.4z"/>
	<path fill="#FFFFFF" d="M86.9,395.8h-7.3l-0.7,0.7V425l-0.7,0.7h-5.8l-0.7-0.7v-28.5l-0.7-0.7h-5.1L65,395v-5.1l0.7-0.7h5.1
		l0.7-0.7v-2.9c0-1.7,0.3-3.1,0.9-4.3c0.6-1.2,1.4-2.2,2.3-3c0.9-0.8,2-1.4,3.3-1.7c1.2-0.4,2.5-0.5,3.8-0.5h5.8l0.7,0.7v5.1
		l-0.7,0.7h-5.8c-0.7,0-1.4,0.2-2,0.6c-0.6,0.4-0.9,1.2-0.9,2.3v2.9l0.7,0.7h7.3l0.7,0.7v5.1L86.9,395.8z"/>
	<path fill="#FFFFFF" d="M108.1,426.4c-2.9,0-5.5-0.5-7.7-1.4c-2.2-0.9-4-2.3-5.5-3.9c-1.5-1.7-2.6-3.7-3.3-6
		c-0.7-2.3-1.1-4.9-1.1-7.6c0-2.5,0.3-5,1-7.3c0.7-2.3,1.7-4.3,3-6.1c1.4-1.7,3.1-3.1,5.2-4.1c2.1-1,4.6-1.5,7.6-1.5
		c2.9,0,5.4,0.5,7.6,1.5c2.1,1,3.9,2.4,5.2,4.1c1.4,1.7,2.4,3.7,3,6.1c0.7,2.3,1,4.7,1,7.3v2.2l-0.7,0.7H99.4l-0.7,0.7
		c0,0.4,0.1,1.1,0.3,2c0.2,0.9,0.6,1.9,1.2,2.9c0.6,1,1.6,1.9,2.8,2.7c1.3,0.8,3,1.2,5.2,1.2c1.5,0,2.8-0.3,4.2-0.8
		c1.3-0.5,2.4-1.7,3.1-3.6l0.7-0.7h5.8l0.7,0.7c-0.2,1.5-0.7,2.8-1.4,4.2c-0.7,1.3-1.7,2.5-2.9,3.5c-1.2,1-2.7,1.8-4.4,2.4
		C112.3,426.1,110.3,426.4,108.1,426.4z M116.1,403.8c0-0.5-0.1-1.3-0.3-2.3c-0.2-1-0.5-2-1.1-2.9c-0.6-0.9-1.5-1.8-2.6-2.5
		c-1.2-0.7-2.8-1.1-4.7-1.1c-2,0-3.6,0.4-4.7,1.1c-1.2,0.7-2,1.5-2.6,2.5c-0.6,0.9-1,1.9-1.1,2.9c-0.2,1-0.3,1.8-0.3,2.3l0.7,0.7
		h16.1L116.1,403.8z"/>
	<path fill="#FFFFFF" d="M157.8,415.5c0,1.5-0.3,2.8-0.8,4.2c-0.6,1.3-1.4,2.5-2.6,3.5c-1.2,1-2.7,1.8-4.6,2.4
		c-1.9,0.6-4,0.9-6.6,0.9c-4.8,0-8.5-1-10.9-3.1c-2.5-2.1-3.7-5.2-3.7-9.3l0.7-0.7h5.8l0.7,0.7c0,1.8,0.6,3.3,1.7,4.3
		c1.1,1,3,1.5,5.6,1.5s4.5-0.4,5.6-1.1c1.1-0.7,1.7-1.8,1.7-3.3c0-0.9-0.2-1.7-0.5-2.3s-0.8-1.1-1.6-1.5c-0.7-0.4-1.7-0.8-2.9-1.1
		c-1.2-0.3-2.7-0.6-4.5-1c-3.6-0.7-6.5-1.9-8.6-3.5c-2.1-1.7-3.1-4.1-3.1-7.4c0-1.3,0.2-2.5,0.7-3.8c0.5-1.2,1.3-2.3,2.4-3.3
		s2.5-1.7,4.3-2.3c1.8-0.6,3.9-0.9,6.5-0.9c2,0,3.8,0.2,5.5,0.7c1.7,0.5,3.2,1.1,4.4,2c1.2,0.9,2.2,2,2.9,3.4s1,3,1,4.8l-0.7,0.7
		h-5.8l-0.7-0.7c0-0.5-0.1-1.1-0.3-1.6c-0.2-0.5-0.5-1-1.1-1.4c-0.5-0.4-1.2-0.7-2-1c-0.9-0.2-1.9-0.4-3.2-0.4
		c-1.9,0-3.4,0.2-4.7,0.7c-1.3,0.5-1.9,1.5-1.9,2.9c0,0.9,0.2,1.7,0.5,2.3s1,1.1,1.8,1.5c0.8,0.4,1.9,0.8,3.2,1.1
		c1.3,0.3,2.9,0.6,4.7,1c3.6,0.7,6.4,1.9,8.2,3.5C156.8,409.7,157.8,412.2,157.8,415.5z"/>
	<path fill="#FFFFFF" d="M184,425.7h-5.8c-1.3,0-2.5-0.2-3.8-0.5c-1.2-0.4-2.3-0.9-3.3-1.7c-0.9-0.8-1.7-1.8-2.3-3
		c-0.6-1.2-0.9-2.6-0.9-4.3v-19.7l-0.7-0.7h-5.1l-0.7-0.7v-5.1l0.7-0.7h5.1l0.7-0.7v-6.6l0.7-0.7h5.8l0.7,0.7v6.6l0.7,0.7h8l0.7,0.7
		v5.1l-0.7,0.7h-8l-0.7,0.7v19.7c0,1.1,0.3,1.9,0.9,2.3c0.6,0.4,1.3,0.6,2,0.6h5.8l0.7,0.7v5.1L184,425.7z"/>
	<path fill="#FFFFFF" d="M198.6,383.3h-5.8l-0.7-0.7v-5.8l0.7-0.7h5.8l0.7,0.7v5.8L198.6,383.3z M198.6,425.7h-5.8l-0.7-0.7v-35
		l0.7-0.7h5.8l0.7,0.7v35L198.6,425.7z"/>
	<path fill="#FFFFFF" d="M226.4,425l-0.7,0.7h-6.6l-0.7-0.7L205.9,395v-5.1l0.7-0.7h4.4l0.7,0.7l10.2,25.5h0.7l10.2-25.5l0.7-0.7
		h4.4l0.7,0.7v5.1L226.4,425z"/>
	<path fill="#FFFFFF" d="M273.1,425.7H268l-0.7-0.7l-0.7-2.9h-0.7c-0.7,0.8-1.5,1.6-2.4,2.2c-0.8,0.5-1.9,1-3.1,1.5
		c-1.3,0.5-2.8,0.7-4.7,0.7c-4.1,0-7.2-1-9.3-3.1c-2.1-2.1-3.1-4.9-3.1-8.6c0-2,0.4-3.7,1.2-5.2c0.8-1.5,1.9-2.7,3.3-3.6
		c1.4-0.9,3.1-1.7,5.1-2.1c2-0.5,4.1-0.7,6.5-0.7c0.9,0,1.8,0,2.6,0.1c0.8,0.1,1.5,0.2,2.1,0.3c0.3,0.1,0.7,0.2,1,0.2
		c0.3,0,0.6,0.1,0.9,0.1l0.7-0.7v-1.5c0-2.6-0.6-4.3-1.7-5.2c-1.1-0.9-3-1.4-5.6-1.4c-2.6,0-4.5,0.4-5.6,1.1
		c-1.1,0.7-1.7,1.8-1.7,3.3l-0.7,0.7h-5.8l-0.7-0.7c0-1.3,0.2-2.6,0.7-3.9c0.5-1.3,1.3-2.5,2.4-3.5c1.1-1,2.7-1.9,4.5-2.6
		c1.9-0.7,4.2-1,6.9-1c2.7,0,5,0.3,6.9,1c1.9,0.7,3.4,1.6,4.5,3c1.1,1.3,2,3,2.4,5c0.5,2,0.7,4.4,0.7,7.1V425L273.1,425.7z
		 M266.5,410.4l-0.7-0.7l-1.5-0.4c-0.5-0.1-1.2-0.2-1.9-0.3c-0.7-0.1-1.5-0.1-2.4-0.1c-3.4,0-5.8,0.5-7.3,1.5
		c-1.5,1-2.2,2.5-2.2,4.3c0,1.9,0.5,3.2,1.6,3.9c1.1,0.8,2.7,1.2,4.9,1.2c2.9,0,5.2-0.7,6.9-2c1.7-1.3,2.6-3.1,2.6-5.3V410.4z"/>
	<path fill="#FFFFFF" d="M288.4,425.7h-5.8l-0.7-0.7v-49.6l0.7-0.7h5.8l0.7,0.7V425L288.4,425.7z"/>
</g>
</svg>
