<?xml version="1.0" encoding="utf-8"?>
<!-- Generator: Adobe Illustrator 19.0.1, SVG Export Plug-In . SVG Version: 6.00 Build 0)  -->
<!DOCTYPE svg PUBLIC "-//W3C//DTD SVG 1.1//EN" "http://www.w3.org/Graphics/SVG/1.1/DTD/svg11.dtd">
<svg version="1.1" id="Vrstva_1" xmlns="http://www.w3.org/2000/svg" xmlns:xlink="http://www.w3.org/1999/xlink" x="0px" y="0px"
	 viewBox="0 0 865 85" enable-background="new 0 0 865 85" xml:space="preserve">
<g>
	<path fill="#FFFFFF" d="M23.3,69h-6.4l-0.8-0.8V13.8l0.8-0.8h6.4l0.8,0.8v54.4L23.3,69z"/>
	<path fill="#FFFFFF" d="M68.9,69h-6.4l-0.8-0.8V45c0-1-0.1-2.1-0.2-3.2c-0.2-1.1-0.5-2.2-1.1-3.1S59,36.9,58,36.3
		c-1-0.6-2.5-0.9-4.3-0.9c-3.7,0-6.3,1.1-8,3.2c-1.6,2.1-2.4,5.6-2.4,10.4v19.2L42.5,69h-6.4l-0.8-0.8V29.8l0.8-0.8h5.6l0.8,0.8
		l0.8,3.2h0.8c0.7-0.9,1.6-1.7,2.5-2.4c0.9-0.6,1.9-1.1,3.2-1.6c1.3-0.5,2.9-0.8,4.7-0.8c2.8,0,5.1,0.4,7.1,1.3
		c1.9,0.9,3.5,2,4.7,3.5c1.2,1.5,2.1,3.3,2.6,5.3c0.5,2.1,0.8,4.3,0.8,6.7v23.2L68.9,69z"/>
	<path fill="#FFFFFF" d="M112.1,69h-5.6l-0.8-0.8l-0.8-3.2h-0.8c-0.7,0.9-1.6,1.7-2.5,2.4c-0.9,0.6-1.9,1.1-3.2,1.6
		c-1.3,0.5-2.9,0.8-4.7,0.8c-2.8,0-5.3-0.5-7.5-1.6c-2.2-1-4-2.5-5.5-4.3s-2.7-4-3.4-6.6c-0.8-2.6-1.2-5.3-1.2-8.3
		c0-3,0.4-5.8,1.2-8.3c0.8-2.6,1.9-4.8,3.4-6.6s3.4-3.3,5.5-4.3c2.2-1,4.7-1.6,7.5-1.6c1.8,0,3.4,0.3,4.7,0.8
		c1.3,0.5,2.4,1.1,3.2,1.6c0.9,0.7,1.7,1.5,2.5,2.4h0.8V13.8l0.8-0.8h6.4l0.8,0.8v54.4L112.1,69z M104.9,49c0-4.8-0.9-8.3-2.8-10.4
		c-1.9-2.1-4.4-3.2-7.6-3.2c-3.2,0-5.7,1.1-7.6,3.4c-1.9,2.3-2.8,5.7-2.8,10.2s0.9,7.9,2.8,10.2c1.9,2.3,4.4,3.4,7.6,3.4
		c3.2,0,5.7-1.1,7.6-3.2C104,57.3,104.9,53.8,104.9,49z"/>
	<path fill="#FFFFFF" d="M154.5,69h-5.6l-0.8-0.8l-0.8-3.2h-0.8c-0.6,0.9-1.4,1.7-2.4,2.4c-0.8,0.6-1.8,1.1-3,1.6
		c-1.2,0.5-2.6,0.8-4.2,0.8c-2.8,0-5.2-0.5-7.1-1.4s-3.5-2.2-4.7-3.7c-1.2-1.5-2.1-3.3-2.6-5.4c-0.5-2-0.8-4.1-0.8-6.3V29.8l0.8-0.8
		h6.4l0.8,0.8V53c0,1.2,0.1,2.4,0.4,3.6c0.2,1.1,0.7,2.2,1.2,3c0.6,0.9,1.4,1.6,2.4,2.2c1,0.6,2.4,0.8,4,0.8c2.8,0,5.1-1.1,6.9-3.2
		c1.8-2.1,2.7-5.6,2.7-10.4V29.8l0.8-0.8h6.4l0.8,0.8v38.4L154.5,69z"/>
	<path fill="#FFFFFF" d="M194.5,57.8c0,1.6-0.3,3.1-0.9,4.6c-0.6,1.4-1.6,2.7-2.9,3.8c-1.3,1.1-3,2-5,2.6c-2,0.6-4.4,1-7.2,1
		c-5.3,0-9.3-1.1-12-3.4c-2.7-2.3-4-5.7-4-10.2l0.8-0.8h6.4l0.8,0.8c0,2,0.6,3.6,1.8,4.7c1.2,1.1,3.3,1.7,6.2,1.7s4.9-0.4,6.2-1.2
		c1.2-0.8,1.8-2,1.8-3.6c0-1-0.2-1.8-0.5-2.5c-0.3-0.6-0.9-1.2-1.7-1.6c-0.8-0.5-1.9-0.8-3.2-1.2c-1.3-0.3-3-0.7-5-1.1
		c-4-0.7-7.1-2-9.4-3.9c-2.3-1.8-3.4-4.5-3.4-8.1c0-1.4,0.3-2.8,0.8-4.1c0.5-1.4,1.4-2.6,2.6-3.6c1.2-1,2.8-1.9,4.7-2.5
		c1.9-0.6,4.3-1,7.1-1c2.2,0,4.2,0.3,6.1,0.8c1.9,0.5,3.5,1.3,4.8,2.2c1.4,1,2.4,2.2,3.2,3.8c0.7,1.5,1.1,3.3,1.1,5.2l-0.8,0.8h-6.4
		l-0.8-0.8c0-0.6-0.1-1.2-0.3-1.8c-0.2-0.6-0.6-1.1-1.2-1.6c-0.6-0.5-1.3-0.8-2.2-1.1c-0.9-0.3-2.1-0.4-3.5-0.4
		c-2,0-3.7,0.3-5.1,0.8c-1.4,0.5-2.1,1.6-2.1,3.2c0,1,0.2,1.8,0.6,2.5c0.4,0.6,1.1,1.2,2,1.6c0.9,0.5,2.1,0.9,3.5,1.2
		c1.4,0.3,3.1,0.7,5.2,1.1c4,0.8,7,2.1,9,3.9C193.5,51.5,194.5,54.2,194.5,57.8z"/>
	<path fill="#FFFFFF" d="M223.3,69h-6.4c-1.4,0-2.8-0.2-4.1-0.6c-1.4-0.4-2.6-1-3.6-1.9c-1-0.9-1.9-1.9-2.5-3.2
		c-0.6-1.3-1-2.9-1-4.7V37l-0.8-0.8h-5.6l-0.8-0.8v-5.6l0.8-0.8h5.6l0.8-0.8V21l0.8-0.8h6.4l0.8,0.8v7.2l0.8,0.8h8.8l0.8,0.8v5.6
		l-0.8,0.8h-8.8l-0.8,0.8v21.6c0,1.2,0.3,2.1,1,2.5c0.7,0.5,1.4,0.7,2.2,0.7h6.4l0.8,0.8v5.6L223.3,69z"/>
	<path fill="#FFFFFF" d="M254.5,36.2h-4c-1.6,0-3,0.2-4.3,0.5c-1.3,0.3-2.4,1-3.3,1.9c-0.9,0.9-1.6,2.1-2.1,3.7
		c-0.5,1.5-0.7,3.5-0.7,5.9v20l-0.8,0.8h-6.4l-0.8-0.8V29.8l0.8-0.8h5.6l0.8,0.8l0.8,3.2h0.8c0.6-0.6,1.2-1.1,1.8-1.6
		c0.6-0.5,1.4-0.9,2.2-1.3c0.8-0.3,1.7-0.6,2.8-0.8c1-0.2,2.3-0.3,3.6-0.3h3.2l0.8,0.8v5.6L254.5,36.2z"/>
	<path fill="#FFFFFF" d="M290.5,69h-5.6l-0.8-0.8l-0.8-3.2h-0.8c-0.7,0.9-1.6,1.7-2.6,2.4c-0.9,0.6-2.1,1.1-3.4,1.6
		c-1.4,0.5-3.1,0.8-5.1,0.8c-4.5,0-7.9-1.1-10.2-3.4c-2.3-2.3-3.4-5.4-3.4-9.4c0-2.2,0.4-4.1,1.3-5.7c0.9-1.6,2.1-3,3.6-4
		c1.5-1,3.4-1.8,5.6-2.3c2.2-0.5,4.5-0.8,7.2-0.8c1,0,2,0,2.8,0.1c0.9,0.1,1.6,0.2,2.3,0.3c0.4,0.1,0.7,0.2,1.1,0.2
		c0.3,0.1,0.7,0.1,1,0.2l0.8-0.8v-1.6c0-2.8-0.6-4.7-1.9-5.7c-1.3-1-3.3-1.5-6.1-1.5c-2.9,0-4.9,0.4-6.2,1.2c-1.2,0.8-1.8,2-1.8,3.6
		l-0.8,0.8h-6.4l-0.8-0.8c0-1.4,0.3-2.8,0.8-4.2c0.5-1.4,1.4-2.7,2.7-3.9c1.3-1.1,2.9-2.1,5-2.8c2.1-0.7,4.6-1.1,7.6-1.1
		c3,0,5.5,0.4,7.6,1.1c2.1,0.7,3.7,1.8,5,3.2c1.3,1.4,2.1,3.3,2.7,5.5c0.5,2.2,0.8,4.8,0.8,7.8v22.4L290.5,69z M283.3,52.2l-0.8-0.8
		l-1.7-0.4c-0.6-0.1-1.3-0.2-2-0.3c-0.8-0.1-1.7-0.1-2.7-0.1c-3.7,0-6.3,0.6-8,1.7c-1.6,1.1-2.4,2.7-2.4,4.7c0,2,0.6,3.5,1.8,4.3
		c1.2,0.9,3,1.3,5.4,1.3c3.2,0,5.7-0.7,7.6-2.2c1.9-1.5,2.8-3.4,2.8-5.8V52.2z"/>
	<path fill="#FFFFFF" d="M357.7,20.2h-26.4l-0.8,0.8v16l0.8,0.8h24.8l0.8,0.8v5.6l-0.8,0.8h-24.8l-0.8,0.8v22.4l-0.8,0.8h-6.4
		l-0.8-0.8V13.8l0.8-0.8h34.4l0.8,0.8v5.6L357.7,20.2z"/>
	<path fill="#FFFFFF" d="M364.1,49c0-3.2,0.4-6.1,1.3-8.6c0.9-2.6,2.1-4.7,3.8-6.6c1.7-1.8,3.7-3.2,6-4.2c2.4-1,5.1-1.4,8-1.4
		c3,0,5.7,0.5,8,1.4c2.4,1,4.4,2.3,6,4.2c1.7,1.8,2.9,4,3.8,6.6s1.3,5.4,1.3,8.6s-0.4,6.1-1.3,8.6s-2.1,4.7-3.8,6.6
		c-1.7,1.8-3.7,3.2-6,4.2c-2.4,1-5.1,1.4-8,1.4c-3,0-5.7-0.5-8-1.4c-2.4-1-4.4-2.3-6-4.2c-1.7-1.8-2.9-4-3.8-6.6
		C364.5,55.1,364.1,52.2,364.1,49z M372.1,49c0,4.5,0.9,7.9,2.8,10.2c1.9,2.3,4.7,3.4,8.4,3.4c3.7,0,6.5-1.1,8.4-3.4
		c1.9-2.3,2.8-5.7,2.8-10.2s-0.9-7.9-2.8-10.2c-1.9-2.3-4.7-3.4-8.4-3.4c-3.7,0-6.5,1.1-8.4,3.4C373,41.1,372.1,44.5,372.1,49z"/>
	<path fill="#FFFFFF" d="M407.3,49c0-3.2,0.4-6.1,1.3-8.6c0.9-2.6,2.1-4.7,3.8-6.6c1.7-1.8,3.7-3.2,6-4.2c2.4-1,5.1-1.4,8-1.4
		c3,0,5.7,0.5,8,1.4s4.4,2.3,6,4.2c1.7,1.8,2.9,4,3.8,6.6s1.3,5.4,1.3,8.6s-0.4,6.1-1.3,8.6s-2.1,4.7-3.8,6.6
		c-1.7,1.8-3.7,3.2-6,4.2s-5.1,1.4-8,1.4c-3,0-5.7-0.5-8-1.4c-2.4-1-4.4-2.3-6-4.2c-1.7-1.8-2.9-4-3.8-6.6
		C407.7,55.1,407.3,52.2,407.3,49z M415.3,49c0,4.5,0.9,7.9,2.8,10.2c1.9,2.3,4.7,3.4,8.4,3.4c3.7,0,6.5-1.1,8.4-3.4
		c1.9-2.3,2.8-5.7,2.8-10.2s-0.9-7.9-2.8-10.2c-1.9-2.3-4.7-3.4-8.4-3.4c-3.7,0-6.5,1.1-8.4,3.4C416.2,41.1,415.3,44.5,415.3,49z"/>
	<path fill="#FFFFFF" d="M486.5,69h-5.6l-0.8-0.8l-0.8-3.2h-0.8c-0.7,0.9-1.6,1.7-2.5,2.4c-0.9,0.6-1.9,1.1-3.2,1.6
		c-1.3,0.5-2.9,0.8-4.7,0.8c-2.8,0-5.3-0.5-7.5-1.6c-2.2-1-4-2.5-5.5-4.3s-2.7-4-3.4-6.6c-0.8-2.6-1.2-5.3-1.2-8.3
		c0-3,0.4-5.8,1.2-8.3c0.8-2.6,1.9-4.8,3.4-6.6s3.4-3.3,5.5-4.3c2.2-1,4.7-1.6,7.5-1.6c1.8,0,3.4,0.3,4.7,0.8
		c1.3,0.5,2.4,1.1,3.2,1.6c0.9,0.7,1.7,1.5,2.5,2.4h0.8V13.8l0.8-0.8h6.4l0.8,0.8v54.4L486.5,69z M479.3,49c0-4.8-0.9-8.3-2.8-10.4
		c-1.9-2.1-4.4-3.2-7.6-3.2s-5.7,1.1-7.6,3.4c-1.9,2.3-2.8,5.7-2.8,10.2s0.9,7.9,2.8,10.2c1.9,2.3,4.4,3.4,7.6,3.4s5.7-1.1,7.6-3.2
		C478.4,57.3,479.3,53.8,479.3,49z"/>
	<path fill="#FFFFFF" d="M554.5,20.2h-26.4l-0.8,0.8v16l0.8,0.8h24.8l0.8,0.8v5.6l-0.8,0.8h-24.8l-0.8,0.8v22.4l-0.8,0.8h-6.4
		l-0.8-0.8V13.8l0.8-0.8h34.4l0.8,0.8v5.6L554.5,20.2z"/>
	<path fill="#FFFFFF" d="M580.1,69.8c-3.2,0-6-0.5-8.4-1.6c-2.4-1-4.4-2.5-6-4.3c-1.6-1.8-2.8-4-3.6-6.6c-0.8-2.6-1.2-5.3-1.2-8.3
		c0-2.8,0.4-5.4,1.1-8c0.7-2.5,1.8-4.7,3.3-6.6c1.5-1.9,3.4-3.4,5.7-4.5c2.3-1.1,5.1-1.7,8.3-1.7s6,0.6,8.3,1.7s4.2,2.6,5.7,4.5
		c1.5,1.9,2.6,4.1,3.3,6.6c0.7,2.5,1.1,5.2,1.1,8v2.4l-0.8,0.8h-26.4l-0.8,0.8c0,0.4,0.1,1.2,0.3,2.2c0.2,1,0.6,2.1,1.3,3.2
		c0.7,1.1,1.7,2.1,3.1,2.9c1.4,0.9,3.3,1.3,5.7,1.3c1.6,0,3.1-0.3,4.6-0.9c1.4-0.6,2.6-1.9,3.4-3.9l0.8-0.8h6.4l0.8,0.8
		c-0.2,1.6-0.7,3.1-1.5,4.6s-1.9,2.7-3.2,3.8c-1.3,1.1-2.9,2-4.8,2.6C584.6,69.5,582.5,69.8,580.1,69.8z M588.9,45
		c0-0.6-0.1-1.4-0.3-2.5c-0.2-1.1-0.6-2.2-1.2-3.2c-0.6-1-1.6-1.9-2.9-2.7c-1.3-0.8-3-1.2-5.2-1.2c-2.2,0-3.9,0.4-5.2,1.2
		c-1.3,0.8-2.2,1.7-2.9,2.7c-0.6,1-1.1,2.1-1.2,3.2c-0.2,1.1-0.3,1.9-0.3,2.5l0.8,0.8h17.6L588.9,45z"/>
	<path fill="#FFFFFF" d="M634.5,57.8c0,1.6-0.3,3.1-0.9,4.6c-0.6,1.4-1.6,2.7-2.9,3.8c-1.3,1.1-3,2-5,2.6c-2,0.6-4.4,1-7.2,1
		c-5.3,0-9.3-1.1-12-3.4c-2.7-2.3-4-5.7-4-10.2l0.8-0.8h6.4l0.8,0.8c0,2,0.6,3.6,1.8,4.7c1.2,1.1,3.3,1.7,6.2,1.7
		c2.9,0,4.9-0.4,6.2-1.2c1.2-0.8,1.8-2,1.8-3.6c0-1-0.2-1.8-0.5-2.5c-0.3-0.6-0.9-1.2-1.7-1.6c-0.8-0.5-1.9-0.8-3.2-1.2
		c-1.3-0.3-3-0.7-5-1.1c-4-0.7-7.1-2-9.4-3.9c-2.3-1.8-3.4-4.5-3.4-8.1c0-1.4,0.3-2.8,0.8-4.1c0.5-1.4,1.4-2.6,2.6-3.6
		c1.2-1,2.8-1.9,4.7-2.5c1.9-0.6,4.3-1,7.1-1c2.2,0,4.2,0.3,6.1,0.8c1.9,0.5,3.5,1.3,4.8,2.2c1.4,1,2.4,2.2,3.2,3.8
		c0.7,1.5,1.1,3.3,1.1,5.2l-0.8,0.8h-6.4l-0.8-0.8c0-0.6-0.1-1.2-0.3-1.8c-0.2-0.6-0.6-1.1-1.2-1.6c-0.6-0.5-1.3-0.8-2.2-1.1
		c-0.9-0.3-2.1-0.4-3.5-0.4c-2,0-3.7,0.3-5.1,0.8c-1.4,0.5-2.1,1.6-2.1,3.2c0,1,0.2,1.8,0.6,2.5c0.4,0.6,1.1,1.2,2,1.6
		c0.9,0.5,2.1,0.9,3.5,1.2c1.4,0.3,3.1,0.7,5.2,1.1c4,0.8,7,2.1,9,3.9C633.5,51.5,634.5,54.2,634.5,57.8z"/>
	<path fill="#FFFFFF" d="M663.3,69h-6.4c-1.4,0-2.8-0.2-4.1-0.6s-2.6-1-3.6-1.9c-1-0.9-1.9-1.9-2.5-3.2c-0.6-1.3-1-2.9-1-4.7V37
		l-0.8-0.8h-5.6l-0.8-0.8v-5.6l0.8-0.8h5.6l0.8-0.8V21l0.8-0.8h6.4l0.8,0.8v7.2l0.8,0.8h8.8l0.8,0.8v5.6l-0.8,0.8h-8.8l-0.8,0.8
		v21.6c0,1.2,0.3,2.1,1,2.5c0.7,0.5,1.4,0.7,2.2,0.7h6.4l0.8,0.8v5.6L663.3,69z"/>
	<path fill="#FFFFFF" d="M728.1,69h-36l-0.8-0.8v-6.4l0.8-1.6l16-12.8c2-1.6,3.7-3.1,5.1-4.4c1.4-1.4,2.6-2.7,3.5-4.1
		c0.9-1.4,1.5-2.8,2-4.2s0.6-3.1,0.6-4.9c0-1.4-0.2-2.7-0.5-4c-0.3-1.3-0.9-2.4-1.6-3.3c-0.7-1-1.7-1.7-3-2.3
		c-1.2-0.6-2.7-0.8-4.6-0.8c-3.7,0-6.3,0.9-8,2.8c-1.6,1.9-2.4,4.4-2.4,7.6l-0.8,0.8h-6.4l-0.8-0.8c0-2.6,0.4-5,1.2-7.2
		c0.8-2.2,2-4,3.5-5.6c1.5-1.5,3.5-2.7,5.8-3.6c2.3-0.9,4.9-1.3,7.9-1.3c3.2,0,5.9,0.5,8.2,1.5c2.2,1,4.1,2.3,5.4,3.9
		c1.4,1.6,2.4,3.4,3,5.4c0.6,2,1,4,1,6c0,2.6-0.3,4.9-0.9,7c-0.6,2.1-1.4,3.9-2.6,5.7c-1.1,1.7-2.5,3.4-4,5
		c-1.6,1.6-3.3,3.2-5.3,4.8l-12,9.6v0.8h25.6l0.8,0.8v5.6L728.1,69z"/>
	<path fill="#FFFFFF" d="M735.3,41c0-5.4,0.5-9.9,1.6-13.6c1-3.7,2.5-6.6,4.2-8.9c1.8-2.2,3.9-3.9,6.3-4.8c2.4-1,5.1-1.5,7.9-1.5
		c2.8,0,5.4,0.5,7.8,1.5c2.5,1,4.6,2.6,6.4,4.8c1.8,2.2,3.2,5.2,4.2,8.9c1,3.7,1.6,8.2,1.6,13.6c0,5.4-0.5,9.9-1.6,13.6
		c-1,3.7-2.5,6.6-4.2,8.9c-1.8,2.2-3.9,3.9-6.4,4.8c-2.5,1-5.1,1.5-7.8,1.5c-2.8,0-5.5-0.5-7.9-1.5c-2.4-1-4.5-2.6-6.3-4.8
		c-1.8-2.2-3.2-5.2-4.2-8.9C735.8,50.9,735.3,46.4,735.3,41z M743.3,41c0,4,0.3,7.4,0.9,10.1c0.6,2.7,1.4,5,2.4,6.7
		c1,1.7,2.3,2.9,3.8,3.7c1.5,0.7,3.1,1.1,4.9,1.1c1.8,0,3.5-0.4,4.9-1.1c1.5-0.7,2.7-2,3.8-3.7c1-1.7,1.9-3.9,2.4-6.7
		c0.6-2.7,0.9-6.1,0.9-10.1s-0.3-7.4-0.9-10.1c-0.6-2.7-1.4-5-2.4-6.7c-1-1.7-2.3-2.9-3.8-3.7c-1.5-0.7-3.1-1.1-4.9-1.1
		c-1.8,0-3.5,0.4-4.9,1.1c-1.5,0.7-2.7,2-3.8,3.7c-1,1.7-1.9,3.9-2.4,6.7C743.6,33.6,743.3,37,743.3,41z"/>
	<path fill="#FFFFFF" d="M795.3,69l-0.8-0.8V23.4h-0.8l-9.6,9.6h-1.6l-0.8-0.8v-6.4l12-12l1.6-0.8h6.4l0.8,0.8v54.4l-0.8,0.8H795.3z
		"/>
	<path fill="#FFFFFF" d="M851.3,49c0,7.2-1.7,12.5-5.1,15.8c-3.4,3.3-8.1,5-14.1,5c-3,0-5.6-0.4-7.8-1.2c-2.2-0.8-4.1-1.9-5.6-3.2
		c-1.5-1.4-2.7-3.1-3.5-5c-0.8-2-1.3-4.2-1.6-6.6l0.8-0.8h6.4l0.8,0.8c0.2,1.2,0.5,2.4,0.8,3.4c0.3,1.1,0.9,2,1.6,2.8
		c0.7,0.8,1.7,1.4,3,1.9c1.3,0.5,2.9,0.7,4.9,0.7c4,0,6.9-1.1,8.6-3.4c1.7-2.3,2.6-5.4,2.6-9.4c0-1.8-0.2-3.5-0.5-4.9
		c-0.3-1.5-0.9-2.7-1.7-3.8s-1.9-1.9-3.2-2.4c-1.3-0.6-3-0.9-5-0.9c-2,0-3.7,0.3-5,1c-1.3,0.7-2.4,1.4-3.2,2.2c-1,1-1.7,2-2.2,3.2
		l-1.6,0.8l-5.6-0.8l-0.8-0.8l1.6-29.6l0.8-0.8h31.2l0.8,0.8v5.6l-0.8,0.8h-24l-0.8,0.8l-0.8,14.4h0.8c0.6-0.9,1.4-1.7,2.6-2.4
		c0.9-0.6,2.1-1.1,3.5-1.6c1.4-0.5,3.1-0.8,5.2-0.8c3,0,5.5,0.5,7.7,1.5c2.1,1,3.9,2.4,5.2,4.1c1.4,1.7,2.3,3.7,3,5.9
		C851,44.3,851.3,46.6,851.3,49z"/>
</g>
</svg>
