<?xml version="1.0" encoding="utf-8"?>
<!-- Generator: Adobe Illustrator 19.0.1, SVG Export Plug-In . SVG Version: 6.00 Build 0)  -->
<!DOCTYPE svg PUBLIC "-//W3C//DTD SVG 1.1//EN" "http://www.w3.org/Graphics/SVG/1.1/DTD/svg11.dtd">
<svg version="1.1" id="Vrstva_1" xmlns="http://www.w3.org/2000/svg" xmlns:xlink="http://www.w3.org/1999/xlink" x="0px" y="0px"
	 viewBox="0 0 677 85" enable-background="new 0 0 677 85" xml:space="preserve">
<g>
	<path fill="#FFFFFF" d="M58,25.3c0,2.8-0.5,5.2-1.4,7.2c-0.9,2-2.2,3.7-3.9,5c-1.7,1.3-3.6,2.3-5.8,2.9c-2.2,0.6-4.7,0.9-7.3,0.9
		H22.8L22,42.1v22.4l-0.8,0.8h-6.4L14,64.5V10.1l0.8-0.8h24.8c5.6,0,10.1,1.3,13.4,3.8C56.3,15.6,58,19.7,58,25.3z M50,25.3
		c0-3.2-0.8-5.5-2.4-6.8c-1.6-1.3-4.3-2-8-2H22.8L22,17.3v16l0.8,0.8h16.8c3.7,0,6.3-0.7,8-2C49.2,30.7,50,28.5,50,25.3z"/>
	<path fill="#FFFFFF" d="M60.4,45.3c0-3.2,0.4-6.1,1.3-8.6c0.9-2.6,2.1-4.7,3.8-6.6c1.7-1.8,3.7-3.2,6-4.2c2.4-1,5.1-1.4,8-1.4
		c3,0,5.7,0.5,8,1.4c2.4,1,4.4,2.3,6,4.2c1.7,1.8,2.9,4,3.8,6.6s1.3,5.4,1.3,8.6s-0.4,6.1-1.3,8.6s-2.1,4.7-3.8,6.6
		c-1.7,1.8-3.7,3.2-6,4.2c-2.4,1-5.1,1.4-8,1.4c-3,0-5.7-0.5-8-1.4c-2.4-1-4.4-2.3-6-4.2c-1.7-1.8-2.9-4-3.8-6.6
		C60.8,51.3,60.4,48.5,60.4,45.3z M68.4,45.3c0,4.5,0.9,7.9,2.8,10.2c1.9,2.3,4.7,3.4,8.4,3.4c3.7,0,6.5-1.1,8.4-3.4
		c1.9-2.3,2.8-5.7,2.8-10.2s-0.9-7.9-2.8-10.2c-1.9-2.3-4.7-3.4-8.4-3.4c-3.7,0-6.5,1.1-8.4,3.4C69.4,37.4,68.4,40.8,68.4,45.3z"/>
	<path fill="#FFFFFF" d="M139.6,65.3H134l-0.8-0.8l-0.8-3.2h-0.8c-0.7,0.9-1.6,1.7-2.5,2.4c-0.9,0.6-1.9,1.1-3.2,1.6
		c-1.3,0.5-2.9,0.8-4.7,0.8c-2.8,0-5.3-0.5-7.5-1.6c-2.2-1-4-2.5-5.5-4.3s-2.7-4-3.4-6.6c-0.8-2.6-1.2-5.3-1.2-8.3
		c0-3,0.4-5.8,1.2-8.3c0.8-2.6,1.9-4.8,3.4-6.6s3.4-3.3,5.5-4.3c2.2-1,4.7-1.6,7.5-1.6c1.8,0,3.4,0.3,4.7,0.8
		c1.3,0.5,2.4,1.1,3.2,1.6c0.9,0.7,1.7,1.5,2.5,2.4h0.8V10.1l0.8-0.8h6.4l0.8,0.8v54.4L139.6,65.3z M132.4,45.3
		c0-4.8-0.9-8.3-2.8-10.4c-1.9-2.1-4.4-3.2-7.6-3.2c-3.2,0-5.7,1.1-7.6,3.4c-1.9,2.3-2.8,5.7-2.8,10.2s0.9,7.9,2.8,10.2
		c1.9,2.3,4.4,3.4,7.6,3.4c3.2,0,5.7-1.1,7.6-3.2C131.5,53.5,132.4,50.1,132.4,45.3z"/>
	<path fill="#FFFFFF" d="M172.4,32.5h-4c-1.6,0-3,0.2-4.3,0.5c-1.3,0.3-2.4,1-3.3,1.9c-0.9,0.9-1.6,2.1-2.1,3.7
		c-0.5,1.5-0.7,3.5-0.7,5.9v20l-0.8,0.8h-6.4l-0.8-0.8V26.1l0.8-0.8h5.6l0.8,0.8l0.8,3.2h0.8c0.6-0.6,1.2-1.1,1.8-1.6
		c0.6-0.5,1.4-0.9,2.2-1.3c0.8-0.3,1.7-0.6,2.8-0.8c1-0.2,2.3-0.3,3.6-0.3h3.2l0.8,0.8v5.6L172.4,32.5z"/>
	<path fill="#FFFFFF" d="M211.6,65.3H206l-0.8-0.8l-0.8-3.2h-0.8c-0.6,0.9-1.4,1.7-2.4,2.4c-0.8,0.6-1.8,1.1-3,1.6
		c-1.2,0.5-2.6,0.8-4.2,0.8c-2.8,0-5.2-0.5-7.1-1.4s-3.5-2.2-4.7-3.7c-1.2-1.5-2.1-3.3-2.6-5.4c-0.5-2-0.8-4.1-0.8-6.3V26.1l0.8-0.8
		h6.4l0.8,0.8v23.2c0,1.2,0.1,2.4,0.4,3.6c0.2,1.1,0.7,2.2,1.2,3c0.6,0.9,1.4,1.6,2.4,2.2c1,0.6,2.4,0.8,4,0.8
		c2.8,0,5.1-1.1,6.9-3.2c1.8-2.1,2.7-5.6,2.7-10.4V26.1l0.8-0.8h6.4l0.8,0.8v38.4L211.6,65.3z"/>
	<path fill="#FFFFFF" d="M255.6,65.3h-6.4l-0.8-0.8V41.3c0-1.2-0.1-2.3-0.4-3.5c-0.2-1.2-0.7-2.2-1.2-3.1c-0.6-0.9-1.4-1.6-2.4-2.2
		c-1-0.6-2.4-0.8-4-0.8c-3.2,0-5.7,0.9-7.6,2.8c-1.9,1.9-2.8,5.2-2.8,10v20l-0.8,0.8h-6.4l-0.8-0.8V10.1l0.8-0.8h6.4l0.8,0.8v19.2
		h0.8c0.7-0.9,1.6-1.7,2.5-2.4c0.9-0.6,1.9-1.1,3.2-1.6c1.3-0.5,2.9-0.8,4.7-0.8c3,0,5.5,0.5,7.4,1.4c2,0.9,3.5,2.2,4.7,3.7
		c1.1,1.5,1.9,3.3,2.4,5.4c0.5,2,0.7,4.1,0.7,6.3v23.2L255.6,65.3z"/>
	<path fill="#FFFFFF" d="M282.8,66.1c-3.2,0-6-0.5-8.4-1.6c-2.4-1-4.4-2.5-6-4.3s-2.8-4-3.6-6.6c-0.8-2.6-1.2-5.3-1.2-8.3
		c0-2.8,0.4-5.4,1.1-8c0.7-2.5,1.8-4.7,3.3-6.6c1.5-1.9,3.4-3.4,5.7-4.5c2.3-1.1,5.1-1.7,8.3-1.7c3.2,0,6,0.6,8.3,1.7
		c2.3,1.1,4.2,2.6,5.7,4.5c1.5,1.9,2.6,4.1,3.3,6.6c0.7,2.5,1.1,5.2,1.1,8v2.4l-0.8,0.8h-26.4l-0.8,0.8c0,0.4,0.1,1.2,0.3,2.2
		c0.2,1,0.6,2.1,1.3,3.2c0.7,1.1,1.7,2.1,3.1,2.9c1.4,0.9,3.3,1.3,5.7,1.3c1.6,0,3.1-0.3,4.6-0.9c1.4-0.6,2.6-1.9,3.4-3.9l0.8-0.8
		h6.4l0.8,0.8c-0.2,1.6-0.7,3.1-1.5,4.6s-1.9,2.7-3.2,3.8c-1.3,1.1-2.9,2-4.8,2.6C287.4,65.7,285.2,66.1,282.8,66.1z M291.6,41.3
		c0-0.6-0.1-1.4-0.3-2.5c-0.2-1.1-0.6-2.2-1.2-3.2c-0.6-1-1.6-1.9-2.9-2.7c-1.3-0.8-3-1.2-5.2-1.2c-2.2,0-3.9,0.4-5.2,1.2
		c-1.3,0.8-2.2,1.7-2.9,2.7c-0.6,1-1.1,2.1-1.2,3.2c-0.2,1.1-0.3,1.9-0.3,2.5l0.8,0.8h17.6L291.6,41.3z M282.8,19.7l-1.6,0.8h-4
		l-0.8-0.8v-1.6l7.2-8l1.6-0.8h5.6l0.8,0.8v1.6L282.8,19.7z"/>
	<path fill="#FFFFFF" d="M348.4,64.5l-0.8,0.8h-7.2l-0.8-0.8L326,31.7v-5.6l0.8-0.8h4.8l0.8,0.8l11.2,28h0.8l11.2-28l0.8-0.8h4.8
		l0.8,0.8v5.6L348.4,64.5z"/>
	<path fill="#FFFFFF" d="M398.8,65.3h-6.4l-0.8-0.8V10.1l0.8-0.8h6.4l0.8,0.8v54.4L398.8,65.3z"/>
	<path fill="#FFFFFF" d="M444.4,65.3H438l-0.8-0.8V41.3c0-1-0.1-2.1-0.2-3.2c-0.2-1.1-0.5-2.2-1.1-3.1c-0.6-1-1.4-1.7-2.4-2.4
		c-1-0.6-2.5-0.9-4.3-0.9c-3.7,0-6.3,1.1-8,3.2c-1.6,2.1-2.4,5.6-2.4,10.4v19.2l-0.8,0.8h-6.4l-0.8-0.8V26.1l0.8-0.8h5.6l0.8,0.8
		l0.8,3.2h0.8c0.7-0.9,1.6-1.7,2.5-2.4c0.9-0.6,1.9-1.1,3.2-1.6c1.3-0.5,2.9-0.8,4.7-0.8c2.8,0,5.1,0.4,7.1,1.3
		c1.9,0.9,3.5,2,4.7,3.5c1.2,1.5,2.1,3.3,2.6,5.3c0.5,2.1,0.8,4.3,0.8,6.7v23.2L444.4,65.3z"/>
	<path fill="#FFFFFF" d="M487.6,65.3H482l-0.8-0.8l-0.8-3.2h-0.8c-0.7,0.9-1.6,1.7-2.5,2.4c-0.9,0.6-1.9,1.1-3.2,1.6
		c-1.3,0.5-2.9,0.8-4.7,0.8c-2.8,0-5.3-0.5-7.5-1.6c-2.2-1-4-2.5-5.5-4.3s-2.7-4-3.4-6.6c-0.8-2.6-1.2-5.3-1.2-8.3
		c0-3,0.4-5.8,1.2-8.3c0.8-2.6,1.9-4.8,3.4-6.6s3.4-3.3,5.5-4.3c2.2-1,4.7-1.6,7.5-1.6c1.8,0,3.4,0.3,4.7,0.8
		c1.3,0.5,2.4,1.1,3.2,1.6c0.9,0.7,1.7,1.5,2.5,2.4h0.8V10.1l0.8-0.8h6.4l0.8,0.8v54.4L487.6,65.3z M480.4,45.3
		c0-4.8-0.9-8.3-2.8-10.4c-1.9-2.1-4.4-3.2-7.6-3.2s-5.7,1.1-7.6,3.4c-1.9,2.3-2.8,5.7-2.8,10.2s0.9,7.9,2.8,10.2
		c1.9,2.3,4.4,3.4,7.6,3.4s5.7-1.1,7.6-3.2C479.5,53.5,480.4,50.1,480.4,45.3z"/>
	<path fill="#FFFFFF" d="M530,65.3h-5.6l-0.8-0.8l-0.8-3.2H522c-0.6,0.9-1.4,1.7-2.4,2.4c-0.8,0.6-1.8,1.1-3,1.6
		c-1.2,0.5-2.6,0.8-4.2,0.8c-2.8,0-5.2-0.5-7.1-1.4s-3.5-2.2-4.7-3.7c-1.2-1.5-2.1-3.3-2.6-5.4c-0.5-2-0.8-4.1-0.8-6.3V26.1l0.8-0.8
		h6.4l0.8,0.8v23.2c0,1.2,0.1,2.4,0.4,3.6c0.2,1.1,0.7,2.2,1.2,3s1.4,1.6,2.4,2.2c1,0.6,2.4,0.8,4,0.8c2.8,0,5.1-1.1,6.9-3.2
		c1.8-2.1,2.7-5.6,2.7-10.4V26.1l0.8-0.8h6.4l0.8,0.8v38.4L530,65.3z"/>
	<path fill="#FFFFFF" d="M570,54.1c0,1.6-0.3,3.1-0.9,4.6c-0.6,1.4-1.6,2.7-2.9,3.8c-1.3,1.1-3,2-5,2.6c-2,0.6-4.4,1-7.2,1
		c-5.3,0-9.3-1.1-12-3.4c-2.7-2.3-4-5.7-4-10.2l0.8-0.8h6.4l0.8,0.8c0,2,0.6,3.6,1.8,4.7c1.2,1.1,3.3,1.7,6.2,1.7
		c2.9,0,4.9-0.4,6.2-1.2c1.2-0.8,1.8-2,1.8-3.6c0-1-0.2-1.8-0.5-2.5c-0.3-0.6-0.9-1.2-1.7-1.6c-0.8-0.5-1.9-0.8-3.2-1.2
		c-1.3-0.3-3-0.7-5-1.1c-4-0.7-7.1-2-9.4-3.9c-2.3-1.8-3.4-4.5-3.4-8.1c0-1.4,0.3-2.8,0.8-4.1c0.5-1.4,1.4-2.6,2.6-3.6
		c1.2-1,2.8-1.9,4.7-2.5c1.9-0.6,4.3-1,7.1-1c2.2,0,4.2,0.3,6.1,0.8c1.9,0.5,3.5,1.3,4.8,2.2c1.4,1,2.4,2.2,3.2,3.8
		c0.7,1.5,1.1,3.3,1.1,5.2l-0.8,0.8H562l-0.8-0.8c0-0.6-0.1-1.2-0.3-1.8c-0.2-0.6-0.6-1.1-1.2-1.6c-0.6-0.5-1.3-0.8-2.2-1.1
		c-0.9-0.3-2.1-0.4-3.5-0.4c-2,0-3.7,0.3-5.1,0.8c-1.4,0.5-2.1,1.6-2.1,3.2c0,1,0.2,1.8,0.6,2.5c0.4,0.6,1.1,1.2,2,1.6
		c0.9,0.5,2.1,0.9,3.5,1.2c1.4,0.3,3.1,0.7,5.2,1.1c4,0.8,7,2.1,9,3.9C569,47.7,570,50.4,570,54.1z"/>
	<path fill="#FFFFFF" d="M598.8,65.3h-6.4c-1.4,0-2.8-0.2-4.1-0.6s-2.6-1-3.6-1.9c-1-0.9-1.9-1.9-2.5-3.2c-0.6-1.3-1-2.9-1-4.7V33.3
		l-0.8-0.8h-5.6l-0.8-0.8v-5.6l0.8-0.8h5.6l0.8-0.8v-7.2l0.8-0.8h6.4l0.8,0.8v7.2l0.8,0.8h8.8l0.8,0.8v5.6l-0.8,0.8H590l-0.8,0.8
		v21.6c0,1.2,0.3,2.1,1,2.5c0.7,0.5,1.4,0.7,2.2,0.7h6.4l0.8,0.8v5.6L598.8,65.3z"/>
	<path fill="#FFFFFF" d="M606.8,9.3h4l1.6,0.8l5.6,4.8h1.6l5.6-4.8l1.6-0.8h4l0.8,0.8v1.6l-7.2,8l-1.6,0.8h-8l-1.6-0.8l-7.2-8v-1.6
		L606.8,9.3z M630,32.5h-4c-1.6,0-3,0.2-4.3,0.5c-1.3,0.3-2.4,1-3.3,1.9c-0.9,0.9-1.6,2.1-2.1,3.7c-0.5,1.5-0.7,3.5-0.7,5.9v20
		l-0.8,0.8h-6.4l-0.8-0.8V26.1l0.8-0.8h5.6l0.8,0.8l0.8,3.2h0.8c0.6-0.6,1.2-1.1,1.8-1.6c0.6-0.5,1.4-0.9,2.2-1.3
		c0.8-0.3,1.7-0.6,2.8-0.8c1-0.2,2.3-0.3,3.6-0.3h3.2l0.8,0.8v5.6L630,32.5z"/>
	<path fill="#FFFFFF" d="M651.6,66.1c-3.2,0-6-0.5-8.4-1.6c-2.4-1-4.4-2.5-6-4.3c-1.6-1.8-2.8-4-3.6-6.6c-0.8-2.6-1.2-5.3-1.2-8.3
		c0-2.8,0.4-5.4,1.1-8c0.7-2.5,1.8-4.7,3.3-6.6c1.5-1.9,3.4-3.4,5.7-4.5c2.3-1.1,5.1-1.7,8.3-1.7s6,0.6,8.3,1.7s4.2,2.6,5.7,4.5
		c1.5,1.9,2.6,4.1,3.3,6.6c0.7,2.5,1.1,5.2,1.1,8v2.4l-0.8,0.8H642l-0.8,0.8c0,0.4,0.1,1.2,0.3,2.2c0.2,1,0.6,2.1,1.3,3.2
		c0.7,1.1,1.7,2.1,3.1,2.9c1.4,0.9,3.3,1.3,5.7,1.3c1.6,0,3.1-0.3,4.6-0.9c1.4-0.6,2.6-1.9,3.4-3.9l0.8-0.8h6.4l0.8,0.8
		c-0.2,1.6-0.7,3.1-1.5,4.6s-1.9,2.7-3.2,3.8c-1.3,1.1-2.9,2-4.8,2.6C656.1,65.7,654,66.1,651.6,66.1z M660.4,41.3
		c0-0.6-0.1-1.4-0.3-2.5c-0.2-1.1-0.6-2.2-1.2-3.2c-0.6-1-1.6-1.9-2.9-2.7c-1.3-0.8-3-1.2-5.2-1.2c-2.2,0-3.9,0.4-5.2,1.2
		c-1.3,0.8-2.2,1.7-2.9,2.7c-0.6,1-1.1,2.1-1.2,3.2c-0.2,1.1-0.3,1.9-0.3,2.5l0.8,0.8h17.6L660.4,41.3z"/>
</g>
</svg>
