<?xml version="1.0" encoding="utf-8"?>
<!-- Generator: Adobe Illustrator 19.0.1, SVG Export Plug-In . SVG Version: 6.00 Build 0)  -->
<!DOCTYPE svg PUBLIC "-//W3C//DTD SVG 1.1//EN" "http://www.w3.org/Graphics/SVG/1.1/DTD/svg11.dtd">
<svg version="1.1" id="Vrstva_1" xmlns="http://www.w3.org/2000/svg" xmlns:xlink="http://www.w3.org/1999/xlink" x="0px" y="0px"
	 viewBox="0 0 400 171" enable-background="new 0 0 400 171" xml:space="preserve">
<g>
	<path fill="#FFFFFF" d="M61.8,25c0,4.4-1.1,7.9-3.3,10.3c-2.2,2.5-5.1,4.1-8.7,4.9V41L61,58.6v5.6L60.2,65H57l-1.6-0.8L41,41.8
		L39.4,41H26.6l-0.8,0.8v22.4L25,65h-6.4l-0.8-0.8V9.8L18.6,9h24.8c5.6,0,10.1,1.3,13.4,3.8C60.1,15.3,61.8,19.4,61.8,25z M53.8,25
		c0-3.2-0.8-5.5-2.4-6.8c-1.6-1.3-4.3-2-8-2H26.6L25.8,17v16l0.8,0.8h16.8c3.7,0,6.3-0.7,8-2C53,30.5,53.8,28.2,53.8,25z"/>
	<path fill="#FFFFFF" d="M86.6,65.8c-3.2,0-6-0.5-8.4-1.6c-2.4-1-4.4-2.5-6-4.3c-1.6-1.8-2.8-4-3.6-6.6c-0.8-2.6-1.2-5.3-1.2-8.3
		c0-2.8,0.4-5.4,1.1-8c0.7-2.5,1.8-4.7,3.3-6.6c1.5-1.9,3.4-3.4,5.7-4.5s5.1-1.7,8.3-1.7c3.2,0,6,0.6,8.3,1.7
		c2.3,1.1,4.2,2.6,5.7,4.5c1.5,1.9,2.6,4.1,3.3,6.6c0.7,2.5,1.1,5.2,1.1,8v2.4l-0.8,0.8H77L76.2,49c0,0.4,0.1,1.2,0.3,2.2
		c0.2,1,0.6,2.1,1.3,3.2c0.7,1.1,1.7,2.1,3.1,2.9c1.4,0.9,3.3,1.3,5.7,1.3c1.6,0,3.1-0.3,4.6-0.9c1.4-0.6,2.6-1.9,3.4-3.9l0.8-0.8
		h6.4l0.8,0.8c-0.2,1.6-0.7,3.1-1.5,4.6c-0.8,1.4-1.9,2.7-3.2,3.8c-1.3,1.1-2.9,2-4.8,2.6C91.1,65.5,89,65.8,86.6,65.8z M95.4,41
		c0-0.6-0.1-1.4-0.3-2.5c-0.2-1.1-0.6-2.2-1.2-3.2c-0.6-1-1.6-1.9-2.9-2.7c-1.3-0.8-3-1.2-5.2-1.2c-2.2,0-3.9,0.4-5.2,1.2
		c-1.3,0.8-2.2,1.7-2.9,2.7c-0.6,1-1.1,2.1-1.2,3.2c-0.2,1.1-0.3,1.9-0.3,2.5l0.8,0.8h17.6L95.4,41z"/>
	<path fill="#FFFFFF" d="M127.4,74.6c3.7,0,6.3-1.1,8-3.4c1.6-2.3,2.4-5.7,2.4-10.2H137c-0.7,0.9-1.6,1.7-2.5,2.4
		c-0.9,0.6-1.9,1.1-3.2,1.6c-1.3,0.5-2.9,0.8-4.7,0.8c-2.8,0-5.3-0.5-7.5-1.6c-2.2-1-4-2.5-5.5-4.3s-2.7-4-3.4-6.6
		c-0.8-2.6-1.2-5.3-1.2-8.3c0-3,0.4-5.8,1.2-8.3c0.8-2.6,1.9-4.8,3.4-6.6s3.4-3.3,5.5-4.3c2.2-1,4.7-1.6,7.5-1.6
		c1.8,0,3.4,0.3,4.7,0.8c1.3,0.5,2.4,1.1,3.2,1.6c0.9,0.7,1.7,1.5,2.5,2.4h0.8l0.8-3.2l0.8-0.8h5.6l0.8,0.8v34.4
		c0,4-0.5,7.4-1.5,10.1c-1,2.7-2.4,5-4.1,6.7c-1.7,1.7-3.7,2.9-5.9,3.7c-2.2,0.7-4.5,1.1-6.9,1.1c-4.9,0-8.6-1.1-11.3-3.2
		c-2.7-2.1-4.3-4.8-4.7-8l0.8-0.8h6.4l0.8,0.8c0.8,1.6,1.8,2.7,3.1,3.2C123.7,74.3,125.4,74.6,127.4,74.6z M137.8,45
		c0-4.8-0.9-8.3-2.8-10.4c-1.9-2.1-4.4-3.2-7.6-3.2c-3.2,0-5.7,1.1-7.6,3.4c-1.9,2.3-2.8,5.7-2.8,10.2s0.9,7.9,2.8,10.2
		c1.9,2.3,4.4,3.4,7.6,3.4c3.2,0,5.7-1.1,7.6-3.2C136.9,53.3,137.8,49.8,137.8,45z"/>
	<path fill="#FFFFFF" d="M162.6,18.6h-6.4l-0.8-0.8v-6.4l0.8-0.8h6.4l0.8,0.8v6.4L162.6,18.6z M162.6,65h-6.4l-0.8-0.8V25.8l0.8-0.8
		h6.4l0.8,0.8v38.4L162.6,65z"/>
	<path fill="#FFFFFF" d="M202.6,53.8c0,1.6-0.3,3.1-0.9,4.6c-0.6,1.4-1.6,2.7-2.9,3.8c-1.3,1.1-3,2-5,2.6c-2,0.6-4.4,1-7.2,1
		c-5.3,0-9.3-1.1-12-3.4c-2.7-2.3-4-5.7-4-10.2l0.8-0.8h6.4l0.8,0.8c0,2,0.6,3.6,1.8,4.7c1.2,1.1,3.3,1.7,6.2,1.7s4.9-0.4,6.2-1.2
		c1.2-0.8,1.8-2,1.8-3.6c0-1-0.2-1.8-0.5-2.5c-0.3-0.6-0.9-1.2-1.7-1.6c-0.8-0.5-1.9-0.8-3.2-1.2c-1.3-0.3-3-0.7-5-1.1
		c-4-0.7-7.1-2-9.4-3.9c-2.3-1.8-3.4-4.5-3.4-8.1c0-1.4,0.3-2.8,0.8-4.1c0.5-1.4,1.4-2.6,2.6-3.6c1.2-1,2.8-1.9,4.7-2.5
		c1.9-0.6,4.3-1,7.1-1c2.2,0,4.2,0.3,6.1,0.8c1.9,0.5,3.5,1.3,4.8,2.2c1.4,1,2.4,2.2,3.2,3.8c0.7,1.5,1.1,3.3,1.1,5.2L201,37h-6.4
		l-0.8-0.8c0-0.6-0.1-1.2-0.3-1.8c-0.2-0.6-0.6-1.1-1.2-1.6c-0.6-0.5-1.3-0.8-2.2-1.1c-0.9-0.3-2.1-0.4-3.5-0.4
		c-2,0-3.7,0.3-5.1,0.8c-1.4,0.5-2.1,1.6-2.1,3.2c0,1,0.2,1.8,0.6,2.5c0.4,0.6,1.1,1.2,2,1.6c0.9,0.5,2.1,0.9,3.5,1.2
		c1.4,0.3,3.1,0.7,5.2,1.1c4,0.8,7,2.1,9,3.9C201.6,47.5,202.6,50.2,202.6,53.8z"/>
	<path fill="#FFFFFF" d="M231.4,65H225c-1.4,0-2.8-0.2-4.1-0.6s-2.6-1-3.6-1.9c-1-0.9-1.9-1.9-2.5-3.2c-0.6-1.3-1-2.9-1-4.7V33
		l-0.8-0.8h-5.6l-0.8-0.8v-5.6l0.8-0.8h5.6l0.8-0.8V17l0.8-0.8h6.4l0.8,0.8v7.2l0.8,0.8h8.8l0.8,0.8v5.6l-0.8,0.8h-8.8l-0.8,0.8
		v21.6c0,1.2,0.3,2.1,1,2.5c0.7,0.5,1.4,0.7,2.2,0.7h6.4l0.8,0.8v5.6L231.4,65z"/>
	<path fill="#FFFFFF" d="M262.6,32.2h-4c-1.6,0-3,0.2-4.3,0.5c-1.3,0.3-2.4,1-3.3,1.9c-0.9,0.9-1.6,2.1-2.1,3.7
		c-0.5,1.5-0.7,3.5-0.7,5.9v20l-0.8,0.8H241l-0.8-0.8V25.8L241,25h5.6l0.8,0.8l0.8,3.2h0.8c0.6-0.6,1.2-1.1,1.8-1.6
		c0.6-0.5,1.4-0.9,2.2-1.3c0.8-0.3,1.7-0.6,2.8-0.8c1-0.2,2.3-0.3,3.6-0.3h3.2l0.8,0.8v5.6L262.6,32.2z"/>
	<path fill="#FFFFFF" d="M298.6,65H293l-0.8-0.8l-0.8-3.2h-0.8c-0.7,0.9-1.6,1.7-2.6,2.4c-0.9,0.6-2.1,1.1-3.4,1.6
		c-1.4,0.5-3.1,0.8-5.1,0.8c-4.5,0-7.9-1.1-10.2-3.4c-2.3-2.3-3.4-5.4-3.4-9.4c0-2.2,0.4-4.1,1.3-5.7c0.9-1.6,2.1-3,3.6-4
		c1.5-1,3.4-1.8,5.6-2.3c2.2-0.5,4.5-0.8,7.2-0.8c1,0,2,0,2.8,0.1c0.9,0.1,1.6,0.2,2.3,0.3c0.4,0.1,0.7,0.2,1.1,0.2
		c0.3,0.1,0.7,0.1,1,0.2l0.8-0.8v-1.6c0-2.8-0.6-4.7-1.9-5.7c-1.3-1-3.3-1.5-6.1-1.5c-2.9,0-4.9,0.4-6.2,1.2c-1.2,0.8-1.8,2-1.8,3.6
		l-0.8,0.8h-6.4l-0.8-0.8c0-1.4,0.3-2.8,0.8-4.2c0.5-1.4,1.4-2.7,2.7-3.9c1.3-1.1,2.9-2.1,5-2.8c2.1-0.7,4.6-1.1,7.6-1.1
		c3,0,5.5,0.4,7.6,1.1c2.1,0.7,3.7,1.8,5,3.2s2.1,3.3,2.7,5.5c0.5,2.2,0.8,4.8,0.8,7.8v22.4L298.6,65z M291.4,48.2l-0.8-0.8
		l-1.7-0.4c-0.6-0.1-1.3-0.2-2-0.3c-0.8-0.1-1.7-0.1-2.7-0.1c-3.7,0-6.3,0.6-8,1.7c-1.6,1.1-2.4,2.7-2.4,4.7c0,2,0.6,3.5,1.8,4.3
		c1.2,0.9,3,1.3,5.4,1.3c3.2,0,5.7-0.7,7.6-2.2c1.9-1.5,2.8-3.4,2.8-5.8V48.2z"/>
	<path fill="#FFFFFF" d="M313.8,45c0,4.5,0.9,7.9,2.8,10.2c1.9,2.3,4.7,3.4,8.4,3.4c1.6,0,3-0.2,4.1-0.6c1.1-0.4,2.1-0.9,2.8-1.4
		c0.7-0.6,1.3-1.3,1.8-2c0.4-0.8,0.7-1.6,1-2.4l0.8-0.8h6.4l0.8,0.8c-0.2,1.8-0.7,3.5-1.5,5.2c-0.8,1.6-1.9,3.1-3.4,4.3
		c-1.4,1.3-3.2,2.3-5.3,3c-2.1,0.7-4.6,1.1-7.4,1.1c-3,0-5.7-0.5-8-1.4s-4.4-2.3-6-4.2c-1.7-1.8-2.9-4-3.8-6.6s-1.3-5.4-1.3-8.6
		s0.4-6.1,1.3-8.6s2.1-4.7,3.8-6.6c1.7-1.8,3.7-3.2,6-4.2s5.1-1.4,8-1.4c2.8,0,5.3,0.4,7.4,1.1c2.1,0.7,3.9,1.7,5.3,3
		c1.4,1.3,2.6,2.7,3.4,4.3c0.8,1.6,1.3,3.3,1.5,5.2l-0.8,0.8h-6.4l-0.8-0.8c-0.2-0.8-0.5-1.6-1-2.4c-0.4-0.8-1-1.5-1.8-2
		c-0.7-0.6-1.7-1.1-2.8-1.4c-1.1-0.4-2.5-0.6-4.1-0.6c-3.7,0-6.5,1.1-8.4,3.4C314.7,37.1,313.8,40.5,313.8,45z"/>
	<path fill="#FFFFFF" d="M366.6,65.8c-3.2,0-6-0.5-8.4-1.6c-2.4-1-4.4-2.5-6-4.3c-1.6-1.8-2.8-4-3.6-6.6c-0.8-2.6-1.2-5.3-1.2-8.3
		c0-2.8,0.4-5.4,1.1-8c0.7-2.5,1.8-4.7,3.3-6.6c1.5-1.9,3.4-3.4,5.7-4.5c2.3-1.1,5.1-1.7,8.3-1.7s6,0.6,8.3,1.7s4.2,2.6,5.7,4.5
		c1.5,1.9,2.6,4.1,3.3,6.6c0.7,2.5,1.1,5.2,1.1,8v2.4l-0.8,0.8H357l-0.8,0.8c0,0.4,0.1,1.2,0.3,2.2c0.2,1,0.6,2.1,1.3,3.2
		c0.7,1.1,1.7,2.1,3.1,2.9c1.4,0.9,3.3,1.3,5.7,1.3c1.6,0,3.1-0.3,4.6-0.9c1.4-0.6,2.6-1.9,3.4-3.9l0.8-0.8h6.4l0.8,0.8
		c-0.2,1.6-0.7,3.1-1.5,4.6s-1.9,2.7-3.2,3.8c-1.3,1.1-2.9,2-4.8,2.6C371.1,65.5,369,65.8,366.6,65.8z M375.4,41
		c0-0.6-0.1-1.4-0.3-2.5c-0.2-1.1-0.6-2.2-1.2-3.2c-0.6-1-1.6-1.9-2.9-2.7c-1.3-0.8-3-1.2-5.2-1.2c-2.2,0-3.9,0.4-5.2,1.2
		c-1.3,0.8-2.2,1.7-2.9,2.7c-0.6,1-1.1,2.1-1.2,3.2c-0.2,1.1-0.3,1.9-0.3,2.5l0.8,0.8h17.6L375.4,41z"/>
	<path fill="#FFFFFF" d="M89.8,125c0,3-0.4,5.8-1.2,8.3c-0.8,2.6-1.9,4.8-3.4,6.6s-3.4,3.3-5.6,4.3c-2.2,1-4.7,1.6-7.4,1.6
		c-1.8,0-3.4-0.3-4.7-0.8c-1.3-0.5-2.4-1.1-3.2-1.6c-0.9-0.7-1.7-1.5-2.5-2.4H61v19.2l-0.8,0.8h-6.4l-0.8-0.8v-54.4l0.8-0.8h5.6
		l0.8,0.8L61,109h0.8c0.7-0.9,1.6-1.7,2.5-2.4c0.9-0.6,1.9-1.1,3.2-1.6c1.3-0.5,2.9-0.8,4.7-0.8c2.8,0,5.3,0.5,7.4,1.6
		c2.2,1,4,2.5,5.6,4.3s2.7,4,3.4,6.6C89.4,119.2,89.8,122,89.8,125z M81.8,125c0-4.5-0.9-7.9-2.8-10.2c-1.9-2.3-4.4-3.4-7.6-3.4
		c-3.2,0-5.7,1.1-7.6,3.2c-1.9,2.1-2.8,5.6-2.8,10.4s0.9,8.3,2.8,10.4c1.9,2.1,4.4,3.2,7.6,3.2c3.2,0,5.7-1.1,7.6-3.4
		C80.9,132.9,81.8,129.5,81.8,125z"/>
	<path fill="#FFFFFF" d="M119.4,112.2h-4c-1.6,0-3,0.2-4.3,0.5c-1.3,0.3-2.4,1-3.3,1.9c-0.9,0.9-1.6,2.1-2.1,3.7
		c-0.5,1.5-0.7,3.5-0.7,5.9v20l-0.8,0.8h-6.4l-0.8-0.8v-38.4l0.8-0.8h5.6l0.8,0.8l0.8,3.2h0.8c0.6-0.6,1.2-1.1,1.8-1.6
		c0.6-0.5,1.4-0.9,2.2-1.3c0.8-0.3,1.7-0.6,2.8-0.8c1-0.2,2.3-0.3,3.6-0.3h3.2l0.8,0.8v5.6L119.4,112.2z"/>
	<path fill="#FFFFFF" d="M121.8,125c0-3.2,0.4-6.1,1.3-8.6c0.9-2.6,2.1-4.7,3.8-6.6c1.7-1.8,3.7-3.2,6-4.2c2.4-1,5.1-1.4,8-1.4
		c3,0,5.7,0.5,8,1.4c2.4,1,4.4,2.3,6,4.2c1.7,1.8,2.9,4,3.8,6.6s1.3,5.4,1.3,8.6s-0.4,6.1-1.3,8.6s-2.1,4.7-3.8,6.6
		c-1.7,1.8-3.7,3.2-6,4.2c-2.4,1-5.1,1.4-8,1.4c-3,0-5.7-0.5-8-1.4c-2.4-1-4.4-2.3-6-4.2c-1.7-1.8-2.9-4-3.8-6.6
		C122.2,131.1,121.8,128.2,121.8,125z M129.8,125c0,4.5,0.9,7.9,2.8,10.2c1.9,2.3,4.7,3.4,8.4,3.4c3.7,0,6.5-1.1,8.4-3.4
		c1.9-2.3,2.8-5.7,2.8-10.2s-0.9-7.9-2.8-10.2c-1.9-2.3-4.7-3.4-8.4-3.4c-3.7,0-6.5,1.1-8.4,3.4C130.7,117.1,129.8,120.5,129.8,125z
		"/>
	<path fill="#FFFFFF" d="M201,145h-5.6l-0.8-0.8l-0.8-3.2H193c-0.7,0.9-1.6,1.7-2.5,2.4c-0.9,0.6-1.9,1.1-3.2,1.6
		c-1.3,0.5-2.9,0.8-4.7,0.8c-2.8,0-5.3-0.5-7.5-1.6c-2.2-1-4-2.5-5.5-4.3s-2.7-4-3.4-6.6c-0.8-2.6-1.2-5.3-1.2-8.3
		c0-3,0.4-5.8,1.2-8.3c0.8-2.6,1.9-4.8,3.4-6.6s3.4-3.3,5.5-4.3c2.2-1,4.7-1.6,7.5-1.6c1.8,0,3.4,0.3,4.7,0.8
		c1.3,0.5,2.4,1.1,3.2,1.6c0.9,0.7,1.7,1.5,2.5,2.4h0.8V89.8l0.8-0.8h6.4l0.8,0.8v54.4L201,145z M193.8,125c0-4.8-0.9-8.3-2.8-10.4
		c-1.9-2.1-4.4-3.2-7.6-3.2c-3.2,0-5.7,1.1-7.6,3.4c-1.9,2.3-2.8,5.7-2.8,10.2s0.9,7.9,2.8,10.2c1.9,2.3,4.4,3.4,7.6,3.4
		c3.2,0,5.7-1.1,7.6-3.2C192.9,133.3,193.8,129.8,193.8,125z"/>
	<path fill="#FFFFFF" d="M228.2,145.8c-3.2,0-6-0.5-8.4-1.6c-2.4-1-4.4-2.5-6-4.3c-1.6-1.8-2.8-4-3.6-6.6c-0.8-2.6-1.2-5.3-1.2-8.3
		c0-2.8,0.4-5.4,1.1-8c0.7-2.5,1.8-4.7,3.3-6.6c1.5-1.9,3.4-3.4,5.7-4.5c2.3-1.1,5.1-1.7,8.3-1.7s6,0.6,8.3,1.7s4.2,2.6,5.7,4.5
		c1.5,1.9,2.6,4.1,3.3,6.6c0.7,2.5,1.1,5.2,1.1,8v2.4l-0.8,0.8h-26.4l-0.8,0.8c0,0.4,0.1,1.2,0.3,2.2c0.2,1,0.6,2.1,1.3,3.2
		c0.7,1.1,1.7,2.1,3.1,2.9c1.4,0.9,3.3,1.3,5.7,1.3c1.6,0,3.1-0.3,4.6-0.9c1.4-0.6,2.6-1.9,3.4-3.9l0.8-0.8h6.4l0.8,0.8
		c-0.2,1.6-0.7,3.1-1.5,4.6s-1.9,2.7-3.2,3.8c-1.3,1.1-2.9,2-4.8,2.6C232.7,145.5,230.6,145.8,228.2,145.8z M237,121
		c0-0.6-0.1-1.4-0.3-2.5c-0.2-1.1-0.6-2.2-1.2-3.2c-0.6-1-1.6-1.9-2.9-2.7c-1.3-0.8-3-1.2-5.2-1.2c-2.2,0-3.9,0.4-5.2,1.2
		c-1.3,0.8-2.2,1.7-2.9,2.7c-0.6,1-1.1,2.1-1.2,3.2c-0.2,1.1-0.3,1.9-0.3,2.5l0.8,0.8h17.6L237,121z"/>
	<path fill="#FFFFFF" d="M261,149c0,1.8-0.3,3.4-1,4.7c-0.6,1.3-1.5,2.4-2.5,3.2c-1,0.9-2.2,1.5-3.6,1.9c-1.4,0.4-2.7,0.6-4.1,0.6
		h-4l-0.8-0.8V153l0.8-0.8h4c0.8,0,1.5-0.2,2.2-0.7c0.7-0.5,1-1.3,1-2.5v-43.2l0.8-0.8h6.4l0.8,0.8V149z M260.2,98.6h-6.4l-0.8-0.8
		v-6.4l0.8-0.8h6.4l0.8,0.8v6.4L260.2,98.6z"/>
	<path fill="#FFFFFF" d="M276.2,125c0,4.5,0.9,7.9,2.8,10.2c1.9,2.3,4.7,3.4,8.4,3.4c1.6,0,3-0.2,4.1-0.6c1.1-0.4,2.1-0.9,2.8-1.4
		c0.7-0.6,1.3-1.3,1.8-2c0.4-0.8,0.7-1.6,1-2.4l0.8-0.8h6.4l0.8,0.8c-0.2,1.8-0.7,3.5-1.5,5.2c-0.8,1.6-1.9,3.1-3.4,4.3
		c-1.4,1.3-3.2,2.3-5.3,3c-2.1,0.7-4.6,1.1-7.4,1.1c-3,0-5.7-0.5-8-1.4s-4.4-2.3-6-4.2c-1.7-1.8-2.9-4-3.8-6.6s-1.3-5.4-1.3-8.6
		s0.4-6.1,1.3-8.6s2.1-4.7,3.8-6.6c1.7-1.8,3.7-3.2,6-4.2s5.1-1.4,8-1.4c2.8,0,5.3,0.4,7.4,1.1c2.1,0.7,3.9,1.7,5.3,3
		c1.4,1.3,2.6,2.7,3.4,4.3c0.8,1.6,1.3,3.3,1.5,5.2l-0.8,0.8h-6.4l-0.8-0.8c-0.2-0.8-0.5-1.6-1-2.4c-0.4-0.8-1-1.5-1.8-2
		c-0.7-0.6-1.7-1.1-2.8-1.4c-1.1-0.4-2.5-0.6-4.1-0.6c-3.7,0-6.5,1.1-8.4,3.4C277.1,117.1,276.2,120.5,276.2,125z"/>
	<path fill="#FFFFFF" d="M344.2,145h-5.6l-0.8-0.8L337,141h-0.8c-0.6,0.9-1.4,1.7-2.4,2.4c-0.8,0.6-1.8,1.1-3,1.6
		c-1.2,0.5-2.6,0.8-4.2,0.8c-2.8,0-5.2-0.5-7.1-1.4s-3.5-2.2-4.7-3.7c-1.2-1.5-2.1-3.3-2.6-5.4c-0.5-2-0.8-4.1-0.8-6.3v-23.2
		l0.8-0.8h6.4l0.8,0.8V129c0,1.2,0.1,2.4,0.4,3.6c0.2,1.1,0.7,2.2,1.2,3s1.4,1.6,2.4,2.2c1,0.6,2.4,0.8,4,0.8c2.8,0,5.1-1.1,6.9-3.2
		c1.8-2.1,2.7-5.6,2.7-10.4v-19.2l0.8-0.8h6.4l0.8,0.8v38.4L344.2,145z M336.2,93.8c0,2-0.7,3.7-2.2,5.1c-1.5,1.4-3.4,2.1-5.8,2.1
		c-2.4,0-4.3-0.7-5.8-2.1c-1.5-1.4-2.2-3.1-2.2-5.1c0-2,0.7-3.7,2.2-5.1c1.5-1.4,3.4-2.1,5.8-2.1c2.4,0,4.3,0.7,5.8,2.1
		C335.5,90.1,336.2,91.8,336.2,93.8z M331.4,93.8c0-0.8-0.2-1.5-0.7-2.2c-0.5-0.7-1.3-1-2.5-1c-1.2,0-2.1,0.3-2.5,1
		c-0.5,0.7-0.7,1.4-0.7,2.2c0,0.8,0.2,1.5,0.7,2.2c0.5,0.7,1.3,1,2.5,1c1.2,0,2.1-0.3,2.5-1C331.2,95.3,331.4,94.6,331.4,93.8z"/>
</g>
</svg>
