<?xml version="1.0" encoding="utf-8"?>
<!-- Generator: Adobe Illustrator 19.0.1, SVG Export Plug-In . SVG Version: 6.00 Build 0)  -->
<!DOCTYPE svg PUBLIC "-//W3C//DTD SVG 1.1//EN" "http://www.w3.org/Graphics/SVG/1.1/DTD/svg11.dtd">
<svg version="1.1" id="Vrstva_1" xmlns="http://www.w3.org/2000/svg" xmlns:xlink="http://www.w3.org/1999/xlink" x="0px" y="0px"
	 viewBox="-439 315 400 171" enable-background="new -439 315 400 171" xml:space="preserve">
<g>
	<path fill="#FFFFFF" d="M-282.8,365.8c0,2.2-0.4,4.3-1.2,6.2c-0.8,2-2.1,3.7-3.9,5.1c-1.8,1.4-4,2.6-6.7,3.5
		c-2.7,0.9-6,1.3-9.8,1.3c-3.4,0-6.5-0.4-9.3-1.2c-2.8-0.8-5.1-2-7.1-3.5c-2-1.6-3.5-3.5-4.5-5.8c-1.1-2.3-1.6-5-1.6-8l0.8-0.8h6.4
		l0.8,0.8c0,4,1.3,6.9,4,8.6c2.7,1.7,6.4,2.6,11.3,2.6c1.8,0,3.5-0.2,5.1-0.5c1.6-0.3,2.9-0.8,4.1-1.5s2.1-1.6,2.7-2.7
		c0.7-1.1,1-2.5,1-4.1c0-1.8-0.3-3.3-0.9-4.5c-0.6-1.2-1.6-2.1-2.9-2.9c-1.3-0.7-3-1.4-5-1.8c-2-0.5-4.4-0.9-7.2-1.3
		c-5.6-0.8-10.1-2.5-13.5-5c-3.3-2.5-5-6.2-5-11c0-1.8,0.4-3.6,1.1-5.5c0.7-1.8,1.9-3.5,3.5-4.9c1.6-1.4,3.7-2.6,6.2-3.5
		c2.5-0.9,5.6-1.4,9.3-1.4c3,0,5.8,0.3,8.4,0.9c2.6,0.6,4.8,1.6,6.6,3c1.8,1.4,3.3,3.1,4.3,5.3c1,2.1,1.6,4.7,1.6,7.7l-0.8,0.8h-6.4
		l-0.8-0.8c0-1.6-0.2-3-0.7-4.2c-0.5-1.2-1.2-2.2-2.2-3c-1-0.8-2.4-1.4-4.2-1.8c-1.7-0.4-3.9-0.6-6.5-0.6c-3.7,0-6.5,0.7-8.4,2.2
		c-1.9,1.5-2.9,3.4-2.9,5.8c0,1.6,0.3,2.9,0.8,4c0.5,1,1.4,1.9,2.6,2.7c1.2,0.7,2.8,1.3,4.7,1.8c1.9,0.5,4.3,0.9,7.1,1.2
		c2.8,0.4,5.4,1,7.8,1.8c2.4,0.8,4.4,1.8,6.1,3.1c1.7,1.3,3,2.9,4,4.9C-283.3,360.5-282.8,362.9-282.8,365.8z"/>
	<path fill="#FFFFFF" d="M-241,381h-6.4l-0.8-0.8v-23.3c0-1.2-0.1-2.4-0.4-3.5s-0.7-2.2-1.2-3.1c-0.6-0.9-1.4-1.6-2.4-2.2
		c-1-0.6-2.4-0.8-4-0.8c-3.2,0-5.8,0.9-7.6,2.8c-1.9,1.9-2.8,5.2-2.8,10v20.1l-0.8,0.8h-6.4l-0.8-0.8v-54.6l0.8-0.8h6.4l0.8,0.8
		v19.3h0.8c0.7-0.9,1.6-1.7,2.5-2.4c0.9-0.6,1.9-1.1,3.3-1.6c1.3-0.5,2.9-0.8,4.7-0.8c3,0,5.5,0.5,7.5,1.4c2,0.9,3.5,2.2,4.7,3.7
		c1.2,1.6,2,3.3,2.4,5.4c0.5,2,0.7,4.2,0.7,6.3v23.3L-241,381z"/>
	<path fill="#FFFFFF" d="M-233,360.9c0-3.2,0.4-6.1,1.3-8.7c0.9-2.6,2.2-4.8,3.8-6.6c1.7-1.8,3.7-3.2,6.1-4.2c2.4-1,5.1-1.4,8.1-1.4
		c3,0,5.7,0.5,8.1,1.4c2.4,1,4.4,2.4,6.1,4.2c1.7,1.8,2.9,4,3.8,6.6c0.9,2.6,1.3,5.5,1.3,8.7s-0.4,6.1-1.3,8.7
		c-0.9,2.6-2.2,4.8-3.8,6.6c-1.7,1.8-3.7,3.2-6.1,4.2c-2.4,1-5.1,1.4-8.1,1.4c-3,0-5.7-0.5-8.1-1.4c-2.4-1-4.4-2.4-6.1-4.2
		c-1.7-1.8-2.9-4-3.8-6.6C-232.6,367.1-233,364.2-233,360.9z M-225,360.9c0,4.5,0.9,7.9,2.9,10.2c1.9,2.3,4.7,3.5,8.4,3.5
		c3.7,0,6.5-1.2,8.4-3.5c1.9-2.3,2.9-5.7,2.9-10.2s-1-7.9-2.9-10.2c-1.9-2.3-4.7-3.5-8.4-3.5c-3.7,0-6.5,1.2-8.4,3.5
		C-224,353.1-225,356.5-225,360.9z"/>
	<path fill="#FFFFFF" d="M-150.3,360.9c0,3-0.4,5.8-1.2,8.4c-0.8,2.6-1.9,4.8-3.5,6.6c-1.5,1.8-3.4,3.3-5.6,4.3
		c-2.2,1-4.7,1.6-7.5,1.6c-1.8,0-3.4-0.3-4.7-0.8c-1.3-0.5-2.4-1.1-3.3-1.6c-0.9-0.7-1.7-1.5-2.5-2.4h-0.8v19.3l-0.8,0.8h-6.4
		l-0.8-0.8v-54.6l0.8-0.8h5.6l0.8,0.8l0.8,3.2h0.8c0.7-0.9,1.6-1.7,2.5-2.4c0.9-0.6,1.9-1.1,3.3-1.6c1.3-0.5,2.9-0.8,4.7-0.8
		c2.8,0,5.3,0.5,7.5,1.6c2.2,1,4.1,2.5,5.6,4.3c1.5,1.8,2.7,4.1,3.5,6.6C-150.6,355.2-150.3,358-150.3,360.9z M-158.3,360.9
		c0-4.5-0.9-7.9-2.8-10.2c-1.9-2.3-4.4-3.5-7.6-3.5s-5.8,1.1-7.6,3.2c-1.9,2.1-2.8,5.6-2.8,10.4s0.9,8.3,2.8,10.4
		c1.9,2.1,4.4,3.2,7.6,3.2s5.8-1.2,7.6-3.5C-159.2,368.8-158.3,365.4-158.3,360.9z"/>
	<path fill="#FFFFFF" d="M-412.5,428.4h-4c-1.6,0-3.1,0.2-4.3,0.5c-1.3,0.3-2.4,1-3.3,1.9c-0.9,0.9-1.6,2.1-2.1,3.7
		c-0.5,1.6-0.7,3.5-0.7,5.9v20.1l-0.8,0.8h-6.4l-0.8-0.8V422l0.8-0.8h5.6l0.8,0.8l0.8,3.2h0.8c0.6-0.6,1.2-1.1,1.8-1.6
		c0.6-0.5,1.4-0.9,2.2-1.3c0.8-0.3,1.7-0.6,2.8-0.8c1-0.2,2.3-0.3,3.7-0.3h3.2l0.8,0.8v5.6L-412.5,428.4z"/>
	<path fill="#FFFFFF" d="M-390.8,462.2c-3.2,0-6-0.5-8.4-1.6c-2.4-1-4.4-2.5-6-4.3c-1.6-1.8-2.8-4.1-3.6-6.6
		c-0.8-2.6-1.2-5.4-1.2-8.4c0-2.8,0.4-5.4,1.1-8c0.7-2.5,1.8-4.8,3.3-6.7c1.5-1.9,3.4-3.4,5.7-4.5c2.3-1.1,5.1-1.7,8.3-1.7
		c3.2,0,6,0.6,8.3,1.7c2.3,1.1,4.2,2.6,5.7,4.5c1.5,1.9,2.6,4.1,3.3,6.7c0.7,2.5,1.1,5.2,1.1,8v2.4l-0.8,0.8h-26.5l-0.8,0.8
		c0,0.4,0.1,1.2,0.3,2.2c0.2,1,0.6,2.1,1.3,3.2c0.7,1.1,1.7,2.1,3.1,2.9c1.4,0.9,3.3,1.3,5.7,1.3c1.6,0,3.1-0.3,4.6-0.9
		c1.4-0.6,2.6-1.9,3.5-3.9l0.8-0.8h6.4l0.8,0.8c-0.2,1.6-0.7,3.1-1.5,4.6c-0.8,1.4-1.9,2.7-3.2,3.9c-1.3,1.1-3,2-4.9,2.7
		C-386.3,461.8-388.4,462.2-390.8,462.2z M-382,437.3c0-0.6-0.1-1.4-0.3-2.5c-0.2-1.1-0.6-2.2-1.2-3.2c-0.6-1-1.6-2-2.9-2.7
		c-1.3-0.8-3-1.2-5.2-1.2c-2.2,0-3.9,0.4-5.2,1.2c-1.3,0.8-2.2,1.7-2.9,2.7c-0.6,1-1.1,2.1-1.2,3.2c-0.2,1.1-0.3,1.9-0.3,2.5
		l0.8,0.8h17.7L-382,437.3z"/>
	<path fill="#FFFFFF" d="M-349.9,471c3.7,0,6.4-1.2,8-3.5c1.6-2.3,2.5-5.7,2.5-10.2h-0.8c-0.8,0.9-1.6,1.7-2.5,2.4
		c-0.9,0.6-1.9,1.1-3.3,1.6c-1.3,0.5-2.9,0.8-4.7,0.8c-2.8,0-5.3-0.5-7.5-1.6c-2.2-1-4-2.5-5.5-4.3c-1.5-1.8-2.7-4.1-3.5-6.6
		c-0.8-2.6-1.2-5.4-1.2-8.4c0-3,0.4-5.8,1.2-8.4c0.8-2.6,1.9-4.8,3.5-6.6c1.5-1.8,3.4-3.3,5.5-4.3c2.2-1,4.7-1.6,7.5-1.6
		c1.8,0,3.4,0.3,4.7,0.8c1.3,0.5,2.4,1.1,3.3,1.6c0.9,0.7,1.7,1.5,2.5,2.4h0.8l0.8-3.2l0.8-0.8h5.6l0.8,0.8v34.5
		c0,4-0.5,7.4-1.5,10.2c-1,2.8-2.4,5-4.1,6.7c-1.7,1.7-3.7,2.9-5.9,3.7c-2.2,0.7-4.5,1.1-6.9,1.1c-4.9,0-8.7-1.1-11.4-3.2
		c-2.7-2.1-4.3-4.8-4.7-8l0.8-0.8h6.4l0.8,0.8c0.8,1.6,1.8,2.7,3.1,3.2C-353.5,470.7-351.9,471-349.9,471z M-339.4,441.3
		c0-4.8-0.9-8.3-2.8-10.4c-1.9-2.1-4.4-3.2-7.6-3.2c-3.2,0-5.8,1.2-7.6,3.5c-1.9,2.3-2.8,5.7-2.8,10.2c0,4.5,0.9,7.9,2.8,10.2
		c1.9,2.3,4.4,3.5,7.6,3.5c3.2,0,5.8-1.1,7.6-3.2C-340.4,449.6-339.4,446.1-339.4,441.3z"/>
	<path fill="#FFFFFF" d="M-314.5,414.8h-6.4l-0.8-0.8v-6.4l0.8-0.8h6.4l0.8,0.8v6.4L-314.5,414.8z M-314.5,461.4h-6.4l-0.8-0.8V422
		l0.8-0.8h6.4l0.8,0.8v38.6L-314.5,461.4z"/>
	<path fill="#FFFFFF" d="M-274.4,450.1c0,1.6-0.3,3.1-0.9,4.6c-0.6,1.4-1.6,2.7-2.9,3.9c-1.3,1.1-3,2-5,2.7c-2,0.6-4.4,1-7.2,1
		c-5.3,0-9.3-1.2-12-3.5c-2.7-2.3-4.1-5.7-4.1-10.2l0.8-0.8h6.4l0.8,0.8c0,2,0.6,3.6,1.8,4.7c1.2,1.1,3.3,1.7,6.2,1.7
		c2.9,0,5-0.4,6.2-1.2s1.8-2,1.8-3.6c0-1-0.2-1.8-0.5-2.5c-0.3-0.6-0.9-1.2-1.7-1.6c-0.8-0.5-1.9-0.8-3.2-1.2c-1.3-0.3-3-0.7-5-1.1
		c-4-0.7-7.2-2-9.4-3.9c-2.3-1.8-3.4-4.6-3.4-8.2c0-1.4,0.3-2.8,0.8-4.1c0.5-1.4,1.4-2.6,2.6-3.6c1.2-1,2.8-1.9,4.7-2.5
		c1.9-0.6,4.3-1,7.1-1c2.2,0,4.2,0.3,6.1,0.8c1.9,0.5,3.5,1.3,4.9,2.2c1.4,1,2.4,2.2,3.2,3.8c0.7,1.5,1.1,3.3,1.1,5.3l-0.8,0.8h-6.4
		l-0.8-0.8c0-0.6-0.1-1.2-0.3-1.8c-0.2-0.6-0.6-1.1-1.2-1.6c-0.6-0.5-1.3-0.8-2.2-1.1c-0.9-0.3-2.1-0.4-3.5-0.4
		c-2,0-3.7,0.3-5.1,0.8c-1.4,0.5-2.1,1.6-2.1,3.2c0,1,0.2,1.8,0.6,2.5c0.4,0.6,1.1,1.2,2,1.6c0.9,0.5,2.1,0.9,3.5,1.2
		c1.4,0.3,3.1,0.7,5.2,1.1c4,0.8,7,2.1,9,3.9C-275.4,443.7-274.4,446.5-274.4,450.1z"/>
	<path fill="#FFFFFF" d="M-245.4,461.4h-6.4c-1.4,0-2.8-0.2-4.1-0.6s-2.6-1-3.6-1.9c-1-0.9-1.9-1.9-2.5-3.3c-0.6-1.3-1-2.9-1-4.7
		v-21.7l-0.8-0.8h-5.6l-0.8-0.8V422l0.8-0.8h5.6l0.8-0.8v-7.2l0.8-0.8h6.4l0.8,0.8v7.2l0.8,0.8h8.8l0.8,0.8v5.6l-0.8,0.8h-8.8
		l-0.8,0.8v21.7c0,1.2,0.3,2.1,1,2.5c0.7,0.5,1.4,0.7,2.2,0.7h6.4l0.8,0.8v5.6L-245.4,461.4z"/>
	<path fill="#FFFFFF" d="M-214.1,428.4h-4c-1.6,0-3.1,0.2-4.3,0.5c-1.3,0.3-2.4,1-3.3,1.9c-0.9,0.9-1.6,2.1-2.1,3.7
		c-0.5,1.6-0.7,3.5-0.7,5.9v20.1l-0.8,0.8h-6.4l-0.8-0.8V422l0.8-0.8h5.6l0.8,0.8l0.8,3.2h0.8c0.6-0.6,1.2-1.1,1.8-1.6
		c0.6-0.5,1.4-0.9,2.2-1.3c0.8-0.3,1.7-0.6,2.8-0.8c1-0.2,2.3-0.3,3.7-0.3h3.2l0.8,0.8v5.6L-214.1,428.4z"/>
	<path fill="#FFFFFF" d="M-178,461.4h-5.6l-0.8-0.8l-0.8-3.2h-0.8c-0.8,0.9-1.6,1.7-2.7,2.4c-0.9,0.6-2.1,1.1-3.5,1.6
		c-1.4,0.5-3.1,0.8-5.1,0.8c-4.5,0-7.9-1.1-10.2-3.4c-2.3-2.3-3.5-5.4-3.5-9.4c0-2.2,0.4-4.1,1.3-5.7c0.9-1.6,2.1-3,3.6-4
		c1.6-1,3.4-1.8,5.6-2.3c2.2-0.5,4.6-0.8,7.2-0.8c1,0,2,0,2.9,0.1c0.9,0.1,1.6,0.2,2.3,0.3c0.4,0.1,0.7,0.2,1.1,0.2
		c0.3,0.1,0.7,0.1,1,0.2l0.8-0.8v-1.6c0-2.8-0.6-4.8-1.9-5.7c-1.3-1-3.3-1.5-6.1-1.5c-2.9,0-5,0.4-6.2,1.2c-1.2,0.8-1.8,2-1.8,3.6
		l-0.8,0.8h-6.4l-0.8-0.8c0-1.4,0.3-2.8,0.8-4.3c0.5-1.4,1.4-2.7,2.7-3.9c1.3-1.2,2.9-2.1,5-2.8c2.1-0.7,4.6-1.1,7.6-1.1
		c3,0,5.5,0.4,7.6,1.1s3.7,1.8,5,3.3s2.2,3.3,2.7,5.5c0.5,2.2,0.8,4.8,0.8,7.8v22.5L-178,461.4z M-185.2,444.5l-0.8-0.8l-1.7-0.4
		c-0.6-0.1-1.3-0.2-2-0.3c-0.8-0.1-1.7-0.1-2.7-0.1c-3.7,0-6.4,0.6-8,1.7c-1.6,1.1-2.4,2.7-2.4,4.7s0.6,3.5,1.8,4.3
		c1.2,0.9,3,1.3,5.4,1.3c3.2,0,5.8-0.7,7.6-2.2c1.9-1.5,2.8-3.4,2.8-5.8V444.5z"/>
	<path fill="#FFFFFF" d="M-146.6,461.4h-6.4c-1.4,0-2.8-0.2-4.1-0.6s-2.6-1-3.6-1.9c-1-0.9-1.9-1.9-2.5-3.3c-0.6-1.3-1-2.9-1-4.7
		v-21.7l-0.8-0.8h-5.6l-0.8-0.8V422l0.8-0.8h5.6l0.8-0.8v-7.2l0.8-0.8h6.4l0.8,0.8v7.2l0.8,0.8h8.8l0.8,0.8v5.6l-0.8,0.8h-8.8
		l-0.8,0.8v21.7c0,1.2,0.3,2.1,1,2.5c0.7,0.5,1.4,0.7,2.2,0.7h6.4l0.8,0.8v5.6L-146.6,461.4z"/>
	<path fill="#FFFFFF" d="M-130.6,414.8h-6.4l-0.8-0.8v-6.4l0.8-0.8h6.4l0.8,0.8v6.4L-130.6,414.8z M-130.6,461.4h-6.4l-0.8-0.8V422
		l0.8-0.8h6.4l0.8,0.8v38.6L-130.6,461.4z"/>
	<path fill="#FFFFFF" d="M-122.5,441.3c0-3.2,0.4-6.1,1.3-8.7c0.9-2.6,2.2-4.8,3.8-6.6c1.7-1.8,3.7-3.2,6.1-4.2
		c2.4-1,5.1-1.4,8.1-1.4c3,0,5.7,0.5,8.1,1.4s4.4,2.4,6.1,4.2c1.7,1.8,2.9,4,3.8,6.6c0.9,2.6,1.3,5.5,1.3,8.7s-0.4,6.1-1.3,8.7
		c-0.9,2.6-2.2,4.8-3.8,6.6c-1.7,1.8-3.7,3.2-6.1,4.2s-5.1,1.4-8.1,1.4c-3,0-5.7-0.5-8.1-1.4c-2.4-1-4.4-2.4-6.1-4.2
		c-1.7-1.8-2.9-4-3.8-6.6C-122.1,447.4-122.5,444.5-122.5,441.3z M-114.5,441.3c0,4.5,1,7.9,2.9,10.2c1.9,2.3,4.7,3.5,8.4,3.5
		c3.7,0,6.5-1.2,8.4-3.5c1.9-2.3,2.9-5.7,2.9-10.2c0-4.5-1-7.9-2.9-10.2c-1.9-2.3-4.7-3.5-8.4-3.5c-3.7,0-6.5,1.2-8.4,3.5
		C-113.6,433.4-114.5,436.8-114.5,441.3z"/>
	<path fill="#FFFFFF" d="M-43,461.4h-6.4l-0.8-0.8v-23.3c0-1-0.1-2.1-0.2-3.2c-0.2-1.1-0.5-2.2-1.1-3.1c-0.6-1-1.4-1.8-2.4-2.4
		c-1-0.6-2.5-0.9-4.3-0.9c-3.7,0-6.4,1.1-8,3.2c-1.6,2.1-2.5,5.6-2.5,10.5v19.3l-0.8,0.8H-76l-0.8-0.8V422l0.8-0.8h5.6l0.8,0.8
		l0.8,3.2h0.8c0.7-0.9,1.6-1.7,2.5-2.4c0.9-0.6,1.9-1.1,3.3-1.6c1.3-0.5,2.9-0.8,4.7-0.8c2.8,0,5.2,0.4,7.1,1.3c2,0.9,3.5,2,4.7,3.5
		c1.2,1.5,2.1,3.3,2.6,5.3c0.5,2.1,0.8,4.3,0.8,6.7v23.3L-43,461.4z"/>
</g>
</svg>
