<?xml version="1.0" encoding="utf-8"?>
<!-- Generator: Adobe Illustrator 19.0.1, SVG Export Plug-In . SVG Version: 6.00 Build 0)  -->
<!DOCTYPE svg PUBLIC "-//W3C//DTD SVG 1.1//EN" "http://www.w3.org/Graphics/SVG/1.1/DTD/svg11.dtd">
<svg version="1.1" id="Vrstva_1" xmlns="http://www.w3.org/2000/svg" xmlns:xlink="http://www.w3.org/1999/xlink" x="0px" y="0px"
	 viewBox="-383 358 766 85" enable-background="new -383 358 766 85" xml:space="preserve">
<g>
	<path fill="#FFFFFF" d="M-334.7,404.4c0,2-0.4,3.8-1.1,5.6c-0.7,1.8-1.9,3.3-3.5,4.6s-3.6,2.3-6,3.1c-2.4,0.8-5.4,1.2-8.8,1.2
		c-3.1,0-5.8-0.4-8.3-1.1c-2.5-0.7-4.6-1.8-6.3-3.2c-1.8-1.4-3.1-3.1-4.1-5.2c-1-2.1-1.4-4.4-1.4-7.1l0.7-0.7h5.8l0.7,0.7
		c0,3.6,1.2,6.2,3.6,7.7s5.7,2.3,10.1,2.3c1.6,0,3.1-0.1,4.5-0.4c1.4-0.3,2.6-0.7,3.6-1.4c1-0.6,1.8-1.4,2.4-2.4
		c0.6-1,0.9-2.2,0.9-3.7c0-1.6-0.3-3-0.8-4c-0.6-1-1.4-1.9-2.6-2.6c-1.2-0.7-2.7-1.2-4.5-1.6c-1.8-0.4-4-0.8-6.5-1.2
		c-5-0.7-9.1-2.2-12.1-4.5c-3-2.3-4.5-5.6-4.5-9.9c0-1.6,0.3-3.3,1-4.9c0.6-1.6,1.7-3.1,3.1-4.4c1.4-1.3,3.3-2.4,5.6-3.2
		c2.3-0.8,5.1-1.2,8.3-1.2c2.7,0,5.2,0.3,7.5,0.8c2.3,0.6,4.3,1.4,5.9,2.7s3,2.8,3.9,4.7c0.9,1.9,1.4,4.2,1.4,6.9l-0.7,0.7h-5.8
		l-0.7-0.7c0-1.4-0.2-2.7-0.6-3.8c-0.4-1.1-1.1-2-2-2.7c-0.9-0.7-2.2-1.3-3.7-1.6c-1.6-0.4-3.5-0.5-5.9-0.5c-3.3,0-5.8,0.7-7.5,2
		c-1.7,1.3-2.6,3.1-2.6,5.2c0,1.4,0.2,2.6,0.7,3.6c0.5,0.9,1.3,1.7,2.3,2.4s2.5,1.2,4.2,1.6c1.7,0.4,3.9,0.8,6.4,1.1
		c2.5,0.4,4.8,0.9,6.9,1.6c2.1,0.7,4,1.6,5.5,2.7c1.5,1.2,2.7,2.6,3.6,4.4C-335.1,399.7-334.7,401.9-334.7,404.4z"/>
	<path fill="#FFFFFF" d="M-312.4,418.8c-2.9,0-5.4-0.5-7.6-1.4c-2.2-0.9-4-2.2-5.4-3.9c-1.4-1.7-2.5-3.6-3.2-5.9
		c-0.7-2.3-1.1-4.8-1.1-7.5c0-2.5,0.3-4.9,1-7.2c0.6-2.3,1.6-4.3,3-6c1.3-1.7,3.1-3.1,5.1-4.1s4.6-1.5,7.5-1.5
		c2.9,0,5.4,0.5,7.5,1.5s3.8,2.4,5.1,4.1c1.3,1.7,2.3,3.7,3,6c0.6,2.3,1,4.7,1,7.2v2.2l-0.7,0.7H-321l-0.7,0.7c0,0.4,0.1,1,0.3,2
		c0.2,0.9,0.6,1.9,1.2,2.9c0.6,1,1.6,1.9,2.8,2.6c1.2,0.8,3,1.2,5.1,1.2c1.4,0,2.8-0.3,4.1-0.8s2.3-1.7,3.1-3.5l0.7-0.7h5.8l0.7,0.7
		c-0.2,1.4-0.6,2.8-1.4,4.1c-0.7,1.3-1.7,2.4-2.9,3.5c-1.2,1-2.7,1.8-4.4,2.4C-308.3,418.6-310.2,418.8-312.4,418.8z M-304.4,396.5
		c0-0.5-0.1-1.3-0.3-2.3c-0.2-1-0.5-1.9-1.1-2.9c-0.6-0.9-1.4-1.8-2.6-2.4c-1.2-0.7-2.7-1-4.7-1c-2,0-3.5,0.3-4.7,1
		c-1.2,0.7-2,1.5-2.6,2.4c-0.6,0.9-0.9,1.9-1.1,2.9c-0.2,1-0.3,1.7-0.3,2.3l0.7,0.7h15.8L-304.4,396.5z"/>
	<path fill="#FFFFFF" d="M-285,400.1c0,4,0.9,7.1,2.6,9.1c1.7,2.1,4.2,3.1,7.5,3.1c1.4,0,2.7-0.2,3.7-0.5c1-0.3,1.8-0.8,2.5-1.3
		c0.7-0.5,1.2-1.1,1.6-1.8c0.4-0.7,0.7-1.4,0.9-2.1l0.7-0.7h5.8l0.7,0.7c-0.2,1.6-0.6,3.2-1.4,4.6c-0.7,1.5-1.7,2.8-3,3.9
		c-1.3,1.1-2.9,2-4.8,2.7c-1.9,0.7-4.1,1-6.7,1c-2.7,0-5.1-0.4-7.2-1.3c-2.1-0.9-3.9-2.1-5.4-3.7c-1.5-1.6-2.6-3.6-3.4-5.9
		c-0.8-2.3-1.2-4.9-1.2-7.8s0.4-5.5,1.2-7.8c0.8-2.3,1.9-4.3,3.4-5.9c1.5-1.6,3.3-2.9,5.4-3.7c2.1-0.9,4.5-1.3,7.2-1.3
		c2.5,0,4.8,0.3,6.7,1c1.9,0.7,3.5,1.6,4.8,2.7s2.3,2.4,3,3.9c0.7,1.5,1.2,3,1.4,4.6l-0.7,0.7h-5.8l-0.7-0.7
		c-0.2-0.7-0.5-1.4-0.9-2.1c-0.4-0.7-0.9-1.3-1.6-1.8c-0.7-0.5-1.5-1-2.5-1.3c-1-0.3-2.2-0.5-3.7-0.5c-3.3,0-5.8,1-7.5,3.1
		C-284.1,393-285,396.1-285,400.1z"/>
	<path fill="#FFFFFF" d="M-254.8,400.1c0-2.9,0.4-5.5,1.2-7.8c0.8-2.3,1.9-4.3,3.4-5.9c1.5-1.6,3.3-2.9,5.4-3.7
		c2.1-0.9,4.5-1.3,7.2-1.3c2.7,0,5.1,0.4,7.2,1.3c2.1,0.9,3.9,2.1,5.4,3.7c1.5,1.6,2.6,3.6,3.4,5.9c0.8,2.3,1.2,4.9,1.2,7.8
		s-0.4,5.5-1.2,7.8c-0.8,2.3-1.9,4.3-3.4,5.9c-1.5,1.6-3.3,2.9-5.4,3.7c-2.1,0.9-4.5,1.3-7.2,1.3c-2.7,0-5.1-0.4-7.2-1.3
		c-2.1-0.9-3.9-2.1-5.4-3.7c-1.5-1.6-2.6-3.6-3.4-5.9C-254.4,405.6-254.8,403-254.8,400.1z M-247.6,400.1c0,4,0.9,7.1,2.6,9.1
		c1.7,2.1,4.2,3.1,7.5,3.1c3.3,0,5.8-1,7.5-3.1c1.7-2.1,2.6-5.1,2.6-9.1s-0.9-7.1-2.6-9.1c-1.7-2.1-4.2-3.1-7.5-3.1
		c-3.3,0-5.8,1-7.5,3.1C-246.7,393-247.6,396.1-247.6,400.1z"/>
	<path fill="#FFFFFF" d="M-183.5,418.1h-5.8l-0.7-0.7v-20.9c0-0.9-0.1-1.9-0.2-2.9c-0.1-1-0.5-1.9-1-2.8s-1.2-1.6-2.2-2.1
		c-0.9-0.6-2.2-0.8-3.9-0.8c-3.3,0-5.7,0.9-7.2,2.8c-1.5,1.9-2.2,5-2.2,9.4v17.3l-0.7,0.7h-5.8l-0.7-0.7v-34.6l0.7-0.7h5l0.7,0.7
		l0.7,2.9h0.7c0.7-0.8,1.4-1.5,2.2-2.2c0.8-0.5,1.7-1,2.9-1.5c1.2-0.5,2.6-0.7,4.2-0.7c2.5,0,4.6,0.4,6.4,1.2
		c1.8,0.8,3.2,1.8,4.2,3.2c1.1,1.3,1.9,2.9,2.3,4.8c0.5,1.8,0.7,3.9,0.7,6v20.9L-183.5,418.1z"/>
	<path fill="#FFFFFF" d="M-144.6,418.1h-5l-0.7-0.7l-0.7-2.9h-0.7c-0.7,0.8-1.4,1.5-2.2,2.2c-0.8,0.5-1.7,1-2.9,1.5
		c-1.2,0.5-2.6,0.7-4.2,0.7c-2.5,0-4.8-0.5-6.7-1.4c-1.9-0.9-3.6-2.2-5-3.9c-1.4-1.7-2.4-3.6-3.1-5.9c-0.7-2.3-1-4.8-1-7.5
		c0-2.7,0.3-5.2,1-7.5c0.7-2.3,1.7-4.3,3.1-5.9c1.4-1.7,3-3,5-3.9c1.9-0.9,4.2-1.4,6.7-1.4c1.6,0,3,0.2,4.2,0.7
		c1.2,0.5,2.1,0.9,2.9,1.5c0.8,0.6,1.6,1.3,2.2,2.2h0.7v-17.3l0.7-0.7h5.8l0.7,0.7v49L-144.6,418.1z M-151.1,400.1
		c0-4.3-0.8-7.4-2.5-9.4c-1.7-1.9-4-2.9-6.8-2.9s-5.2,1-6.8,3.1c-1.7,2.1-2.5,5.1-2.5,9.1s0.8,7.1,2.5,9.1c1.7,2.1,4,3.1,6.8,3.1
		s5.2-1,6.8-2.9C-151.9,407.6-151.1,404.4-151.1,400.1z"/>
	<path fill="#FFFFFF" d="M-97.1,418.1h-5.8c-1.2,0-2.5-0.2-3.7-0.5s-2.3-0.9-3.2-1.7c-0.9-0.8-1.7-1.7-2.3-2.9
		c-0.6-1.2-0.9-2.6-0.9-4.2v-19.4l-0.7-0.7h-5l-0.7-0.7v-5l0.7-0.7h5l0.7-0.7v-6.5l0.7-0.7h5.8l0.7,0.7v6.5l0.7,0.7h7.9l0.7,0.7v5
		l-0.7,0.7h-7.9l-0.7,0.7v19.4c0,1.1,0.3,1.9,0.9,2.3c0.6,0.4,1.3,0.6,2,0.6h5.8l0.7,0.7v5L-97.1,418.1z"/>
	<path fill="#FFFFFF" d="M-82.7,376.4h-5.8l-0.7-0.7v-5.8l0.7-0.7h5.8l0.7,0.7v5.8L-82.7,376.4z M-82.7,418.1h-5.8l-0.7-0.7v-34.6
		l0.7-0.7h5.8l0.7,0.7v34.6L-82.7,418.1z"/>
	<path fill="#FFFFFF" d="M-23.6,418.1h-5.8l-0.7-0.7v-21.6c0-1.1-0.1-2.1-0.2-3c-0.1-1-0.4-1.8-0.9-2.5c-0.4-0.7-1.1-1.3-1.9-1.7
		c-0.9-0.4-2-0.6-3.5-0.6c-2.6,0-4.6,0.8-5.9,2.5c-1.3,1.7-2,4-2,6.8v20.2l-0.7,0.7H-51l-0.7-0.7v-21.6c0-1.1-0.1-2.1-0.2-3
		c-0.1-1-0.4-1.8-0.9-2.5c-0.4-0.7-1.1-1.3-1.9-1.7c-0.9-0.4-2-0.6-3.5-0.6c-0.9,0-1.8,0.2-2.8,0.5c-0.9,0.3-1.8,0.8-2.6,1.5
		c-0.8,0.7-1.4,1.7-1.9,2.9c-0.5,1.2-0.7,2.7-0.7,4.5v20.2l-0.7,0.7h-5.8l-0.7-0.7v-34.6l0.7-0.7h5l0.7,0.7l0.7,2.9h0.7
		c0.7-1.1,1.8-2.1,3.3-3c1.5-0.9,3.5-1.3,6.1-1.3c1.4,0,2.7,0.2,3.7,0.5c1,0.3,1.9,0.7,2.6,1.2c0.7,0.5,1.3,1.1,1.8,1.7
		c0.5,0.6,0.9,1.2,1.3,1.7h0.7c1.1-1.4,2.5-2.6,4.3-3.6c1.8-1,3.9-1.4,6.5-1.4c2.5,0,4.5,0.4,6.2,1.2c1.6,0.8,2.9,1.8,3.7,3.1
		c0.9,1.3,1.5,2.8,1.8,4.6c0.3,1.8,0.5,3.6,0.5,5.6v21.6L-23.6,418.1z"/>
	<path fill="#FFFFFF" d="M0.1,418.8c-2.9,0-5.4-0.5-7.6-1.4c-2.2-0.9-4-2.2-5.4-3.9c-1.4-1.7-2.5-3.6-3.2-5.9
		c-0.7-2.3-1.1-4.8-1.1-7.5c0-2.5,0.3-4.9,1-7.2c0.6-2.3,1.6-4.3,3-6c1.3-1.7,3.1-3.1,5.1-4.1c2.1-1,4.6-1.5,7.5-1.5
		s5.4,0.5,7.5,1.5s3.8,2.4,5.1,4.1c1.3,1.7,2.3,3.7,3,6c0.6,2.3,1,4.7,1,7.2v2.2l-0.7,0.7H-8.5l-0.7,0.7c0,0.4,0.1,1,0.3,2
		c0.2,0.9,0.6,1.9,1.2,2.9c0.6,1,1.6,1.9,2.8,2.6c1.2,0.8,3,1.2,5.1,1.2c1.4,0,2.8-0.3,4.1-0.8s2.3-1.7,3.1-3.5l0.7-0.7h5.8l0.7,0.7
		c-0.2,1.4-0.6,2.8-1.4,4.1c-0.7,1.3-1.7,2.4-2.9,3.5c-1.2,1-2.7,1.8-4.4,2.4C4.2,418.6,2.3,418.8,0.1,418.8z M8,396.5
		c0-0.5-0.1-1.3-0.3-2.3c-0.2-1-0.5-1.9-1.1-2.9c-0.6-0.9-1.4-1.8-2.6-2.4c-1.2-0.7-2.7-1-4.7-1c-2,0-3.5,0.3-4.7,1
		c-1.2,0.7-2,1.5-2.6,2.4c-0.6,0.9-0.9,1.9-1.1,2.9c-0.2,1-0.3,1.7-0.3,2.3l0.7,0.7H7.3L8,396.5z"/>
	<path fill="#FFFFFF" d="M68.5,418.1h-5l-0.7-0.7l-0.7-2.9h-0.7c-0.7,0.8-1.5,1.5-2.4,2.2c-0.8,0.5-1.8,1-3.1,1.5
		c-1.2,0.5-2.8,0.7-4.6,0.7c-4,0-7.1-1-9.1-3.1c-2.1-2-3.1-4.9-3.1-8.5c0-2,0.4-3.7,1.2-5.1c0.8-1.5,1.8-2.7,3.2-3.6
		c1.4-0.9,3.1-1.6,5-2.1c1.9-0.5,4.1-0.7,6.4-0.7c0.9,0,1.8,0,2.6,0.1s1.5,0.2,2.1,0.3c0.3,0.1,0.7,0.2,1,0.2c0.3,0,0.6,0.1,0.9,0.1
		l0.7-0.7v-1.4c0-2.5-0.6-4.3-1.7-5.1c-1.1-0.9-3-1.3-5.5-1.3c-2.6,0-4.4,0.4-5.5,1.1c-1.1,0.7-1.7,1.8-1.7,3.2l-0.7,0.7h-5.8
		l-0.7-0.7c0-1.2,0.2-2.5,0.7-3.8c0.5-1.3,1.3-2.5,2.4-3.5c1.1-1,2.6-1.9,4.5-2.5c1.8-0.6,4.1-1,6.8-1c2.7,0,5,0.3,6.8,1
		s3.3,1.6,4.5,2.9s1.9,2.9,2.4,4.9c0.5,2,0.7,4.3,0.7,7v20.2L68.5,418.1z M62,403l-0.7-0.7l-1.5-0.4c-0.5-0.1-1.1-0.2-1.8-0.3
		c-0.7-0.1-1.5-0.1-2.4-0.1c-3.3,0-5.7,0.5-7.2,1.5c-1.5,1-2.2,2.4-2.2,4.2s0.5,3.1,1.6,3.9c1.1,0.8,2.7,1.2,4.9,1.2
		c2.9,0,5.2-0.7,6.8-2c1.7-1.3,2.5-3.1,2.5-5.2V403z"/>
	<path fill="#FFFFFF" d="M96.6,418.1h-5.8c-1.2,0-2.5-0.2-3.7-0.5s-2.3-0.9-3.2-1.7c-0.9-0.8-1.7-1.7-2.3-2.9
		c-0.6-1.2-0.9-2.6-0.9-4.2v-19.4l-0.7-0.7h-5l-0.7-0.7v-5l0.7-0.7h5l0.7-0.7v-6.5l0.7-0.7h5.8l0.7,0.7v6.5l0.7,0.7h7.9l0.7,0.7v5
		l-0.7,0.7h-7.9l-0.7,0.7v19.4c0,1.1,0.3,1.9,0.9,2.3c0.6,0.4,1.3,0.6,2,0.6h5.8l0.7,0.7v5L96.6,418.1z"/>
	<path fill="#FFFFFF" d="M131.2,418.1h-5.8l-0.7-0.7v-49l0.7-0.7h5.8l0.7,0.7v49L131.2,418.1z"/>
	<path fill="#FFFFFF" d="M172.2,418.1h-5.8l-0.7-0.7v-20.9c0-0.9-0.1-1.9-0.2-2.9c-0.1-1-0.5-1.9-1-2.8c-0.5-0.9-1.2-1.6-2.2-2.1
		c-0.9-0.6-2.2-0.8-3.9-0.8c-3.3,0-5.7,0.9-7.2,2.8c-1.5,1.9-2.2,5-2.2,9.4v17.3l-0.7,0.7h-5.8l-0.7-0.7v-34.6l0.7-0.7h5l0.7,0.7
		l0.7,2.9h0.7c0.7-0.8,1.4-1.5,2.2-2.2c0.8-0.5,1.7-1,2.9-1.5c1.2-0.5,2.6-0.7,4.2-0.7c2.5,0,4.6,0.4,6.4,1.2
		c1.8,0.8,3.2,1.8,4.2,3.2c1.1,1.3,1.9,2.9,2.3,4.8c0.5,1.8,0.7,3.9,0.7,6v20.9L172.2,418.1z"/>
	<path fill="#FFFFFF" d="M211.1,418.1h-5l-0.7-0.7l-0.7-2.9h-0.7c-0.7,0.8-1.4,1.5-2.2,2.2c-0.8,0.5-1.7,1-2.9,1.5
		c-1.2,0.5-2.6,0.7-4.2,0.7c-2.5,0-4.8-0.5-6.7-1.4c-1.9-0.9-3.6-2.2-5-3.9c-1.4-1.7-2.4-3.6-3.1-5.9c-0.7-2.3-1-4.8-1-7.5
		c0-2.7,0.3-5.2,1-7.5c0.7-2.3,1.7-4.3,3.1-5.9c1.4-1.7,3-3,5-3.9c1.9-0.9,4.2-1.4,6.7-1.4c1.6,0,3,0.2,4.2,0.7
		c1.2,0.5,2.1,0.9,2.9,1.5c0.8,0.6,1.6,1.3,2.2,2.2h0.7v-17.3l0.7-0.7h5.8l0.7,0.7v49L211.1,418.1z M204.6,400.1
		c0-4.3-0.8-7.4-2.5-9.4c-1.7-1.9-4-2.9-6.8-2.9s-5.2,1-6.8,3.1c-1.7,2.1-2.5,5.1-2.5,9.1s0.8,7.1,2.5,9.1c1.7,2.1,4,3.1,6.8,3.1
		s5.2-1,6.8-2.9C203.8,407.6,204.6,404.4,204.6,400.1z"/>
	<path fill="#FFFFFF" d="M249.2,418.1h-5l-0.7-0.7l-0.7-2.9H242c-0.6,0.8-1.3,1.5-2.2,2.2c-0.7,0.5-1.6,1-2.7,1.5
		c-1.1,0.5-2.3,0.7-3.8,0.7c-2.5,0-4.7-0.4-6.4-1.3c-1.7-0.8-3.1-2-4.2-3.3c-1.1-1.4-1.9-3-2.3-4.8c-0.5-1.8-0.7-3.7-0.7-5.7v-20.9
		l0.7-0.7h5.8l0.7,0.7v20.9c0,1.1,0.1,2.2,0.3,3.2c0.2,1,0.6,1.9,1.1,2.7c0.5,0.8,1.3,1.4,2.2,1.9c0.9,0.5,2.1,0.8,3.6,0.8
		c2.5,0,4.6-1,6.2-2.9c1.6-1.9,2.4-5,2.4-9.4v-17.3l0.7-0.7h5.8l0.7,0.7v34.6L249.2,418.1z"/>
	<path fill="#FFFFFF" d="M285.2,408c0,1.4-0.3,2.8-0.8,4.1c-0.6,1.3-1.4,2.4-2.6,3.5c-1.2,1-2.7,1.8-4.5,2.4c-1.8,0.6-4,0.9-6.5,0.9
		c-4.8,0-8.3-1-10.8-3.1c-2.4-2.1-3.6-5.1-3.6-9.1l0.7-0.7h5.8l0.7,0.7c0,1.8,0.6,3.2,1.7,4.2c1.1,1,3,1.5,5.5,1.5
		c2.6,0,4.4-0.4,5.5-1.1s1.7-1.8,1.7-3.2c0-0.9-0.2-1.7-0.5-2.2c-0.3-0.6-0.8-1.1-1.5-1.5c-0.7-0.4-1.7-0.8-2.9-1
		c-1.2-0.3-2.7-0.6-4.5-1c-3.6-0.7-6.4-1.8-8.5-3.5c-2-1.7-3.1-4.1-3.1-7.3c0-1.2,0.2-2.5,0.7-3.7c0.5-1.2,1.3-2.3,2.3-3.2
		c1.1-0.9,2.5-1.7,4.2-2.3c1.7-0.6,3.9-0.9,6.4-0.9c2,0,3.8,0.2,5.5,0.7c1.7,0.5,3.1,1.1,4.4,2c1.2,0.9,2.2,2,2.8,3.4
		c0.7,1.4,1,2.9,1,4.7l-0.7,0.7H278l-0.7-0.7c0-0.5-0.1-1.1-0.3-1.6c-0.2-0.5-0.5-1-1-1.4c-0.5-0.4-1.2-0.7-2-1
		c-0.8-0.2-1.9-0.4-3.1-0.4c-1.8,0-3.4,0.2-4.6,0.7c-1.2,0.5-1.9,1.4-1.9,2.9c0,0.9,0.2,1.7,0.5,2.2s0.9,1.1,1.8,1.5
		c0.8,0.4,1.9,0.8,3.1,1.1c1.3,0.3,2.8,0.6,4.6,1c3.6,0.7,6.3,1.9,8.1,3.5S285.2,404.8,285.2,408z"/>
	<path fill="#FFFFFF" d="M311.2,418.1h-5.8c-1.2,0-2.5-0.2-3.7-0.5s-2.3-0.9-3.2-1.7c-0.9-0.8-1.7-1.7-2.3-2.9
		c-0.6-1.2-0.9-2.6-0.9-4.2v-19.4l-0.7-0.7h-5l-0.7-0.7v-5l0.7-0.7h5l0.7-0.7v-6.5l0.7-0.7h5.8l0.7,0.7v6.5l0.7,0.7h7.9l0.7,0.7v5
		l-0.7,0.7h-7.9l-0.7,0.7v19.4c0,1.1,0.3,1.9,0.9,2.3c0.6,0.4,1.3,0.6,2,0.6h5.8l0.7,0.7v5L311.2,418.1z"/>
	<path fill="#FFFFFF" d="M339.2,388.6h-3.6c-1.4,0-2.7,0.2-3.9,0.5c-1.2,0.3-2.1,0.9-3,1.7c-0.8,0.8-1.4,1.9-1.9,3.3
		c-0.4,1.4-0.6,3.2-0.6,5.3v18l-0.7,0.7h-5.8l-0.7-0.7v-34.6l0.7-0.7h5l0.7,0.7l0.7,2.9h0.7c0.5-0.5,1.1-1,1.7-1.5
		c0.6-0.5,1.2-0.8,1.9-1.2c0.7-0.3,1.5-0.6,2.5-0.7c0.9-0.2,2-0.3,3.3-0.3h2.9l0.7,0.7v5L339.2,388.6z"/>
	<path fill="#FFFFFF" d="M371.6,418.1h-5l-0.7-0.7l-0.7-2.9h-0.7c-0.7,0.8-1.5,1.5-2.4,2.2c-0.8,0.5-1.8,1-3.1,1.5
		c-1.2,0.5-2.8,0.7-4.6,0.7c-4,0-7.1-1-9.1-3.1c-2.1-2-3.1-4.9-3.1-8.5c0-2,0.4-3.7,1.2-5.1c0.8-1.5,1.8-2.7,3.2-3.6
		c1.4-0.9,3.1-1.6,5-2.1c1.9-0.5,4.1-0.7,6.4-0.7c0.9,0,1.8,0,2.6,0.1s1.5,0.2,2.1,0.3c0.3,0.1,0.7,0.2,1,0.2c0.3,0,0.6,0.1,0.9,0.1
		l0.7-0.7v-1.4c0-2.5-0.6-4.3-1.7-5.1c-1.1-0.9-3-1.3-5.5-1.3c-2.6,0-4.4,0.4-5.5,1.1c-1.1,0.7-1.7,1.8-1.7,3.2l-0.7,0.7h-5.8
		l-0.7-0.7c0-1.2,0.2-2.5,0.7-3.8c0.5-1.3,1.3-2.5,2.4-3.5c1.1-1,2.6-1.9,4.5-2.5c1.8-0.6,4.1-1,6.8-1c2.7,0,5,0.3,6.8,1
		s3.3,1.6,4.5,2.9s1.9,2.9,2.4,4.9c0.5,2,0.7,4.3,0.7,7v20.2L371.6,418.1z M365.2,403l-0.7-0.7l-1.5-0.4c-0.5-0.1-1.1-0.2-1.8-0.3
		c-0.7-0.1-1.5-0.1-2.4-0.1c-3.3,0-5.7,0.5-7.2,1.5c-1.5,1-2.2,2.4-2.2,4.2s0.5,3.1,1.6,3.9c1.1,0.8,2.7,1.2,4.9,1.2
		c2.9,0,5.2-0.7,6.8-2c1.7-1.3,2.5-3.1,2.5-5.2V403z"/>
</g>
</svg>
