<?xml version="1.0" encoding="utf-8"?>
<!-- Generator: Adobe Illustrator 19.0.1, SVG Export Plug-In . SVG Version: 6.00 Build 0)  -->
<!DOCTYPE svg PUBLIC "-//W3C//DTD SVG 1.1//EN" "http://www.w3.org/Graphics/SVG/1.1/DTD/svg11.dtd">
<svg version="1.1" id="Vrstva_1" xmlns="http://www.w3.org/2000/svg" xmlns:xlink="http://www.w3.org/1999/xlink" x="0px" y="0px"
	 viewBox="-256 292.2 359 74" enable-background="new -256 292.2 359 74" xml:space="preserve">
<g>
	<path fill="#00B000" d="M-205,306.7h-15.1l-0.7,0.7v42.5l-0.7,0.7h-5.8l-0.7-0.7v-42.5l-0.7-0.7h-15.1l-0.7-0.7v-5l0.7-0.7h38.9
		l0.7,0.7v5L-205,306.7z"/>
	<path fill="#00B000" d="M-168.2,350.6h-5.8l-0.7-0.7V329c0-1.1-0.1-2.1-0.3-3.2c-0.2-1.1-0.6-2-1.1-2.8c-0.5-0.8-1.3-1.4-2.2-1.9
		s-2.1-0.8-3.6-0.8c-2.9,0-5.2,0.8-6.8,2.5c-1.7,1.7-2.5,4.7-2.5,9v18l-0.7,0.7h-5.8l-0.7-0.7v-49l0.7-0.7h5.8l0.7,0.7v17.3h0.7
		c0.7-0.8,1.4-1.5,2.2-2.2c0.8-0.5,1.7-1,2.9-1.5c1.2-0.5,2.6-0.7,4.2-0.7c2.7,0,4.9,0.4,6.7,1.3c1.8,0.8,3.2,2,4.2,3.3
		c1,1.4,1.8,3,2.2,4.8c0.4,1.8,0.6,3.7,0.6,5.7v20.9L-168.2,350.6z"/>
	<path fill="#00B000" d="M-131.5,350.6h-5l-0.7-0.7l-0.7-2.9h-0.7c-0.7,0.8-1.5,1.5-2.4,2.2c-0.8,0.5-1.8,1-3.1,1.5
		c-1.2,0.5-2.8,0.7-4.6,0.7c-4,0-7.1-1-9.1-3.1c-2.1-2-3.1-4.9-3.1-8.5c0-2,0.4-3.7,1.2-5.1c0.8-1.5,1.8-2.7,3.2-3.6
		c1.4-0.9,3.1-1.6,5-2.1c1.9-0.5,4.1-0.7,6.4-0.7c0.9,0,1.8,0,2.6,0.1s1.5,0.2,2.1,0.3c0.3,0.1,0.7,0.2,1,0.2c0.3,0,0.6,0.1,0.9,0.1
		l0.7-0.7v-1.4c0-2.5-0.6-4.3-1.7-5.1c-1.1-0.9-3-1.3-5.5-1.3c-2.6,0-4.4,0.4-5.5,1.1c-1.1,0.7-1.7,1.8-1.7,3.2l-0.7,0.7h-5.8
		l-0.7-0.7c0-1.2,0.2-2.5,0.7-3.8c0.5-1.3,1.3-2.5,2.4-3.5c1.1-1,2.6-1.9,4.5-2.5c1.8-0.6,4.1-1,6.8-1c2.7,0,5,0.3,6.8,1
		c1.8,0.6,3.3,1.6,4.5,2.9c1.1,1.3,1.9,2.9,2.4,4.9c0.5,2,0.7,4.3,0.7,7v20.2L-131.5,350.6z M-138,335.5l-0.7-0.7l-1.5-0.4
		c-0.5-0.1-1.1-0.2-1.8-0.3c-0.7-0.1-1.5-0.1-2.4-0.1c-3.3,0-5.7,0.5-7.2,1.5c-1.5,1-2.2,2.4-2.2,4.2s0.5,3.1,1.6,3.9
		c1.1,0.8,2.7,1.2,4.9,1.2c2.9,0,5.2-0.7,6.8-2c1.7-1.3,2.5-3.1,2.5-5.2V335.5z"/>
	<path fill="#00B000" d="M-92.6,350.6h-5.8l-0.7-0.7V329c0-0.9-0.1-1.9-0.2-2.9c-0.1-1-0.5-1.9-1-2.8c-0.5-0.9-1.2-1.6-2.2-2.1
		c-0.9-0.6-2.2-0.8-3.9-0.8c-3.3,0-5.7,0.9-7.2,2.8c-1.5,1.9-2.2,5-2.2,9.4v17.3l-0.7,0.7h-5.8l-0.7-0.7v-34.6l0.7-0.7h5l0.7,0.7
		l0.7,2.9h0.7c0.7-0.8,1.4-1.5,2.2-2.2c0.8-0.5,1.7-1,2.9-1.5c1.2-0.5,2.6-0.7,4.2-0.7c2.5,0,4.6,0.4,6.4,1.2
		c1.8,0.8,3.2,1.8,4.2,3.2c1.1,1.3,1.9,2.9,2.3,4.8c0.5,1.8,0.7,3.9,0.7,6v20.9L-92.6,350.6z"/>
	<path fill="#00B000" d="M-55.2,350.6h-2.9l-1.4-0.7l-10.8-13.7H-71l-5,5l-0.7,1.4v7.2l-0.7,0.7h-5.8l-0.7-0.7v-49l0.7-0.7h5.8
		l0.7,0.7v31h0.7l16.6-16.6l1.4-0.7h2.2l0.7,0.7v5l-10.1,10.1v0.7l10.8,13.7v5L-55.2,350.6z"/>
	<path fill="#00B000" d="M-10.6,349.2c-1.1,2.7-2.1,4.9-3.1,6.6c-1,1.7-2.1,3-3.2,4c-1.2,0.9-2.5,1.6-4,1.9s-3.3,0.5-5.5,0.5h-1.4
		l-0.7-0.7v-5l0.7-0.7h1.4c1.8,0,3.3-0.3,4.4-0.8c1.1-0.5,2.1-1.7,2.8-3.5v-0.7l-12.2-30.2v-5l0.7-0.7h4.3l0.7,0.7l10.1,26.6h0.7
		l10.1-26.6l0.7-0.7h4.3l0.7,0.7v5L-10.6,349.2z"/>
	<path fill="#00B000" d="M5.3,332.6c0-2.9,0.4-5.5,1.2-7.8c0.8-2.3,1.9-4.3,3.4-5.9c1.5-1.6,3.3-2.9,5.4-3.7
		c2.1-0.9,4.5-1.3,7.2-1.3c2.7,0,5.1,0.4,7.2,1.3s3.9,2.1,5.4,3.7c1.5,1.6,2.6,3.6,3.4,5.9c0.8,2.3,1.2,4.9,1.2,7.8
		s-0.4,5.5-1.2,7.8c-0.8,2.3-1.9,4.3-3.4,5.9c-1.5,1.6-3.3,2.9-5.4,3.7s-4.5,1.3-7.2,1.3c-2.7,0-5.1-0.4-7.2-1.3
		c-2.1-0.9-3.9-2.1-5.4-3.7c-1.5-1.6-2.6-3.6-3.4-5.9C5.7,338.1,5.3,335.5,5.3,332.6z M12.5,332.6c0,4,0.9,7.1,2.6,9.1
		c1.7,2.1,4.2,3.1,7.5,3.1c3.3,0,5.8-1,7.5-3.1c1.7-2.1,2.6-5.1,2.6-9.1s-0.9-7.1-2.6-9.1c-1.7-2.1-4.2-3.1-7.5-3.1
		c-3.3,0-5.8,1-7.5,3.1C13.3,325.5,12.5,328.6,12.5,332.6z"/>
	<path fill="#00B000" d="M75.1,350.6h-5l-0.7-0.7l-0.7-2.9h-0.7c-0.6,0.8-1.3,1.5-2.2,2.2c-0.7,0.5-1.6,1-2.7,1.5
		c-1.1,0.5-2.3,0.7-3.8,0.7c-2.5,0-4.7-0.4-6.4-1.3c-1.7-0.8-3.1-2-4.2-3.3c-1.1-1.4-1.9-3-2.3-4.8c-0.5-1.8-0.7-3.7-0.7-5.7v-20.9
		l0.7-0.7h5.8l0.7,0.7v20.9c0,1.1,0.1,2.2,0.3,3.2c0.2,1,0.6,1.9,1.1,2.7c0.5,0.8,1.3,1.4,2.2,1.9c0.9,0.5,2.1,0.8,3.6,0.8
		c2.5,0,4.6-1,6.2-2.9c1.6-1.9,2.4-5,2.4-9.4v-17.3l0.7-0.7h5.8l0.7,0.7v34.6L75.1,350.6z"/>
	<path fill="#00B000" d="M93.8,350.6h-7.2l-0.7-0.7v-7.2l0.7-0.7h7.2l0.7,0.7v7.2L93.8,350.6z"/>
</g>
</svg>
