<?xml version="1.0" encoding="utf-8"?>
<!-- Generator: Adobe Illustrator 19.0.1, SVG Export Plug-In . SVG Version: 6.00 Build 0)  -->
<!DOCTYPE svg PUBLIC "-//W3C//DTD SVG 1.1//EN" "http://www.w3.org/Graphics/SVG/1.1/DTD/svg11.dtd">
<svg version="1.1" id="Vrstva_1" xmlns="http://www.w3.org/2000/svg" xmlns:xlink="http://www.w3.org/1999/xlink" x="0px" y="0px"
	 viewBox="0 0 495 171" enable-background="new 0 0 495 171" xml:space="preserve">
<g>
	<path fill="#FFFFFF" d="M163.2,50.3c0,3.2-0.5,6.1-1.5,8.6c-1,2.6-2.4,4.7-4.2,6.6c-1.8,1.8-4.1,3.2-6.8,4.2
		c-2.7,1-5.7,1.4-9.1,1.4c-3.4,0-6.5-0.5-9.1-1.4c-2.7-1-4.9-2.3-6.8-4.2c-1.8-1.8-3.3-4-4.2-6.6c-1-2.6-1.5-5.4-1.5-8.6V15.1
		l0.8-0.8h6.4l0.8,0.8v35.2c0,4,1.1,7.3,3.2,9.8c2.1,2.5,5.6,3.8,10.4,3.8s8.3-1.3,10.4-3.8c2.1-2.5,3.2-5.8,3.2-9.8V15.1l0.8-0.8
		h6.4l0.8,0.8V50.3z"/>
	<path fill="#FFFFFF" d="M208,70.3h-5.6l-0.8-0.8l-0.8-3.2H200c-0.7,0.9-1.6,1.7-2.5,2.4c-0.9,0.6-1.9,1.1-3.2,1.6s-2.9,0.8-4.7,0.8
		c-2.8,0-5.3-0.5-7.5-1.6c-2.2-1-4-2.5-5.5-4.3s-2.7-4-3.4-6.6c-0.8-2.6-1.2-5.3-1.2-8.3c0-3,0.4-5.8,1.2-8.3
		c0.8-2.6,1.9-4.8,3.4-6.6s3.4-3.3,5.5-4.3c2.2-1,4.7-1.6,7.5-1.6c1.8,0,3.4,0.3,4.7,0.8c1.3,0.5,2.4,1.1,3.2,1.6
		c0.9,0.7,1.7,1.5,2.5,2.4h0.8V15.1l0.8-0.8h6.4l0.8,0.8v54.4L208,70.3z M200.8,50.3c0-4.8-0.9-8.3-2.8-10.4
		c-1.9-2.1-4.4-3.2-7.6-3.2s-5.7,1.1-7.6,3.4c-1.9,2.3-2.8,5.7-2.8,10.2s0.9,7.9,2.8,10.2c1.9,2.3,4.4,3.4,7.6,3.4s5.7-1.1,7.6-3.2
		C199.9,58.5,200.8,55.1,200.8,50.3z"/>
	<path fill="#FFFFFF" d="M248.8,70.3h-5.6l-0.8-0.8l-0.8-3.2h-0.8c-0.7,0.9-1.6,1.7-2.6,2.4c-0.9,0.6-2.1,1.1-3.4,1.6
		c-1.4,0.5-3.1,0.8-5.1,0.8c-4.5,0-7.9-1.1-10.2-3.4c-2.3-2.3-3.4-5.4-3.4-9.4c0-2.2,0.4-4.1,1.3-5.7c0.9-1.6,2.1-3,3.6-4
		c1.5-1,3.4-1.8,5.6-2.3c2.2-0.5,4.5-0.8,7.2-0.8c1,0,2,0,2.8,0.1c0.9,0.1,1.6,0.2,2.3,0.3c0.4,0.1,0.7,0.2,1.1,0.2
		c0.3,0.1,0.7,0.1,1,0.2l0.8-0.8v-1.6c0-2.8-0.6-4.7-1.9-5.7c-1.3-1-3.3-1.5-6.1-1.5c-2.9,0-4.9,0.4-6.2,1.2c-1.2,0.8-1.8,2-1.8,3.6
		l-0.8,0.8h-6.4l-0.8-0.8c0-1.4,0.3-2.8,0.8-4.2s1.4-2.7,2.7-3.9c1.3-1.1,2.9-2.1,5-2.8c2.1-0.7,4.6-1.1,7.6-1.1
		c3,0,5.5,0.4,7.6,1.1c2.1,0.7,3.7,1.8,5,3.2s2.1,3.3,2.7,5.5c0.5,2.2,0.8,4.8,0.8,7.8v22.4L248.8,70.3z M241.6,53.5l-0.8-0.8
		l-1.7-0.4c-0.6-0.1-1.3-0.2-2-0.3c-0.8-0.1-1.7-0.1-2.7-0.1c-3.7,0-6.3,0.6-8,1.7c-1.6,1.1-2.4,2.7-2.4,4.7c0,2,0.6,3.5,1.8,4.3
		c1.2,0.9,3,1.3,5.4,1.3c3.2,0,5.7-0.7,7.6-2.2c1.9-1.5,2.8-3.4,2.8-5.8V53.5z M234.4,24.7l-1.6,0.8h-4l-0.8-0.8v-1.6l7.2-8l1.6-0.8
		h5.6l0.8,0.8v1.6L234.4,24.7z"/>
	<path fill="#FFFFFF" d="M265.6,70.3h-6.4l-0.8-0.8V15.1l0.8-0.8h6.4l0.8,0.8v54.4L265.6,70.3z"/>
	<path fill="#FFFFFF" d="M273.6,50.3c0-3.2,0.4-6.1,1.3-8.6s2.1-4.7,3.8-6.6c1.7-1.8,3.7-3.2,6-4.2s5.1-1.4,8-1.4c3,0,5.7,0.5,8,1.4
		s4.4,2.3,6,4.2c1.7,1.8,2.9,4,3.8,6.6c0.9,2.6,1.3,5.4,1.3,8.6s-0.4,6.1-1.3,8.6c-0.9,2.6-2.1,4.7-3.8,6.6c-1.7,1.8-3.7,3.2-6,4.2
		s-5.1,1.4-8,1.4c-3,0-5.7-0.5-8-1.4s-4.4-2.3-6-4.2c-1.7-1.8-2.9-4-3.8-6.6S273.6,53.5,273.6,50.3z M281.6,50.3
		c0,4.5,0.9,7.9,2.8,10.2c1.9,2.3,4.7,3.4,8.4,3.4c3.7,0,6.5-1.1,8.4-3.4c1.9-2.3,2.8-5.7,2.8-10.2s-0.9-7.9-2.8-10.2
		c-1.9-2.3-4.7-3.4-8.4-3.4c-3.7,0-6.5,1.1-8.4,3.4C282.6,42.4,281.6,45.8,281.6,50.3z"/>
	<path fill="#FFFFFF" d="M348.8,59.1c0,1.6-0.3,3.1-0.9,4.6c-0.6,1.4-1.6,2.7-2.9,3.8c-1.3,1.1-3,2-5,2.6c-2,0.6-4.4,1-7.2,1
		c-5.3,0-9.3-1.1-12-3.4c-2.7-2.3-4-5.7-4-10.2l0.8-0.8h6.4l0.8,0.8c0,2,0.6,3.6,1.8,4.7c1.2,1.1,3.3,1.7,6.2,1.7
		c2.9,0,4.9-0.4,6.2-1.2c1.2-0.8,1.8-2,1.8-3.6c0-1-0.2-1.8-0.5-2.5c-0.3-0.6-0.9-1.2-1.7-1.6c-0.8-0.5-1.9-0.8-3.2-1.2
		c-1.3-0.3-3-0.7-5-1.1c-4-0.7-7.1-2-9.4-3.9c-2.3-1.8-3.4-4.5-3.4-8.1c0-1.4,0.3-2.8,0.8-4.1c0.5-1.4,1.4-2.6,2.6-3.6
		c1.2-1,2.8-1.9,4.7-2.5c1.9-0.6,4.3-1,7.1-1c2.2,0,4.2,0.3,6.1,0.8c1.9,0.5,3.5,1.3,4.8,2.2c1.4,1,2.4,2.2,3.2,3.8
		c0.7,1.5,1.1,3.3,1.1,5.2l-0.8,0.8h-6.4l-0.8-0.8c0-0.6-0.1-1.2-0.3-1.8c-0.2-0.6-0.6-1.1-1.2-1.6c-0.6-0.5-1.3-0.8-2.2-1.1
		c-0.9-0.3-2.1-0.4-3.5-0.4c-2,0-3.7,0.3-5.1,0.8c-1.4,0.5-2.1,1.6-2.1,3.2c0,1,0.2,1.8,0.6,2.5c0.4,0.6,1.1,1.2,2,1.6
		c0.9,0.5,2.1,0.9,3.5,1.2c1.4,0.3,3.1,0.7,5.2,1.1c4,0.8,7,2.1,9,3.9C347.8,52.7,348.8,55.5,348.8,59.1z"/>
	<path fill="#FFFFFF" d="M377.6,70.3h-6.4c-1.4,0-2.8-0.2-4.1-0.6s-2.6-1-3.6-1.9c-1-0.9-1.9-1.9-2.5-3.2c-0.6-1.3-1-2.9-1-4.7V38.3
		l-0.8-0.8h-5.6l-0.8-0.8v-5.6l0.8-0.8h5.6l0.8-0.8v-7.2l0.8-0.8h6.4l0.8,0.8v7.2l0.8,0.8h8.8l0.8,0.8v5.6l-0.8,0.8h-8.8l-0.8,0.8
		v21.6c0,1.2,0.3,2.1,1,2.5c0.7,0.5,1.4,0.7,2.2,0.7h6.4l0.8,0.8v5.6L377.6,70.3z"/>
	<path fill="#FFFFFF" d="M52,150.3h-6.4l-0.8-0.8v-23.2c0-1-0.1-2.1-0.2-3.2c-0.2-1.1-0.5-2.2-1.1-3.1s-1.4-1.7-2.4-2.4
		c-1-0.6-2.5-0.9-4.3-0.9c-3.7,0-6.3,1.1-8,3.2c-1.6,2.1-2.4,5.6-2.4,10.4v19.2l-0.8,0.8h-6.4l-0.8-0.8v-38.4l0.8-0.8h5.6l0.8,0.8
		l0.8,3.2h0.8c0.7-0.9,1.6-1.7,2.5-2.4c0.9-0.6,1.9-1.1,3.2-1.6c1.3-0.5,2.9-0.8,4.7-0.8c2.8,0,5.1,0.4,7.1,1.3
		c1.9,0.9,3.5,2,4.7,3.5c1.2,1.5,2.1,3.3,2.6,5.3c0.5,2.1,0.8,4.3,0.8,6.7v23.2L52,150.3z"/>
	<path fill="#FFFFFF" d="M92,150.3h-5.6l-0.8-0.8l-0.8-3.2H84c-0.7,0.9-1.6,1.7-2.6,2.4c-0.9,0.6-2.1,1.1-3.4,1.6
		c-1.4,0.5-3.1,0.8-5.1,0.8c-4.5,0-7.9-1.1-10.2-3.4c-2.3-2.3-3.4-5.4-3.4-9.4c0-2.2,0.4-4.1,1.3-5.7c0.9-1.6,2.1-3,3.6-4
		c1.5-1,3.4-1.8,5.6-2.3c2.2-0.5,4.5-0.8,7.2-0.8c1,0,2,0,2.8,0.1c0.9,0.1,1.6,0.2,2.3,0.3c0.4,0.1,0.7,0.2,1.1,0.2
		c0.3,0.1,0.7,0.1,1,0.2l0.8-0.8v-1.6c0-2.8-0.6-4.7-1.9-5.7c-1.3-1-3.3-1.5-6.1-1.5c-2.9,0-4.9,0.4-6.2,1.2c-1.2,0.8-1.8,2-1.8,3.6
		l-0.8,0.8h-6.4l-0.8-0.8c0-1.4,0.3-2.8,0.8-4.2c0.5-1.4,1.4-2.7,2.7-3.9c1.3-1.1,2.9-2.1,5-2.8c2.1-0.7,4.6-1.1,7.6-1.1
		c3,0,5.5,0.4,7.6,1.1c2.1,0.7,3.7,1.8,5,3.2c1.3,1.4,2.1,3.3,2.7,5.5c0.5,2.2,0.8,4.8,0.8,7.8v22.4L92,150.3z M84.8,133.5l-0.8-0.8
		l-1.7-0.4c-0.6-0.1-1.3-0.2-2-0.3c-0.8-0.1-1.7-0.1-2.7-0.1c-3.7,0-6.3,0.6-8,1.7c-1.6,1.1-2.4,2.7-2.4,4.7c0,2,0.6,3.5,1.8,4.3
		c1.2,0.9,3,1.3,5.4,1.3c3.2,0,5.7-0.7,7.6-2.2c1.9-1.5,2.8-3.4,2.8-5.8V133.5z"/>
	<path fill="#FFFFFF" d="M144,117.5h-8l-0.8,0.8v31.2l-0.8,0.8H128l-0.8-0.8v-31.2l-0.8-0.8h-5.6l-0.8-0.8v-5.6l0.8-0.8h5.6l0.8-0.8
		v-3.2c0-1.8,0.3-3.4,1-4.7c0.6-1.3,1.5-2.4,2.5-3.2c1-0.9,2.2-1.5,3.6-1.9c1.4-0.4,2.7-0.6,4.1-0.6h6.4l0.8,0.8v5.6l-0.8,0.8h-6.4
		c-0.8,0-1.5,0.2-2.2,0.7c-0.7,0.5-1,1.3-1,2.5v3.2l0.8,0.8h8l0.8,0.8v5.6L144,117.5z"/>
	<path fill="#FFFFFF" d="M180.8,150.3h-5.6l-0.8-0.8l-0.8-3.2h-0.8c-0.7,0.9-1.6,1.7-2.6,2.4c-0.9,0.6-2.1,1.1-3.4,1.6
		s-3.1,0.8-5.1,0.8c-4.5,0-7.9-1.1-10.2-3.4c-2.3-2.3-3.4-5.4-3.4-9.4c0-2.2,0.4-4.1,1.3-5.7c0.9-1.6,2.1-3,3.6-4
		c1.5-1,3.4-1.8,5.6-2.3s4.5-0.8,7.2-0.8c1,0,2,0,2.8,0.1c0.9,0.1,1.6,0.2,2.3,0.3c0.4,0.1,0.7,0.2,1.1,0.2c0.3,0.1,0.7,0.1,1,0.2
		l0.8-0.8v-1.6c0-2.8-0.6-4.7-1.9-5.7c-1.3-1-3.3-1.5-6.1-1.5c-2.9,0-4.9,0.4-6.2,1.2c-1.2,0.8-1.8,2-1.8,3.6l-0.8,0.8h-6.4
		l-0.8-0.8c0-1.4,0.3-2.8,0.8-4.2c0.5-1.4,1.4-2.7,2.7-3.9c1.3-1.1,2.9-2.1,5-2.8c2.1-0.7,4.6-1.1,7.6-1.1c3,0,5.5,0.4,7.6,1.1
		c2.1,0.7,3.7,1.8,5,3.2c1.3,1.4,2.1,3.3,2.7,5.5c0.5,2.2,0.8,4.8,0.8,7.8v22.4L180.8,150.3z M173.6,133.5l-0.8-0.8l-1.7-0.4
		c-0.6-0.1-1.3-0.2-2-0.3c-0.8-0.1-1.7-0.1-2.7-0.1c-3.7,0-6.3,0.6-8,1.7c-1.6,1.1-2.4,2.7-2.4,4.7c0,2,0.6,3.5,1.8,4.3
		c1.2,0.9,3,1.3,5.4,1.3c3.2,0,5.7-0.7,7.6-2.2s2.8-3.4,2.8-5.8V133.5z"/>
	<path fill="#FFFFFF" d="M196,130.3c0,4.5,0.9,7.9,2.8,10.2c1.9,2.3,4.7,3.4,8.4,3.4c1.6,0,3-0.2,4.1-0.6c1.1-0.4,2.1-0.9,2.8-1.4
		c0.7-0.6,1.3-1.3,1.8-2c0.4-0.8,0.7-1.6,1-2.4l0.8-0.8h6.4l0.8,0.8c-0.2,1.8-0.7,3.5-1.5,5.2c-0.8,1.6-1.9,3.1-3.4,4.3
		c-1.4,1.3-3.2,2.3-5.3,3c-2.1,0.7-4.6,1.1-7.4,1.1c-3,0-5.7-0.5-8-1.4c-2.4-1-4.4-2.3-6-4.2c-1.7-1.8-2.9-4-3.8-6.6
		c-0.9-2.6-1.3-5.4-1.3-8.6s0.4-6.1,1.3-8.6s2.1-4.7,3.8-6.6c1.7-1.8,3.7-3.2,6-4.2c2.4-1,5.1-1.4,8-1.4c2.8,0,5.3,0.4,7.4,1.1
		c2.1,0.7,3.9,1.7,5.3,3c1.4,1.3,2.6,2.7,3.4,4.3c0.8,1.6,1.3,3.3,1.5,5.2l-0.8,0.8h-6.4l-0.8-0.8c-0.2-0.8-0.5-1.6-1-2.4
		c-0.4-0.8-1-1.5-1.8-2c-0.7-0.6-1.7-1.1-2.8-1.4c-1.1-0.4-2.5-0.6-4.1-0.6c-3.7,0-6.5,1.1-8.4,3.4C197,122.4,196,125.8,196,130.3z"
		/>
	<path fill="#FFFFFF" d="M248.8,151.1c-3.2,0-6-0.5-8.4-1.6c-2.4-1-4.4-2.5-6-4.3s-2.8-4-3.6-6.6c-0.8-2.6-1.2-5.3-1.2-8.3
		c0-2.8,0.4-5.4,1.1-8c0.7-2.5,1.8-4.7,3.3-6.6c1.5-1.9,3.4-3.4,5.7-4.5c2.3-1.1,5.1-1.7,8.3-1.7s6,0.6,8.3,1.7s4.2,2.6,5.7,4.5
		c1.5,1.9,2.6,4.1,3.3,6.6c0.7,2.5,1.1,5.2,1.1,8v2.4l-0.8,0.8h-26.4l-0.8,0.8c0,0.4,0.1,1.2,0.3,2.2c0.2,1,0.6,2.1,1.3,3.2
		c0.7,1.1,1.7,2.1,3.1,2.9c1.4,0.9,3.3,1.3,5.7,1.3c1.6,0,3.1-0.3,4.6-0.9c1.4-0.6,2.6-1.9,3.4-3.9l0.8-0.8h6.4l0.8,0.8
		c-0.2,1.6-0.7,3.1-1.5,4.6c-0.8,1.4-1.9,2.7-3.2,3.8c-1.3,1.1-2.9,2-4.8,2.6C253.4,150.8,251.2,151.1,248.8,151.1z M257.6,126.3
		c0-0.6-0.1-1.4-0.3-2.5c-0.2-1.1-0.6-2.2-1.2-3.2c-0.6-1-1.6-1.9-2.9-2.7c-1.3-0.8-3-1.2-5.2-1.2c-2.2,0-3.9,0.4-5.2,1.2
		c-1.3,0.8-2.2,1.7-2.9,2.7c-0.6,1-1.1,2.1-1.2,3.2c-0.2,1.1-0.3,1.9-0.3,2.5l0.8,0.8h17.6L257.6,126.3z"/>
	<path fill="#FFFFFF" d="M310.4,130.3c0,3-0.4,5.8-1.3,8.3c-0.9,2.6-2.1,4.8-3.6,6.6s-3.4,3.3-5.6,4.3c-2.2,1-4.5,1.6-7.2,1.6
		c-1.8,0-3.4-0.3-4.7-0.8c-1.3-0.5-2.4-1.1-3.2-1.6c-0.9-0.7-1.7-1.5-2.5-2.4h-0.8l-0.8,3.2l-0.8,0.8h-5.6l-0.8-0.8V95.1l0.8-0.8
		h6.4l0.8,0.8v19.2h0.8c0.7-0.9,1.6-1.7,2.5-2.4c0.9-0.6,1.9-1.1,3.2-1.6c1.3-0.5,2.9-0.8,4.7-0.8c2.6,0,5,0.5,7.2,1.4
		s4,2.3,5.6,4.2c1.5,1.8,2.7,4,3.6,6.6C310,124.2,310.4,127.1,310.4,130.3z M302.4,130.3c0-4.5-0.9-7.9-2.8-10.2
		c-1.9-2.3-4.4-3.4-7.6-3.4s-5.7,1.1-7.6,3.2c-1.9,2.1-2.8,5.6-2.8,10.4s0.9,8.3,2.8,10.4c1.9,2.1,4.4,3.2,7.6,3.2s5.7-1.1,7.6-3.4
		C301.5,138.1,302.4,134.8,302.4,130.3z"/>
	<path fill="#FFFFFF" d="M315.2,130.3c0-3.2,0.4-6.1,1.3-8.6s2.1-4.7,3.8-6.6c1.7-1.8,3.7-3.2,6-4.2s5.1-1.4,8-1.4
		c3,0,5.7,0.5,8,1.4s4.4,2.3,6,4.2c1.7,1.8,2.9,4,3.8,6.6c0.9,2.6,1.3,5.4,1.3,8.6s-0.4,6.1-1.3,8.6c-0.9,2.6-2.1,4.7-3.8,6.6
		c-1.7,1.8-3.7,3.2-6,4.2c-2.4,1-5.1,1.4-8,1.4c-3,0-5.7-0.5-8-1.4c-2.4-1-4.4-2.3-6-4.2c-1.7-1.8-2.9-4-3.8-6.6
		C315.6,136.4,315.2,133.5,315.2,130.3z M323.2,130.3c0,4.5,0.9,7.9,2.8,10.2c1.9,2.3,4.7,3.4,8.4,3.4c3.7,0,6.5-1.1,8.4-3.4
		c1.9-2.3,2.8-5.7,2.8-10.2s-0.9-7.9-2.8-10.2c-1.9-2.3-4.7-3.4-8.4-3.4c-3.7,0-6.5,1.1-8.4,3.4
		C324.1,122.4,323.2,125.8,323.2,130.3z"/>
	<path fill="#FFFFFF" d="M358.4,130.3c0-3.2,0.4-6.1,1.3-8.6s2.1-4.7,3.8-6.6c1.7-1.8,3.7-3.2,6-4.2s5.1-1.4,8-1.4
		c3,0,5.7,0.5,8,1.4s4.4,2.3,6,4.2c1.7,1.8,2.9,4,3.8,6.6c0.9,2.6,1.3,5.4,1.3,8.6s-0.4,6.1-1.3,8.6c-0.9,2.6-2.1,4.7-3.8,6.6
		c-1.7,1.8-3.7,3.2-6,4.2c-2.4,1-5.1,1.4-8,1.4c-3,0-5.7-0.5-8-1.4c-2.4-1-4.4-2.3-6-4.2c-1.7-1.8-2.9-4-3.8-6.6
		C358.8,136.4,358.4,133.5,358.4,130.3z M366.4,130.3c0,4.5,0.9,7.9,2.8,10.2c1.9,2.3,4.7,3.4,8.4,3.4c3.7,0,6.5-1.1,8.4-3.4
		c1.9-2.3,2.8-5.7,2.8-10.2s-0.9-7.9-2.8-10.2c-1.9-2.3-4.7-3.4-8.4-3.4c-3.7,0-6.5,1.1-8.4,3.4
		C367.3,122.4,366.4,125.8,366.4,130.3z"/>
	<path fill="#FFFFFF" d="M436,150.3h-3.2l-1.6-0.8l-12-15.2h-0.8l-5.6,5.6l-0.8,1.6v8l-0.8,0.8h-6.4l-0.8-0.8V95.1l0.8-0.8h6.4
		l0.8,0.8v34.4h0.8l18.4-18.4l1.6-0.8h2.4l0.8,0.8v5.6l-11.2,11.2v0.8l12,15.2v5.6L436,150.3z"/>
	<path fill="#FFFFFF" d="M476,150.3h-5.6l-0.8-0.8l-0.8-3.2H468c-0.6,0.9-1.4,1.7-2.4,2.4c-0.8,0.6-1.8,1.1-3,1.6
		c-1.2,0.5-2.6,0.8-4.2,0.8c-2.8,0-5.2-0.5-7.1-1.4c-1.9-0.9-3.5-2.2-4.7-3.7c-1.2-1.5-2.1-3.3-2.6-5.4c-0.5-2-0.8-4.1-0.8-6.3
		v-23.2l0.8-0.8h6.4l0.8,0.8v23.2c0,1.2,0.1,2.4,0.4,3.6c0.2,1.1,0.7,2.2,1.2,3c0.6,0.9,1.4,1.6,2.4,2.2c1,0.6,2.4,0.8,4,0.8
		c2.8,0,5.1-1.1,6.9-3.2c1.8-2.1,2.7-5.6,2.7-10.4v-19.2l0.8-0.8h6.4l0.8,0.8v38.4L476,150.3z"/>
</g>
</svg>
