<?xml version="1.0" encoding="utf-8"?>
<!-- Generator: Adobe Illustrator 19.0.1, SVG Export Plug-In . SVG Version: 6.00 Build 0)  -->
<!DOCTYPE svg PUBLIC "-//W3C//DTD SVG 1.1//EN" "http://www.w3.org/Graphics/SVG/1.1/DTD/svg11.dtd">
<svg version="1.1" id="Vrstva_1" xmlns="http://www.w3.org/2000/svg" xmlns:xlink="http://www.w3.org/1999/xlink" x="0px" y="0px"
	 viewBox="-439 315 400 171" enable-background="new -439 315 400 171" xml:space="preserve">
<g>
	<path fill="#FFFFFF" d="M-327.2,381.2l-0.7,0.7h-6.6l-0.7-0.7l-16.8-44.5v-5.1l0.7-0.7h4.4l0.7,0.7l14.6,40.2h0.7l14.6-40.2
		l0.7-0.7h4.4l0.7,0.7v5.1L-327.2,381.2z"/>
	<path fill="#FFFFFF" d="M-292.1,382.6c-2.9,0-5.5-0.5-7.7-1.4c-2.2-0.9-4-2.3-5.5-3.9c-1.5-1.7-2.6-3.7-3.3-6
		c-0.7-2.3-1.1-4.9-1.1-7.6c0-2.5,0.3-5,1-7.3c0.7-2.3,1.7-4.3,3-6.1c1.4-1.7,3.1-3.1,5.2-4.1c2.1-1,4.6-1.5,7.6-1.5
		c2.9,0,5.4,0.5,7.6,1.5c2.1,1,3.9,2.4,5.2,4.1c1.4,1.7,2.4,3.7,3,6.1c0.7,2.3,1,4.7,1,7.3v2.2l-0.7,0.7h-24.1l-0.7,0.7
		c0,0.4,0.1,1.1,0.3,2c0.2,0.9,0.6,1.9,1.2,2.9c0.6,1,1.6,1.9,2.8,2.7c1.3,0.8,3,1.2,5.2,1.2c1.5,0,2.8-0.3,4.2-0.8
		c1.3-0.5,2.4-1.7,3.1-3.6l0.7-0.7h5.8l0.7,0.7c-0.2,1.5-0.7,2.8-1.4,4.2c-0.7,1.3-1.7,2.5-2.9,3.5c-1.2,1-2.7,1.8-4.4,2.4
		C-288,382.3-289.9,382.6-292.1,382.6z M-284.1,360c0-0.5-0.1-1.3-0.3-2.3c-0.2-1-0.5-2-1.1-2.9c-0.6-0.9-1.5-1.8-2.6-2.5
		c-1.2-0.7-2.8-1.1-4.7-1.1c-2,0-3.6,0.4-4.7,1.1c-1.2,0.7-2,1.5-2.6,2.5c-0.6,0.9-1,1.9-1.1,2.9c-0.2,1-0.3,1.8-0.3,2.3l0.7,0.7
		h16.1L-284.1,360z"/>
	<path fill="#FFFFFF" d="M-238.8,381.9h-5.8l-0.7-0.7V360c0-0.9-0.1-1.9-0.2-2.9c-0.1-1-0.5-2-1-2.8s-1.2-1.6-2.2-2.2
		c-0.9-0.6-2.3-0.8-3.9-0.8c-3.4,0-5.8,1-7.3,2.9c-1.5,1.9-2.2,5.1-2.2,9.5v17.5l-0.7,0.7h-5.8l-0.7-0.7v-35l0.7-0.7h5.1l0.7,0.7
		l0.7,2.9h0.7c0.7-0.8,1.4-1.6,2.3-2.2c0.8-0.5,1.8-1,3-1.5c1.2-0.5,2.6-0.7,4.3-0.7c2.5,0,4.7,0.4,6.5,1.2c1.8,0.8,3.2,1.8,4.3,3.2
		c1.1,1.4,1.9,3,2.4,4.9c0.5,1.9,0.7,3.9,0.7,6.1v21.2L-238.8,381.9z"/>
	<path fill="#FFFFFF" d="M-199.4,381.9h-5.1l-0.7-0.7l-0.7-2.9h-0.7c-0.7,0.8-1.4,1.6-2.3,2.2c-0.8,0.5-1.8,1-3,1.5
		c-1.2,0.5-2.6,0.7-4.3,0.7c-2.6,0-4.9-0.5-6.8-1.4c-2-0.9-3.7-2.3-5-3.9c-1.4-1.7-2.4-3.7-3.1-6c-0.7-2.3-1.1-4.9-1.1-7.6
		c0-2.7,0.4-5.3,1.1-7.6c0.7-2.3,1.8-4.3,3.1-6c1.4-1.7,3.1-3,5-3.9c2-0.9,4.2-1.4,6.8-1.4c1.7,0,3.1,0.2,4.3,0.7
		c1.2,0.5,2.2,1,3,1.5c0.8,0.6,1.6,1.4,2.3,2.2h0.7v-17.5l0.7-0.7h5.8l0.7,0.7v49.6L-199.4,381.9z M-206,363.6
		c0-4.4-0.9-7.5-2.6-9.5c-1.7-1.9-4-2.9-6.9-2.9c-2.9,0-5.2,1-6.9,3.1c-1.7,2.1-2.6,5.2-2.6,9.3s0.9,7.2,2.6,9.3
		c1.7,2.1,4,3.1,6.9,3.1c2.9,0,5.2-1,6.9-2.9C-206.8,371.2-206,368-206,363.6z"/>
	<path fill="#FFFFFF" d="M-192.1,363.6c0-2.9,0.4-5.5,1.2-7.9s2-4.3,3.5-6c1.5-1.7,3.3-2.9,5.5-3.8c2.2-0.9,4.6-1.3,7.3-1.3
		c2.7,0,5.2,0.4,7.3,1.3c2.2,0.9,4,2.1,5.5,3.8c1.5,1.7,2.7,3.7,3.5,6s1.2,5,1.2,7.9s-0.4,5.5-1.2,7.9s-2,4.3-3.5,6
		c-1.5,1.7-3.3,2.9-5.5,3.8c-2.2,0.9-4.6,1.3-7.3,1.3c-2.7,0-5.2-0.4-7.3-1.3c-2.2-0.9-4-2.1-5.5-3.8c-1.5-1.7-2.7-3.7-3.5-6
		S-192.1,366.6-192.1,363.6z M-184.8,363.6c0,4.1,0.9,7.2,2.6,9.3s4.3,3.1,7.6,3.1s5.9-1,7.6-3.1c1.7-2.1,2.6-5.2,2.6-9.3
		s-0.9-7.2-2.6-9.3c-1.7-2.1-4.3-3.1-7.6-3.1s-5.9,1-7.6,3.1C-184,356.5-184.8,359.5-184.8,363.6z"/>
	<path fill="#FFFFFF" d="M-130.1,352h-3.7c-1.5,0-2.8,0.2-3.9,0.5c-1.2,0.3-2.2,0.9-3,1.7c-0.8,0.8-1.5,1.9-1.9,3.4
		c-0.4,1.4-0.7,3.2-0.7,5.4v18.2l-0.7,0.7h-5.8l-0.7-0.7v-35l0.7-0.7h5.1l0.7,0.7l0.7,2.9h0.7c0.5-0.5,1.1-1,1.7-1.5
		c0.6-0.5,1.2-0.9,2-1.2c0.7-0.3,1.6-0.6,2.5-0.7c0.9-0.2,2.1-0.3,3.3-0.3h2.9l0.7,0.7v5.1L-130.1,352z"/>
	<path fill="#FFFFFF" d="M-398.7,425h-3.6c-1.5,0-2.8,0.2-3.9,0.5s-2.2,0.9-3,1.7c-0.8,0.8-1.5,1.9-1.9,3.4
		c-0.4,1.4-0.7,3.2-0.7,5.4v18.2l-0.7,0.7h-5.8l-0.7-0.7v-35l0.7-0.7h5.1l0.7,0.7l0.7,2.9h0.7c0.5-0.5,1.1-1,1.7-1.5
		c0.6-0.5,1.2-0.9,2-1.2c0.7-0.3,1.6-0.6,2.5-0.7c0.9-0.2,2.1-0.3,3.3-0.3h2.9l0.7,0.7v5.1L-398.7,425z"/>
	<path fill="#FFFFFF" d="M-379,455.6c-2.9,0-5.5-0.5-7.7-1.4s-4-2.3-5.5-3.9c-1.5-1.7-2.6-3.7-3.3-6s-1.1-4.9-1.1-7.6
		c0-2.5,0.3-5,1-7.3c0.7-2.3,1.7-4.3,3-6.1c1.4-1.7,3.1-3.1,5.2-4.1c2.1-1,4.6-1.5,7.6-1.5s5.4,0.5,7.6,1.5c2.1,1,3.9,2.4,5.2,4.1
		c1.4,1.7,2.4,3.7,3,6.1c0.7,2.3,1,4.7,1,7.3v2.2l-0.7,0.7h-24.1l-0.7,0.7c0,0.4,0.1,1.1,0.3,2c0.2,0.9,0.6,1.9,1.2,2.9
		c0.6,1,1.6,1.9,2.8,2.7c1.3,0.8,3,1.2,5.2,1.2c1.5,0,2.8-0.3,4.2-0.8c1.3-0.5,2.4-1.7,3.1-3.6l0.7-0.7h5.8l0.7,0.7
		c-0.2,1.5-0.7,2.8-1.4,4.2c-0.7,1.3-1.7,2.5-2.9,3.5c-1.2,1-2.7,1.8-4.4,2.4C-374.8,455.3-376.8,455.6-379,455.6z M-371,433
		c0-0.5-0.1-1.3-0.3-2.3c-0.2-1-0.5-2-1.1-2.9c-0.6-0.9-1.5-1.8-2.6-2.5c-1.2-0.7-2.8-1.1-4.7-1.1c-2,0-3.6,0.4-4.7,1.1
		c-1.2,0.7-2,1.5-2.6,2.5c-0.6,0.9-1,1.9-1.1,2.9c-0.2,1-0.3,1.8-0.3,2.3l0.7,0.7h16.1L-371,433z"/>
	<path fill="#FFFFFF" d="M-341.8,463.6c3.4,0,5.8-1,7.3-3.1c1.5-2.1,2.2-5.2,2.2-9.3h-0.7c-0.7,0.8-1.4,1.6-2.3,2.2
		c-0.8,0.5-1.8,1-3,1.5c-1.2,0.5-2.6,0.7-4.3,0.7c-2.6,0-4.9-0.5-6.8-1.4c-2-0.9-3.7-2.3-5-3.9c-1.4-1.7-2.4-3.7-3.1-6
		c-0.7-2.3-1.1-4.9-1.1-7.6c0-2.7,0.4-5.3,1.1-7.6c0.7-2.3,1.8-4.3,3.1-6c1.4-1.7,3.1-3,5-3.9c2-0.9,4.2-1.4,6.8-1.4
		c1.7,0,3.1,0.2,4.3,0.7c1.2,0.5,2.2,1,3,1.5c0.8,0.6,1.6,1.4,2.3,2.2h0.7l0.7-2.9l0.7-0.7h5.1l0.7,0.7v31.4c0,3.6-0.5,6.7-1.4,9.2
		c-0.9,2.5-2.2,4.5-3.7,6.1c-1.6,1.6-3.3,2.7-5.4,3.4c-2,0.7-4.1,1-6.3,1c-4.4,0-7.9-1-10.3-2.9c-2.5-1.9-3.9-4.4-4.3-7.3l0.7-0.7
		h5.8l0.7,0.7c0.7,1.5,1.7,2.4,2.8,2.9C-345.1,463.4-343.6,463.6-341.8,463.6z M-332.3,436.6c0-4.4-0.9-7.5-2.6-9.5
		c-1.7-1.9-4-2.9-6.9-2.9c-2.9,0-5.2,1-6.9,3.1c-1.7,2.1-2.6,5.2-2.6,9.3s0.9,7.2,2.6,9.3c1.7,2.1,4,3.1,6.9,3.1
		c2.9,0,5.2-1,6.9-2.9C-333.1,444.2-332.3,441-332.3,436.6z"/>
	<path fill="#FFFFFF" d="M-309.6,412.5h-5.8l-0.7-0.7V406l0.7-0.7h5.8l0.7,0.7v5.8L-309.6,412.5z M-309.6,454.9h-5.8l-0.7-0.7v-35
		l0.7-0.7h5.8l0.7,0.7v35L-309.6,454.9z"/>
	<path fill="#FFFFFF" d="M-273.1,444.7c0,1.5-0.3,2.8-0.8,4.2c-0.6,1.3-1.4,2.5-2.6,3.5c-1.2,1-2.7,1.8-4.6,2.4
		c-1.9,0.6-4,0.9-6.6,0.9c-4.8,0-8.5-1-10.9-3.1c-2.5-2.1-3.7-5.2-3.7-9.3l0.7-0.7h5.8l0.7,0.7c0,1.8,0.6,3.3,1.7,4.3
		c1.1,1,3,1.5,5.6,1.5s4.5-0.4,5.6-1.1c1.1-0.7,1.7-1.8,1.7-3.3c0-0.9-0.2-1.7-0.5-2.3s-0.8-1.1-1.6-1.5c-0.7-0.4-1.7-0.8-2.9-1.1
		c-1.2-0.3-2.7-0.6-4.5-1c-3.6-0.7-6.5-1.9-8.6-3.5c-2.1-1.7-3.1-4.1-3.1-7.4c0-1.3,0.2-2.5,0.7-3.8c0.5-1.2,1.3-2.3,2.4-3.3
		s2.5-1.7,4.3-2.3c1.8-0.6,3.9-0.9,6.5-0.9c2,0,3.8,0.2,5.5,0.7c1.7,0.5,3.2,1.1,4.4,2c1.2,0.9,2.2,2,2.9,3.4s1,3,1,4.8l-0.7,0.7
		h-5.8l-0.7-0.7c0-0.5-0.1-1.1-0.3-1.6c-0.2-0.5-0.5-1-1.1-1.4c-0.5-0.4-1.2-0.7-2-1c-0.9-0.2-1.9-0.4-3.2-0.4
		c-1.9,0-3.4,0.2-4.7,0.7c-1.3,0.5-1.9,1.5-1.9,2.9c0,0.9,0.2,1.7,0.5,2.3s1,1.1,1.8,1.5c0.8,0.4,1.9,0.8,3.2,1.1
		c1.3,0.3,2.9,0.6,4.7,1c3.6,0.7,6.4,1.9,8.2,3.5C-274.1,438.9-273.1,441.4-273.1,444.7z"/>
	<path fill="#FFFFFF" d="M-246.9,454.9h-5.8c-1.3,0-2.5-0.2-3.8-0.5c-1.2-0.4-2.3-0.9-3.3-1.7c-0.9-0.8-1.7-1.8-2.3-3
		c-0.6-1.2-0.9-2.6-0.9-4.3v-19.7l-0.7-0.7h-5.1l-0.7-0.7v-5.1l0.7-0.7h5.1l0.7-0.7v-6.6l0.7-0.7h5.8l0.7,0.7v6.6l0.7,0.7h8l0.7,0.7
		v5.1l-0.7,0.7h-8l-0.7,0.7v19.7c0,1.1,0.3,1.9,0.9,2.3c0.6,0.4,1.3,0.6,2,0.6h5.8l0.7,0.7v5.1L-246.9,454.9z"/>
	<path fill="#FFFFFF" d="M-218.4,425h-3.7c-1.5,0-2.8,0.2-3.9,0.5c-1.2,0.3-2.2,0.9-3,1.7c-0.8,0.8-1.5,1.9-1.9,3.4
		c-0.4,1.4-0.7,3.2-0.7,5.4v18.2l-0.7,0.7h-5.8l-0.7-0.7v-35l0.7-0.7h5.1l0.7,0.7l0.7,2.9h0.7c0.5-0.5,1.1-1,1.7-1.5
		c0.6-0.5,1.2-0.9,2-1.2c0.7-0.3,1.6-0.6,2.5-0.7c0.9-0.2,2.1-0.3,3.3-0.3h2.9l0.7,0.7v5.1L-218.4,425z"/>
	<path fill="#FFFFFF" d="M-185.5,454.9h-5.1l-0.7-0.7l-0.7-2.9h-0.7c-0.7,0.8-1.5,1.6-2.4,2.2c-0.8,0.5-1.9,1-3.1,1.5
		c-1.3,0.5-2.8,0.7-4.7,0.7c-4.1,0-7.2-1-9.3-3.1c-2.1-2.1-3.1-4.9-3.1-8.6c0-2,0.4-3.7,1.2-5.2c0.8-1.5,1.9-2.7,3.3-3.6
		c1.4-0.9,3.1-1.7,5.1-2.1c2-0.5,4.1-0.7,6.5-0.7c0.9,0,1.8,0,2.6,0.1c0.8,0.1,1.5,0.2,2.1,0.3c0.3,0.1,0.7,0.2,1,0.2
		c0.3,0,0.6,0.1,0.9,0.1l0.7-0.7v-1.5c0-2.6-0.6-4.3-1.7-5.2c-1.1-0.9-3-1.4-5.6-1.4c-2.6,0-4.5,0.4-5.6,1.1
		c-1.1,0.7-1.7,1.8-1.7,3.3l-0.7,0.7h-5.8l-0.7-0.7c0-1.3,0.2-2.6,0.7-3.9c0.5-1.3,1.3-2.5,2.4-3.5c1.1-1,2.7-1.9,4.5-2.6
		c1.9-0.7,4.2-1,6.9-1c2.7,0,5,0.3,6.9,1c1.9,0.7,3.4,1.6,4.5,3c1.1,1.3,2,3,2.4,5c0.5,2,0.7,4.4,0.7,7.1v20.4L-185.5,454.9z
		 M-192.1,439.6l-0.7-0.7l-1.5-0.4c-0.5-0.1-1.2-0.2-1.9-0.3c-0.7-0.1-1.5-0.1-2.4-0.1c-3.4,0-5.8,0.5-7.3,1.5
		c-1.5,1-2.2,2.5-2.2,4.3c0,1.9,0.5,3.2,1.6,3.9c1.1,0.8,2.7,1.2,4.9,1.2c2.9,0,5.2-0.7,6.9-2c1.7-1.3,2.6-3.1,2.6-5.3V439.6z"/>
	<path fill="#FFFFFF" d="M-157.1,454.9h-5.8c-1.3,0-2.5-0.2-3.8-0.5c-1.2-0.4-2.3-0.9-3.3-1.7c-0.9-0.8-1.7-1.8-2.3-3
		c-0.6-1.2-0.9-2.6-0.9-4.3v-19.7l-0.7-0.7h-5.1l-0.7-0.7v-5.1l0.7-0.7h5.1l0.7-0.7v-6.6l0.7-0.7h5.8l0.7,0.7v6.6l0.7,0.7h8l0.7,0.7
		v5.1l-0.7,0.7h-8l-0.7,0.7v19.7c0,1.1,0.3,1.9,0.9,2.3c0.6,0.4,1.3,0.6,2,0.6h5.8l0.7,0.7v5.1L-157.1,454.9z"/>
	<path fill="#FFFFFF" d="M-142.5,412.5h-5.8l-0.7-0.7V406l0.7-0.7h5.8l0.7,0.7v5.8L-142.5,412.5z M-142.5,454.9h-5.8l-0.7-0.7v-35
		l0.7-0.7h5.8l0.7,0.7v35L-142.5,454.9z"/>
	<path fill="#FFFFFF" d="M-135.2,436.6c0-2.9,0.4-5.5,1.2-7.9s2-4.3,3.5-6c1.5-1.7,3.3-2.9,5.5-3.8c2.2-0.9,4.6-1.3,7.3-1.3
		c2.7,0,5.2,0.4,7.3,1.3c2.2,0.9,4,2.1,5.5,3.8c1.5,1.7,2.7,3.7,3.5,6s1.2,5,1.2,7.9s-0.4,5.5-1.2,7.9s-2,4.3-3.5,6
		c-1.5,1.7-3.3,2.9-5.5,3.8c-2.2,0.9-4.6,1.3-7.3,1.3c-2.7,0-5.2-0.4-7.3-1.3c-2.2-0.9-4-2.1-5.5-3.8c-1.5-1.7-2.7-3.7-3.5-6
		S-135.2,439.6-135.2,436.6z M-127.9,436.6c0,4.1,0.9,7.2,2.6,9.3s4.3,3.1,7.6,3.1s5.9-1,7.6-3.1c1.7-2.1,2.6-5.2,2.6-9.3
		s-0.9-7.2-2.6-9.3c-1.7-2.1-4.3-3.1-7.6-3.1s-5.9,1-7.6,3.1C-127,429.5-127.9,432.5-127.9,436.6z"/>
	<path fill="#FFFFFF" d="M-62.9,454.9h-5.8l-0.7-0.7V433c0-0.9-0.1-1.9-0.2-2.9c-0.1-1-0.5-2-1-2.8s-1.2-1.6-2.2-2.2
		c-0.9-0.6-2.3-0.8-3.9-0.8c-3.4,0-5.8,1-7.3,2.9c-1.5,1.9-2.2,5.1-2.2,9.5v17.5l-0.7,0.7h-5.8l-0.7-0.7v-35l0.7-0.7h5.1l0.7,0.7
		l0.7,2.9h0.7c0.7-0.8,1.4-1.6,2.3-2.2c0.8-0.5,1.8-1,3-1.5c1.2-0.5,2.6-0.7,4.3-0.7c2.5,0,4.7,0.4,6.5,1.2c1.8,0.8,3.2,1.8,4.3,3.2
		c1.1,1.4,1.9,3,2.4,4.9c0.5,1.9,0.7,3.9,0.7,6.1v21.2L-62.9,454.9z"/>
</g>
</svg>
