<?xml version="1.0" encoding="utf-8"?>
<!-- Generator: Adobe Illustrator 19.0.1, SVG Export Plug-In . SVG Version: 6.00 Build 0)  -->
<!DOCTYPE svg PUBLIC "-//W3C//DTD SVG 1.1//EN" "http://www.w3.org/Graphics/SVG/1.1/DTD/svg11.dtd">
<svg version="1.1" id="Vrstva_1" xmlns="http://www.w3.org/2000/svg" xmlns:xlink="http://www.w3.org/1999/xlink" x="0px" y="0px"
	 viewBox="0 0 736 56" enable-background="new 0 0 736 56" xml:space="preserve">
<g>
	<path fill="#FFFFFF" d="M44,55.2L43.2,56H36l-0.8-0.8l-8-28h-0.8l-8,28L17.6,56h-7.2l-0.8-0.8L0,22.4v-5.6L0.8,16h4.8l0.8,0.8
		L13.6,44h0.8l8-27.2l0.8-0.8h7.2l0.8,0.8l8,27.2H40l7.2-27.2L48,16h4.8l0.8,0.8v5.6L44,55.2z"/>
	<path fill="#FFFFFF" d="M104,55.2l-0.8,0.8H96l-0.8-0.8l-8-28h-0.8l-8,28L77.6,56h-7.2l-0.8-0.8L60,22.4v-5.6l0.8-0.8h4.8l0.8,0.8
		L73.6,44h0.8l8-27.2l0.8-0.8h7.2l0.8,0.8l8,27.2h0.8l7.2-27.2L108,16h4.8l0.8,0.8v5.6L104,55.2z"/>
	<path fill="#FFFFFF" d="M164,55.2l-0.8,0.8H156l-0.8-0.8l-8-28h-0.8l-8,28l-0.8,0.8h-7.2l-0.8-0.8L120,22.4v-5.6l0.8-0.8h4.8
		l0.8,0.8l7.2,27.2h0.8l8-27.2l0.8-0.8h7.2l0.8,0.8l8,27.2h0.8l7.2-27.2L168,16h4.8l0.8,0.8v5.6L164,55.2z"/>
	<path fill="#FFFFFF" d="M186.4,56h-8l-0.8-0.8v-8l0.8-0.8h8l0.8,0.8v8L186.4,56z"/>
	<path fill="#FFFFFF" d="M205.6,9.6h-6.4l-0.8-0.8V2.4l0.8-0.8h6.4l0.8,0.8v6.4L205.6,9.6z M205.6,56h-6.4l-0.8-0.8V16.8l0.8-0.8
		h6.4l0.8,0.8v38.4L205.6,56z"/>
	<path fill="#FFFFFF" d="M249.6,56h-6.4l-0.8-0.8V32c0-1-0.1-2.1-0.2-3.2c-0.2-1.1-0.5-2.2-1.1-3.1c-0.6-1-1.4-1.7-2.4-2.4
		c-1-0.6-2.5-0.9-4.3-0.9c-3.7,0-6.3,1.1-8,3.2c-1.6,2.1-2.4,5.6-2.4,10.4v19.2l-0.8,0.8h-6.4l-0.8-0.8V16.8l0.8-0.8h5.6l0.8,0.8
		L224,20h0.8c0.7-0.9,1.6-1.7,2.5-2.4c0.9-0.6,1.9-1.1,3.2-1.6c1.3-0.5,2.9-0.8,4.7-0.8c2.8,0,5.1,0.4,7.1,1.3
		c1.9,0.9,3.5,2,4.7,3.5c1.2,1.5,2.1,3.3,2.6,5.3c0.5,2.1,0.8,4.3,0.8,6.7v23.2L249.6,56z"/>
	<path fill="#FFFFFF" d="M292.8,56h-5.6l-0.8-0.8l-0.8-3.2h-0.8c-0.7,0.9-1.6,1.7-2.5,2.4c-0.9,0.6-1.9,1.1-3.2,1.6
		c-1.3,0.5-2.9,0.8-4.7,0.8c-2.8,0-5.3-0.5-7.5-1.6c-2.2-1-4-2.5-5.5-4.3c-1.5-1.8-2.7-4-3.4-6.6c-0.8-2.6-1.2-5.3-1.2-8.3
		c0-3,0.4-5.8,1.2-8.3c0.8-2.6,1.9-4.8,3.4-6.6c1.5-1.8,3.4-3.3,5.5-4.3c2.2-1,4.7-1.6,7.5-1.6c1.8,0,3.4,0.3,4.7,0.8
		c1.3,0.5,2.4,1.1,3.2,1.6c0.9,0.7,1.7,1.5,2.5,2.4h0.8V0.8l0.8-0.8h6.4l0.8,0.8v54.4L292.8,56z M285.6,36c0-4.8-0.9-8.3-2.8-10.4
		c-1.9-2.1-4.4-3.2-7.6-3.2c-3.2,0-5.7,1.1-7.6,3.4c-1.9,2.3-2.8,5.7-2.8,10.2s0.9,7.9,2.8,10.2c1.9,2.3,4.4,3.4,7.6,3.4
		c3.2,0,5.7-1.1,7.6-3.2C284.7,44.3,285.6,40.8,285.6,36z"/>
	<path fill="#FFFFFF" d="M335.2,56h-5.6l-0.8-0.8L328,52h-0.8c-0.6,0.9-1.4,1.7-2.4,2.4c-0.8,0.6-1.8,1.1-3,1.6
		c-1.2,0.5-2.6,0.8-4.2,0.8c-2.8,0-5.2-0.5-7.1-1.4c-1.9-0.9-3.5-2.2-4.7-3.7c-1.2-1.5-2.1-3.3-2.6-5.4c-0.5-2-0.8-4.1-0.8-6.3V16.8
		l0.8-0.8h6.4l0.8,0.8V40c0,1.2,0.1,2.4,0.4,3.6c0.2,1.1,0.7,2.2,1.2,3c0.6,0.9,1.4,1.6,2.4,2.2c1,0.6,2.4,0.8,4,0.8
		c2.8,0,5.1-1.1,6.9-3.2c1.8-2.1,2.7-5.6,2.7-10.4V16.8l0.8-0.8h6.4l0.8,0.8v38.4L335.2,56z"/>
	<path fill="#FFFFFF" d="M375.2,44.8c0,1.6-0.3,3.1-0.9,4.6c-0.6,1.4-1.6,2.7-2.9,3.8c-1.3,1.1-3,2-5,2.6c-2,0.6-4.4,1-7.2,1
		c-5.3,0-9.3-1.1-12-3.4c-2.7-2.3-4-5.7-4-10.2l0.8-0.8h6.4l0.8,0.8c0,2,0.6,3.6,1.8,4.7c1.2,1.1,3.3,1.7,6.2,1.7s4.9-0.4,6.2-1.2
		c1.2-0.8,1.8-2,1.8-3.6c0-1-0.2-1.8-0.5-2.5c-0.3-0.6-0.9-1.2-1.7-1.6c-0.8-0.5-1.9-0.8-3.2-1.2c-1.3-0.3-3-0.7-5-1.1
		c-4-0.7-7.1-2-9.4-3.9c-2.3-1.8-3.4-4.5-3.4-8.1c0-1.4,0.3-2.8,0.8-4.1c0.5-1.4,1.4-2.6,2.6-3.6c1.2-1,2.8-1.9,4.7-2.5
		c1.9-0.6,4.3-1,7.1-1c2.2,0,4.2,0.3,6.1,0.8c1.9,0.5,3.5,1.3,4.8,2.2c1.4,1,2.4,2.2,3.2,3.8c0.7,1.5,1.1,3.3,1.1,5.2l-0.8,0.8h-6.4
		l-0.8-0.8c0-0.6-0.1-1.2-0.3-1.8c-0.2-0.6-0.6-1.1-1.2-1.6c-0.6-0.5-1.3-0.8-2.2-1.1c-0.9-0.3-2.1-0.4-3.5-0.4
		c-2,0-3.7,0.3-5.1,0.8c-1.4,0.5-2.1,1.6-2.1,3.2c0,1,0.2,1.8,0.6,2.5c0.4,0.6,1.1,1.2,2,1.6c0.9,0.5,2.1,0.9,3.5,1.2
		c1.4,0.3,3.1,0.7,5.2,1.1c4,0.8,7,2.1,9,3.9C374.2,38.5,375.2,41.2,375.2,44.8z"/>
	<path fill="#FFFFFF" d="M404,56h-6.4c-1.4,0-2.8-0.2-4.1-0.6s-2.6-1-3.6-1.9c-1-0.9-1.9-1.9-2.5-3.2c-0.6-1.3-1-2.9-1-4.7V24
		l-0.8-0.8H380l-0.8-0.8v-5.6L380,16h5.6l0.8-0.8V8l0.8-0.8h6.4l0.8,0.8v7.2l0.8,0.8h8.8l0.8,0.8v5.6l-0.8,0.8h-8.8l-0.8,0.8v21.6
		c0,1.2,0.3,2.1,1,2.5c0.7,0.5,1.4,0.7,2.2,0.7h6.4l0.8,0.8v5.6L404,56z"/>
	<path fill="#FFFFFF" d="M435.2,23.2h-4c-1.6,0-3,0.2-4.3,0.5c-1.3,0.3-2.4,1-3.3,1.9c-0.9,0.9-1.6,2.1-2.1,3.7
		c-0.5,1.5-0.7,3.5-0.7,5.9v20L420,56h-6.4l-0.8-0.8V16.8l0.8-0.8h5.6l0.8,0.8l0.8,3.2h0.8c0.6-0.6,1.2-1.1,1.8-1.6
		c0.6-0.5,1.4-0.9,2.2-1.3c0.8-0.3,1.7-0.6,2.8-0.8c1-0.2,2.3-0.3,3.6-0.3h3.2l0.8,0.8v5.6L435.2,23.2z"/>
	<path fill="#FFFFFF" d="M471.2,56h-5.6l-0.8-0.8L464,52h-0.8c-0.7,0.9-1.6,1.7-2.6,2.4c-0.9,0.6-2.1,1.1-3.4,1.6
		c-1.4,0.5-3.1,0.8-5.1,0.8c-4.5,0-7.9-1.1-10.2-3.4c-2.3-2.3-3.4-5.4-3.4-9.4c0-2.2,0.4-4.1,1.3-5.7c0.9-1.6,2.1-3,3.6-4
		c1.5-1,3.4-1.8,5.6-2.3c2.2-0.5,4.5-0.8,7.2-0.8c1,0,2,0,2.8,0.1c0.9,0.1,1.6,0.2,2.3,0.3c0.4,0.1,0.7,0.2,1.1,0.2
		c0.3,0.1,0.7,0.1,1,0.2l0.8-0.8v-1.6c0-2.8-0.6-4.7-1.9-5.7c-1.3-1-3.3-1.5-6.1-1.5c-2.9,0-4.9,0.4-6.2,1.2c-1.2,0.8-1.8,2-1.8,3.6
		l-0.8,0.8h-6.4l-0.8-0.8c0-1.4,0.3-2.8,0.8-4.2c0.5-1.4,1.4-2.7,2.7-3.9c1.3-1.1,2.9-2.1,5-2.8c2.1-0.7,4.6-1.1,7.6-1.1
		c3,0,5.5,0.4,7.6,1.1c2.1,0.7,3.7,1.8,5,3.2s2.1,3.3,2.7,5.5c0.5,2.2,0.8,4.8,0.8,7.8v22.4L471.2,56z M464,39.2l-0.8-0.8l-1.7-0.4
		c-0.6-0.1-1.3-0.2-2-0.3c-0.8-0.1-1.7-0.1-2.7-0.1c-3.7,0-6.3,0.6-8,1.7c-1.6,1.1-2.4,2.7-2.4,4.7c0,2,0.6,3.5,1.8,4.3
		c1.2,0.9,3,1.3,5.4,1.3c3.2,0,5.7-0.7,7.6-2.2c1.9-1.5,2.8-3.4,2.8-5.8V39.2z"/>
	<path fill="#FFFFFF" d="M517.6,36c0,3-0.4,5.8-1.3,8.3c-0.9,2.6-2.1,4.8-3.6,6.6s-3.4,3.3-5.6,4.3c-2.2,1-4.5,1.6-7.2,1.6
		c-1.8,0-3.4-0.3-4.7-0.8c-1.3-0.5-2.4-1.1-3.2-1.6c-0.9-0.7-1.7-1.5-2.5-2.4h-0.8l-0.8,3.2l-0.8,0.8h-5.6l-0.8-0.8V0.8l0.8-0.8h6.4
		l0.8,0.8V20h0.8c0.7-0.9,1.6-1.7,2.5-2.4c0.9-0.6,1.9-1.1,3.2-1.6c1.3-0.5,2.9-0.8,4.7-0.8c2.6,0,5,0.5,7.2,1.4s4,2.3,5.6,4.2
		c1.5,1.8,2.7,4,3.6,6.6C517.2,29.9,517.6,32.8,517.6,36z M509.6,36c0-4.5-0.9-7.9-2.8-10.2c-1.9-2.3-4.4-3.4-7.6-3.4
		s-5.7,1.1-7.6,3.2c-1.9,2.1-2.8,5.6-2.8,10.4s0.9,8.3,2.8,10.4c1.9,2.1,4.4,3.2,7.6,3.2s5.7-1.1,7.6-3.4
		C508.7,43.9,509.6,40.5,509.6,36z"/>
	<path fill="#FFFFFF" d="M547.2,23.2h-4c-1.6,0-3,0.2-4.3,0.5c-1.3,0.3-2.4,1-3.3,1.9c-0.9,0.9-1.6,2.1-2.1,3.7
		c-0.5,1.5-0.7,3.5-0.7,5.9v20L532,56h-6.4l-0.8-0.8V16.8l0.8-0.8h5.6l0.8,0.8l0.8,3.2h0.8c0.6-0.6,1.2-1.1,1.8-1.6
		c0.6-0.5,1.4-0.9,2.2-1.3c0.8-0.3,1.7-0.6,2.8-0.8c1-0.2,2.3-0.3,3.6-0.3h3.2l0.8,0.8v5.6L547.2,23.2z"/>
	<path fill="#FFFFFF" d="M588,56h-6.4l-0.8-0.8V32c0-1-0.1-2.1-0.2-3.2c-0.2-1.1-0.5-2.2-1.1-3.1c-0.6-1-1.4-1.7-2.4-2.4
		c-1-0.6-2.5-0.9-4.3-0.9c-3.7,0-6.3,1.1-8,3.2c-1.6,2.1-2.4,5.6-2.4,10.4v19.2l-0.8,0.8h-6.4l-0.8-0.8V16.8l0.8-0.8h5.6l0.8,0.8
		l0.8,3.2h0.8c0.7-0.9,1.6-1.7,2.5-2.4c0.9-0.6,1.9-1.1,3.2-1.6c1.3-0.5,2.9-0.8,4.7-0.8c2.8,0,5.1,0.4,7.1,1.3
		c1.9,0.9,3.5,2,4.7,3.5c1.2,1.5,2.1,3.3,2.6,5.3c0.5,2.1,0.8,4.3,0.8,6.7v23.2L588,56z"/>
	<path fill="#FFFFFF" d="M595.2,36c0-3.2,0.4-6.1,1.3-8.6s2.1-4.7,3.8-6.6c1.7-1.8,3.7-3.2,6-4.2s5.1-1.4,8-1.4c3,0,5.7,0.5,8,1.4
		s4.4,2.3,6,4.2c1.7,1.8,2.9,4,3.8,6.6c0.9,2.6,1.3,5.4,1.3,8.6s-0.4,6.1-1.3,8.6c-0.9,2.6-2.1,4.7-3.8,6.6c-1.7,1.8-3.7,3.2-6,4.2
		c-2.4,1-5.1,1.4-8,1.4c-3,0-5.7-0.5-8-1.4c-2.4-1-4.4-2.3-6-4.2c-1.7-1.8-2.9-4-3.8-6.6S595.2,39.2,595.2,36z M603.2,36
		c0,4.5,0.9,7.9,2.8,10.2c1.9,2.3,4.7,3.4,8.4,3.4c3.7,0,6.5-1.1,8.4-3.4c1.9-2.3,2.8-5.7,2.8-10.2s-0.9-7.9-2.8-10.2
		c-1.9-2.3-4.7-3.4-8.4-3.4c-3.7,0-6.5,1.1-8.4,3.4C604.1,28.1,603.2,31.5,603.2,36z"/>
	<path fill="#FFFFFF" d="M651.2,56h-8l-0.8-0.8v-8l0.8-0.8h8l0.8,0.8v8L651.2,56z"/>
	<path fill="#FFFFFF" d="M668.8,36c0,4.5,0.9,7.9,2.8,10.2c1.9,2.3,4.7,3.4,8.4,3.4c1.6,0,3-0.2,4.1-0.6c1.1-0.4,2.1-0.9,2.8-1.4
		c0.7-0.6,1.3-1.3,1.8-2c0.4-0.8,0.7-1.6,1-2.4l0.8-0.8h6.4l0.8,0.8c-0.2,1.8-0.7,3.5-1.5,5.2c-0.8,1.6-1.9,3.1-3.4,4.3
		c-1.4,1.3-3.2,2.3-5.3,3c-2.1,0.7-4.6,1.1-7.4,1.1c-3,0-5.7-0.5-8-1.4c-2.4-1-4.4-2.3-6-4.2c-1.7-1.8-2.9-4-3.8-6.6
		s-1.3-5.4-1.3-8.6s0.4-6.1,1.3-8.6s2.1-4.7,3.8-6.6c1.7-1.8,3.7-3.2,6-4.2s5.1-1.4,8-1.4c2.8,0,5.3,0.4,7.4,1.1
		c2.1,0.7,3.9,1.7,5.3,3c1.4,1.3,2.6,2.7,3.4,4.3c0.8,1.6,1.3,3.3,1.5,5.2l-0.8,0.8h-6.4l-0.8-0.8c-0.2-0.8-0.5-1.6-1-2.4
		c-0.4-0.8-1-1.5-1.8-2c-0.7-0.6-1.7-1.1-2.8-1.4c-1.1-0.4-2.5-0.6-4.1-0.6c-3.7,0-6.5,1.1-8.4,3.4C669.7,28.1,668.8,31.5,668.8,36z
		"/>
	<path fill="#FFFFFF" d="M736,56h-32l-0.8-0.8v-6.4l0.8-1.6L725.6,24v-0.8h-20.8l-0.8-0.8v-5.6l0.8-0.8h30.4l0.8,0.8v6.4l-0.8,1.6
		L713.6,48v0.8H736l0.8,0.8v5.6L736,56z"/>
</g>
</svg>
